<?xml version="1.0" encoding="UTF-8" standalone="no"?>
<svg width="47px" height="37px" viewBox="0 0 47 37" version="1.1" xmlns="http://www.w3.org/2000/svg" xmlns:xlink="http://www.w3.org/1999/xlink">
    <!-- Generator: Sketch 49.3 (51167) - http://www.bohemiancoding.com/sketch -->
    <title>Page 1</title>
    <desc>Created with Sketch.</desc>
    <defs></defs>
    <g id="Typography" stroke="none" stroke-width="1" fill="none" fill-rule="evenodd">
        <g id="Canada-Styles" transform="translate(-91.000000, -1335.000000)" fill="#A4044A">
            <g id="Page-1" transform="translate(91.000000, 1335.000000)">
                <path d="M20.5732,36.7803 L0.0002,36.7803 L0.0002,20.0723 C0.0002,16.4583 0.0002,12.3433 1.4972,9.1003 C5.1112,0.3723 14.5882,0.1233 20.5732,0.0003 L20.5732,5.9833 C11.9692,6.9813 10.2232,10.0983 10.2232,19.0753 L20.5732,19.0753 L20.5732,36.7803 Z" id="Fill-1"></path>
                <path d="M47,36.9053 L26.427,36.9053 L26.427,20.1983 C26.427,16.5823 26.427,12.4673 27.799,9.1003 C31.539,0.4983 41.015,0.2483 47,0.1243 L47,6.1083 C38.646,6.9813 36.651,10.0973 36.651,19.0753 L47,19.0753 L47,36.9053 Z" id="Fill-3"></path>
            </g>
        </g>
    </g>
</svg>
