<?xml version="1.0" encoding="UTF-8" standalone="no"?>
<svg width="165px" height="20px" viewBox="0 0 165 20" version="1.1" xmlns="http://www.w3.org/2000/svg" xmlns:xlink="http://www.w3.org/1999/xlink">
    <!-- Generator: Sketch 50.2 (55047) - http://www.bohemiancoding.com/sketch -->
    <title>broadsheets/branding/edmonton journal/horizontal wordmark/coloured</title>
    <desc>Created with Sketch.</desc>
    <defs></defs>
    <g id="broadsheets/branding/edmonton-journal/horizontal-wordmark/coloured" stroke="none" stroke-width="1" fill="none" fill-rule="evenodd">
        <g id="Group-2" fill="#CF612D">
            <path d="M57.564041,14.3499233 C57.2895196,14.0809133 57.2299536,13.9822144 57.1407896,13.8345372 C57.121181,13.8029981 57.1004624,13.7692327 57.076784,13.7313857 L57.0778939,13.7295305 L57.0686445,13.7161728 L57.0686445,6.0736902 C57.0708644,6.00801464 57.1252507,4.47744026 58.5655634,4.47744026 L58.6206897,4.47744026 L58.6206897,4.14201257 L54.7799791,4.14201257 L54.7799791,4.4807797 L54.8277059,4.48671647 C54.8447248,4.48820066 56.5081324,4.69005096 56.5081324,6.10856874 L56.5081324,12.9321476 L56.4737247,12.8842824 C55.0363718,10.8735715 50.3095711,4.14201257 50.3095711,4.14201257 L46.9686969,4.13793103 L46.9686969,4.48745857 L47.0145738,4.49450848 C47.0319626,4.49710582 48.7083193,4.76760006 48.6942603,6.37832088 L48.6942603,13.7573591 C48.6942603,13.7692327 48.6890806,14.9113194 48.0527236,15.5506357 C47.7682128,15.836714 47.3967579,15.9817939 46.950938,15.9817939 L46.8965517,15.9817939 L46.8965517,16.3539554 L50.8700833,16.3539554 L50.8700833,15.9780834 L50.8168069,15.9773413 C49.1622787,15.9483995 49.1522893,14.2812794 49.1530293,14.2100381 L49.1530293,6.18723099 L56.4374672,16.3598921 L56.4496763,16.374363 C56.5110922,16.450799 56.6065457,16.5517241 56.7193881,16.5517241 C56.8625684,16.5517241 56.9543222,16.3958838 56.9591319,16.3899471 L56.9643116,16.3762183 C57.1755673,15.5643645 57.5244537,15.1328353 57.5274135,15.1287538 C57.7327496,14.8820066 57.7434789,14.7795973 57.742739,14.7706921 C57.7834362,14.5335922 57.5692207,14.3543759 57.564041,14.3499233" id="Fill-1"></path>
            <path d="M87.194021,4.14201257 L87.194021,4.4807797 L87.2421193,4.48634542 C87.2587687,4.48782961 88.9225988,4.68967991 88.9225988,6.10819769 L88.9225988,12.9317766 L88.88782,12.8839113 C87.4500518,10.8732004 82.723102,4.14201257 82.723102,4.14201257 L79.3817523,4.13793103 L79.3817523,4.48708752 L79.4280006,4.49413744 C79.44502,4.49673477 81.1229096,4.76722901 81.1077401,6.37794983 L81.1077401,13.7573591 C81.1077401,13.7684906 81.1025603,14.9109484 80.4658132,15.5506357 C80.1820334,15.8363429 79.8109368,15.9817939 79.3651029,15.9817939 L79.3103448,15.9817939 L79.3103448,16.3535843 L83.2840018,16.3535843 L83.2840018,15.9777124 L83.2310937,15.9769703 C81.5761433,15.9480285 81.5668936,14.2809083 81.5668936,14.209667 L81.5668936,6.18723099 L88.8515613,16.3595211 L88.8630309,16.3732499 C88.8985497,16.4174046 89.0062158,16.5517241 89.1338612,16.5517241 C89.278156,16.5517241 89.3691727,16.3958838 89.3728726,16.3888339 L89.3784224,16.3758472 C89.5911647,15.5639935 89.9385822,15.1324643 89.9415421,15.1287538 C90.1472547,14.8823777 90.1587243,14.7792262 90.1576143,14.769579 C90.1979429,14.5332212 89.9837206,14.3536338 89.9774308,14.3499233 C89.7051206,14.0805422 89.6418529,13.9770197 89.554536,13.8341661 C89.5364067,13.802627 89.5156874,13.7688616 89.4916383,13.7310147 L89.4916383,13.7291595 L89.4831286,13.7169149 L89.4831286,6.07331915 C89.4846086,6.0076436 89.5378866,4.47669816 90.9793547,4.47669816 L91.0344828,4.47669816 L91.0344828,4.14201257 L87.194021,4.14201257" id="Fill-2"></path>
            <path d="M23.4482759,10.459343 C23.4482759,5.04504372 18.395209,4.82865743 18.3436546,4.82758621 L12.4137931,4.82758621 L12.4145349,5.16502028 L12.4709109,5.16287784 C12.4720235,5.16216369 12.4820377,5.16180662 12.4987279,5.16180662 C12.7379549,5.16180662 13.9292681,5.23572075 13.9292681,6.69686385 L13.9292681,14.6820894 C13.9292681,16.1428754 12.7379549,16.2167896 12.4987279,16.2167896 C12.4820377,16.2167896 12.4720235,16.2164325 12.4720235,16.2164325 L12.4137931,16.213933 L12.4137931,16.5517241 L18.3447673,16.5517241 C18.395209,16.5499388 23.4482759,16.3335525 23.4482759,10.9199673 L23.4482759,10.459343 Z M15.846051,14.7588601 L15.8712718,5.53780459 C15.8712718,5.53709044 15.8575487,5.42389827 15.9350656,5.33355878 C15.9962632,5.26178709 16.1001137,5.22143783 16.2451335,5.21286807 L17.5677433,5.21286807 C17.6059454,5.21643881 21.3479002,5.55387288 21.3716375,10.6892981 C21.3479002,15.8247233 17.6059454,16.1628715 17.572194,16.1653711 L17.0139978,16.1653711 C16.0122117,16.1653711 15.8467927,14.7670728 15.846051,14.7588601 Z" id="Fill-3"></path>
            <path d="M35.4276044,15.8697984 C34.8938868,15.3349407 34.9248056,14.3086691 34.9259099,14.2965618 L34.9259099,6.68142724 C34.9248056,6.67466139 34.8971995,5.98027223 35.3385288,5.53443877 C35.5873516,5.28160989 35.9399733,5.15305887 36.3853515,5.15305887 L36.4394594,5.15305887 L36.4394594,4.83185937 L33.1639056,4.83185937 L29.8342439,13.3514803 L26.4913312,4.86604468 L26.4780803,4.83185937 L23.1167636,4.82758621 L23.1167636,5.16587837 L23.1660865,5.16979543 C23.2209306,5.17478079 24.4966997,5.29941474 24.4966997,6.44497882 L24.4966997,13.7659772 C24.4974359,13.7784406 24.5736286,15.0771264 23.9033529,15.7668863 C23.6276602,16.0503395 23.2614195,16.1942027 22.8123605,16.1942027 L22.7586207,16.1942027 L22.7586207,16.5517241 L26.8064087,16.5517241 L26.8064087,16.1924223 L26.5089991,16.1924223 C26.0676699,16.1924223 25.7146801,16.0581737 25.4592318,15.7935936 C24.9288269,15.2459164 24.9855114,14.3093813 24.9862476,14.2965618 L24.9855114,6.45138857 L28.9379664,16.3879195 C28.9405429,16.3946854 28.9942828,16.547451 29.1407791,16.547451 L29.1415152,16.547451 C29.1415152,16.547451 29.158447,16.5499437 29.1831084,16.5499437 C29.3012624,16.5499437 29.3969635,16.4979535 29.4459183,16.4003829 C29.4477587,16.3946854 29.6877476,15.7490815 30.3329938,15.2309603 C30.4286949,15.1689995 30.578872,14.9831168 30.4526201,14.7131953 C30.451884,14.712127 30.3963037,14.6291564 30.3282087,14.4934834 L30.2829347,14.4055275 C30.2100547,14.2613082 30.193123,14.2285472 30.0874837,13.9703769 L33.1804692,6.19891579 L33.1804692,14.2962057 C33.1797331,14.3143666 33.1381399,16.1924223 31.4998109,16.1924223 L31.2024014,16.1924223 L31.2024014,16.5517241 L36.5517241,16.5517241 L36.5517241,16.1924223 L36.2543146,16.1924223 C35.9197289,16.1924223 35.6414596,16.0838127 35.4276044,15.8697984" id="Fill-4"></path>
            <path d="M41.7237781,4.13793103 C38.8721669,4.13793103 36.5517241,6.92196676 36.5517241,10.3450091 C36.5517241,13.7669623 38.8721669,16.5517241 41.7237781,16.5517241 C44.5761089,16.5517241 46.8965517,13.7669623 46.8965517,10.3450091 C46.8965517,6.92196676 44.5761089,4.13793103 41.7237781,4.13793103 M41.6773548,16.132376 C41.55212,16.132376 38.6040637,16.0670231 38.5641181,10.3439199 C38.6040637,4.61972751 41.55212,4.55437456 41.6892305,4.55437456 C41.8144653,4.55437456 44.7625217,4.61972751 44.8021074,10.3431938 C44.7625217,16.0670231 41.8144653,16.132376 41.6892305,16.132376 L41.6831127,16.1853845 L41.6841923,16.132376 L41.6773548,16.132376" id="Fill-5"></path>
            <path d="M74.1384708,4.13793103 C71.2862392,4.13793103 68.9655172,6.92196676 68.9655172,10.3450091 C68.9655172,13.7669623 71.2862392,16.5517241 74.1384708,16.5517241 C76.9899828,16.5517241 79.3103448,13.7669623 79.3103448,10.3450091 C79.3103448,6.92196676 76.9899828,4.13793103 74.1384708,4.13793103 M74.0913295,16.132376 C73.9657392,16.132376 71.0177854,16.0670231 70.9792806,10.3439199 C71.0177854,4.61972751 73.9657392,4.55437456 74.1032048,4.55437456 C74.2280754,4.55437456 77.176389,4.61972751 77.2159734,10.3431938 C77.176389,16.0670231 74.2291549,16.132376 74.1032048,16.132376 L74.097447,16.1853845 L74.0988865,16.132376 L74.0913295,16.132376" id="Fill-6"></path>
            <path d="M68.3445933,4.1837465 C67.695978,4.61587801 67.223096,4.6495982 67.0938699,4.6495982 C67.0697288,4.6495982 67.0565932,4.64776558 67.0505579,4.64776558 L60.5317438,4.64776558 C60.5299687,4.64776558 60.5164781,4.6495982 60.492337,4.6495982 C60.3620459,4.6495982 59.8888088,4.61587801 59.2409036,4.1837465 L59.1727404,4.13793103 L58.6206897,8.07439618 L58.8596158,8.15686402 L58.8780767,8.1117816 C58.885177,8.0963876 59.5675188,6.53609597 59.9697526,5.99180819 C59.9743678,5.98337815 60.5537548,5.0971237 61.6816424,5.0971237 L62.9014794,5.0971237 L62.9014794,14.629307 C62.8979292,14.6938152 62.8116602,16.2071918 61.4015344,16.2071918 L61.3493469,16.2071918 L61.3493469,16.5517241 L66.23757,16.5517241 L66.23757,16.2071918 L66.1853825,16.2071918 C65.723151,16.2071918 65.358549,16.0686458 65.101162,15.7941195 C64.6687518,15.3348653 64.6850826,14.6403027 64.6850826,14.6318727 L64.6850826,5.0971237 L65.9052745,5.0971237 C67.0328071,5.0971237 67.6121941,5.98337815 67.6196495,5.99547343 C68.0183331,6.53609597 68.7013849,8.0963876 68.7074202,8.1117816 L68.7273011,8.15686402 L68.9655172,8.07439618 L68.4131115,4.13793103 L68.3445933,4.1837465" id="Fill-7"></path>
            <path d="M107.241379,4.13793103 C104.389247,4.13793103 102.068966,6.92221106 102.068966,10.3448276 C102.068966,13.767081 104.389247,16.5517241 107.241379,16.5517241 C110.093512,16.5517241 112.413793,13.767081 112.413793,10.3448276 C112.413793,6.92221106 110.093512,4.13793103 107.241379,4.13793103 M107.194599,16.1334285 C107.068654,16.1334285 104.121522,16.0673437 104.081579,10.3448276 C104.121522,4.61976979 107.068654,4.554048 107.206114,4.554048 C107.33206,4.554048 110.280271,4.61976979 110.319494,10.3437383 C110.280271,16.0673437 107.33206,16.1334285 107.206114,16.1334285 L107.199637,16.1864417 L107.201437,16.1334285 L107.194599,16.1334285" id="Fill-8"></path>
            <path d="M148.095149,11.4182727 L149.651824,6.67168152 L151.195769,11.4182727 L148.095149,11.4182727 Z M164.631547,12.4845333 L164.591539,12.6101707 C163.538965,15.895167 161.557841,16.1504948 160.97627,16.1504948 C160.844608,16.1504948 160.766774,16.1383363 160.758409,16.1375994 C159.676374,16.1375994 159.235195,15.7091056 159.233376,15.7065266 C159.051886,15.5024117 159.003512,14.7095324 158.999875,14.4228874 L158.999875,6.34266608 C159.000603,6.27818937 159.052977,4.75801277 160.471806,4.75801277 L160.524544,4.75801277 L160.524544,4.42568138 L155.642113,4.42568138 L155.642113,4.76685529 L155.695214,4.76759216 C155.75268,4.76943436 157.107133,4.80848882 157.107133,6.21039672 L157.107133,14.3967283 C157.107133,15.9390112 155.977453,16.1460735 155.653751,16.1737064 C154.588447,16.1272832 154.103987,14.5105757 154.098895,14.4936276 L151.025917,4.40025913 C150.977907,4.22561936 150.916804,4.13793103 150.84479,4.13793103 C150.842244,4.13793103 150.83897,4.13793103 150.835697,4.13829947 L150.82624,4.13793103 C150.749134,4.13793103 150.690941,4.18730177 150.670573,4.20756588 C150.628746,4.23151437 150.490901,4.33136116 150.227212,4.72116893 C150.225393,4.723748 150.002439,5.01039303 149.503794,5.23256135 L149.317211,5.30772277 C149.310301,5.30956497 149.150633,5.36704135 149.126992,5.4982054 C149.118263,5.51625888 149.108806,5.5501552 149.116444,5.59731531 C149.135721,5.70784682 149.240832,5.83237898 149.431416,5.96649053 L146.523925,14.4092552 C146.519561,14.4269402 146.051104,16.1781277 144.881051,16.1781277 L144.827586,16.1781277 L144.827586,16.5517241 L148.140976,16.5517241 L148.140976,16.1685483 L148.079146,16.1784961 C148.079146,16.1784961 148.001676,16.1895492 147.889289,16.1895492 C147.669609,16.1895492 147.270257,16.1460735 147.057487,15.8546388 C146.874177,15.6029954 146.86072,15.2153983 147.016751,14.7036374 L147.901292,12.0081425 L151.387807,12.0081425 L151.920277,13.6443772 C151.923551,13.6572725 152.258527,14.8845406 152.286533,15.1527637 C152.287987,15.157185 152.415286,15.5495718 152.206153,15.8435856 C152.04903,16.0653855 151.742424,16.1781277 151.29397,16.1781277 L151.240141,16.1781277 L151.240141,16.5517241 L164.323849,16.5517241 L164.827586,12.8817098 L164.631547,12.4845333 Z" id="Fill-9"></path>
            <path d="M128.266576,10.3442683 L127.406229,10.3442683 L127.406229,4.76028004 L127.406958,4.75282229 L127.403678,4.74424588 C127.403678,4.74238145 127.400034,4.72783884 127.417525,4.70471982 C127.456152,4.65624446 127.616487,4.54176805 128.265483,4.54176805 C128.377353,4.54512403 130.743398,4.65960045 130.743398,7.40703452 L130.743398,7.48012044 C130.743398,10.2335207 128.366421,10.3409123 128.266576,10.3442683 Z M141.735505,4.14538878 L141.735505,4.48620783 L141.782148,4.49142825 C141.850655,4.49925889 143.439072,4.69800785 143.439072,6.12243756 L143.439072,12.9787175 C142.012448,10.9446169 137.332832,4.14538878 137.332832,4.14538878 L134.041577,4.14165991 L134.041577,4.49217403 L134.086762,4.49925889 C134.155269,4.51007262 135.75644,4.77594131 135.741135,6.3927809 L135.741135,13.8087647 C135.741135,13.8203242 135.737127,14.9673257 135.109631,15.6101836 C134.905203,15.8201191 134.654497,15.952867 134.363706,16.0095459 C134.131219,15.9584603 133.824759,15.8324244 133.571502,15.5169617 L130.117725,10.5773229 C131.282345,10.2998947 132.629165,9.53211958 132.629165,7.46744227 L132.629165,7.39994966 C132.629165,6.08701327 132.062888,5.11042127 130.990825,4.57644657 C130.154164,4.15918561 129.273776,4.13793103 129.105787,4.13793103 L124.141575,4.13830392 L124.141575,4.53878495 L124.215184,4.54176805 C124.229031,4.54176805 125.602088,4.63126101 125.602088,5.60934456 L125.602088,14.5094201 C125.602088,15.9718843 124.461153,16.0464618 124.23231,16.0464618 C124.209718,16.0464618 124.195506,16.045716 124.195506,16.045716 L124.137931,16.0419871 L124.137931,16.4238238 L128.946181,16.4238238 L128.946181,16.0401227 L128.887512,16.045716 C128.886783,16.0460889 128.856903,16.0486991 128.805522,16.0486991 C128.664135,16.0486991 128.301558,16.0266987 127.985624,15.8178818 C127.601183,15.5639455 127.406229,15.1235655 127.406229,14.5094201 L127.406229,10.729088 L127.813627,10.729088 L131.775377,16.4029421 L131.790682,16.4260611 L137.884897,16.4238238 L137.884897,16.0401227 L137.832423,16.0397498 C136.202101,16.0102917 136.192626,14.3349088 136.193719,14.2633144 L136.193719,6.2011168 L143.308981,16.3585685 L143.321371,16.373484 C143.38259,16.4499259 143.475512,16.5517241 143.586654,16.5517241 C143.772497,16.5517241 143.818047,16.3947386 143.822784,16.3880266 L143.827522,16.3746026 C144.037416,15.5594709 144.379587,15.1250571 144.383231,15.1217011 C144.585837,14.8741039 144.595675,14.7708141 144.595675,14.761119 C144.635031,14.5235898 144.48344,14.4079947 144.477974,14.4035201 L144.419306,14.3382648 C144.149286,14.0679214 144.149651,14.0343616 144.060373,13.8855795 C144.041788,13.8538841 144.021746,13.8203242 143.998425,13.7822897 L143.998425,13.7811711 L143.990044,13.76812 L143.990044,6.0858946 C143.991501,6.02063932 144.046161,4.48210607 145.464768,4.48210607 L145.517241,4.48210607 L145.517241,4.14538878 L141.735505,4.14538878 Z" id="Fill-10"></path>
            <path d="M120.276135,4.51384769 L120.381658,4.51384769 C121.852074,4.51384769 121.992893,6.09886385 121.997987,6.16201191 L121.997987,12.3668654 C121.997987,15.548413 119.246371,15.6368203 119.130295,15.6397919 C116.551883,15.6397919 116.393234,12.3174614 116.392506,12.2866303 L116.392506,5.58104981 C116.395417,5.53721763 116.480564,4.51384769 117.669341,4.51384769 L117.774864,4.51384769 L117.774864,4.15390378 L113.156574,4.16430463 L113.103448,4.16430463 L113.103448,4.51124747 L113.154755,4.51384769 C113.208244,4.51570498 114.459971,4.57699574 114.459971,5.65757039 L114.459971,12.4489579 C114.462518,12.4905613 114.713955,16.5480095 118.369798,16.5472666 C118.369798,16.5472666 118.426563,16.5517241 118.526264,16.5517241 C119.151036,16.5517241 122.275987,16.3567081 122.416806,12.5009622 L122.599835,5.89864737 C122.601291,5.84367142 122.668607,4.53984983 124.084442,4.53984983 L124.137931,4.53984983 L124.137931,4.13793103 L120.276135,4.14684605 L120.276135,4.51384769" id="Fill-11"></path>
            <path d="M57.564041,14.3495523 C57.2895196,14.0809133 57.2299536,13.9818434 57.1407896,13.8345372 C57.121181,13.8029981 57.1004624,13.7688616 57.076784,13.7310147 L57.0778939,13.7291595 L57.0686445,13.7161728 L57.0686445,6.0736902 C57.0708644,6.00801464 57.1252507,4.47706921 58.5655634,4.47706921 L58.6206897,4.47706921 L58.6206897,4.14201257 L54.7799791,4.14201257 L54.7799791,4.48040865 L54.8277059,4.48671647 C54.8447248,4.48857171 56.5081324,4.69005096 56.5081324,6.10893979 L56.5081324,12.9325187 L56.4737247,12.8842824 C55.0363718,10.8739425 50.3095711,4.14201257 50.3095711,4.14201257 L46.9683269,4.13793103 L46.9683269,4.48745857 L47.0149437,4.49450848 C47.0315926,4.49710582 48.7083193,4.76722901 48.6942603,6.37794983 L48.6942603,13.7573591 C48.6942603,13.7688616 48.6890806,14.9113194 48.0527236,15.5502647 C47.7682128,15.8363429 47.3967579,15.9817939 46.950938,15.9817939 L46.8965517,15.9817939 L46.8965517,16.3535843 L50.8700833,16.3535843 L50.8700833,15.9780834 L50.8168069,15.9773413 C49.1622787,15.9483995 49.1522893,14.2809083 49.1530293,14.2100381 L49.1530293,6.18685994 L56.4374672,16.3595211 L56.4496763,16.3747341 C56.5110922,16.450799 56.6065457,16.5517241 56.7193881,16.5517241 C56.8625684,16.5517241 56.9543222,16.3955128 56.9591319,16.389576 L56.9643116,16.3762183 C57.1755673,15.5643645 57.5244537,15.1328353 57.5274135,15.1287538 C57.7327496,14.8823777 57.7434789,14.7795973 57.742739,14.7710632 C57.7834362,14.5332212 57.5692207,14.3543759 57.564041,14.3495523" id="Fill-12"></path>
            <path d="M87.194021,4.14201257 L87.194021,4.48115074 L87.2421193,4.48671647 C87.2587687,4.48857171 88.9225988,4.69005096 88.9225988,6.10893979 L88.9225988,12.9325187 L88.88782,12.8842824 C87.4500518,10.8739425 82.723102,4.14201257 82.723102,4.14201257 L79.3817523,4.13793103 L79.3817523,4.48745857 L79.4280006,4.49450848 C79.44502,4.49710582 81.1229096,4.76722901 81.1077401,6.37794983 L81.1077401,13.7573591 C81.1077401,13.7688616 81.1025603,14.9113194 80.4658132,15.5510068 C80.1820334,15.8363429 79.8109368,15.9817939 79.3651029,15.9817939 L79.3103448,15.9817939 L79.3103448,16.3535843 L83.2840018,16.3535843 L83.2840018,15.9780834 L83.2310937,15.9773413 C81.5761433,15.9483995 81.5668936,14.2809083 81.5668936,14.2100381 L81.5668936,6.18760204 L88.8515613,16.3595211 L88.8630309,16.3736209 C88.8985497,16.4174046 89.0062158,16.5517241 89.1338612,16.5517241 C89.278156,16.5517241 89.3691727,16.3966259 89.3728726,16.389576 L89.3784224,16.3762183 C89.5911647,15.5643645 89.9385822,15.1328353 89.9415421,15.1287538 C90.1472547,14.8823777 90.1587243,14.7795973 90.1576143,14.76995 C90.1979429,14.5332212 89.9837206,14.3536338 89.9774308,14.3502944 C89.7051206,14.0809133 89.6418529,13.9773908 89.554536,13.8345372 C89.5364067,13.8029981 89.5156874,13.7688616 89.4916383,13.7310147 L89.4916383,13.7291595 L89.4831286,13.7169149 L89.4831286,6.0736902 C89.4846086,6.00801464 89.5378866,4.47706921 90.9793547,4.47706921 L91.0344828,4.47706921 L91.0344828,4.14201257 L87.194021,4.14201257" id="Fill-13"></path>
            <path d="M23.4482759,10.459343 C23.4482759,5.04504372 18.395209,4.8290145 18.3436546,4.82758621 L12.4137931,4.82758621 L12.4145349,5.16466321 L12.4709109,5.16252077 C12.4720235,5.16252077 12.4820377,5.16144955 12.4987279,5.16144955 C12.7379549,5.16144955 13.9292681,5.23572075 13.9292681,6.69686385 L13.9292681,14.6820894 C13.9292681,16.1425184 12.7379549,16.2167896 12.4987279,16.2167896 C12.4820377,16.2167896 12.4720235,16.2160754 12.4720235,16.2160754 L12.4137931,16.2135759 L12.4137931,16.5517241 L18.3447673,16.5517241 C18.395209,16.5499388 23.4482759,16.3331954 23.4482759,10.9199673 L23.4482759,10.459343 Z M15.846051,14.7588601 L15.8712718,5.53780459 C15.8712718,5.53673337 15.8575487,5.42389827 15.9350656,5.33355878 C15.9962632,5.26178709 16.1001137,5.22143783 16.2451335,5.21322515 L17.5677433,5.21322515 C17.6059454,5.21643881 21.3479002,5.55387288 21.3716375,10.6896552 C21.3479002,15.8243662 17.6059454,16.1628715 17.572194,16.1653711 L17.0139978,16.1653711 C16.0122117,16.1653711 15.8467927,14.7670728 15.846051,14.7588601 Z" id="Fill-14"></path>
            <path d="M35.4272664,15.8694423 C34.8939311,15.3345846 34.9241129,14.3086691 34.9252171,14.2962057 L34.9252171,6.68107114 C34.9241129,6.67466139 34.8972437,5.98027223 35.3381931,5.53443877 C35.5870093,5.2812538 35.9399897,5.15305887 36.3849878,5.15305887 L36.4390943,5.15305887 L36.4390943,4.83150327 L33.1636279,4.83150327 L29.833687,13.3511242 L26.4912316,4.86568859 L26.4779811,4.83150327 L23.1167541,4.82758621 L23.1167541,5.16587837 L23.1660756,5.17015153 C23.2209182,5.17513689 24.4966533,5.29941474 24.4966533,6.44462273 L24.4966533,13.7659772 C24.4973895,13.7784406 24.5735802,15.0767703 23.9033224,15.7668863 C23.627637,16.0503395 23.2614061,16.1942027 22.8123591,16.1942027 L22.7586207,16.1942027 L22.7586207,16.5517241 L26.8063006,16.5517241 L26.8063006,16.1927784 L26.508899,16.1927784 C26.0675816,16.1927784 25.7146012,16.0578176 25.4591597,15.7939497 C24.928769,15.2459164 24.985452,14.3097374 24.9861881,14.2962057 L24.985452,6.45138857 L28.9381695,16.3879195 C28.940378,16.3946854 28.9941164,16.5478071 29.1406088,16.5478071 L29.1413449,16.5478071 C29.1413449,16.5478071 29.1582762,16.5502997 29.183305,16.5502997 C29.3010878,16.5502997 29.3964183,16.4983096 29.4457399,16.4003829 C29.4475802,16.3946854 29.6875627,15.7490815 30.3327917,15.2309603 C30.4284902,15.1686434 30.5786633,14.9827607 30.4520468,14.7131953 C30.4513106,14.7124831 30.3960999,14.6295125 30.3276387,14.4938395 L30.282734,14.4055275 C30.2098558,14.2613082 30.1929246,14.2289033 30.0872881,13.9703769 L33.1801911,6.19927189 L33.1801911,14.2962057 C33.179455,14.3147227 33.1378629,16.1927784 31.4995776,16.1927784 L31.202176,16.1927784 L31.202176,16.5517241 L36.5517241,16.5517241 L36.5517241,16.1927784 L36.2539545,16.1927784 C35.9193777,16.1927784 35.6411158,16.0834566 35.4272664,15.8694423" id="Fill-15"></path>
            <path d="M41.7237781,4.13793103 C38.8721669,4.13793103 36.5517241,6.92152228 36.5517241,10.3448276 C36.5517241,13.7670437 38.8721669,16.5517241 41.7237781,16.5517241 C44.5761089,16.5517241 46.8965517,13.7670437 46.8965517,10.3448276 C46.8965517,6.92152228 44.5761089,4.13793103 41.7237781,4.13793103 M41.6773548,16.1320252 C41.55212,16.1320252 38.6040637,16.0666742 38.5644779,10.3441015 C38.6040637,4.61935036 41.55212,4.55399932 41.6892305,4.55399932 C41.8144653,4.55399932 44.7621618,4.61935036 44.8024673,10.3430123 C44.7621618,16.0666742 41.8144653,16.1320252 41.6892305,16.1320252 L41.6834726,16.1850322 L41.6841923,16.1320252 L41.6773548,16.1320252" id="Fill-16"></path>
            <path d="M74.1384708,4.13793103 C71.2862392,4.13793103 68.9655172,6.92152228 68.9655172,10.3448276 C68.9655172,13.7670437 71.2862392,16.5517241 74.1384708,16.5517241 C76.9899828,16.5517241 79.3103448,13.7670437 79.3103448,10.3448276 C79.3103448,6.92152228 76.9899828,4.13793103 74.1384708,4.13793103 M74.0913295,16.1320252 C73.9657392,16.1320252 71.0177854,16.0666742 70.9792806,10.3441015 C71.0177854,4.61935036 73.9657392,4.55399932 74.1032048,4.55399932 C74.2280754,4.55399932 77.176389,4.61935036 77.2159734,10.3430123 C77.176389,16.0666742 74.2291549,16.1320252 74.1032048,16.1320252 L74.097447,16.1850322 L74.0988865,16.1320252 L74.0913295,16.1320252" id="Fill-17"></path>
            <path d="M68.3445933,4.18411166 C67.695978,4.61623041 67.223096,4.6499496 67.0938699,4.6499496 C67.0697288,4.6499496 67.0565932,4.64811704 67.0505579,4.64811704 L60.5317438,4.64811704 C60.5299687,4.64811704 60.5164781,4.6499496 60.492337,4.6499496 C60.3620459,4.6499496 59.8888088,4.61623041 59.2409036,4.18411166 L59.1727404,4.13793103 L58.6206897,8.07427995 L58.8596158,8.15747839 L58.8780767,8.1123973 C58.885177,8.09700376 59.5675188,6.53639168 59.9697526,5.99248648 C59.9743678,5.98369017 60.5537548,5.0974619 61.6816424,5.0974619 L62.9014794,5.0974619 L62.9014794,14.6293638 C62.8979292,14.6938701 62.8116602,16.207202 61.4015344,16.207202 L61.3493469,16.207202 L61.3493469,16.5517241 L66.23757,16.5517241 L66.23757,16.207202 L66.1853825,16.207202 C65.723151,16.207202 65.358549,16.0686601 65.101162,15.7941419 C64.6687518,15.3349012 64.6850826,14.6403592 64.6850826,14.6319294 L64.6850826,5.0974619 L65.9052745,5.0974619 C67.0328071,5.0974619 67.6121941,5.98369017 67.6196495,5.9957851 C68.0183331,6.53639168 68.7013849,8.09700376 68.7074202,8.1123973 L68.7273011,8.15747839 L68.9655172,8.07427995 L68.4131115,4.13793103 L68.3445933,4.18411166" id="Fill-18"></path>
            <path d="M107.241379,4.13793103 C104.389247,4.13793103 102.068966,6.92212962 102.068966,10.344646 C102.068966,13.7667994 104.389247,16.5517241 107.241379,16.5517241 C110.093512,16.5517241 112.413793,13.7667994 112.413793,10.344646 C112.413793,6.92212962 110.093512,4.13793103 107.241379,4.13793103 M107.194599,16.1330777 C107.068654,16.1330777 104.121522,16.0669947 104.081579,10.344646 C104.121522,4.61939261 107.068654,4.55403583 107.206114,4.55403583 C107.33206,4.55403583 110.280271,4.61939261 110.319494,10.3435568 C110.280271,16.0669947 107.33206,16.1330777 107.206114,16.1330777 L107.199637,16.1864524 L107.201437,16.1330777 L107.194599,16.1330777" id="Fill-19"></path>
            <path d="M102.69788,1.73892964 L102.758621,1.73892964 L102.758621,1.37931034 L96.3172066,1.37931034 L96.3172066,1.73892964 L96.3775882,1.73892964 C96.3980747,1.73892964 98.5218509,1.76278379 98.5218509,3.20595952 L98.5218509,17.1783439 C98.5218509,17.1964152 98.4992078,18.9807775 97.6926832,19.0266786 C97.6865732,19.0266786 97.2024428,19.0494485 97.1215747,18.7534402 C97.1086358,18.6977806 96.790914,17.3919469 95.6670271,17.3919469 C95.650494,17.3919469 95.2324958,17.3774898 94.8957251,17.6525353 C94.6222112,17.8755354 94.4827586,18.2185291 94.4827586,18.6771793 C94.4834774,18.6898292 94.5722527,19.9963857 96.1137784,19.9963857 L96.1148567,19.9963857 C96.1170132,19.9963857 96.1644558,20 96.2481992,20 C96.6431949,20 97.8386052,19.9266304 98.8625751,19.1112524 C100.028154,18.1809408 100.597106,16.6268071 100.553617,14.4907769 L100.553617,3.20595952 C100.553617,1.76422949 102.610183,1.73892964 102.69788,1.73892964" id="Fill-20"></path>
            <path d="M148.070565,11.3282736 L149.615528,6.64072334 L151.147857,11.3282736 L148.070565,11.3282736 Z M164.482548,12.381717 L164.442841,12.5054374 C163.398186,15.7501887 161.431968,16.0023601 160.854772,16.0023601 C160.7241,16.0023601 160.646852,15.9903519 160.63855,15.9896242 C159.564656,15.9896242 159.126796,15.5664274 159.124991,15.5638802 C158.944866,15.3619247 158.896857,14.5795747 158.893247,14.2957454 L158.893247,6.31577516 C158.893969,6.25209551 158.945949,4.75071124 160.354103,4.75071124 L160.406444,4.75071124 L160.406444,4.42248811 L155.560747,4.42248811 L155.560747,4.75944445 L155.613449,4.7605361 C155.670483,4.76235552 157.014745,4.80092719 157.014745,6.1851409 L157.014745,14.2699096 C157.014745,15.7934908 155.893564,15.9983574 155.572298,16.0249209 C154.51501,15.9790715 154.034194,14.3823497 154.02914,14.3663388 L150.979282,4.39738013 C150.931634,4.22453536 150.87099,4.13793103 150.799518,4.13793103 C150.796991,4.13793103 150.793742,4.13793103 150.790494,4.1386588 L150.781108,4.13793103 C150.704582,4.13793103 150.646826,4.18705534 150.626612,4.20670506 C150.5851,4.23072139 150.448292,4.32969776 150.186586,4.71395898 C150.184781,4.71650617 149.963505,5.00033548 149.468612,5.21939348 L149.283433,5.29326188 C149.276574,5.2950813 149.118107,5.35184716 149.094644,5.48175365 C149.085981,5.49994784 149.076595,5.53269738 149.084176,5.58000226 C149.103307,5.68916738 149.207628,5.8117962 149.396778,5.94424987 L146.511163,14.2830095 C146.506831,14.300112 146.041898,16.0292875 144.880649,16.0292875 L144.827586,16.0292875 L144.827586,16.3989933 L148.116047,16.3989933 L148.116047,16.0205543 L148.054682,16.0300152 C148.054682,16.0300152 147.977795,16.0409318 147.866254,16.0409318 C147.648227,16.0409318 147.251879,15.9983574 147.04071,15.7101614 C146.858779,15.461265 146.845423,15.0791871 147.000281,14.5733887 L147.878166,11.9115792 L151.33845,11.9115792 L151.866914,13.5272229 C151.870163,13.5399589 152.202619,14.7516917 152.230414,15.0173268 C152.231857,15.0213295 152.358198,15.4092296 152.150639,15.698881 C151.994698,15.9183029 151.690398,16.0292875 151.245319,16.0292875 L151.191895,16.0292875 L151.191895,16.3989933 L164.177165,16.3989933 L164.677112,12.7739836 L164.482548,12.381717 Z" id="Fill-21"></path>
            <path d="M11.606354,12.0569235 L11.5908321,12.0954952 C10.1288929,15.8147508 7.61038661,15.9224604 7.32810599,15.9224604 C7.30319888,15.9224604 7.29056484,15.9224604 7.28623316,15.9217326 L5.44671648,15.9224604 C5.39618031,15.9250076 5.34600511,15.9250076 5.29619088,15.9224604 L5.25359611,15.9224604 C5.1546896,15.9199132 5.0463978,15.8966247 4.93738406,15.8613279 C4.54969942,15.7470685 4.22662889,15.4807056 4.07321551,15.0978999 C4.03098171,14.9938291 4.00571362,14.8864834 3.99307958,14.7787738 C3.95734328,14.5400661 3.95373356,14.333744 3.95301161,14.3315607 L3.95301161,8.53671233 C4.0244842,8.528343 4.17825855,8.51342377 4.38437394,8.51342377 C5.32687356,8.51342377 7.57465032,8.83182203 8.10094846,11.7858302 L8.10852889,11.8294962 L8.40705328,11.8294962 L8.40705328,4.91497755 L8.09986554,4.91497755 L8.09986554,4.96919623 C8.09986554,7.79730059 5.57955442,8.1033268 4.49699741,8.1033268 C4.23348737,8.1033268 4.03747921,8.08622427 3.95301161,8.07639941 L3.95301161,1.31689522 C3.95301161,1.06581545 4.07502037,1.05817389 4.08584955,1.05708224 C4.40061771,1.01741891 4.76231232,0.996677539 5.15974322,0.996677539 C6.52205404,0.996677539 7.89952572,1.23756857 7.90602322,1.23756857 C9.39792323,1.74736968 10.9681543,4.31857212 10.9836761,4.34513563 L11.0085832,4.38625449 L11.2984443,4.23778993 L11.2789518,4.19048505 C11.2702884,4.16974367 10.3696616,2.05194036 10.1736535,1.04616573 C10.0155475,0.233249472 9.38095752,0.313303892 9.38095752,0.313303892 C6.65453101,0.59203883 0.324514422,0.618602343 0.260622261,0.618602343 L0.209364143,0.618602343 L0.209364143,0.927175746 L0.260622261,0.927175746 C0.781866784,0.927175746 1.1843513,1.07964303 1.45977344,1.37875546 C1.89979912,1.85762645 1.86406282,2.55919428 1.86334088,2.56974691 L1.86334088,12.8178044 C1.82038513,14.0721116 1.76443437,14.5659019 1.69440567,14.8289898 C1.67563509,14.9086803 1.6518109,14.9887348 1.61679655,15.0687892 C1.57997734,15.1521186 1.53485575,15.2270786 1.48648542,15.2965804 C1.47168554,15.3191412 1.45652469,15.3402464 1.43991995,15.3609878 C1.4272859,15.3773626 1.41465186,15.3937374 1.4009349,15.4090205 C1.38577405,15.4264869 1.36844736,15.4428617 1.35256456,15.4599642 C1.32188188,15.4908943 1.29011629,15.5192772 1.25762875,15.545113 C0.825905449,15.901719 0.128506267,16.1036745 0.119842923,16.1065856 L0.0815798214,16.1167743 L0.0815798214,16.3678541 L10.9161742,16.3678541 L11.8799712,12.096223 L11.606354,12.0569235" id="Fill-23"></path>
            <path d="M128.266211,10.3442683 L127.405864,10.3442683 L127.405864,4.75990715 L127.406958,4.75282229 L127.403314,4.74424588 C127.403314,4.74275433 127.400034,4.72746595 127.417161,4.70434693 C127.455787,4.65624446 127.616123,4.54139516 128.265118,4.54139516 C128.377353,4.54512403 130.743398,4.65960045 130.743398,7.40703452 L130.743398,7.48012044 C130.743398,10.2335207 128.366057,10.3412852 128.266211,10.3442683 Z M141.735505,4.14501589 L141.735505,4.48620783 L141.782148,4.49142825 C141.850655,4.49963177 143.439072,4.69763496 143.439072,6.12243756 L143.439072,12.9787175 C142.012448,10.9446169 137.332832,4.14501589 137.332832,4.14501589 L134.041577,4.14165991 L134.041577,4.49254691 L134.086762,4.49963177 C134.155269,4.50969973 135.75644,4.77594131 135.741135,6.3927809 L135.741135,13.8083918 C135.741135,13.8203242 135.737127,14.9673257 135.109631,15.6098107 C134.905203,15.8197463 134.654132,15.9524942 134.363706,16.0099188 C134.131219,15.9580875 133.824759,15.8320515 133.571137,15.5165888 L130.11736,10.57695 C131.282345,10.2995218 132.6288,9.53211958 132.6288,7.46706939 L132.6288,7.39957677 C132.6288,6.08701327 132.062524,5.11004838 130.990461,4.57607368 C130.154529,4.15918561 129.273776,4.13793103 129.105787,4.13793103 L124.141575,4.13793103 L124.141575,4.53915783 L124.215184,4.54139516 C124.229031,4.54139516 125.602452,4.6316339 125.602452,5.60934456 L125.602452,14.5094201 C125.602452,15.9718843 124.461153,16.0460889 124.23231,16.0460889 C124.209718,16.0460889 124.195506,16.0453431 124.195506,16.0453431 L124.137931,16.0416142 L124.137931,16.4241967 L128.946545,16.4241967 L128.946545,16.0397498 L128.887877,16.0453431 C128.886783,16.0460889 128.856903,16.0486991 128.805158,16.0486991 C128.664135,16.0486991 128.301558,16.0266987 127.985624,15.8178818 C127.601183,15.5639455 127.405864,15.1235655 127.405864,14.5094201 L127.405864,10.7287151 L127.813263,10.7287151 L131.775013,16.4029421 L131.790682,16.4256882 L137.884897,16.4241967 L137.884897,16.0397498 L137.832423,16.0397498 C136.202101,16.0099188 136.192626,14.3349088 136.193719,14.2636873 L136.193719,6.20074391 L143.308981,16.3589414 L143.321371,16.373484 C143.38259,16.449553 143.475512,16.5517241 143.586654,16.5517241 C143.772497,16.5517241 143.818047,16.3947386 143.822784,16.3876537 L143.827522,16.3746026 C144.037416,15.5594709 144.379587,15.12543 144.383231,15.1217011 C144.585837,14.8741039 144.595675,14.7704412 144.595675,14.7614919 C144.635031,14.5232169 144.48344,14.4079947 144.477974,14.4035201 L144.419306,14.3382648 C144.149286,14.0679214 144.149651,14.0343616 144.060373,13.8855795 C144.041788,13.8538841 144.021746,13.8203242 143.998425,13.7826626 L143.998425,13.7807982 L143.990044,13.7684929 L143.990044,6.08626749 C143.991501,6.0210122 144.046161,4.48173318 145.464768,4.48173318 L145.517241,4.48173318 L145.517241,4.14501589 L141.735505,4.14501589 Z" id="Fill-25"></path>
            <path d="M120.276135,4.51384769 L120.381658,4.51384769 C121.852074,4.51384769 121.992893,6.09886385 121.997987,6.16201191 L121.997987,12.3668654 C121.997987,15.548413 119.246371,15.6368203 119.130295,15.6397919 C116.551883,15.6397919 116.393234,12.3174614 116.392506,12.2866303 L116.392506,5.58104981 C116.395417,5.53721763 116.480564,4.51384769 117.669341,4.51384769 L117.774864,4.51384769 L117.774864,4.15390378 L113.156574,4.16430463 L113.103448,4.16430463 L113.103448,4.51124747 L113.154755,4.51384769 C113.208244,4.51570498 114.459971,4.57699574 114.459971,5.65757039 L114.459971,12.4489579 C114.462518,12.4905613 114.713955,16.5480095 118.369798,16.5472666 C118.369798,16.5472666 118.426563,16.5517241 118.526264,16.5517241 C119.151036,16.5517241 122.275987,16.3567081 122.416806,12.5009622 L122.599835,5.89864737 C122.601291,5.84367142 122.668607,4.53984983 124.084442,4.53984983 L124.137931,4.53984983 L124.137931,4.13793103 L120.276135,4.14684605 L120.276135,4.51384769" id="Fill-26"></path>
        </g>
    </g>
</svg>
