<?xml version="1.0" encoding="UTF-8" standalone="no"?>
<svg width="100px" height="100px" viewBox="0 0 100 100" version="1.1" xmlns="http://www.w3.org/2000/svg" xmlns:xlink="http://www.w3.org/1999/xlink">
    <!-- Generator: Sketch 50.2 (55047) - http://www.bohemiancoding.com/sketch -->
    <title>VS_Masthead_RGB</title>
    <desc>Created with Sketch.</desc>
    <defs></defs>
    <g id="Styles" stroke="none" stroke-width="1" fill="none" fill-rule="evenodd">
        <g id="Market-Branding" transform="translate(-61.000000, -213.000000)">
            <g id="VS_Masthead_RGB" transform="translate(61.000000, 213.000000)">
                <polygon id="Fill-1" fill="#5C8B75" points="0 99.9742489 99.9424893 99.9742489 99.9424893 0.0575107296 0 0.0575107296"></polygon>
                <polyline id="Fill-3" fill="#2F5C49" points="5.15021459 94.8502146 5.15021459 5.20815451 94.793133 5.20815451 94.793133 24.2017167 53.9098712 24.2017167 16.7381974 94.8502146 5.15021459 94.8502146"></polyline>
                <path d="M15.8686695,69.0317597 L15.8686695,69.4184549 L18.9699571,69.4184549 L18.9699571,69.0317597 C18.0635193,69.0317597 17.7193133,68.2699571 18.0004292,67.0815451 C18.4167382,65.2974249 18.7583691,63.7137339 18.7888412,63.5472103 L21.5064378,63.5472103 C22.0111588,65.4424893 22.0407725,65.6506438 22.6493562,67.8982833 C22.8133047,68.5124464 22.7832618,69.0317597 22.2935622,69.0317597 L21.8772532,69.0317597 L21.8772532,69.4184549 L28.4682403,69.4184549 L28.4682403,69.0317597 L28.0416309,69.0317597 C27.4927039,69.0317597 27.1506438,68.4742489 27.1506438,67.0248927 L27.1506438,58.1815451 C29.4828326,62.6587983 30.6815451,64.8665236 33.1759657,69.6227468 L33.4124464,69.6227468 C33.4124464,68.7493562 33.3763948,57.9021459 33.3763948,57.4012876 C33.3763948,56.006867 33.906867,55.3575107 34.8133047,55.3575107 L34.8133047,54.9819742 C34.5600858,54.9819742 33.7806867,54.9785408 33.1862661,54.9785408 L31.5274678,54.9785408 L31.5424893,55.3540773 C32.3738197,55.3540773 32.8390558,55.988412 32.8390558,57.4012876 L32.8390558,64.3686695 C32.111588,62.9746781 28.5030043,56.1888412 27.9377682,55.0935622 C27.8944206,55.0188841 27.8793991,54.9819742 27.7892704,54.9819742 C27.7450644,54.9819742 27.1197425,54.9785408 26.4515021,54.9785408 C25.8270386,54.9785408 25.2051502,54.9819742 25.1313305,54.9819742 L25.1313305,55.3575107 C25.5613734,55.3575107 25.7875536,55.5334764 26.0257511,55.9600858 C26.188412,56.2575107 26.4214592,56.755794 26.6141631,57.1270386 L26.6141631,67.216309 C26.6141631,68.5064378 26.2751073,68.9313305 25.7944206,69.011588 C25.7781116,69.0128755 25.7630901,69.0158798 25.7467811,69.0158798 C25.7403433,69.0158798 25.7339056,69.0141631 25.7283262,69.0141631 C25.3085837,68.9665236 24.9905579,68.6806867 24.8776824,68.2699571 C23.3776824,62.8824034 22.5682403,60.6450644 20.9206009,54.7738197 L20.4519313,54.7738197 C20.2583691,55.6107296 17.5038627,66.7987124 17.3244635,67.6008584 C17.0712446,68.7377682 16.5373391,69.0317597 15.8686695,69.0317597 Z M20.0356223,58.311588 L21.3128755,63.088412 L18.9660944,63.088412 L20.0356223,58.311588 Z M13.0914163,69.6150215 L13.5180258,69.6150215 C13.8214592,68.4300429 16.5309013,57.8103004 17.2995708,54.8579399 C17.8184549,52.8678112 18.4253219,52.4656652 19.2124464,52.4656652 L19.2124464,52.0454936 C18.9081545,52.0454936 18.0472103,52.0356223 17.3858369,52.0356223 L15.5652361,52.0356223 L15.5652361,52.4772532 C15.6373391,52.4772532 16.1184549,52.4656652 16.172103,52.4656652 C16.7446352,52.4656652 17.1141631,53.1025751 16.7922747,54.3549356 C16.0639485,57.2454936 14.2978541,64.2321888 14.2978541,64.2321888 C14.2978541,64.2321888 12.3287554,56.2459227 11.7025751,53.6961373 C11.4703863,52.77897 11.5240343,52.4656652 12.0429185,52.4656652 L12.4785408,52.4656652 L12.4785408,52.0454936 C12.1742489,52.0454936 11.0545064,52.0356223 10.1248927,52.0356223 C9.19527897,52.0356223 8.05107296,52.0454936 7.74678112,52.0454936 L7.74678112,52.4656652 L8.41330472,52.4656652 C8.84248927,52.4656652 8.98497854,52.8463519 9.27167382,54.0090129 C9.95064378,56.7592275 12.8055794,68.4072961 13.0914163,69.6150215 Z M14.6888412,81.1429185 C14.3133047,80.8085837 12.8832618,79.532618 12.3643777,79.0858369 C11.5042918,78.3373391 11.1879828,77.8579399 10.9236052,76.7403433 C10.8103004,76.2583691 10.7785408,73.6815451 12.9613734,73.6815451 C14.2137339,73.6815451 15.2974249,75.1248927 15.9948498,77.8545064 L16.3420601,77.844206 C16.1987124,75.5626609 16.2042918,75.5072961 16.0609442,73.2708155 L15.7381974,73.2626609 L15.6888412,73.5206009 C15.6695279,73.6330472 15.6,74.1871245 15.3652361,74.1871245 C15.2579399,74.1871245 15.1497854,74.1678112 14.9403433,74.0042918 C14.2922747,73.4987124 13.4682403,73.1652361 12.7459227,73.1652361 C10.9939914,73.1652361 8.97553648,74.6592275 9.09270386,77.9901288 C9.13733906,79.2424893 9.72103004,80.2652361 10.5716738,81.2218884 C11.5798283,82.3536481 12.8248927,83.3909871 13.6832618,84.2184549 C14.5592275,85.0690987 14.8656652,85.804721 15.02103,86.867382 C15.2133047,88.1785408 14.839485,90.5596567 13.1111588,90.5515021 C11.295279,90.5433476 10.0330472,88.7309013 9.29399142,85.3918455 L8.94592275,85.4321888 C8.94592275,85.7454936 9.06909871,90.0072961 9.06909871,90.9244635 L9.427897,90.9167382 C9.66180258,89.8459227 9.84034335,89.5991416 10.4690987,90.1339056 C11.0592275,90.6484979 11.8154506,91.1313305 13.1206009,91.1313305 C15.6055794,91.1313305 17.0124464,88.9270386 17.0124464,86.3540773 C17.0124464,83.832618 15.8223176,82.1454936 14.6888412,81.1429185 Z M42.2575107,55.5922747 C41.0974249,54.6459227 40,54.767382 40,54.767382 C37.6386266,54.767382 35.0467811,57.3381974 35.0467811,62.2244635 C35.0467811,65.8291845 36.6793991,69.6150215 39.8583691,69.6150215 C41.4369099,69.6150215 42.6725322,68.5866953 43.5021459,67.7167382 C43.5021459,67.0484979 43.4982833,64.906867 43.4982833,64.5905579 L43.1957082,64.6051502 C42.6060086,67.3497854 42.0613734,69.1424893 39.9901288,69.1424893 C38.4896996,69.1424893 37.37897,67.2600858 37.37897,62.2244635 C37.37897,57.5429185 38.2875536,55.2081545 40.0103004,55.2081545 C42.3042918,55.2081545 42.6725322,57.3888412 43.1626609,59.2987124 L43.5021459,59.2905579 L43.5021459,54.9257511 L43.1193133,54.9257511 C43.0236052,56.4416309 42.2575107,55.5922747 42.2575107,55.5922747 Z M33.1403433,76.3965665 L33.1553648,76.772103 C33.9866953,76.772103 34.4519313,77.4077253 34.4519313,78.8201717 L34.4519313,85.7871245 C33.7248927,84.3935622 30.1158798,77.6081545 29.5506438,76.5124464 C29.506867,76.4369099 29.4914163,76.4 29.4025751,76.4 C29.3583691,76.4 28.7321888,76.3965665 28.0639485,76.3965665 C27.444206,76.3965665 26.8266094,76.4 26.7463519,76.4 C26.4896996,76.4 25.8266094,76.3965665 25.2356223,76.3965665 L23.576824,76.3965665 L23.5918455,76.772103 C24.4248927,76.772103 24.8742489,77.0270386 24.8742489,78.439485 C24.8742489,78.6811159 24.8763948,84.7515021 24.8763948,86.3309013 C24.8763948,88.8802575 24.3781116,90.5025751 22.7665236,90.5025751 C21.4141631,90.5025751 20.8639485,89.2712446 20.8639485,87.1716738 L20.8639485,77.8635193 C20.8639485,77.0094421 20.9824034,76.7862661 21.4274678,76.7862661 L21.7871245,76.7862661 L21.7871245,76.4 C21.5347639,76.4 20.6124464,76.3965665 19.8399142,76.3965665 C19.0527897,76.3965665 18.0373391,76.4 17.783691,76.4 L17.783691,76.7862661 L18.27897,76.7862661 C18.7098712,76.7862661 18.8446352,77.0094421 18.8446352,77.8635193 L18.8446352,87.1532189 C18.8446352,89.17897 19.9536481,91.0403433 22.4188841,91.0403433 C24.8987124,91.0403433 25.4072961,88.8630901 25.4072961,86.3356223 C25.4072961,84.3751073 25.4064378,78.8609442 25.4064378,78.439485 C25.4064378,77.048927 25.8424893,76.7772532 26.7446352,76.7755365 C27.1751073,76.7755365 27.4008584,76.9519313 27.6377682,77.3793991 C27.8017167,77.676824 28.0339056,78.1746781 28.2270386,78.5459227 L28.2270386,88.6343348 C28.2270386,90.0274678 27.739485,90.4493562 27.2935622,90.4493562 C27.2549356,90.4493562 26.9562232,90.4360515 26.9145923,90.4321888 L26.9145923,90.8300429 C27.0497854,90.8300429 27.8085837,90.8373391 28.3871245,90.8373391 L30.0806867,90.8373391 L30.0806867,90.4493562 L29.6545064,90.4493562 C29.1055794,90.4493562 28.7635193,89.8935622 28.7635193,88.444206 L28.7635193,79.5995708 C31.0961373,84.0776824 32.2098712,86.2879828 34.704721,91.0446352 L35.0257511,91.0403433 C35.0257511,90.1678112 34.988412,79.3214592 34.988412,78.8201717 C34.988412,77.4261803 35.5201717,76.7755365 36.4257511,76.7755365 L36.4257511,76.4 C36.1733906,76.4 35.3927039,76.3965665 34.7987124,76.3965665 L33.1403433,76.3965665 Z M78.0716738,69.0309013 C77.5377682,69.0309013 77.0643777,69.0128755 76.767382,68.9944206 C76.4849785,68.9755365 76.3802575,68.4776824 76.3802575,68.1433476 C76.3802575,67.0845494 76.3854077,63.3 76.3854077,62.4081545 L76.951073,62.4081545 C78.1540773,62.4081545 78.5991416,63.5321888 78.6575107,65.0566524 L78.9553648,65.0686695 C78.9553648,64.7716738 78.951073,63.6227468 78.951073,62.3223176 C78.951073,60.8545064 78.9862661,59.4356223 78.9862661,59.3055794 L78.6695279,59.293133 C78.6695279,60.4270386 78.1832618,61.9201717 76.951073,61.9201717 L76.3854077,61.9201717 C76.3854077,61.2519313 76.3716738,56.388412 76.3716738,55.5150215 C76.3716738,55.4223176 76.4012876,55.3849785 76.52103,55.3665236 C76.7287554,55.3472103 76.9519313,55.3472103 77.4120172,55.3472103 C79.0004292,55.3472103 79.6124464,56.4347639 80.5175966,58.4978541 L80.8918455,58.4759657 C80.7291845,57.5291845 80.5690987,56.1377682 80.3905579,55.0407725 C80.3742489,54.9854077 80.3459227,54.9484979 80.2712446,54.9484979 C79.5587983,55.0038627 77.4480687,54.9819742 75.4716738,54.9819742 C74.7901288,54.9819742 73.8905579,54.9854077 73.3364807,54.9854077 C73.0824034,54.9854077 72.3991416,54.9828326 71.8519313,54.9828326 L70.2334764,54.9828326 L70.2334764,55.3339056 C70.2935622,55.3339056 70.6759657,55.3472103 70.72103,55.3472103 C71.1957082,55.3472103 71.5124464,55.8845494 71.2450644,56.9248927 C70.6364807,59.3399142 69.1613734,65.2038627 69.1613734,65.2038627 C69.1613734,65.2038627 67.5274678,58.4866953 67.0077253,56.3695279 C66.8150215,55.6072961 66.8600858,55.3472103 67.2909871,55.3472103 L67.6944206,55.3472103 L67.6944206,54.9716738 C67.4420601,54.9716738 66.5154506,54.9682403 65.7437768,54.9682403 C64.9716738,54.9682403 63.9381974,54.9716738 63.6858369,54.9716738 L63.6858369,54.9746781 C63.4055794,54.9738197 62.7819742,54.9708155 62.2197425,54.9708155 L60.560515,54.9708155 L60.5759657,55.3463519 C61.4081545,55.3463519 61.8583691,55.6021459 61.8583691,57.0137339 L61.8566524,57.0137339 C61.8566524,57.2553648 61.8583691,63.3266094 61.8583691,64.9060086 C61.8583691,67.4540773 61.3613734,69.0781116 59.7484979,69.0781116 C58.3961373,69.0781116 57.8454936,67.8463519 57.8454936,65.7467811 L57.8454936,56.4386266 C57.8454936,55.583691 57.9639485,55.3609442 58.4107296,55.3609442 L58.7703863,55.3609442 L58.7703863,54.9746781 C58.5180258,54.9746781 57.5948498,54.9708155 56.8214592,54.9708155 C56.0343348,54.9708155 55.0188841,54.9746781 54.7656652,54.9746781 L54.7656652,55.3609442 L55.2613734,55.3609442 C55.6922747,55.3609442 55.8261803,55.583691 55.8261803,56.4386266 L55.8261803,65.7283262 C55.8261803,67.7536481 56.9360515,69.6150215 59.4004292,69.6150215 C61.8802575,69.6150215 62.3888412,67.4373391 62.3888412,64.9111588 L62.3888412,57.0137339 L62.3896996,57.0137339 C62.3896996,55.6206009 62.8291845,55.3502146 63.7351931,55.3502146 L63.7351931,55.3472103 L64.2751073,55.3472103 C64.6313305,55.3472103 64.751073,55.6626609 64.9875536,56.6291845 C65.5523605,58.9141631 67.9540773,68.6085837 68.1905579,69.6120172 L68.4678112,69.6120172 C68.72103,68.6270386 71.006867,59.7690987 71.6450644,57.3167382 C72.0751073,55.6643777 72.6811159,55.3476395 73.3347639,55.3472103 C73.4287554,55.3472103 73.7515021,55.3609442 73.7957082,55.3609442 C74.2266094,55.3609442 74.3600858,55.583691 74.3600858,56.4386266 L74.3600858,67.9579399 C74.3600858,68.8120172 74.2266094,69.0351931 73.7957082,69.0351931 L73.3515021,69.0351931 L73.3515021,69.4214592 L80.5128755,69.4214592 C80.6017167,69.4214592 80.6351931,69.4596567 80.6502146,69.4030043 C80.9459227,68.2137339 81.1656652,66.3978541 81.4038627,65.3579399 L81.0240343,65.3476395 C80.1030043,67.6974249 79.4304721,69.0309013 78.0716738,69.0309013 Z M90.6197425,68.411588 L89.2399142,65.2991416 L87.7776824,62.1532189 L88.060515,62.0030043 C88.9815451,61.4454936 89.8373391,60.5703863 89.8373391,58.6566524 C89.8373391,56.1862661 88.3377682,54.9746781 86.7184549,54.9746781 C86.4360515,54.9746781 85.3025751,54.9708155 84.2480687,54.9708155 C83.4154506,54.9708155 82.3712446,54.9746781 82.1497854,54.9746781 L82.1497854,55.3502146 L82.6343348,55.3502146 C83.0652361,55.3502146 83.1987124,55.5729614 83.1987124,56.427897 L83.1987124,67.9472103 C83.1987124,68.8021459 83.0652361,69.0060086 82.6343348,69.0060086 L82.1497854,69.0060086 L82.1497854,69.4107296 L86.0351931,69.4107296 L86.0351931,69.0060086 L85.7828326,69.0060086 C85.3527897,69.0060086 85.2180258,68.8021459 85.2180258,67.9472103 L85.2180258,62.6150215 C85.2180258,62.4472103 85.2480687,62.4103004 85.3811159,62.4103004 C85.8274678,62.4103004 86.0502146,62.7266094 86.2725322,63.2639485 C87.5055794,66.1815451 88.2407725,67.9253219 88.4785408,68.4828326 C88.4785408,68.4828326 88.7978541,69.3613734 89.6798283,69.3854077 C90.4467811,69.4072961 91.6120172,69.4107296 91.6120172,69.4107296 L91.6218884,69.0244635 C91.3545064,69.0244635 90.8133047,68.8575107 90.6197425,68.411588 Z M85.8802575,61.9459227 C85.7351931,61.9459227 85.3107296,61.972103 85.2622318,61.9090129 C85.2622318,60.1630901 85.2708155,57.3012876 85.2708155,56.148927 C85.2708155,55.5729614 85.4197425,55.3875536 85.9841202,55.3875536 C87.0678112,55.3875536 87.6922747,56.539485 87.6922747,58.6012876 C87.6922747,60.9609442 86.97897,61.9459227 85.8802575,61.9459227 Z M49.3381974,54.767382 C46.5609442,54.767382 44.4815451,58.044206 44.4815451,62.2244635 C44.4815451,66.3678112 46.551073,69.6150215 49.3283262,69.6150215 C52.1051502,69.6150215 54.2244635,66.3678112 54.2244635,62.1875536 C54.2244635,58.0064378 52.1154506,54.767382 49.3381974,54.767382 Z M49.3381974,69.1424893 C47.2888412,69.1424893 46.7690987,65.6244635 46.7690987,62.2244635 C46.7690987,58.7875536 47.3081545,55.2081545 49.3583691,55.2081545 C51.4077253,55.2081545 51.9369099,58.7506438 51.9369099,62.1875536 C51.9369099,65.6244635 51.3866953,69.1424893 49.3381974,69.1424893 Z" id="Fill-4" fill="#FFFFFE"></path>
            </g>
        </g>
    </g>
</svg>
