<?xml version="1.0" encoding="UTF-8" standalone="no"?>
<svg width="100px" height="100px" viewBox="0 0 100 100" version="1.1" xmlns="http://www.w3.org/2000/svg" xmlns:xlink="http://www.w3.org/1999/xlink">
    <!-- Generator: Sketch 50.2 (55047) - http://www.bohemiancoding.com/sketch -->
    <title>reimagined/branding/pillbox/mg</title>
    <desc>Created with Sketch.</desc>
    <defs></defs>
    <g id="Styles" stroke="none" stroke-width="1" fill="none" fill-rule="evenodd">
        <g id="Market-Branding" transform="translate(-61.000000, -500.000000)">
            <g id="broadsheets/branding/montreal-gazette/pillbox" transform="translate(61.000000, 500.000000)">
                <g id="MG_Masthead_RGB">
                    <polygon id="Fill-1" fill="#4196BD" points="0 99.9742489 99.9420601 99.9742489 99.9420601 0.0575107296 0 0.0575107296"></polygon>
                    <polyline id="Fill-3" fill="#1C6893" points="95.0124464 5.02618026 40.4828326 5.02618026 5.08240343 40.4261803 5.08240343 94.9562232 59.532618 94.9562232 95.0124464 59.4755365 95.0124464 5.02618026"></polyline>
                    <path d="M39.8497854,89.1107296 C39.1540773,90.4824034 38.344206,90.8845494 36.2386266,90.9017167 L34.7150215,90.9188841 L40.2961373,79.6536481 L40.3085837,79.6270386 L40.1536481,79.3841202 L37.5991416,79.3841202 C34.1978541,79.3841202 34.1021459,79.2935622 33.783691,78.9918455 L33.7686695,78.9776824 L33.3141631,78.9776824 L32.8587983,82.4562232 L33.2334764,82.4562232 L33.5476395,81.7896996 C34.2206009,80.3017167 34.7270386,80.0175966 36.7343348,80.0004292 L38.0090129,79.9841202 L32.4476395,91.2484979 L32.4339056,91.2751073 L32.5892704,91.5180258 L39.9197425,91.5180258 L40.5995708,88.4386266 L40.6133047,88.3755365 L40.2167382,88.3755365 L39.8497854,89.1107296" id="Fill-4" fill="#FFFFFE"></path>
                    <path d="M27.1772532,86.2733906 L24.593133,86.2733906 L25.9184549,81.4733906 L27.1772532,86.2733906 Z M30.0862661,89.4905579 L27.1364807,79.0858369 L27.1257511,79.0480687 L26.7120172,79.0480687 L25.7957082,79.9107296 L25.7858369,79.9206009 L23.07897,89.1188841 C22.6755365,90.4012876 22.2772532,90.9798283 21.7030043,91.1150215 L21.4515021,91.1781116 L21.4515021,91.5356223 L21.5038627,91.5356223 C21.6266094,91.5356223 21.851073,91.5287554 22.111588,91.5218884 C22.4562232,91.511588 22.8480687,91.5004292 23.1291845,91.5004292 C23.4012876,91.5004292 23.8077253,91.511588 24.1660944,91.5218884 C24.4287554,91.5287554 24.6583691,91.5356223 24.7716738,91.5356223 L24.8236052,91.5356223 L24.8236052,91.1751073 L24.4613734,91.1137339 C23.9493562,91.0433476 23.7107296,90.7502146 23.7107296,90.1939914 C23.7107296,89.7858369 23.7892704,89.2613734 23.955794,88.5476395 L24.404721,86.9248927 L27.3639485,86.9248927 L27.972103,89.2180258 C28.0815451,89.6373391 28.1467811,90.0480687 28.1467811,90.3171674 C28.1467811,90.7660944 27.9321888,90.9995708 27.4300429,91.0969957 L26.9811159,91.1751073 L26.9811159,91.5356223 L27.032618,91.5356223 C27.1356223,91.5356223 27.4751073,91.5291845 27.872103,91.5227468 C28.4240343,91.5124464 29.1111588,91.5004292 29.3995708,91.5004292 C29.6729614,91.5004292 30.2274678,91.511588 30.7158798,91.5218884 C31.0755365,91.5287554 31.3888412,91.5356223 31.5021459,91.5356223 L31.5540773,91.5356223 L31.5540773,91.1763948 L31.1969957,91.0978541 C30.6927039,90.967382 30.3914163,90.5317597 30.0862661,89.4905579 L30.0862661,89.4905579 Z" id="Fill-5" fill="#FFFFFE"></path>
                    <path d="M78.2150215,89.4939914 C77.4712446,90.6270386 76.9072961,90.9725322 75.8030043,90.9725322 L75.67897,90.9725322 C74.7609442,90.9725322 74.5124464,90.7042918 74.5124464,88.8158798 L74.5124464,85.5141631 L75.1815451,85.5472103 C76.7369099,85.616309 76.8480687,86.032618 76.9523605,86.9660944 L76.9918455,87.4017167 L77.444206,87.4017167 L77.444206,87.3497854 C77.444206,87.1802575 77.4381974,86.8781116 77.4300429,86.5274678 C77.4206009,86.0751073 77.4094421,85.5630901 77.4094421,85.1948498 C77.4094421,84.8223176 77.4214592,84.3017167 77.4304721,83.8416309 C77.4381974,83.4991416 77.444206,83.1991416 77.444206,83.039485 L77.444206,82.9875536 L76.9935622,82.9875536 L76.9523605,83.3167382 C76.8154506,84.4772532 76.7248927,84.7549356 75.1815451,84.8596567 L74.5124464,84.893133 L74.5124464,79.9751073 C74.8467811,79.9240343 75.1875536,79.8944206 75.4317597,79.8944206 L75.5549356,79.8944206 C76.7094421,79.8944206 77.3587983,80.3218884 78.0381974,81.5313305 L78.3356223,81.9785408 L78.6896996,81.9785408 L78.2922747,79.3751073 L78.2849785,79.3309013 L77.1274678,79.3309013 C77.0343348,79.3309013 76.5613734,79.3334764 75.9987124,79.3369099 C75.1729614,79.3420601 74.1532189,79.3484979 73.8596567,79.3484979 C73.5862661,79.3484979 72.9,79.3369099 72.2944206,79.3274678 C71.851073,79.3197425 71.4639485,79.3133047 71.351073,79.3133047 L71.2991416,79.3133047 L71.2991416,79.6716738 L71.6390558,79.7515021 C72.3776824,79.9360515 72.5360515,80.1618026 72.5360515,82.1386266 L72.5360515,88.7098712 C72.5360515,90.6866953 72.3776824,90.9128755 71.639485,91.0974249 L71.2991416,91.1772532 L71.2991416,91.5356223 L71.351073,91.5356223 C71.4639485,91.5356223 71.8386266,91.5287554 72.2678112,91.5218884 C72.8527897,91.511588 73.516309,91.5004292 73.7892704,91.5004292 C74.0094421,91.5004292 74.5407725,91.5042918 75.1274678,91.5077253 C75.855794,91.5124464 76.672103,91.5180258 77.0927039,91.5180258 L78.5497854,91.5180258 L78.9725322,88.8875536 L78.6004292,88.8875536 L78.2150215,89.4939914" id="Fill-6" fill="#FFFFFE"></path>
                    <path d="M21.0484979,84.9055794 L21.52103,84.8214592 L21.52103,84.3480687 L21.4686695,84.3480687 C21.2781116,84.3480687 20.87897,84.3575107 20.416309,84.3690987 C19.8450644,84.3828326 19.1982833,84.3987124 18.8193133,84.3987124 C18.4111588,84.3987124 17.5497854,84.3819742 16.7892704,84.3678112 C16.2450644,84.3566524 15.7746781,84.3480687 15.6137339,84.3480687 L15.5622318,84.3480687 L15.5622318,84.8214592 L16.3094421,84.9553648 C17.3236052,85.1729614 17.5806867,85.483691 17.5806867,87.8321888 L17.5806867,88.8416309 C17.5806867,90.3969957 16.9549356,91.060515 15.4879828,91.060515 C13.0025751,91.060515 11.5781116,87.8974249 11.5781116,82.3811159 C11.5781116,77.4424893 12.9935622,74.6103004 15.4626609,74.6103004 C17.1034335,74.6103004 18.0609442,75.9309013 19.0755365,78.0635193 L19.5695279,79.051073 L20.088412,79.051073 L19.6532189,74.9815451 L19.6502146,74.955794 L19.6274678,74.9424893 C18.404721,74.2141631 17.1446352,73.8755365 15.6643777,73.8755365 C12.1888412,73.8755365 8.49570815,76.9888412 8.49570815,82.7596567 C8.49570815,88.3334764 11.1270386,91.7957082 15.3622318,91.7957082 C17.1596567,91.7957082 19.2592275,91.3180258 20.7098712,90.57897 L20.7381974,90.5639485 L20.7381974,90.1712446 L20.7094421,90.1575107 C19.9429185,89.7742489 19.8553648,89.5506438 19.8553648,87.9832618 L19.8553648,87.6806867 C19.8553648,85.7901288 20.027897,85.1248927 21.0484979,84.9055794" id="Fill-7" fill="#FFFFFE"></path>
                    <path d="M69.6429185,78.9862661 C69.1497854,79.3085837 68.8618026,79.4017167 65.5725322,79.4017167 C62.4708155,79.4017167 62.2103004,79.3094421 61.788412,78.988412 L61.7746781,78.9776824 L61.3381974,78.9776824 L61.0339056,82.327897 L61.0287554,82.3854077 L61.4193133,82.3854077 L61.7871245,81.5596567 C62.3257511,80.3729614 62.8665236,80.0154506 64.1969957,79.9652361 L64.5313305,79.9497854 L64.5313305,88.7098712 C64.5313305,90.7712446 64.3961373,90.8630901 63.5819742,91.0618026 L63.0828326,91.1772532 L63.0828326,91.5356223 L63.1347639,91.5356223 C63.2390558,91.5356223 63.5901288,91.5291845 63.9982833,91.5223176 C64.5523605,91.5124464 65.2424893,91.5004292 65.5193133,91.5004292 C65.8128755,91.5004292 66.5214592,91.5128755 67.0914163,91.5227468 C67.4819742,91.5296137 67.8111588,91.5356223 67.904721,91.5356223 L67.9566524,91.5356223 L67.9566524,91.1772532 L67.4575107,91.0622318 C66.6313305,90.8600858 66.5253219,90.7553648 66.5253219,88.7098712 L66.5253219,79.948927 L67.0197425,79.9652361 C68.5845494,80.0004292 68.9360515,80.4334764 69.1429185,81.6369099 L69.2922747,82.3854077 L69.6630901,82.3854077 L70.093133,79.0364807 L70.1012876,78.9776824 L69.655794,78.9776824 L69.6429185,78.9862661" id="Fill-8" fill="#FFFFFE"></path>
                    <path d="M48.4042918,89.4939914 C47.660515,90.6270386 47.0965665,90.9725322 45.9922747,90.9725322 L45.8686695,90.9725322 C44.9502146,90.9725322 44.7017167,90.7042918 44.7017167,88.8158798 L44.7017167,85.5141631 L45.3716738,85.5472103 C46.9261803,85.616309 47.0381974,86.032618 47.1416309,86.9660944 L47.1819742,87.4017167 L47.6339056,87.4017167 L47.6339056,87.3497854 C47.6339056,87.1802575 47.627897,86.8781116 47.6197425,86.5274678 C47.6103004,86.0751073 47.5991416,85.5630901 47.5991416,85.1948498 C47.5991416,84.8223176 47.6107296,84.3017167 47.6201717,83.8416309 C47.627897,83.4991416 47.6339056,83.1991416 47.6339056,83.039485 L47.6339056,82.9875536 L47.183691,82.9875536 L47.1416309,83.3167382 C47.0051502,84.4772532 46.9145923,84.7549356 45.3716738,84.8596567 L44.7017167,84.893133 L44.7017167,79.9751073 C45.0364807,79.9240343 45.3772532,79.8944206 45.62103,79.8944206 L45.7454936,79.8944206 C46.8991416,79.8944206 47.548927,80.3218884 48.227897,81.5313305 L48.5253219,81.9785408 L48.8793991,81.9785408 L48.4815451,79.3751073 L48.4746781,79.3309013 L47.3171674,79.3309013 C47.2236052,79.3309013 46.751073,79.3334764 46.1875536,79.3369099 C45.3622318,79.3420601 44.3437768,79.3484979 44.0493562,79.3484979 C43.776824,79.3484979 43.0905579,79.3369099 42.4854077,79.3274678 C42.0420601,79.3197425 41.6545064,79.3133047 41.5407725,79.3133047 L41.4888412,79.3133047 L41.4888412,79.6716738 L41.8283262,79.7515021 C42.5669528,79.9360515 42.7257511,80.1618026 42.7257511,82.1386266 L42.7257511,88.7098712 C42.7257511,90.6866953 42.5669528,90.9128755 41.8291845,91.0974249 L41.4888412,91.1772532 L41.4888412,91.5356223 L41.5407725,91.5356223 C41.6545064,91.5356223 42.0291845,91.5287554 42.4583691,91.5218884 C43.0429185,91.511588 43.7060086,91.5004292 43.97897,91.5004292 C44.1991416,91.5004292 44.7304721,91.5042918 45.3171674,91.5077253 C46.0454936,91.5124464 46.8613734,91.5180258 47.2819742,91.5180258 L48.739485,91.5180258 L49.1622318,88.8875536 L48.7905579,88.8875536 L48.4042918,89.4939914" id="Fill-9" fill="#FFFFFE"></path>
                    <path d="M59.1896996,78.9862661 C58.6974249,79.3085837 58.4090129,79.4017167 55.1201717,79.4017167 C52.0180258,79.4017167 51.7583691,79.3094421 51.3356223,78.988412 L51.3218884,78.9776824 L50.8858369,78.9776824 L50.5759657,82.3854077 L50.967382,82.3854077 L51.3343348,81.5596567 C51.8729614,80.3729614 52.4137339,80.0154506 53.7446352,79.9652361 L54.07897,79.9497854 L54.07897,88.7098712 C54.07897,90.7712446 53.9437768,90.8626609 53.1296137,91.0618026 L52.6304721,91.1772532 L52.6304721,91.5356223 L52.6824034,91.5356223 C52.7862661,91.5356223 53.1373391,91.5291845 53.5463519,91.5223176 C54.1004292,91.5124464 54.7901288,91.5004292 55.0678112,91.5004292 C55.3609442,91.5004292 56.0695279,91.5128755 56.6386266,91.5227468 C57.0296137,91.5296137 57.3587983,91.5356223 57.4515021,91.5356223 L57.5038627,91.5356223 L57.5038627,91.1772532 L57.004721,91.0622318 C56.1785408,90.8600858 56.0729614,90.7553648 56.0729614,88.7098712 L56.0729614,79.948927 L56.5678112,79.9652361 C58.1321888,80.0004292 58.4841202,80.4334764 58.6896996,81.6369099 L58.8399142,82.3854077 L59.211588,82.3854077 L59.6407725,79.0364807 L59.6476395,78.9776824 L59.2025751,78.9776824 L59.1896996,78.9862661" id="Fill-10" fill="#FFFFFE"></path>
                    <path d="M79.4261803,65.8785408 L76.8420601,65.8785408 L78.1678112,61.0781116 L79.4261803,65.8785408 Z M82.3351931,69.0957082 L79.3849785,58.6918455 L79.3742489,58.6536481 L78.9609442,58.6536481 L78.0454936,59.5158798 L78.0347639,59.5253219 L75.3287554,68.7236052 C74.9248927,70.0064378 74.5261803,70.5849785 73.9523605,70.7201717 L73.7012876,70.7828326 L73.7012876,71.1407725 L73.7532189,71.1407725 C73.8755365,71.1407725 74.1004292,71.1339056 74.3613734,71.1261803 C74.7060086,71.1171674 75.0978541,71.1055794 75.3785408,71.1055794 C75.651073,71.1055794 76.0562232,71.1171674 76.4141631,71.1270386 C76.6781116,71.1339056 76.9077253,71.1407725 77.02103,71.1407725 L77.0729614,71.1407725 L77.0729614,70.7793991 L76.7103004,70.7188841 C76.1982833,70.6480687 75.9600858,70.3553648 75.9600858,69.7991416 C75.9600858,69.3896996 76.0381974,68.8665236 76.2051502,68.1523605 L76.6540773,66.5300429 L79.6133047,66.5300429 L80.22103,68.8223176 C80.3304721,69.2437768 80.3961373,69.6549356 80.3961373,69.9227468 C80.3961373,70.372103 80.1815451,70.604721 79.67897,70.7012876 L79.2300429,70.7793991 L79.2300429,71.1407725 L79.2824034,71.1407725 C79.3845494,71.1407725 79.7240343,71.1347639 80.12103,71.1274678 C80.6733906,71.1180258 81.3596567,71.1055794 81.648927,71.1055794 C81.9218884,71.1055794 82.476824,71.1171674 82.9656652,71.1270386 C83.3244635,71.1339056 83.6377682,71.1407725 83.751073,71.1407725 L83.8034335,71.1407725 L83.8034335,70.7815451 L83.4467811,70.7021459 C82.9412017,70.572103 82.6407725,70.1369099 82.3351931,69.0957082 L82.3351931,69.0957082 Z" id="Fill-11" fill="#FFFFFE"></path>
                    <path d="M29.6802575,59.2519313 C31.6218884,59.2519313 32.3133047,62.5467811 32.3133047,65.6304721 C32.3133047,69.1618026 31.6283262,70.8064378 30.1575107,70.8064378 C28.2030043,70.8064378 27.506867,67.5120172 27.506867,64.4291845 C27.506867,60.8965665 28.1969957,59.2519313 29.6802575,59.2519313 Z M29.9270386,71.3351931 C31.2746781,71.3351931 32.4223176,70.7467811 33.2463519,69.6334764 C34.0793991,68.5081545 34.5197425,66.9214592 34.5197425,65.0467811 C34.5197425,61.2060086 32.7167382,58.7244635 29.9270386,58.7244635 C27.1274678,58.7244635 25.3180258,61.1922747 25.3180258,65.011588 C25.3180258,68.8532189 27.1274678,71.3351931 29.9270386,71.3351931 L29.9270386,71.3351931 Z" id="Fill-12" fill="#FFFFFE"></path>
                    <path d="M52.4703863,71.1407725 L52.5223176,71.1407725 L52.5223176,70.7819742 L52.023176,70.667382 C51.1969957,70.4648069 51.0914163,70.3596567 51.0914163,68.3154506 L51.0914163,59.5540773 L51.5854077,59.5703863 C53.1506438,59.6055794 53.5017167,60.0381974 53.7085837,61.2416309 L53.8583691,61.9896996 L54.2291845,61.9896996 L54.6587983,58.6412017 L54.6669528,58.5828326 L54.2214592,58.5828326 L54.2085837,58.5914163 C53.7154506,58.9137339 53.4274678,59.006867 50.1377682,59.006867 C47.0369099,59.006867 46.7763948,58.9141631 46.3540773,58.5935622 L46.3403433,58.5828326 L45.9038627,58.5828326 L45.5944206,61.9896996 L45.9854077,61.9896996 L46.3523605,61.1648069 C46.8918455,59.9785408 47.432618,59.6206009 48.7626609,59.5703863 L49.0969957,59.5549356 L49.0969957,68.3154506 C49.0969957,70.3755365 48.9618026,70.4678112 48.1480687,70.6669528 L47.6484979,70.7819742 L47.6484979,71.1407725 L47.7008584,71.1407725 C47.8042918,71.1407725 48.1553648,71.1347639 48.5643777,71.1270386 C49.1184549,71.1180258 49.8085837,71.1055794 50.0849785,71.1055794 C50.3785408,71.1055794 51.0871245,71.1184549 51.6566524,71.127897 C52.0476395,71.1347639 52.3763948,71.1407725 52.4703863,71.1407725" id="Fill-13" fill="#FFFFFE"></path>
                    <path d="M91.7793991,68.1746781 L91.3751073,68.8545064 C90.6381974,70.1583691 90.0819742,70.576824 89.0888412,70.576824 L89.0356223,70.576824 C88.1459227,70.576824 87.8686695,70.2798283 87.8686695,68.4214592 L87.8686695,61.744206 C87.8686695,59.7545064 88,59.5793991 88.8171674,59.3922747 L89.3343348,59.2772532 L89.3343348,58.9184549 L89.2824034,58.9184549 C89.172103,58.9184549 88.8081545,58.9240343 88.3845494,58.9313305 C87.8081545,58.9412017 87.0896996,58.9536481 86.7922747,58.9536481 C86.5193133,58.9536481 85.9708155,58.9420601 85.4862661,58.9317597 C85.1309013,58.9248927 84.8214592,58.9184549 84.7077253,58.9184549 L84.655794,58.9184549 L84.655794,59.2763948 L84.9948498,59.3566524 C85.7339056,59.5459227 85.8922747,59.772103 85.8922747,61.744206 L85.8922747,68.3154506 C85.8922747,70.2871245 85.7339056,70.5137339 84.9961373,70.7017167 L84.655794,70.7824034 L84.655794,71.1407725 L84.7077253,71.1407725 C84.8304721,71.1407725 85.2412017,71.1339056 85.7051502,71.1261803 C86.3120172,71.1171674 87,71.1055794 87.2690987,71.1055794 C87.488412,71.1055794 87.9304721,71.1085837 88.4218884,71.1128755 C89.0390558,71.1180258 89.7334764,71.123176 90.1660944,71.123176 L91.6403433,71.123176 L92.1712446,68.1746781 L91.7793991,68.1746781" id="Fill-14" fill="#FFFFFE"></path>
                    <path d="M66.639485,71.1270386 C67.2248927,71.1171674 67.888412,71.1055794 68.160515,71.1055794 C68.3815451,71.1055794 68.9124464,71.1090129 69.5,71.1128755 C70.2283262,71.1180258 71.0433476,71.123176 71.4639485,71.123176 L72.9214592,71.123176 L73.3446352,68.4927039 L72.9725322,68.4927039 L72.5866953,69.0995708 C71.8429185,70.2317597 71.2793991,70.576824 70.1746781,70.576824 L70.051073,70.576824 C69.1330472,70.576824 68.8841202,70.3085837 68.8841202,68.4214592 L68.8841202,65.1188841 L69.5540773,65.1519313 C71.1090129,65.22103 71.2201717,65.6369099 71.3244635,66.5712446 L71.3635193,67.006867 L71.8167382,67.006867 L71.8167382,66.9549356 C71.8167382,66.7849785 71.8098712,66.4824034 71.8025751,66.1321888 C71.7922747,65.6802575 71.7815451,65.1686695 71.7815451,64.8 C71.7815451,64.4274678 71.7927039,63.9064378 71.8030043,63.4463519 C71.8098712,63.1042918 71.8167382,62.8042918 71.8167382,62.6446352 L71.8167382,62.593133 L71.3652361,62.593133 L71.3244635,62.92103 C71.1875536,64.0815451 71.0965665,64.360515 69.5540773,64.4652361 L68.8841202,64.4982833 L68.8841202,59.5806867 C69.2188841,59.5296137 69.5600858,59.4995708 69.8038627,59.4995708 L69.9274678,59.4995708 C71.0811159,59.4995708 71.7309013,59.9270386 72.4098712,61.1369099 L72.7077253,61.5841202 L73.0613734,61.5841202 L72.6639485,58.9806867 L72.6570815,58.9360515 L71.4995708,58.9360515 C71.4064378,58.9360515 70.9330472,58.9390558 70.3708155,58.9420601 C69.5450644,58.9472103 68.5257511,58.9536481 68.2313305,58.9536481 C67.9583691,58.9536481 67.272103,58.9420601 66.6665236,58.9317597 C66.223176,58.9248927 65.8360515,58.9184549 65.7236052,58.9184549 L65.6712446,58.9184549 L65.6712446,59.2763948 L66.0111588,59.3566524 C66.7493562,59.5412017 66.9081545,59.7678112 66.9081545,61.744206 L66.9081545,68.3154506 C66.9081545,70.2922747 66.7493562,70.5175966 66.0120172,70.7017167 L65.6712446,70.7824034 L65.6712446,71.1407725 L65.7236052,71.1407725 C65.8360515,71.1407725 66.2107296,71.1339056 66.639485,71.1270386" id="Fill-15" fill="#FFFFFE"></path>
                    <path d="M36.4291845,60.4703863 L36.3583691,68.1733906 C36.3407725,70.1733906 36.1171674,70.5171674 35.3025751,70.7377682 L35.1223176,70.7828326 L35.1223176,71.1407725 L35.1742489,71.1407725 C35.2961373,71.1407725 35.5145923,71.1339056 35.7678112,71.1261803 C36.1025751,71.1171674 36.4824034,71.1055794 36.7630901,71.1055794 C37.0360515,71.1055794 37.4545064,71.1171674 37.8223176,71.1270386 C38.0927039,71.1339056 38.3291845,71.1407725 38.4416309,71.1407725 L38.4935622,71.1407725 L38.4935622,70.7828326 L38.3120172,70.7373391 C37.2974249,70.5175966 37.1158798,70.1343348 37.0982833,68.1733906 L37.0467811,61.4025751 L42.9896996,71.2390558 L43.0081545,71.2686695 L43.439485,71.2038627 L43.5107296,61.8854077 C43.5291845,59.9012876 43.7652361,59.5381974 44.5665236,59.3206009 L44.7472103,59.2759657 L44.7472103,58.9184549 L44.695279,58.9184549 C44.5630901,58.9184549 44.3502146,58.9248927 44.1034335,58.9321888 C43.7901288,58.9424893 43.4356223,58.9536481 43.1583691,58.9536481 C42.8738197,58.9536481 42.4381974,58.9420601 42.0536481,58.9317597 C41.7781116,58.9248927 41.5390558,58.9184549 41.4270386,58.9184549 L41.3751073,58.9184549 L41.3751073,59.2759657 L41.5596567,59.3214592 C42.5502146,59.4927039 42.7536481,59.9240343 42.7699571,61.8854077 L42.8218884,67.3613734 L37.8682403,58.9261803 L37.8515021,58.8978541 L37.8184549,58.9012876 C37.4626609,58.9347639 36.655794,58.9536481 36.2330472,58.9536481 C35.7253219,58.9536481 35.1828326,58.9351931 34.9296137,58.9184549 L34.8742489,58.9145923 L34.8742489,59.2738197 L35.0862661,59.3377682 C35.644206,59.5296137 35.9343348,59.7738197 36.4291845,60.4703863" id="Fill-16" fill="#FFFFFE"></path>
                    <path d="M10.0871245,71.0978541 C10.5008584,71.0978541 11.1484979,71.1154506 11.6682403,71.1291845 C12.0412017,71.139485 12.3630901,71.1480687 12.5098712,71.1480687 L12.5622318,71.1480687 L12.5622318,70.6763948 L12.193133,70.5909871 C10.7738197,70.2781116 10.5914163,69.8274678 10.6944206,66.8832618 L10.9145923,57.9751073 L15.2364807,71.2133047 L15.2480687,71.2493562 L15.8287554,71.2493562 L20.0150215,57.9733906 L20.3566524,67.1862661 C20.4579399,70.1171674 20.3227468,70.2502146 19.0579399,70.5665236 L18.539485,70.7025751 L18.539485,71.1480687 L18.5914163,71.1480687 C18.7523605,71.1480687 19.223176,71.1390558 19.7678112,71.1283262 C20.527897,71.1145923 21.3896996,71.0978541 21.7969957,71.0978541 C22.2042918,71.0978541 23.0154506,71.1141631 23.7321888,71.1283262 C24.2459227,71.1390558 24.6896996,71.1480687 24.8502146,71.1480687 L24.9021459,71.1480687 L24.9021459,70.6751073 L24.6085837,70.616309 C23.3313305,70.3454936 23.1111588,69.8682403 23.0343348,67.2077253 L22.7828326,58.1987124 C22.6798283,55.1579399 22.9716738,54.5746781 23.9025751,54.3648069 L24.6244635,54.204721 L24.6244635,53.7296137 L24.5695279,53.732618 C24.0969957,53.7570815 22.8270386,53.7828326 22.0995708,53.7828326 C21.7381974,53.7828326 20.8274678,53.7566524 20.4875536,53.732618 L20.4467811,53.7296137 L16.472103,66.7060086 L12.4339056,53.7690987 L12.42103,53.7283262 L12.37897,53.7330472 C11.8772532,53.7828326 10.8515021,53.7828326 10.2386266,53.7828326 C9.83733906,53.7828326 9.35107296,53.7665236 8.92188841,53.7527897 C8.59828326,53.7416309 8.3193133,53.732618 8.14463519,53.732618 L8.09227468,53.732618 L8.09227468,54.2017167 L8.80987124,54.4145923 C9.70472103,54.6969957 10.1648069,55.3755365 10.0351931,58.1480687 L9.65665236,66.8793991 C9.52875536,69.7995708 9.14763948,70.3309013 7.90042918,70.6429185 L7.78927039,70.6802575 L7.78927039,71.1480687 L7.8416309,71.1480687 C8.01802575,71.1480687 8.33261803,71.1386266 8.69742489,71.1274678 C9.16909871,71.1137339 9.70300429,71.0978541 10.0871245,71.0978541" id="Fill-17" fill="#FFFFFE"></path>
                    <path d="M59.8562232,59.4287554 C60.955794,59.4287554 61.4463519,60.2896996 61.4463519,62.2206009 C61.4463519,64.1854077 60.8403433,65.1008584 59.5381974,65.1008584 C59.3334764,65.1008584 59.227897,65.0888412 59.1051502,65.0742489 L59.0776824,65.0712446 L59.0776824,59.4845494 C59.2133047,59.4424893 59.4154506,59.4287554 59.8562232,59.4287554 Z M59.0776824,68.3154506 L59.0776824,65.7712446 C59.1214592,65.7725322 59.1639485,65.7755365 59.2072961,65.7781116 C59.2729614,65.7819742 59.344206,65.7866953 59.4339056,65.7879828 L61.2575107,69.6446352 C61.8253219,70.8309013 62.4072961,71.211588 63.6540773,71.211588 C64.072103,71.211588 64.4703863,71.1798283 64.7772532,71.1223176 L64.8218884,71.1137339 L64.7982833,70.7613734 L64.7579399,70.7549356 C64.1313305,70.6532189 63.8879828,70.3793991 63.2244635,69.0343348 L61.3403433,65.17897 C62.6896996,64.5832618 63.4939914,63.4154506 63.4939914,62.044206 C63.4939914,60.1270386 62.1678112,58.9360515 60.032618,58.9360515 C59.7317597,58.9360515 59.3454936,58.9407725 58.972103,58.9450644 C58.6227468,58.9493562 58.2845494,58.9536481 58.0369099,58.9536481 C57.7639485,58.9536481 57.2034335,58.9420601 56.7094421,58.9317597 C56.3467811,58.9248927 56.0300429,58.9184549 55.9167382,58.9184549 L55.8648069,58.9184549 L55.8648069,59.2763948 L56.2042918,59.3566524 C56.9429185,59.5459227 57.1012876,59.772103 57.1012876,61.744206 L57.1012876,68.3154506 C57.1012876,70.2742489 56.9317597,70.516309 56.2051502,70.7017167 L55.8648069,70.7824034 L55.8648069,71.1407725 L55.9167382,71.1407725 C56.0287554,71.1407725 56.3463519,71.1339056 56.7128755,71.1270386 C57.2244635,71.1171674 57.804721,71.1055794 58.0901288,71.1055794 C58.3622318,71.1055794 58.9909871,71.1171674 59.5463519,71.1270386 C59.9527897,71.1339056 60.3081545,71.1407725 60.4214592,71.1407725 L60.4733906,71.1407725 L60.4733906,70.7815451 L60.0287554,70.6854077 C59.2416309,70.467382 59.0776824,70.4218884 59.0776824,68.3154506 L59.0776824,68.3154506 Z" id="Fill-18" fill="#FFFFFE"></path>
                </g>
            </g>
        </g>
    </g>
</svg>
