<?xml version="1.0" encoding="UTF-8" standalone="no"?>
<svg width="167px" height="20px" viewBox="0 0 167 20" version="1.1" xmlns="http://www.w3.org/2000/svg" xmlns:xlink="http://www.w3.org/1999/xlink">
    <!-- Generator: Sketch 50.2 (55047) - http://www.bohemiancoding.com/sketch -->
    <title>broadsheets/branding/windsor star/horizontal wordmark/coloured</title>
    <desc>Created with Sketch.</desc>
    <defs>
        <polygon id="path-1" points="0.025 0.4125 0.025 19.5583333 44.1625 19.5583333 44.1625 0.4125"></polygon>
    </defs>
    <g id="broadsheets/branding/windsor-star/horizontal-wordmark/coloured" stroke="none" stroke-width="1" fill="none" fill-rule="evenodd">
        <g id="WS_Horizontal_Wordmark_RGB">
            <g id="Group-3" transform="translate(111.666667, 0.000000)" fill="#292D5D">
                <path d="M7.2875,8.01083333 C5.28291667,7.51875 3.70666667,7.29416667 3.11708333,6.93958333 C2.42625,6.54375 1.915,5.91 1.90666667,4.61458333 C1.92333333,2.66791667 3.04083333,1.31666667 5.21625,1.30208333 C7.7525,1.31333333 9.47916667,3.00208333 9.90833333,6.48125 L9.92791667,6.76916667 L10.61625,6.76916667 L10.61625,0.839166667 L9.90583333,0.839166667 L9.90583333,1.10791667 C9.90916667,1.455 9.85541667,1.65208333 9.80166667,1.7325 C9.74833333,1.80666667 9.71875,1.81875 9.6,1.82541667 C9.58375,1.82541667 9.56583333,1.82458333 9.5475,1.82333333 C9.54125,1.83208333 9.35416667,1.75 9.12875,1.61083333 C8.42666667,1.20125 7.09625,0.36875 5.31416667,0.36875 C3.8375,0.367916667 2.56833333,0.908333333 1.68,1.88541667 C0.79,2.86291667 0.28375,4.265 0.28375,5.965 C0.282916667,7.54958333 0.65125,8.715 1.435,9.55166667 C2.21791667,10.3883333 3.38291667,10.8783333 4.92958333,11.1945833 C6.85833333,11.58125 8.23375,11.8741667 9.08125,12.65375 C9.75708333,13.2920833 10.0779167,14.0891667 10.0795833,15.0033333 C10.0695833,17.2445833 8.52833333,18.8254167 6.15375,18.835 C3.35625,18.8275 1.25041667,16.7254167 0.994166667,12.6545833 L0.9825,12.4716667 L0.26,12.4716667 L0.26,19.3791667 L0.986666667,19.3791667 L0.994166667,19.1925 C1.035,18.55375 1.22625,18.4520833 1.41541667,18.445 C1.69958333,18.4333333 2.31416667,18.7470833 3.11333333,19.0795833 C3.91958333,19.4083333 4.94583333,19.7433333 6.17833333,19.7433333 L6.1825,19.7433333 C7.8425,19.7433333 9.24041667,19.1295833 10.2120833,18.04875 C11.1829167,16.9679167 11.7266667,15.4304167 11.7266667,13.6020833 C11.745,10.5275 10.30375,8.7575 7.2875,8.01083333" id="Fill-1"></path>
            </g>
            <path d="M132.4175,1.64125 L132.936667,1.64125 C135.058333,1.64916667 135.816667,2.085 136.424583,2.83708333 C136.929167,3.50666667 137.467917,4.9875 137.464583,6.57416667 L137.464583,6.76833333 L138.222083,6.76833333 L138.222083,0.839166667 L123.39375,0.839166667 L123.39375,6.76833333 L124.150417,6.76833333 L124.150417,6.57416667 C124.147083,5.09375 124.69,3.50166667 125.194583,2.8325 C125.76625,2.1175 126.660417,1.64625 128.77875,1.64125 L129.247917,1.64125 L129.247917,18.5758333 L128.125417,18.5758333 L128.125417,19.3791667 L133.58375,19.3791667 L133.58375,18.5758333 L132.4175,18.5758333 L132.4175,1.64125" id="Fill-4" fill="#292D5D"></path>
            <path d="M155.6425,9.33125 L155.196667,9.33126456 L155.196667,1.64125 L156.553333,1.64125 C157.980417,1.64208333 158.905833,1.94083333 159.479583,2.54875 C160.055833,3.15416667 160.319583,4.12166667 160.318333,5.53833333 C160.317083,6.875 160.03625,7.80041667 159.34375,8.40625 C158.64875,9.01416667 157.480417,9.33375 155.6425,9.33125 Z M139.836667,12.5945833 L142.219583,5.16458333 L144.40375,12.5945833 L139.836667,12.5945833 Z M165.47375,17.78125 L165.343333,17.9566667 C165.1025,18.2854167 164.684167,18.55875 164.39375,18.5508333 C163.8125,18.535 163.573333,18.2966667 163.354583,17.58875 C163.155833,16.8845833 163.084583,15.7666667 162.986667,14.2533333 C162.845833,11.9175 161.604583,10.3695833 159.230417,9.71458333 C161.886667,9.17541667 163.697917,7.62833333 163.700833,5.33166667 C163.705417,3.88208333 163.114583,2.72916667 162.012917,1.97375 C160.911667,1.21583333 159.32375,0.83875 157.3075,0.83875 L149.355,0.83875 L149.355,1.64125 L151.947917,1.64125 L151.947917,18.5770833 L149.48,18.5770833 L143.994583,0.631666667 L142.799583,0.631666667 L137.392917,17.0529167 C137.222083,17.6475 137.054583,18.0291667 136.823333,18.2495833 C136.5925,18.4675 136.277083,18.575 135.708333,18.5770833 L135.329167,18.5770833 L135.329167,19.3791667 L139.48125,19.3791667 L139.48125,18.5833333 L139.294167,18.5770833 C138.67875,18.5570833 138.7025,18.5404167 138.43875,18.46625 C138.175417,18.375 138.145417,18.3454167 138.127917,18.1191667 C138.127917,18.0158333 138.1525,17.8704167 138.2075,17.6875 L139.517083,13.5529167 L144.69125,13.5529167 L146.22125,18.5770833 L145.050833,18.5770833 L145.050833,19.3791667 L156.295833,19.3791667 L156.295833,18.5770833 L155.115833,18.5770833 L155.115833,10.1345833 L155.66,10.1345833 C157.12625,10.1329167 157.993333,10.3033333 158.502917,10.7129167 C159.015,11.1179167 159.2575,11.8133333 159.402083,12.9945833 C159.65125,15.0508333 159.58875,16.7608333 160.159167,17.95 C160.8125,19.2995833 162.109167,19.5604167 163.201667,19.5604167 L163.235833,19.5604167 C164.546667,19.5620833 165.419167,19.015 165.895417,18.4275 L166.008333,18.2879167 L165.47375,17.78125 Z" id="Fill-5" fill="#292D5D"></path>
            <polyline id="Fill-6" fill="#292D5D" points="23.0008333 1.6325 24.08125 1.6325 24.08125 18.5679167 22.9095833 18.5679167 22.9095833 19.37125 28.4079167 19.37125 28.4079167 18.5679167 27.2495833 18.5679167 27.2495833 1.6325 28.4079167 1.6325 28.4079167 0.829166667 23.0008333 0.829166667 23.0008333 1.6325"></polyline>
            <g id="Group-10" transform="translate(0.000000, 0.416667)">
                <mask id="mask-2" fill="white">
                    <use xlink:href="#path-1"></use>
                </mask>
                <g id="Clip-8"></g>
                <path d="M40.2354167,1.20583333 L40.4183333,1.21583333 C41.3145833,1.275 41.33,1.37541667 41.5025,1.55458333 C41.72875,1.76791667 41.8129167,2.25375 41.81,3.11958333 L41.81,12.7120833 L33.9166667,0.413333333 L29.2554167,0.413333333 L29.2554167,1.21583333 L30.4470833,1.21583333 L30.7395833,1.58166667 L30.7395833,16.2229167 C30.7429167,17.0495833 30.6833333,17.5145833 30.4804167,17.7458333 C30.29,17.9833333 30.05875,18.1779167 29.4354167,18.1779167 L29.2554167,18.19125 L29.2554167,18.95375 L33.19,18.95375 L33.19,18.1875 L33.0058333,18.1779167 C32.3575,18.1779167 32.25125,18.1016667 32.0054167,17.86625 C31.755,17.64625 31.66625,17.12625 31.6691667,16.2745833 L31.6691667,2.93041667 L41.97,19.0829167 L42.7391667,19.0829167 L42.7391667,3.145 C42.7358333,2.32333333 42.8291667,1.87791667 43.0629167,1.64583333 C43.2891667,1.40333333 43.4079167,1.25083333 43.9829167,1.21583333 L44.1625,1.20291667 L44.1625,0.413333333 L40.2354167,0.413333333 L40.2354167,1.20583333" id="Fill-7" fill="#292D5D" mask="url(#mask-2)"></path>
                <path d="M22.0125,0.4125 L22.0125,0.413333333 L17.9033333,0.413333333 L17.9033333,1.2025 L18.08375,1.21583333 C18.6816667,1.255 18.8458333,1.28333333 19.1170833,1.37125 C19.38375,1.47458333 19.4391667,1.52791667 19.4566667,1.79833333 C19.4566667,1.95083333 19.4125,2.17166667 19.315,2.46125 L15.3683333,14.3320833 L12.6929167,6.12291667 L13.7791667,2.89666667 C14.0241667,2.15833333 14.20875,1.77291667 14.51,1.56208333 C14.8120833,1.34458333 15.31875,1.25208333 16.2604167,1.21583333 L16.4479167,1.20833333 L16.4479167,0.413333333 L6.61416667,0.413333333 L6.61416667,1.21583333 L7.72541667,1.21583333 L10.5133333,9.43791667 L8.87416667,14.335 L4.565,1.21583333 L5.72083333,1.21583333 L5.72083333,0.413333333 L0,0.413333333 L0,1.21583333 L1.13291667,1.21583333 L7.44083333,19.5833333 L8.0625,19.44375 L10.9654167,10.7941667 L13.9604167,19.5833333 L14.5816667,19.44375 L20.1029167,2.89625 C20.3458333,2.17166667 20.525,1.78333333 20.8229167,1.57041667 C21.055,1.3975 21.4158333,1.25791667 22.1925,1.20666667 L22.1925,0.4125 L22.0125,0.4125 Z M11.075,1.21581167 L12.0829167,1.21583333 C12.4954167,1.21458333 12.7841667,1.2675 12.9345833,1.35625 C13.0816667,1.4475 13.1395833,1.53958333 13.1458333,1.78625 C13.1458333,1.97083333 13.0929167,2.23166667 12.98125,2.56458333 L12.2754167,4.73166667 L11.075,1.21581167 Z" id="Fill-9" fill="#292D5D" mask="url(#mask-2)"></path>
            </g>
            <path d="M87.42125,2.89666667 C85.8004167,1.28291667 83.68,0.466666667 81.6716667,0.466666667 C79.65125,0.466666667 77.525,1.29083333 75.9016667,2.90583333 C74.2766667,4.5225 73.1625,6.935 73.1633333,10.0875 C73.1625,13.2408333 74.2766667,15.6533333 75.8975,17.2683333 C77.51875,18.8833333 79.6379167,19.70625 81.64625,19.7075 C83.6666667,19.70625 85.7929167,18.8841667 87.4170833,17.2683333 C89.0420833,15.6533333 90.1566667,13.2408333 90.1566667,10.0875 C90.1566667,6.92166667 89.0420833,4.50958333 87.42125,2.89666667 M85.3341667,17.0466667 C84.4366667,18.3545833 83.19625,18.8225 81.64625,18.8279167 C80.1091667,18.8225 78.86875,18.3595833 77.9695833,17.0575 C77.07,15.7495833 76.5258333,13.55125 76.5283333,10.0875 C76.5270833,6.64958333 77.0758333,4.45291667 77.9783333,3.1375 C78.8816667,1.82625 80.1245833,1.35291667 81.64625,1.34791667 C83.195,1.35291667 84.4358333,1.82625 85.3329167,3.1375 C86.2304167,4.45125 86.7666667,6.64958333 86.7658333,10.0875 C86.7666667,13.5379167 86.2304167,15.7370833 85.3341667,17.0466667" id="Fill-11" fill="#292D5D"></path>
            <path d="M51.3075,0.829166667 L44.9225,0.82916545 L44.9225,1.63333333 L46.07,1.63333333 L46.07,18.5679167 L44.9225,18.5679167 L44.9225,19.37125 L51.2625,19.37125 C53.95,19.37125 56.1016667,18.4095833 57.5683333,16.7608333 C59.0366667,15.1129167 59.81625,12.7920833 59.81625,10.0879167 C59.81625,7.39708333 59.0425,5.08166667 57.58375,3.43541667 C56.12625,1.79 53.9845833,0.827916667 51.3075,0.829166667 M55.5091667,16.5125 C54.5879167,17.8854167 53.1283333,18.5641667 50.7995833,18.5679167 L49.4691667,18.5679167 L49.4691667,1.63333333 L50.7995833,1.63333333 C53.1283333,1.63791667 54.5891667,2.30333333 55.5091667,3.66666667 C56.4325,5.03458333 56.8066667,7.16375 56.8041667,10.0879167 C56.8066667,12.99875 56.4325,15.1333333 55.5091667,16.5125" id="Fill-12" fill="#292D5D"></path>
            <path d="M67.7254167,8.01291667 C65.7225,7.52333333 64.1495833,7.29708333 63.56125,6.94375 C62.8720833,6.54708333 62.3579167,5.915 62.3520833,4.62083333 C62.3683333,2.67625 63.4825,1.32625 65.6566667,1.31125 C68.1904167,1.32291667 69.915,3.00958333 70.345,6.485 L70.3645833,6.65625 L71.0529167,6.65625 L71.0529167,0.923333333 L70.3441667,0.923333333 L70.3441667,1.11791667 C70.345,1.465 70.2920833,1.66125 70.2383333,1.74166667 C70.18375,1.81541667 70.1558333,1.8275 70.0370833,1.83333333 C70.0204167,1.83333333 70.0029167,1.83333333 69.9845833,1.83166667 C69.9779167,1.84041667 69.7916667,1.75875 69.5666667,1.62 C68.8645833,1.20916667 67.53625,0.379583333 65.7558333,0.377916667 C64.2791667,0.376666667 63.0120833,0.91875 62.1233333,1.89458333 C61.2354167,2.87166667 60.73,4.27125 60.73,5.96958333 C60.72875,7.55291667 61.0966667,8.71625 61.8783333,9.55291667 C62.6608333,10.3895833 63.825,10.87875 65.3729167,11.1945833 C67.2975,11.5808333 68.67125,11.8733333 69.52,12.6520833 C70.1929167,13.2891667 70.5133333,14.0858333 70.5154167,14.9995833 C70.50625,17.2379167 68.965,18.8170833 66.5941667,18.8279167 C63.79875,18.8191667 61.695,16.7183333 61.43875,12.6525 L61.4275,12.4704167 L60.7045833,12.4704167 L60.7045833,19.3704167 L61.4316667,19.3704167 L61.43875,19.185 C61.4795833,18.5458333 61.6708333,18.4441667 61.8608333,18.4366667 C62.1441667,18.42625 62.7570833,18.7395833 63.55625,19.07125 C64.36125,19.4004167 65.3883333,19.73375 66.6183333,19.73375 L66.6233333,19.73375 C68.28375,19.73375 69.6783333,19.1220833 70.6491667,18.0420833 C71.6208333,16.9604167 72.1616667,15.4266667 72.1616667,13.59875 C72.1808333,10.5279167 70.7395833,8.75875 67.7254167,8.01291667" id="Fill-13" fill="#292D5D"></path>
            <path d="M105.240833,17.7725 L105.110833,17.9470833 C104.870417,18.2758333 104.45,18.5508333 104.159167,18.5425 C103.580833,18.5266667 103.340833,18.28875 103.121667,17.58 C102.922083,16.8758333 102.851667,15.7583333 102.754583,14.2445833 C102.612917,11.9083333 101.370417,10.3608333 98.9966667,9.70625 C101.65375,9.16625 103.464583,7.61958333 103.4675,5.3225 C103.470833,3.87375 102.880833,2.71916667 101.779167,1.965 C100.677917,1.20708333 99.0895833,0.83 97.07375,0.83 L89.12,0.83 L89.12,1.6325 L91.71375,1.6325 L91.71375,18.5679167 L90.5745833,18.5679167 L90.5745833,19.3704167 L96.0629167,19.3704167 L96.0629167,18.5679167 L94.8820833,18.5679167 L94.8820833,10.1258333 L95.4258333,10.1258333 C96.8920833,10.1241667 97.7591667,10.2941667 98.2691667,10.705 C98.7808333,11.1095833 99.0233333,11.8045833 99.1691667,12.9854167 C99.4175,15.0420833 99.3545833,16.7516667 99.925,17.94125 C100.57875,19.2916667 101.875,19.5525 102.9675,19.5525 L103.00375,19.5525 C104.311667,19.5541667 105.187083,19.00625 105.6625,18.41875 L105.77625,18.27875 L105.240833,17.7725 Z M95.4083333,9.32333333 L94.9625,9.32334343 L94.9625,1.6325 L96.3183333,1.6325 C97.7466667,1.63291667 98.6729167,1.93333333 99.2454167,2.53958333 C99.8216667,3.14541667 100.084167,4.1125 100.084167,5.52958333 C100.082917,6.86708333 99.8020833,7.79208333 99.1083333,8.3975 C98.4154167,9.005 97.2466667,9.32541667 95.4083333,9.32333333 Z" id="Fill-14" fill="#292D5D"></path>
        </g>
    </g>
</svg>
