<?xml version="1.0" encoding="UTF-8" standalone="no"?>
<svg width="173px" height="20px" viewBox="0 0 173 20" version="1.1" xmlns="http://www.w3.org/2000/svg" xmlns:xlink="http://www.w3.org/1999/xlink">
    <!-- Generator: Sketch 50.2 (55047) - http://www.bohemiancoding.com/sketch -->
    <title>broadsheets/branding/montreal gazette/horizontal wordmark/coloured</title>
    <desc>Created with Sketch.</desc>
    <defs></defs>
    <g id="broadsheets/branding/montreal-gazette/horizontal-wordmark/coloured" stroke="none" stroke-width="1" fill="none" fill-rule="evenodd">
        <g id="MG_horizontal_RGB" fill="#1B6893">
            <path d="M129.875349,16.9227907 C129.121395,18.4097674 128.244186,18.8455814 125.96186,18.8637209 L124.311163,18.8823256 L130.35907,6.6744186 L130.373023,6.6455814 L130.204651,6.38186047 L127.436744,6.38186047 C123.750233,6.38186047 123.646977,6.28372093 123.30186,5.9572093 L123.285116,5.94186047 L122.793023,5.94186047 L122.29907,9.71162791 L122.705116,9.71162791 L123.046047,8.98930233 C123.775349,7.37674419 124.324186,7.06883721 126.499535,7.05023256 L127.88093,7.03255814 L121.853488,19.24 L121.83907,19.2683721 L122.006977,19.532093 L129.951628,19.532093 L130.687907,16.1948837 L130.703256,16.1265116 L130.273488,16.1265116 L129.875349,16.9227907" id="Fill-1"></path>
            <path d="M116.142326,13.8483721 L113.34186,13.8483721 L114.777674,8.64651163 L116.142326,13.8483721 Z M119.294419,17.3348837 L116.097674,6.05906977 L116.086512,6.01813953 L115.63814,6.01813953 L114.645116,6.95302326 L114.634419,6.96325581 L111.70093,16.932093 C111.263721,18.3218605 110.832093,18.9488372 110.209767,19.0948837 L109.937209,19.1637209 L109.937209,19.5511628 L109.993488,19.5511628 C110.126512,19.5511628 110.370233,19.5437209 110.652093,19.5362791 C111.026047,19.5251163 111.450698,19.5130233 111.754884,19.5130233 C112.050233,19.5130233 112.490233,19.5251163 112.878605,19.5362791 C113.163721,19.5437209 113.412558,19.5511628 113.535349,19.5511628 L113.591628,19.5511628 L113.591628,19.1604651 L113.19907,19.0934884 C112.644186,19.0172093 112.385581,18.7 112.385581,18.0972093 C112.385581,17.6548837 112.470698,17.0865116 112.651163,16.3130233 L113.137674,14.5544186 L116.344651,14.5544186 L117.003721,17.0390698 C117.122326,17.4939535 117.193023,17.9390698 117.193023,18.2306977 C117.193023,18.7172093 116.960465,18.9702326 116.416279,19.0753488 L115.929767,19.1604651 L115.929767,19.5511628 L115.985581,19.5511628 C116.096744,19.5511628 116.464651,19.544186 116.895349,19.5372093 C117.493023,19.5260465 118.23814,19.5130233 118.550698,19.5130233 C118.846977,19.5130233 119.447907,19.5251163 119.977209,19.5362791 C120.366977,19.5437209 120.706512,19.5511628 120.829302,19.5511628 L120.885581,19.5511628 L120.885581,19.1618605 L120.498605,19.0762791 C119.951628,18.9353488 119.625116,18.4632558 119.294419,17.3348837 Z" id="Fill-2"></path>
            <path d="M171.453023,17.3386047 C170.646977,18.5665116 170.035814,18.9404651 168.83907,18.9404651 L168.704651,18.9404651 C167.709767,18.9404651 167.440465,18.6497674 167.440465,16.6037209 L167.440465,13.0255814 L168.165581,13.0613953 C169.851163,13.1362791 169.971163,13.5874419 170.084651,14.5986047 L170.126977,15.0711628 L170.617674,15.0711628 L170.617674,15.0148837 C170.617674,14.8306977 170.610698,14.5032558 170.602326,14.1237209 C170.591628,13.6334884 170.58,13.0786047 170.58,12.6790698 C170.58,12.275814 170.592558,11.7111628 170.602791,11.2130233 C170.610698,10.8418605 170.617674,10.5167442 170.617674,10.3437209 L170.617674,10.2874419 L170.128837,10.2874419 L170.084651,10.6437209 C169.936279,11.9018605 169.837674,12.2027907 168.165581,12.3162791 L167.440465,12.352093 L167.440465,7.0227907 C167.802326,6.96744186 168.171628,6.93534884 168.436744,6.93534884 L168.570233,6.93534884 C169.821395,6.93534884 170.525116,7.39860465 171.261395,8.70930233 L171.583721,9.19395349 L171.966977,9.19395349 L171.536744,6.37255814 L171.528837,6.32418605 L170.274419,6.32418605 C170.173488,6.32418605 169.66093,6.32744186 169.051163,6.33116279 C168.156279,6.33674419 167.051163,6.34325581 166.733023,6.34325581 C166.436744,6.34325581 165.693023,6.33116279 165.036744,6.32093023 C164.556279,6.31255814 164.136744,6.30511628 164.014419,6.30511628 L163.95814,6.30511628 L163.95814,6.69395349 L164.326512,6.78046512 C165.126512,6.98 165.298605,7.22511628 165.298605,9.36697674 L165.298605,16.4888372 C165.298605,18.6306977 165.126512,18.8762791 164.326977,19.075814 L163.95814,19.1627907 L163.95814,19.5511628 L164.014419,19.5511628 C164.136744,19.5511628 164.542791,19.5437209 165.007907,19.5362791 C165.64186,19.5251163 166.36093,19.5130233 166.656744,19.5130233 C166.895349,19.5130233 167.471163,19.5172093 168.106977,19.5204651 C168.896279,19.5260465 169.780465,19.532093 170.236744,19.532093 L171.815349,19.532093 L172.273953,16.6813953 L171.870233,16.6813953 L171.453023,17.3386047" id="Fill-3"></path>
            <path d="M109.500465,12.3660465 L110.012093,12.2748837 L110.012093,11.7618605 L109.955814,11.7618605 C109.749302,11.7618605 109.316744,11.772093 108.815349,11.7846512 C108.196279,11.7995349 107.495349,11.8167442 107.084186,11.8167442 C106.642326,11.8167442 105.708372,11.7986047 104.884651,11.7832558 C104.294419,11.7711628 103.785116,11.7618605 103.610698,11.7618605 L103.554884,11.7618605 L103.554884,12.2748837 L104.364651,12.42 C105.463721,12.655814 105.742326,12.9925581 105.742326,15.5376744 L105.742326,16.6311628 C105.742326,18.3172093 105.064186,19.035814 103.474419,19.035814 C100.78093,19.035814 99.2367442,15.607907 99.2367442,9.63023256 C99.2367442,4.27813953 100.771163,1.20837209 103.446977,1.20837209 C105.224651,1.20837209 106.262791,2.63953488 107.362326,4.95116279 L107.897209,6.02139535 L108.459535,6.02139535 L107.988372,1.61116279 L107.985116,1.58325581 L107.960465,1.56883721 C106.635349,0.779069767 105.269767,0.412093023 103.665581,0.412093023 C99.8990698,0.412093023 95.8967442,3.78651163 95.8967442,10.0404651 C95.8967442,16.0809302 98.7483721,19.8325581 103.33814,19.8325581 C105.286047,19.8325581 107.561395,19.3153488 109.133488,18.5139535 L109.164186,18.4981395 L109.164186,18.0725581 L109.133023,18.0576744 C108.302326,17.6418605 108.207442,17.4 108.207442,15.7013953 L108.207442,15.3730233 C108.207442,13.3246512 108.394419,12.6032558 109.500465,12.3660465" id="Fill-4"></path>
            <path d="M162.162791,5.95116279 C161.628837,6.30046512 161.316744,6.40093023 157.752093,6.40093023 C154.390233,6.40093023 154.108372,6.30139535 153.651163,5.95348837 L153.635814,5.94186047 L153.163256,5.94186047 L152.833488,9.57255814 L152.827907,9.63488372 L153.251163,9.63488372 L153.649767,8.74 C154.233488,7.45395349 154.819535,7.06651163 156.261395,7.01209302 L156.623721,6.99534884 L156.623721,16.4888372 C156.623721,18.7227907 156.477209,18.8218605 155.594884,19.0372093 L155.053953,19.1627907 L155.053953,19.5511628 L155.110233,19.5511628 C155.222791,19.5511628 155.603721,19.544186 156.046047,19.5367442 C156.646512,19.5260465 157.393953,19.5130233 157.694419,19.5130233 C158.012558,19.5130233 158.780465,19.5265116 159.39814,19.5372093 C159.821395,19.5446512 160.17814,19.5511628 160.279535,19.5511628 L160.335814,19.5511628 L160.335814,19.1627907 L159.794884,19.0376744 C158.899535,18.8190698 158.784651,18.7055814 158.784651,16.4888372 L158.784651,6.9944186 L159.320465,7.01209302 C161.016279,7.05023256 161.397209,7.51953488 161.62093,8.82325581 L161.783256,9.63488372 L162.185116,9.63488372 L162.651163,6.0055814 L162.66,5.94186047 L162.177209,5.94186047 L162.162791,5.95116279" id="Fill-5"></path>
            <path d="M139.146512,17.3386047 C138.340465,18.5665116 137.729302,18.9404651 136.532558,18.9404651 L136.398605,18.9404651 C135.403256,18.9404651 135.133953,18.6497674 135.133953,16.6037209 L135.133953,13.0255814 L135.86,13.0613953 C137.544651,13.1362791 137.665581,13.5874419 137.77814,14.5986047 L137.821395,15.0711628 L138.311628,15.0711628 L138.311628,15.0148837 C138.311628,14.8306977 138.304651,14.5032558 138.296279,14.1237209 C138.285581,13.6334884 138.273953,13.0786047 138.273953,12.6790698 C138.273953,12.275814 138.286047,11.7111628 138.296744,11.2130233 C138.304651,10.8418605 138.311628,10.5167442 138.311628,10.3437209 L138.311628,10.2874419 L137.823256,10.2874419 L137.77814,10.6437209 C137.630233,11.9018605 137.531628,12.2027907 135.86,12.3162791 L135.133953,12.352093 L135.133953,7.0227907 C135.496279,6.96744186 135.865581,6.93534884 136.130233,6.93534884 L136.265116,6.93534884 C137.515349,6.93534884 138.219535,7.39860465 138.955349,8.70930233 L139.277674,9.19395349 L139.66093,9.19395349 L139.230233,6.37255814 L139.222791,6.32418605 L137.968372,6.32418605 C137.866977,6.32418605 137.354884,6.32744186 136.744186,6.33116279 C135.849767,6.33674419 134.746047,6.34325581 134.426977,6.34325581 C134.131628,6.34325581 133.387907,6.33116279 132.732093,6.32093023 C132.251628,6.31255814 131.831628,6.30511628 131.708372,6.30511628 L131.652093,6.30511628 L131.652093,6.69395349 L132.02,6.78046512 C132.82,6.98 132.992558,7.22511628 132.992558,9.36697674 L132.992558,16.4888372 C132.992558,18.6306977 132.82,18.8762791 132.02093,19.075814 L131.652093,19.1627907 L131.652093,19.5511628 L131.708372,19.5511628 C131.831628,19.5511628 132.237674,19.5437209 132.702791,19.5362791 C133.336279,19.5251163 134.054884,19.5130233 134.350698,19.5130233 C134.589302,19.5130233 135.164651,19.5172093 135.80093,19.5204651 C136.590233,19.5260465 137.473953,19.532093 137.930233,19.532093 L139.509767,19.532093 L139.967907,16.6813953 L139.564651,16.6813953 L139.146512,17.3386047" id="Fill-6"></path>
            <path d="M150.834884,5.95116279 C150.30093,6.30046512 149.988837,6.40093023 146.424651,6.40093023 C143.062791,6.40093023 142.78093,6.30139535 142.323256,5.95348837 L142.308372,5.94186047 L141.835814,5.94186047 L141.5,9.63488372 L141.924186,9.63488372 L142.32186,8.74 C142.905581,7.45395349 143.491628,7.06651163 144.933488,7.01209302 L145.296279,6.99534884 L145.296279,16.4888372 C145.296279,18.7227907 145.149767,18.8218605 144.267442,19.0372093 L143.726512,19.1627907 L143.726512,19.5511628 L143.782791,19.5511628 C143.895349,19.5511628 144.275349,19.544186 144.71907,19.5367442 C145.319535,19.5260465 146.066977,19.5130233 146.367442,19.5130233 C146.685581,19.5130233 147.453023,19.5265116 148.070233,19.5372093 C148.493953,19.5446512 148.850233,19.5511628 148.951163,19.5511628 L149.007907,19.5511628 L149.007907,19.1627907 L148.466977,19.0376744 C147.571628,18.8190698 147.457209,18.7055814 147.457209,16.4888372 L147.457209,6.9944186 L147.993488,7.01209302 C149.688837,7.05023256 150.069767,7.51953488 150.293023,8.82325581 L150.455349,9.63488372 L150.858605,9.63488372 L151.323721,6.0055814 L151.331163,5.94186047 L150.848837,5.94186047 L150.834884,5.95116279" id="Fill-7"></path>
            <path d="M78.0176744,13.795814 L75.2172093,13.795814 L76.6539535,8.59348837 L78.0176744,13.795814 Z M81.1702326,17.2823256 L77.9730233,6.00744186 L77.9613953,5.96604651 L77.5130233,5.96604651 L76.5213953,6.90046512 L76.5097674,6.91069767 L73.5767442,16.8790698 C73.1395349,18.2693023 72.7074419,18.8962791 72.0851163,19.0427907 L71.8130233,19.1106977 L71.8130233,19.4986047 L71.8697674,19.4986047 C72.0023256,19.4986047 72.2460465,19.4911628 72.5288372,19.4827907 C72.9023256,19.4730233 73.3265116,19.4604651 73.6311628,19.4604651 C73.9260465,19.4604651 74.3655814,19.4730233 74.7534884,19.4837209 C75.0395349,19.4911628 75.2883721,19.4986047 75.4111628,19.4986047 L75.4674419,19.4986047 L75.4674419,19.1069767 L75.0744186,19.0413953 C74.5195349,18.9646512 74.2613953,18.6474419 74.2613953,18.0446512 C74.2613953,17.6009302 74.3460465,17.0339535 74.5265116,16.26 L75.0134884,14.5018605 L78.2204651,14.5018605 L78.8790698,16.9860465 C78.9976744,17.4427907 79.0688372,17.8883721 79.0688372,18.1786047 C79.0688372,18.6655814 78.8362791,18.9181395 78.2916279,19.0223256 L77.8051163,19.1069767 L77.8051163,19.4986047 L77.8613953,19.4986047 C77.9725581,19.4986047 78.3404651,19.492093 78.7702326,19.484186 C79.3693023,19.4739535 80.1130233,19.4604651 80.4265116,19.4604651 C80.7223256,19.4604651 81.3237209,19.4730233 81.8530233,19.4837209 C82.2423256,19.4911628 82.5818605,19.4986047 82.704186,19.4986047 L82.7613953,19.4986047 L82.7613953,19.1093023 L82.3744186,19.0232558 C81.8269767,18.8823256 81.5013953,18.4106977 81.1702326,17.2823256 Z" id="Fill-8"></path>
            <path d="M24.1069767,6.6144186 C26.2111628,6.6144186 26.9604651,10.1851163 26.9604651,13.5269767 C26.9604651,17.3539535 26.2181395,19.1362791 24.6237209,19.1362791 C22.5060465,19.1362791 21.7516279,15.5660465 21.7516279,12.2251163 C21.7516279,8.39674419 22.4995349,6.6144186 24.1069767,6.6144186 Z M24.3744186,19.7093023 C25.8348837,19.7093023 27.0786047,19.0716279 27.9716279,17.8651163 C28.8744186,16.6455814 29.3511628,14.9260465 29.3511628,12.8944186 C29.3511628,8.73209302 27.3976744,6.0427907 24.3744186,6.0427907 C21.3404651,6.0427907 19.3795349,8.7172093 19.3795349,12.8562791 C19.3795349,17.0195349 21.3404651,19.7093023 24.3744186,19.7093023 Z" id="Fill-9"></path>
            <path d="M48.8051163,19.4986047 L48.8613953,19.4986047 L48.8613953,19.1097674 L48.3204651,18.9855814 C47.4251163,18.7660465 47.3106977,18.652093 47.3106977,16.4367442 L47.3106977,6.94186047 L47.8460465,6.95953488 C49.5423256,6.99767442 49.9227907,7.46651163 50.1465116,8.77069767 L50.3093023,9.58139535 L50.7106977,9.58139535 L51.1767442,5.95302326 L51.1855814,5.88930233 L50.7027907,5.88930233 L50.6883721,5.89860465 C50.1544186,6.24790698 49.8423256,6.34883721 46.2772093,6.34883721 C42.9167442,6.34883721 42.6344186,6.24837209 42.1767442,5.90093023 L42.1613953,5.88930233 L41.6888372,5.88930233 L41.3534884,9.58139535 L41.7767442,9.58139535 L42.1748837,8.68744186 C42.7595349,7.40186047 43.3451163,7.01395349 44.7869767,6.95953488 L45.1493023,6.9427907 L45.1493023,16.4367442 C45.1493023,18.6693023 45.0027907,18.7693023 44.1204651,18.9851163 L43.5795349,19.1097674 L43.5795349,19.4986047 L43.635814,19.4986047 C43.7483721,19.4986047 44.1288372,19.492093 44.572093,19.4837209 C45.1725581,19.4739535 45.9204651,19.4604651 46.22,19.4604651 C46.5381395,19.4604651 47.3060465,19.4744186 47.9232558,19.4846512 C48.3469767,19.492093 48.7032558,19.4986047 48.8051163,19.4986047" id="Fill-10"></path>
            <path d="M91.4051163,16.284186 L90.9669767,17.0209302 C90.167907,18.4339535 89.5651163,18.8874419 88.4893023,18.8874419 L88.4316279,18.8874419 C87.4674419,18.8874419 87.1669767,18.5655814 87.1669767,16.5516279 L87.1669767,9.31534884 C87.1669767,7.15906977 87.3093023,6.96930233 88.1948837,6.76651163 L88.7553488,6.64186047 L88.7553488,6.25302326 L88.6990698,6.25302326 C88.5790698,6.25302326 88.1851163,6.25906977 87.7255814,6.26697674 C87.1013953,6.27767442 86.3227907,6.29116279 86,6.29116279 C85.7046512,6.29116279 85.1097674,6.27860465 84.5846512,6.26744186 C84.2,6.26 83.8646512,6.25302326 83.7413953,6.25302326 L83.6851163,6.25302326 L83.6851163,6.64093023 L84.0525581,6.72790698 C84.8534884,6.93302326 85.0251163,7.17813953 85.0251163,9.31534884 L85.0251163,16.4367442 C85.0251163,18.5734884 84.8534884,18.8190698 84.0539535,19.0227907 L83.6851163,19.1102326 L83.6851163,19.4986047 L83.7413953,19.4986047 C83.8744186,19.4986047 84.3195349,19.4911628 84.8223256,19.4827907 C85.48,19.4730233 86.2255814,19.4604651 86.5172093,19.4604651 C86.7544186,19.4604651 87.2339535,19.4637209 87.7665116,19.4683721 C88.4353488,19.4739535 89.187907,19.4795349 89.6567442,19.4795349 L91.2544186,19.4795349 L91.8297674,16.284186 L91.4051163,16.284186" id="Fill-11"></path>
            <path d="M64.16,19.4837209 C64.7948837,19.4730233 65.5134884,19.4604651 65.8088372,19.4604651 C66.0483721,19.4604651 66.6237209,19.464186 67.26,19.4683721 C68.0497674,19.4739535 68.9330233,19.4795349 69.3888372,19.4795349 L70.9683721,19.4795349 L71.4265116,16.6288372 L71.0237209,16.6288372 L70.6055814,17.2865116 C69.7990698,18.5134884 69.1888372,18.8874419 67.9916279,18.8874419 L67.8576744,18.8874419 C66.8627907,18.8874419 66.5930233,18.5967442 66.5930233,16.5516279 L66.5930233,12.9725581 L67.3186047,13.0083721 C69.0037209,13.0832558 69.1246512,13.5339535 69.2372093,14.5465116 L69.28,15.0186047 L69.7711628,15.0186047 L69.7711628,14.9623256 C69.7711628,14.7781395 69.7637209,14.4502326 69.755814,14.0706977 C69.7446512,13.5809302 69.7330233,13.0265116 69.7330233,12.6269767 C69.7330233,12.2232558 69.7451163,11.6586047 69.7562791,11.16 C69.7637209,10.7893023 69.7711628,10.464186 69.7711628,10.2911628 L69.7711628,10.2353488 L69.2818605,10.2353488 L69.2372093,10.5906977 C69.0893023,11.8483721 68.9906977,12.1506977 67.3186047,12.264186 L66.5930233,12.3 L66.5930233,6.97069767 C66.955814,6.91534884 67.3255814,6.8827907 67.5893023,6.8827907 L67.7232558,6.8827907 C68.9739535,6.8827907 69.6781395,7.34604651 70.4139535,8.6572093 L70.7367442,9.14186047 L71.12,9.14186047 L70.6888372,6.32046512 L70.6818605,6.27209302 L69.4274419,6.27209302 C69.3265116,6.27209302 68.8134884,6.27534884 68.204186,6.27860465 C67.3093023,6.28418605 66.2046512,6.29116279 65.8855814,6.29116279 C65.5897674,6.29116279 64.8460465,6.27860465 64.1897674,6.26744186 C63.7093023,6.26 63.2897674,6.25302326 63.167907,6.25302326 L63.1106977,6.25302326 L63.1106977,6.64093023 L63.4790698,6.72790698 C64.2795349,6.92790698 64.4511628,7.17348837 64.4511628,9.31534884 L64.4511628,16.4367442 C64.4511628,18.5790698 64.2795349,18.8232558 63.48,19.0227907 L63.1106977,19.1102326 L63.1106977,19.4986047 L63.167907,19.4986047 C63.2897674,19.4986047 63.6953488,19.4911628 64.16,19.4837209" id="Fill-12"></path>
            <path d="M31.4209302,7.93488372 L31.344186,16.2827907 C31.3251163,18.4502326 31.0827907,18.8227907 30.2,19.0618605 L30.0046512,19.1106977 L30.0046512,19.4986047 L30.0609302,19.4986047 C30.1930233,19.4986047 30.4297674,19.4911628 30.704186,19.4827907 C31.0669767,19.4730233 31.4786047,19.4604651 31.7827907,19.4604651 C32.0786047,19.4604651 32.5316279,19.4730233 32.9306977,19.4837209 C33.2237209,19.4911628 33.4795349,19.4986047 33.6018605,19.4986047 L33.6581395,19.4986047 L33.6581395,19.1106977 L33.4609302,19.0613953 C32.3618605,18.8232558 32.1651163,18.407907 32.1460465,16.2827907 L32.0902326,8.94511628 L38.5306977,19.6051163 L38.5506977,19.6372093 L39.0181395,19.5669767 L39.0953488,9.46837209 C39.1153488,7.31813953 39.3706977,6.92465116 40.2395349,6.68930233 L40.4353488,6.64046512 L40.4353488,6.25302326 L40.3786047,6.25302326 C40.235814,6.25302326 40.0051163,6.26 39.7376744,6.26790698 C39.3981395,6.27906977 39.0139535,6.29116279 38.7130233,6.29116279 C38.4046512,6.29116279 37.9330233,6.27860465 37.5162791,6.26744186 C37.2176744,6.26 36.9586047,6.25302326 36.8372093,6.25302326 L36.7809302,6.25302326 L36.7809302,6.64046512 L36.9809302,6.68976744 C38.0539535,6.87534884 38.2748837,7.3427907 38.2925581,9.46837209 L38.3488372,15.4027907 L32.9804651,6.26139535 L32.9623256,6.23069767 L32.9265116,6.2344186 C32.5409302,6.27069767 31.6665116,6.29116279 31.2083721,6.29116279 C30.6581395,6.29116279 30.0697674,6.27116279 29.795814,6.25302326 L29.735814,6.24883721 L29.735814,6.63813953 L29.9655814,6.70744186 C30.5702326,6.91534884 30.8846512,7.18 31.4209302,7.93488372" id="Fill-13"></path>
            <path d="M2.87348837,19.452093 C3.32186047,19.452093 4.02325581,19.4711628 4.58651163,19.4860465 C4.99069767,19.4972093 5.33953488,19.5065116 5.49906977,19.5065116 L5.55534884,19.5065116 L5.55534884,18.9953488 L5.15581395,18.9027907 C3.6172093,18.5637209 3.42,18.0753488 3.53162791,14.8846512 L3.76976744,5.23069767 L8.45395349,19.5772093 L8.46651163,19.6162791 L9.09581395,19.6162791 L13.6325581,5.22883721 L14.0023256,15.2130233 C14.1125581,18.3893023 13.9655814,18.5334884 12.5953488,18.8762791 L12.0334884,19.0237209 L12.0334884,19.5065116 L12.0897674,19.5065116 C12.264186,19.5065116 12.7744186,19.4967442 13.364186,19.4851163 C14.1883721,19.4702326 15.1223256,19.452093 15.5637209,19.452093 C16.0051163,19.452093 16.884186,19.4697674 17.6609302,19.4851163 C18.2176744,19.4967442 18.6986047,19.5065116 18.8725581,19.5065116 L18.9288372,19.5065116 L18.9288372,18.9939535 L18.6106977,18.9302326 C17.2265116,18.6367442 16.9874419,18.1195349 16.9046512,15.2362791 L16.632093,5.47302326 C16.5204651,2.17767442 16.8367442,1.5455814 17.8455814,1.31813953 L18.627907,1.14465116 L18.627907,0.629767442 L18.5683721,0.633023256 C18.055814,0.659534884 16.6795349,0.68744186 15.8916279,0.68744186 C15.5,0.68744186 14.5130233,0.659069767 14.1446512,0.633023256 L14.1,0.629767442 L9.79302326,14.6925581 L5.41674419,0.67255814 L5.4027907,0.628372093 L5.3572093,0.633488372 C4.81348837,0.68744186 3.70186047,0.68744186 3.03767442,0.68744186 C2.6027907,0.68744186 2.07581395,0.669767442 1.61069767,0.654883721 C1.26,0.643255814 0.957674419,0.633023256 0.767906977,0.633023256 L0.711627907,0.633023256 L0.711627907,1.14139535 L1.48930233,1.37209302 C2.45906977,1.67813953 2.9572093,2.41348837 2.8172093,5.41813953 L2.40697674,14.8804651 C2.26837209,18.0451163 1.85534884,18.6209302 0.50372093,18.9590698 L0.383255814,18.9995349 L0.383255814,19.5065116 L0.439534884,19.5065116 C0.630697674,19.5065116 0.972093023,19.4962791 1.36697674,19.484186 C1.87860465,19.4693023 2.4572093,19.452093 2.87348837,19.452093" id="Fill-14"></path>
            <path d="M56.8093023,6.80604651 C58.0009302,6.80604651 58.5325581,7.73906977 58.5325581,9.83162791 C58.5325581,11.9609302 57.875814,12.9530233 56.464186,12.9530233 C56.2427907,12.9530233 56.1283721,12.94 55.9953488,12.924186 L55.9655814,12.9209302 L55.9655814,6.86651163 C56.1125581,6.82093023 56.3311628,6.80604651 56.8093023,6.80604651 Z M55.9655814,16.4367442 L55.9655814,13.6795349 C56.0130233,13.6809302 56.0586047,13.684186 56.1060465,13.6869767 C56.1772093,13.6911628 56.2544186,13.6962791 56.3516279,13.6976744 L58.327907,17.8772093 C58.9432558,19.1627907 59.5739535,19.5753488 60.9251163,19.5753488 C61.3781395,19.5753488 61.8097674,19.5409302 62.1418605,19.4786047 L62.1906977,19.4693023 L62.1651163,19.0874419 L62.1213953,19.0804651 C61.4423256,18.9702326 61.1786047,18.6734884 60.4590698,17.215814 L58.4176744,13.0376744 C59.88,12.392093 60.7516279,11.1265116 60.7516279,9.64046512 C60.7516279,7.5627907 59.3139535,6.27209302 57.0004651,6.27209302 C56.6744186,6.27209302 56.255814,6.2772093 55.8511628,6.28232558 C55.4725581,6.28651163 55.1060465,6.29116279 54.8372093,6.29116279 C54.5418605,6.29116279 53.9344186,6.27860465 53.3990698,6.26744186 C53.0060465,6.26 52.6627907,6.25302326 52.54,6.25302326 L52.4837209,6.25302326 L52.4837209,6.64093023 L52.8516279,6.72790698 C53.652093,6.93302326 53.8237209,7.17813953 53.8237209,9.31534884 L53.8237209,16.4367442 C53.8237209,18.5595349 53.64,18.8218605 52.8525581,19.0227907 L52.4837209,19.1102326 L52.4837209,19.4986047 L52.54,19.4986047 C52.6613953,19.4986047 53.0055814,19.4911628 53.4023256,19.4837209 C53.9572093,19.4730233 54.5855814,19.4604651 54.8948837,19.4604651 C55.1902326,19.4604651 55.8716279,19.4730233 56.4734884,19.4837209 C56.9139535,19.4911628 57.2986047,19.4986047 57.4218605,19.4986047 L57.4781395,19.4986047 L57.4781395,19.1093023 L56.9962791,19.0051163 C56.1432558,18.7688372 55.9655814,18.7195349 55.9655814,16.4367442 Z" id="Fill-15"></path>
        </g>
    </g>
</svg>
