<?xml version="1.0" encoding="UTF-8" standalone="no"?>
<svg width="250px" height="20px" viewBox="0 0 250 20" version="1.1" xmlns="http://www.w3.org/2000/svg" xmlns:xlink="http://www.w3.org/1999/xlink">
    <!-- Generator: Sketch 50.2 (55047) - http://www.bohemiancoding.com/sketch -->
    <title>broadsheets/branding/saskatoon starphoenix/horizontal wordmark/coloured</title>
    <desc>Created with Sketch.</desc>
    <defs></defs>
    <g id="broadsheets/branding/saskatoon-starphoenix/horizontal-wordmark/coloured" stroke="none" stroke-width="1" fill="none" fill-rule="evenodd">
        <g id="SP_White_Wordmark_Horizontal">
            <path d="M0.534977064,12.8841743 C0.800458716,17.0969037 3.15825688,19.3738532 6.28497706,19.3738532 C8.93463303,19.3738532 10.7075688,17.6525229 10.7075688,15.2677752 C10.7075688,14.2872706 10.3377294,13.4145642 9.56938073,12.725344 C8.59002294,11.8755734 7.08027523,11.5831422 5.01318807,11.1886468 C1.72821101,10.5516055 0.191513761,9.22706422 0.191513761,6.04873853 C0.191513761,2.65768349 2.30905963,0.537844037 5.38474771,0.537844037 C7.84690367,0.537844037 9.49025229,1.99483945 9.91399083,2.0206422 C10.2861239,2.04816514 10.5235092,1.88933486 10.5235092,1.09518349 L10.8686927,1.09518349 L10.8686927,6.5521789 L10.5235092,6.5521789 C10.0739679,2.9483945 8.11295872,1.09518349 5.28038991,1.09518349 C2.84116972,1.09518349 1.51490826,2.60493119 1.51490826,4.67087156 C1.51490826,6.04873853 2.125,6.78956422 2.91972477,7.21272936 C3.6353211,7.61181193 5.30504587,7.8228211 7.44954128,8.32740826 C10.6290138,9.0940367 12.0602064,10.7637615 12.0602064,13.8383028 C12.0602064,17.4936927 9.78211009,19.9042431 6.31192661,19.9042431 C3.74197248,19.9042431 2.01834862,18.5802752 1.1983945,18.5802752 C0.852637615,18.5802752 0.560779817,18.8457569 0.534977064,19.5338303 L0.16456422,19.5338303 L0.16456422,12.8841743 L0.534977064,12.8841743" id="Fill-1" fill="#6A1A33"></path>
            <path d="M19.2981651,14.5538991 L17.3027523,8.09977064 L15.1244266,14.5538991 L19.2981651,14.5538991 Z M11.6754587,19.212156 L11.9587156,19.212156 C12.9254587,19.212156 13.2087156,18.8491972 13.4896789,17.9197248 L17.8864679,5.2391055 L18.6318807,5.2391055 L23.1290138,19.212156 L24.3383028,19.212156 L24.3383028,19.5338303 L19.1576835,19.5338303 L19.1576835,19.212156 L20.790711,19.212156 L19.4392202,14.9959862 L14.9644495,14.9959862 L13.8549312,18.3239679 C13.5917431,19.1708716 14.0561927,19.1708716 15.2861239,19.212156 L15.2861239,19.5338303 L11.6754587,19.5338303 L11.6754587,19.212156 Z" id="Fill-2" fill="#6A1A33"></path>
            <path d="M25.0699541,14.4719037 C25.2723624,17.6794725 27.065367,19.4116972 29.4449541,19.4116972 C31.462156,19.4116972 32.8119266,18.103211 32.8119266,16.2872706 C32.8119266,15.5412844 32.5303899,14.875 31.9438073,14.3514908 C31.1978211,13.7058486 30.0493119,13.4845183 28.4776376,13.1834862 C25.9770642,12.6989679 24.8073394,11.6897936 24.8073394,9.2712156 C24.8073394,6.69036697 26.421445,5.07683486 28.7597477,5.07683486 C30.6347477,5.07683486 31.8841743,6.18520642 32.2081422,6.20584862 C32.4896789,6.22477064 32.671445,6.10493119 32.671445,5.49827982 L32.9334862,5.49827982 L32.9334862,9.65309633 L32.671445,9.65309633 C32.3279817,6.91227064 30.8360092,5.49827982 28.6783257,5.49827982 C26.8239679,5.49827982 25.8147936,6.64908257 25.8147936,8.22133028 C25.8147936,9.2712156 26.2792431,9.83428899 26.8841743,10.1582569 C27.4294725,10.4604358 28.6995413,10.6215596 30.331422,11.0051606 C33.1926606,11.6961009 33.8411697,12.7545872 33.8411697,15.1983945 C33.8411697,17.9816514 32.106078,19.8165138 29.4655963,19.8165138 C27.5097477,19.8165138 26.1983945,18.8079128 25.5745413,18.8079128 C25.3107798,18.8079128 25.0888761,19.0097477 25.0699541,19.5326835 L24.7861239,19.5326835 L24.7861239,14.4719037 L25.0699541,14.4719037" id="Fill-3" fill="#6A1A33"></path>
            <path d="M39.891055,19.212156 L39.891055,19.5338303 L34.8102064,19.5338303 L34.8102064,19.212156 L36.1817661,19.212156 L36.1817661,5.72190367 L34.8102064,5.72190367 L34.8102064,5.39908257 L39.891055,5.39908257 L39.891055,5.72190367 L38.3635321,5.72190367 L38.3635321,12.2649083 C38.3635321,12.2649083 41.0802752,9.33027523 42.774656,7.41571101 C43.0969037,7.05332569 43.6422018,6.4059633 43.6422018,6.16456422 C43.6422018,5.72190367 43.1370413,5.72190367 41.8669725,5.72190367 L41.8669725,5.39908257 L46.9283257,5.39908257 L46.9283257,5.72190367 C44.9730505,5.72190367 44.7912844,5.82224771 43.2798165,7.49541284 C42.1697248,8.72534404 40.5240826,10.5923165 40.5240826,10.5923165 L45.8990826,19.212156 L47.7557339,19.212156 L47.7557339,19.5338303 L42.0086009,19.5338303 L42.0086009,19.212156 L43.5200688,19.212156 L39.1238532,11.9518349 L38.2861239,12.856078 L38.2861239,19.212156 L39.891055,19.212156" id="Fill-4" fill="#6A1A33"></path>
            <path d="M53.3658257,14.5538991 L51.3709862,8.09977064 L49.1938073,14.5538991 L53.3658257,14.5538991 Z M45.7442661,19.212156 L46.0269495,19.212156 C46.9954128,19.212156 47.2775229,18.8491972 47.559633,17.9197248 L51.9547018,5.2391055 L52.7012615,5.2391055 L57.1955275,19.212156 L58.4071101,19.212156 L58.4071101,19.5338303 L53.225344,19.5338303 L53.225344,19.212156 L54.8572248,19.212156 L53.5074541,14.9959862 L49.0315367,14.9959862 L47.9237385,18.3239679 C47.6588303,19.1708716 48.1244266,19.1708716 49.3543578,19.212156 L49.3543578,19.5338303 L45.7442661,19.5338303 L45.7442661,19.212156 Z" id="Fill-5" fill="#6A1A33"></path>
            <path d="M68.2614679,9.71272936 L67.9581422,9.71272936 C67.9581422,8.44323394 67.5166284,7.27408257 67.0722477,6.70928899 C66.5498853,6.08428899 65.8446101,5.72190367 64.0888761,5.72190367 L63.5034404,5.72190367 L63.5034404,19.212156 L65.0951835,19.212156 L65.0951835,19.5338303 L59.5911697,19.5338303 L59.5911697,19.212156 L61.2241972,19.212156 L61.2241972,5.72190367 L60.6806193,5.72190367 C58.9260321,5.72190367 58.1204128,6.10493119 57.6152523,6.70928899 C57.1697248,7.27408257 56.7276376,8.52465596 56.7276376,9.71272936 L56.4260321,9.71272936 L56.4260321,5.39908257 L68.2614679,5.39908257 L68.2614679,9.71272936" id="Fill-6" fill="#6A1A33"></path>
            <path d="M76.3211009,5.49827982 C73.7580275,5.49827982 71.9650229,7.07224771 71.9650229,12.4569954 C71.9650229,17.8795872 73.7391055,19.4116972 76.3211009,19.4116972 C78.9208716,19.4116972 80.6754587,17.8600917 80.6754587,12.4569954 C80.6754587,7.07224771 78.9208716,5.49827982 76.3211009,5.49827982 M76.3211009,19.7952982 C73.1141055,19.7952982 69.524656,17.2947248 69.524656,12.4569954 C69.524656,7.61697248 73.1129587,5.11639908 76.3394495,5.11639908 C79.5458716,5.11639908 83.1358945,7.59633028 83.1358945,12.4569954 C83.1358945,17.2947248 79.5458716,19.7952982 76.3211009,19.7952982" id="Fill-7" fill="#6A1A33"></path>
            <path d="M91.6353211,5.49827982 C89.0751147,5.49827982 87.2798165,7.07224771 87.2798165,12.4569954 C87.2798165,17.8795872 89.0550459,19.4116972 91.6353211,19.4116972 C94.2368119,19.4116972 95.9913991,17.8600917 95.9913991,12.4569954 C95.9913991,7.07224771 94.2368119,5.49827982 91.6353211,5.49827982 M91.6353211,19.7952982 C88.4288991,19.7952982 84.8394495,17.2947248 84.8394495,12.4569954 C84.8394495,7.61582569 88.4288991,5.11639908 91.6553899,5.11639908 C94.8612385,5.11639908 98.5292431,7.59633028 98.5292431,12.4569954 C98.5292431,17.2947248 94.8612385,19.7952982 91.6353211,19.7952982" id="Fill-8" fill="#6A1A33"></path>
            <path d="M102.701835,19.2316514 L102.701835,19.5338303 L98.7912844,19.5338303 L98.7912844,19.2316514 C100.222477,19.1307339 100.363532,18.8491972 100.363532,17.5567661 L100.363532,6.1037844 L100.041284,5.72190367 L98.7912844,5.72190367 L98.7912844,5.39793578 L102.723624,5.39793578 L109.438073,15.3383028 L109.438073,7.35321101 C109.438073,6.00344037 109.236812,5.80332569 107.683486,5.72190367 L107.683486,5.39793578 L111.575115,5.39793578 L111.575115,5.72190367 C110.142775,5.82224771 109.880734,6.08428899 109.880734,7.37442661 L109.880734,19.6330275 L109.498853,19.6330275 L100.807913,6.69036697 L100.807913,17.5969037 C100.807913,18.9283257 101.048739,19.1502294 102.701835,19.2316514" id="Fill-9" fill="#6A1A33"></path>
            <g id="Group-14" stroke="#6A1A33">
                <path d="M0.534977064,12.8841743 C0.800458716,17.0969037 3.15825688,19.3738532 6.28497706,19.3738532 C8.93463303,19.3738532 10.7075688,17.6525229 10.7075688,15.2677752 C10.7075688,14.2872706 10.3377294,13.4145642 9.56938073,12.725344 C8.59002294,11.8755734 7.08027523,11.5831422 5.01318807,11.1886468 C1.72821101,10.5516055 0.191513761,9.22706422 0.191513761,6.04873853 C0.191513761,2.65768349 2.30905963,0.537844037 5.38474771,0.537844037 C7.84690367,0.537844037 9.49025229,1.99483945 9.91399083,2.0206422 C10.2861239,2.04816514 10.5235092,1.88933486 10.5235092,1.09518349 L10.8686927,1.09518349 L10.8686927,6.5521789 L10.5235092,6.5521789 C10.0739679,2.9483945 8.11295872,1.09518349 5.28038991,1.09518349 C2.84116972,1.09518349 1.51490826,2.60493119 1.51490826,4.67087156 C1.51490826,6.04873853 2.125,6.78956422 2.91972477,7.21272936 C3.6353211,7.61181193 5.30504587,7.8228211 7.44954128,8.32740826 C10.6290138,9.0940367 12.0602064,10.7637615 12.0602064,13.8383028 C12.0602064,17.4936927 9.78211009,19.9042431 6.31192661,19.9042431 C3.74197248,19.9042431 2.01834862,18.5802752 1.1983945,18.5802752 C0.852637615,18.5802752 0.560779817,18.8457569 0.534977064,19.5338303 L0.16456422,19.5338303 L0.16456422,12.8841743 L0.534977064,12.8841743 Z" id="Stroke-10" stroke-width="0.574"></path>
                <path d="M19.2981651,14.5538991 L17.3027523,8.09977064 L15.1244266,14.5538991 L19.2981651,14.5538991 Z M11.6754587,19.212156 L11.9587156,19.212156 C12.9254587,19.212156 13.2087156,18.8491972 13.4896789,17.9197248 L17.8864679,5.2391055 L18.6318807,5.2391055 L23.1290138,19.212156 L24.3383028,19.212156 L24.3383028,19.5338303 L19.1576835,19.5338303 L19.1576835,19.212156 L20.790711,19.212156 L19.4392202,14.9959862 L14.9644495,14.9959862 L13.8549312,18.3239679 C13.5917431,19.1708716 14.0561927,19.1708716 15.2861239,19.212156 L15.2861239,19.5338303 L11.6754587,19.5338303 L11.6754587,19.212156 Z M25.0699541,14.4719037 C25.2723624,17.6794725 27.065367,19.4116972 29.4449541,19.4116972 C31.462156,19.4116972 32.8119266,18.103211 32.8119266,16.2872706 C32.8119266,15.5412844 32.5303899,14.875 31.9438073,14.3514908 C31.1978211,13.7058486 30.0493119,13.4845183 28.4776376,13.1834862 C25.9770642,12.6989679 24.8073394,11.6897936 24.8073394,9.2712156 C24.8073394,6.69036697 26.421445,5.07683486 28.7597477,5.07683486 C30.6347477,5.07683486 31.8841743,6.18520642 32.2081422,6.20584862 C32.4896789,6.22477064 32.671445,6.10493119 32.671445,5.49827982 L32.9334862,5.49827982 L32.9334862,9.65309633 L32.671445,9.65309633 C32.3279817,6.91227064 30.8360092,5.49827982 28.6783257,5.49827982 C26.8239679,5.49827982 25.8147936,6.64908257 25.8147936,8.22133028 C25.8147936,9.2712156 26.2792431,9.83428899 26.8841743,10.1582569 C27.4294725,10.4604358 28.6995413,10.6215596 30.331422,11.0051606 C33.1926606,11.6961009 33.8411697,12.7545872 33.8411697,15.1983945 C33.8411697,17.9816514 32.106078,19.8165138 29.4655963,19.8165138 C27.5097477,19.8165138 26.1983945,18.8079128 25.5745413,18.8079128 C25.3107798,18.8079128 25.0888761,19.0097477 25.0699541,19.5326835 L24.7861239,19.5326835 L24.7861239,14.4719037 L25.0699541,14.4719037 Z M39.891055,19.212156 L39.891055,19.5338303 L34.8102064,19.5338303 L34.8102064,19.212156 L36.1817661,19.212156 L36.1817661,5.72190367 L34.8102064,5.72190367 L34.8102064,5.39908257 L39.891055,5.39908257 L39.891055,5.72190367 L38.3635321,5.72190367 L38.3635321,12.2649083 C38.3635321,12.2649083 41.0802752,9.33027523 42.774656,7.41571101 C43.0969037,7.05332569 43.6422018,6.4059633 43.6422018,6.16456422 C43.6422018,5.72190367 43.1370413,5.72190367 41.8669725,5.72190367 L41.8669725,5.39908257 L46.9283257,5.39908257 L46.9283257,5.72190367 C44.9730505,5.72190367 44.7912844,5.82224771 43.2798165,7.49541284 C42.1697248,8.72534404 40.5240826,10.5923165 40.5240826,10.5923165 L45.8990826,19.212156 L47.7557339,19.212156 L47.7557339,19.5338303 L42.0086009,19.5338303 L42.0086009,19.212156 L43.5200688,19.212156 L39.1238532,11.9518349 L38.2861239,12.856078 L38.2861239,19.212156 L39.891055,19.212156 Z M53.3658257,14.5538991 L51.3709862,8.09977064 L49.1938073,14.5538991 L53.3658257,14.5538991 Z M45.7442661,19.212156 L46.0269495,19.212156 C46.9954128,19.212156 47.2775229,18.8491972 47.559633,17.9197248 L51.9547018,5.2391055 L52.7012615,5.2391055 L57.1955275,19.212156 L58.4071101,19.212156 L58.4071101,19.5338303 L53.225344,19.5338303 L53.225344,19.212156 L54.8572248,19.212156 L53.5074541,14.9959862 L49.0315367,14.9959862 L47.9237385,18.3239679 C47.6588303,19.1708716 48.1244266,19.1708716 49.3543578,19.212156 L49.3543578,19.5338303 L45.7442661,19.5338303 L45.7442661,19.212156 Z M68.2614679,9.71272936 L67.9581422,9.71272936 C67.9581422,8.44323394 67.5166284,7.27408257 67.0722477,6.70928899 C66.5498853,6.08428899 65.8446101,5.72190367 64.0888761,5.72190367 L63.5034404,5.72190367 L63.5034404,19.212156 L65.0951835,19.212156 L65.0951835,19.5338303 L59.5911697,19.5338303 L59.5911697,19.212156 L61.2241972,19.212156 L61.2241972,5.72190367 L60.6806193,5.72190367 C58.9260321,5.72190367 58.1204128,6.10493119 57.6152523,6.70928899 C57.1697248,7.27408257 56.7276376,8.52465596 56.7276376,9.71272936 L56.4260321,9.71272936 L56.4260321,5.39908257 L68.2614679,5.39908257 L68.2614679,9.71272936 Z M76.3211009,5.49827982 C73.7580275,5.49827982 71.9650229,7.07224771 71.9650229,12.4569954 C71.9650229,17.8795872 73.7391055,19.4116972 76.3211009,19.4116972 C78.9208716,19.4116972 80.6754587,17.8600917 80.6754587,12.4569954 C80.6754587,7.07224771 78.9208716,5.49827982 76.3211009,5.49827982 Z M76.3211009,19.7952982 C73.1141055,19.7952982 69.524656,17.2947248 69.524656,12.4569954 C69.524656,7.61697248 73.1129587,5.11639908 76.3394495,5.11639908 C79.5458716,5.11639908 83.1358945,7.59633028 83.1358945,12.4569954 C83.1358945,17.2947248 79.5458716,19.7952982 76.3211009,19.7952982 Z" id="Stroke-12" stroke-width="0.718"></path>
                <path d="M91.6353211,5.49827982 C89.0751147,5.49827982 87.2798165,7.07224771 87.2798165,12.4569954 C87.2798165,17.8795872 89.0550459,19.4116972 91.6353211,19.4116972 C94.2368119,19.4116972 95.9913991,17.8600917 95.9913991,12.4569954 C95.9913991,7.07224771 94.2368119,5.49827982 91.6353211,5.49827982 Z M91.6353211,19.7952982 C88.4288991,19.7952982 84.8394495,17.2947248 84.8394495,12.4569954 C84.8394495,7.61582569 88.4288991,5.11639908 91.6553899,5.11639908 C94.8612385,5.11639908 98.5292431,7.59633028 98.5292431,12.4569954 C98.5292431,17.2947248 94.8612385,19.7952982 91.6353211,19.7952982 Z M102.701835,19.2316514 L102.701835,19.5338303 L98.7912844,19.5338303 L98.7912844,19.2316514 C100.222477,19.1307339 100.363532,18.8491972 100.363532,17.5567661 L100.363532,6.1037844 L100.041284,5.72190367 L98.7912844,5.72190367 L98.7912844,5.39793578 L102.723624,5.39793578 L109.438073,15.3383028 L109.438073,7.35321101 C109.438073,6.00344037 109.236812,5.80332569 107.683486,5.72190367 L107.683486,5.39793578 L111.575115,5.39793578 L111.575115,5.72190367 C110.142775,5.82224771 109.880734,6.08428899 109.880734,7.37442661 L109.880734,19.6330275 L109.498853,19.6330275 L100.807913,6.69036697 L100.807913,17.5969037 C100.807913,18.9283257 101.048739,19.1502294 102.701835,19.2316514 Z" id="Stroke-13" stroke-width="0.718"></path>
            </g>
            <path d="M118.515482,12.8853211 C118.780963,17.0980505 121.139335,19.375 124.265482,19.375 C126.915138,19.375 128.688647,17.6525229 128.688647,15.2677752 C128.688647,14.2889908 128.318234,13.4145642 127.549885,12.725344 C126.571101,11.8767202 125.06078,11.5854358 122.993693,11.1886468 C119.708716,10.5527523 118.172592,9.2287844 118.172592,6.04873853 C118.172592,2.65768349 120.289564,0.537844037 123.365252,0.537844037 C125.827982,0.537844037 127.47133,1.99483945 127.894495,2.02236239 C128.266628,2.04701835 128.504014,1.89048165 128.504014,1.09518349 L128.849771,1.09518349 L128.849771,6.5521789 L128.504014,6.5521789 C128.054472,2.9483945 126.093463,1.09518349 123.260894,1.09518349 C120.822248,1.09518349 119.495986,2.60607798 119.495986,4.67144495 C119.495986,6.04873853 120.105505,6.79071101 120.900803,7.21444954 C121.616399,7.61181193 123.286124,7.8233945 125.430619,8.32740826 C128.610092,9.09518349 130.040711,10.7649083 130.040711,13.8383028 C130.040711,17.4936927 127.762041,19.9042431 124.293005,19.9042431 C121.722477,19.9042431 119.998853,18.5819954 119.179472,18.5819954 C118.833142,18.5819954 118.541284,18.8469037 118.515482,19.5349771 L118.145069,19.5349771 L118.145069,12.8853211 L118.515482,12.8853211" id="Fill-15" fill="#6A1A33"></path>
            <path d="M142.585436,9.71387615 L142.28211,9.71387615 C142.28211,8.44438073 141.837729,7.27408257 141.396789,6.70928899 C140.870986,6.08543578 140.163991,5.72190367 138.411124,5.72190367 L137.825688,5.72190367 L137.825688,19.212156 L139.418578,19.212156 L139.418578,19.5349771 L133.913417,19.5349771 L133.913417,19.212156 L135.545872,19.212156 L135.545872,5.72190367 L135.002294,5.72190367 C133.247133,5.72190367 132.442087,6.10493119 131.9375,6.70928899 C131.493693,7.27408257 131.049885,8.52580275 131.049885,9.71387615 L130.747133,9.71387615 L130.747133,5.39908257 L142.585436,5.39908257 L142.585436,9.71387615" id="Fill-16" fill="#6A1A33"></path>
            <path d="M148.856651,14.5538991 L146.862385,8.10149083 L144.685206,14.5538991 L148.856651,14.5538991 Z M141.234518,19.2133028 L141.519495,19.2133028 C142.484518,19.2133028 142.768922,18.8491972 143.050459,17.9208716 L147.445528,5.2391055 L148.191514,5.2391055 L152.68922,19.2133028 L153.897362,19.2133028 L153.897362,19.5338303 L148.717317,19.5338303 L148.717317,19.2133028 L150.349197,19.2133028 L148.998853,14.997133 L144.522362,14.997133 L143.414564,18.3251147 C143.149656,19.1708716 143.614679,19.1708716 144.845183,19.2133028 L144.845183,19.5338303 L141.234518,19.5338303 L141.234518,19.2133028 Z" id="Fill-17" fill="#6A1A33"></path>
            <path d="M156.992546,12.0137615 L157.517202,12.0137615 C160.56078,12.0137615 161.509748,11.024656 161.509748,8.90825688 C161.509748,6.67087156 160.642775,5.72190367 158.263188,5.72190367 L156.992546,5.72190367 L156.992546,12.0137615 Z M166.27867,19.5286697 L163.577408,19.5412844 C162.690367,19.5412844 161.932913,19.4936927 161.427752,18.5057339 C160.985665,17.6381881 161.025229,16.3079128 160.823968,14.6955275 C160.581422,12.8400229 160.016628,12.3377294 157.596904,12.3377294 L156.992546,12.3377294 L156.992546,19.212156 L158.544725,19.212156 L158.544725,19.5349771 L153.323394,19.5349771 L153.323394,19.212156 L154.713876,19.212156 L154.713876,5.72190367 L153.323394,5.72190367 L153.323394,5.39908257 L158.947248,5.39908257 C162.21445,5.39908257 164.029817,6.56995413 164.029817,8.74713303 C164.029817,10.6616972 162.235092,11.8922018 159.613532,12.1353211 C162.094037,12.4965596 163.303899,13.6886468 163.444954,15.7029817 C163.606078,18.0630734 163.619266,19.0946101 164.708142,19.0946101 L165.132454,19.1077982 L166.019495,19.1336009 L165.293005,19.5286697 L166.27867,19.5286697 Z" id="Fill-18" fill="#6A1A33"></path>
            <polyline id="Fill-19" fill="#6A1A33" points="177.450688 19.212156 178.822248 19.212156 178.822248 5.72190367 177.450688 5.72190367 177.450688 5.39908257 182.531537 5.39908257 182.531537 5.72190367 181.100917 5.72190367 181.100917 11.9931193 186.50344 11.9931193 186.50344 5.72190367 185.071101 5.72190367 185.071101 5.39908257 190.15367 5.39908257 190.15367 5.72190367 188.78211 5.72190367 188.78211 19.212156 190.15367 19.212156 190.15367 19.5349771 185.071101 19.5349771 185.071101 19.212156 186.50344 19.212156 186.50344 12.4965596 181.100917 12.4965596 181.100917 19.212156 182.531537 19.212156 182.531537 19.5349771 177.450688 19.5349771 177.450688 19.212156"></polyline>
            <path d="M197.665138,5.49942661 C195.103211,5.49942661 193.309633,7.0733945 193.309633,12.4581422 C193.309633,17.8813073 195.083716,19.4134174 197.665138,19.4134174 C200.264908,19.4134174 202.019495,17.8612385 202.019495,12.4581422 C202.019495,7.0733945 200.264908,5.49942661 197.665138,5.49942661 M197.665138,19.7970183 C194.458716,19.7970183 190.868693,17.2958716 190.868693,12.4581422 C190.868693,7.61697248 194.458716,5.11754587 197.68406,5.11754587 C200.889908,5.11754587 204.479358,7.59747706 204.479358,12.4581422 C204.479358,17.2958716 200.889908,19.7970183 197.665138,19.7970183" id="Fill-20" fill="#6A1A33"></path>
            <path d="M206.608372,5.72190367 L205.337729,5.72190367 L205.337729,5.39908257 L215.137041,5.39908257 L215.399083,8.84633028 L215.076835,8.84633028 C214.835436,6.24655963 213.78555,5.72190367 210.962729,5.72190367 L208.867546,5.72190367 L208.867546,12.1731651 L209.813647,12.1731651 C211.710436,12.1731651 212.676032,11.7712156 212.676032,9.77465596 L212.676032,9.67373853 L212.979931,9.67373853 L212.979931,14.9764908 L212.676032,14.9764908 L212.676032,14.8170872 C212.676032,12.7603211 211.729931,12.4982798 209.813647,12.4982798 L208.867546,12.4982798 L208.867546,19.2133028 L210.821674,19.2133028 C214.291284,19.2133028 215.662271,18.4059633 215.662271,15.4805046 L215.662271,15.4013761 L215.965023,15.4013761 L215.965023,19.5338303 L205.337729,19.5338303 L205.337729,19.2133028 L206.608372,19.2133028 L206.608372,5.72190367" id="Fill-21" fill="#6A1A33"></path>
            <path d="M221.084289,19.2327982 L221.084289,19.5338303 L217.173165,19.5338303 L217.173165,19.2327982 C218.605505,19.1318807 218.745986,18.8491972 218.745986,17.5579128 L218.745986,6.10493119 L218.423165,5.72190367 L217.173165,5.72190367 L217.173165,5.39908257 L221.104358,5.39908257 L227.819381,15.3394495 L227.819381,7.35493119 C227.819381,6.00458716 227.618119,5.80332569 226.064794,5.72190367 L226.064794,5.39908257 L229.957569,5.39908257 L229.957569,5.72190367 C228.524656,5.8233945 228.263761,6.08428899 228.263761,7.37442661 L228.263761,19.6341743 L227.880161,19.6341743 L219.18922,6.69036697 L219.18922,17.5980505 C219.18922,18.9294725 219.431766,19.1513761 221.084289,19.2327982" id="Fill-22" fill="#6A1A33"></path>
            <path d="M236.34289,19.212156 C238.057913,19.212156 238.502867,19.0699541 239.105505,18.0630734 L242.393349,12.5779817 L238.622706,5.72190367 L237.19094,5.72190367 L237.19094,5.39908257 L242.433486,5.39908257 L242.433486,5.72190367 L241.162844,5.72190367 L243.84461,10.6026376 L245.66055,7.55619266 C246.749427,5.78211009 246.40711,5.78211009 244.731651,5.72190367 L244.731651,5.39908257 L248.68406,5.39908257 L248.68406,5.72190367 C247.25172,5.72190367 246.950115,6.22649083 246.304472,7.21444954 L244.047592,10.9856651 L248.584289,19.212156 L249.853784,19.212156 L249.853784,19.5349771 L244.490252,19.5349771 L244.490252,19.212156 L246.042431,19.212156 L242.614106,12.981078 L239.770642,17.7402523 C238.884748,19.2327982 239.40883,19.1513761 240.71961,19.212156 L240.71961,19.5349771 L236.34289,19.5349771 L236.34289,19.212156" id="Fill-23" fill="#6A1A33"></path>
            <polyline id="Fill-24" fill="#6A1A33" points="236.083716 19.2236239 236.083716 19.5481651 230.985665 19.5481651 230.985665 19.2236239 232.361239 19.2236239 232.361239 5.68520642 230.985665 5.68520642 230.985665 5.36009174 236.083716 5.36009174 236.083716 5.68520642 234.647362 5.68520642 234.647362 19.2236239 236.083716 19.2236239"></polyline>
            <path d="M169.263188,10.6049312 C169.846904,10.7918578 170.362959,10.8182339 170.987959,10.8182339 C173.467317,10.8182339 174.417431,9.23337156 174.417431,6.35779817 C174.417431,3.18979358 173.403096,1.50172018 170.429472,1.50172018 L169.263188,1.50172018 L169.263188,10.6049312 Z M165.319381,19.1553899 L166.827408,19.1553899 L166.827408,1.50172018 L165.319381,1.50172018 L165.319381,1.07970183 L171.224197,1.07970183 C175.040711,1.07970183 177.133028,2.87327982 177.133028,6.14793578 C177.133028,9.73509174 174.372133,11.2391055 170.945528,11.2391055 C170.148509,11.2391055 169.500573,11.1341743 169.263188,11.0538991 L169.263188,19.1553899 L171.204128,19.1553899 L171.204128,19.5774083 L165.319381,19.5774083 L165.319381,19.1553899 Z" id="Fill-25" fill="#6A1A33"></path>
            <g id="Group-31" transform="translate(118.119266, 0.000000)" stroke="#6A1A33">
                <path d="M0.396215596,12.8853211 C0.661697248,17.0980505 3.02006881,19.375 6.1462156,19.375 C8.79587156,19.375 10.5693807,17.6525229 10.5693807,15.2677752 C10.5693807,14.2889908 10.1989679,13.4145642 9.43061927,12.725344 C8.45183486,11.8767202 6.94151376,11.5854358 4.87442661,11.1886468 C1.58944954,10.5527523 0.0533256881,9.2287844 0.0533256881,6.04873853 C0.0533256881,2.65768349 2.17029817,0.537844037 5.24598624,0.537844037 C7.7087156,0.537844037 9.35206422,1.99483945 9.77522936,2.02236239 C10.1473624,2.04701835 10.3847477,1.89048165 10.3847477,1.09518349 L10.7305046,1.09518349 L10.7305046,6.5521789 L10.3847477,6.5521789 C9.93520642,2.9483945 7.97419725,1.09518349 5.14162844,1.09518349 C2.70298165,1.09518349 1.37672018,2.60607798 1.37672018,4.67144495 C1.37672018,6.04873853 1.98623853,6.79071101 2.7815367,7.21444954 C3.49713303,7.61181193 5.1668578,7.8233945 7.31135321,8.32740826 C10.4908257,9.09518349 11.921445,10.7649083 11.921445,13.8383028 C11.921445,17.4936927 9.64277523,19.9042431 6.17373853,19.9042431 C3.60321101,19.9042431 1.87958716,18.5819954 1.06020642,18.5819954 C0.713876147,18.5819954 0.422018349,18.8469037 0.396215596,19.5349771 L0.0258027523,19.5349771 L0.0258027523,12.8853211 L0.396215596,12.8853211 Z" id="Stroke-26" stroke-width="0.574"></path>
                <path d="M24.4661697,9.71387615 L24.162844,9.71387615 C24.162844,8.44438073 23.7184633,7.27408257 23.2775229,6.70928899 C22.7517202,6.08543578 22.0447248,5.72190367 20.2918578,5.72190367 L19.706422,5.72190367 L19.706422,19.212156 L21.2993119,19.212156 L21.2993119,19.5349771 L15.7941514,19.5349771 L15.7941514,19.212156 L17.4266055,19.212156 L17.4266055,5.72190367 L16.8830275,5.72190367 C15.127867,5.72190367 14.3228211,6.10493119 13.8182339,6.70928899 C13.3744266,7.27408257 12.9306193,8.52580275 12.9306193,9.71387615 L12.627867,9.71387615 L12.627867,5.39908257 L24.4661697,5.39908257 L24.4661697,9.71387615 Z M30.7373853,14.5538991 L28.7431193,8.10149083 L26.5659404,14.5538991 L30.7373853,14.5538991 Z M23.1152523,19.2133028 L23.4002294,19.2133028 C24.3652523,19.2133028 24.649656,18.8491972 24.9311927,17.9208716 L29.3262615,5.2391055 L30.0722477,5.2391055 L34.5699541,19.2133028 L35.7780963,19.2133028 L35.7780963,19.5338303 L30.5980505,19.5338303 L30.5980505,19.2133028 L32.2299312,19.2133028 L30.8795872,14.997133 L26.4030963,14.997133 L25.2952982,18.3251147 C25.0303899,19.1708716 25.4954128,19.1708716 26.7259174,19.2133028 L26.7259174,19.5338303 L23.1152523,19.5338303 L23.1152523,19.2133028 Z M38.8732798,12.0137615 L39.3979358,12.0137615 C42.4415138,12.0137615 43.3904817,11.024656 43.3904817,8.90825688 C43.3904817,6.67087156 42.5235092,5.72190367 40.143922,5.72190367 L38.8732798,5.72190367 L38.8732798,12.0137615 Z M48.1594037,19.5286697 L45.4581422,19.5412844 C44.5711009,19.5412844 43.8136468,19.4936927 43.3084862,18.5057339 C42.8663991,17.6381881 42.9059633,16.3079128 42.7047018,14.6955275 C42.462156,12.8400229 41.8973624,12.3377294 39.4776376,12.3377294 L38.8732798,12.3377294 L38.8732798,19.212156 L40.4254587,19.212156 L40.4254587,19.5349771 L35.2041284,19.5349771 L35.2041284,19.212156 L36.5946101,19.212156 L36.5946101,5.72190367 L35.2041284,5.72190367 L35.2041284,5.39908257 L40.8279817,5.39908257 C44.0951835,5.39908257 45.9105505,6.56995413 45.9105505,8.74713303 C45.9105505,10.6616972 44.1158257,11.8922018 41.4942661,12.1353211 C43.9747706,12.4965596 45.184633,13.6886468 45.3256881,15.7029817 C45.4868119,18.0630734 45.5,19.0946101 46.5888761,19.0946101 L47.0131881,19.1077982 L47.9002294,19.1336009 L47.1737385,19.5286697 L48.1594037,19.5286697 Z M59.331422,19.212156 L60.7029817,19.212156 L60.7029817,5.72190367 L59.331422,5.72190367 L59.331422,5.39908257 L64.4122706,5.39908257 L64.4122706,5.72190367 L62.9816514,5.72190367 L62.9816514,11.9931193 L68.3841743,11.9931193 L68.3841743,5.72190367 L66.9518349,5.72190367 L66.9518349,5.39908257 L72.0344037,5.39908257 L72.0344037,5.72190367 L70.662844,5.72190367 L70.662844,19.212156 L72.0344037,19.212156 L72.0344037,19.5349771 L66.9518349,19.5349771 L66.9518349,19.212156 L68.3841743,19.212156 L68.3841743,12.4965596 L62.9816514,12.4965596 L62.9816514,19.212156 L64.4122706,19.212156 L64.4122706,19.5349771 L59.331422,19.5349771 L59.331422,19.212156 Z M79.5458716,5.49942661 C76.983945,5.49942661 75.190367,7.0733945 75.190367,12.4581422 C75.190367,17.8813073 76.9644495,19.4134174 79.5458716,19.4134174 C82.1456422,19.4134174 83.9002294,17.8612385 83.9002294,12.4581422 C83.9002294,7.0733945 82.1456422,5.49942661 79.5458716,5.49942661 Z M79.5458716,19.7970183 C76.3394495,19.7970183 72.7494266,17.2958716 72.7494266,12.4581422 C72.7494266,7.61697248 76.3394495,5.11754587 79.5647936,5.11754587 C82.7706422,5.11754587 86.3600917,7.59747706 86.3600917,12.4581422 C86.3600917,17.2958716 82.7706422,19.7970183 79.5458716,19.7970183 Z M88.4891055,5.72190367 L87.2184633,5.72190367 L87.2184633,5.39908257 L97.0177752,5.39908257 L97.2798165,8.84633028 L96.9575688,8.84633028 C96.7161697,6.24655963 95.6662844,5.72190367 92.8434633,5.72190367 L90.7482798,5.72190367 L90.7482798,12.1731651 L91.6943807,12.1731651 C93.5911697,12.1731651 94.5567661,11.7712156 94.5567661,9.77465596 L94.5567661,9.67373853 L94.8606651,9.67373853 L94.8606651,14.9764908 L94.5567661,14.9764908 L94.5567661,14.8170872 C94.5567661,12.7603211 93.6106651,12.4982798 91.6943807,12.4982798 L90.7482798,12.4982798 L90.7482798,19.2133028 L92.7024083,19.2133028 C96.1720183,19.2133028 97.5430046,18.4059633 97.5430046,15.4805046 L97.5430046,15.4013761 L97.8457569,15.4013761 L97.8457569,19.5338303 L87.2184633,19.5338303 L87.2184633,19.2133028 L88.4891055,19.2133028 L88.4891055,5.72190367 Z" id="Stroke-28" stroke-width="0.718"></path>
                <path d="M102.965023,19.2327982 L102.965023,19.5338303 L99.0538991,19.5338303 L99.0538991,19.2327982 C100.486239,19.1318807 100.62672,18.8491972 100.62672,17.5579128 L100.62672,6.10493119 L100.303899,5.72190367 L99.0538991,5.72190367 L99.0538991,5.39908257 L102.985092,5.39908257 L109.700115,15.3394495 L109.700115,7.35493119 C109.700115,6.00458716 109.498853,5.80332569 107.945528,5.72190367 L107.945528,5.39908257 L111.838303,5.39908257 L111.838303,5.72190367 C110.40539,5.8233945 110.144495,6.08428899 110.144495,7.37442661 L110.144495,19.6341743 L109.760894,19.6341743 L101.069954,6.69036697 L101.069954,17.5980505 C101.069954,18.9294725 101.3125,19.1513761 102.965023,19.2327982 Z M118.223624,19.212156 C119.938647,19.212156 120.383601,19.0699541 120.986239,18.0630734 L124.274083,12.5779817 L120.50344,5.72190367 L119.071674,5.72190367 L119.071674,5.39908257 L124.31422,5.39908257 L124.31422,5.72190367 L123.043578,5.72190367 L125.725344,10.6026376 L127.541284,7.55619266 C128.630161,5.78211009 128.287844,5.78211009 126.612385,5.72190367 L126.612385,5.39908257 L130.564794,5.39908257 L130.564794,5.72190367 C129.132454,5.72190367 128.830849,6.22649083 128.185206,7.21444954 L125.928326,10.9856651 L130.465023,19.212156 L131.734518,19.212156 L131.734518,19.5349771 L126.370986,19.5349771 L126.370986,19.212156 L127.923165,19.212156 L124.494839,12.981078 L121.651376,17.7402523 C120.765482,19.2327982 121.289564,19.1513761 122.600344,19.212156 L122.600344,19.5349771 L118.223624,19.5349771 L118.223624,19.212156 Z" id="Stroke-29" stroke-width="0.718"></path>
                <path d="M117.96445,19.2236239 L117.96445,19.5481651 L112.866399,19.5481651 L112.866399,19.2236239 L114.241972,19.2236239 L114.241972,5.68520642 L112.866399,5.68520642 L112.866399,5.36009174 L117.96445,5.36009174 L117.96445,5.68520642 L116.528096,5.68520642 L116.528096,19.2236239 L117.96445,19.2236239 Z M51.143922,10.6049312 C51.7276376,10.7918578 52.2436927,10.8182339 52.8686927,10.8182339 C55.3480505,10.8182339 56.2981651,9.23337156 56.2981651,6.35779817 C56.2981651,3.18979358 55.2838303,1.50172018 52.3102064,1.50172018 L51.143922,1.50172018 L51.143922,10.6049312 Z M47.2001147,19.1553899 L48.7081422,19.1553899 L48.7081422,1.50172018 L47.2001147,1.50172018 L47.2001147,1.07970183 L53.1049312,1.07970183 C56.921445,1.07970183 59.0137615,2.87327982 59.0137615,6.14793578 C59.0137615,9.73509174 56.252867,11.2391055 52.8262615,11.2391055 C52.0292431,11.2391055 51.3813073,11.1341743 51.143922,11.0538991 L51.143922,19.1553899 L53.0848624,19.1553899 L53.0848624,19.5774083 L47.2001147,19.5774083 L47.2001147,19.1553899 Z" id="Stroke-30" stroke-width="0.574"></path>
            </g>
        </g>
    </g>
</svg>
