<?xml version="1.0" encoding="UTF-8" standalone="no"?>
<svg width="100px" height="100px" viewBox="0 0 100 100" version="1.1" xmlns="http://www.w3.org/2000/svg" xmlns:xlink="http://www.w3.org/1999/xlink">
    <!-- Generator: Sketch 50.2 (55047) - http://www.bohemiancoding.com/sketch -->
    <title>WS_Workmark_RGB</title>
    <desc>Created with Sketch.</desc>
    <defs></defs>
    <g id="Styles" stroke="none" stroke-width="1" fill="none" fill-rule="evenodd">
        <g id="Market-Branding" transform="translate(-61.000000, -788.000000)">
            <g id="WS_Workmark_RGB" transform="translate(61.000000, 788.000000)">
                <polygon id="Fill-1" fill="#194F8E" points="0 99.9742489 99.9429185 99.9742489 99.9429185 0.0579399142 0 0.0579399142"></polygon>
                <polyline id="Fill-3" fill="#292D5D" points="40.3935622 5.20772532 94.7927039 5.20772532 94.7927039 89.7901288 40.3935622 5.20772532"></polyline>
                <polyline id="Fill-4" fill="#292D5D" points="5.15021459 10.8193133 59.0862661 94.8497854 5.15021459 94.8497854 5.15021459 10.8193133"></polyline>
                <polyline id="Fill-5" fill="#FFFFFE" points="25.8309013 57.4815451 26.706867 57.4815451 26.706867 71.2137339 25.7570815 71.2137339 25.7570815 71.8652361 30.2150215 71.8652361 30.2150215 71.2137339 29.2759657 71.2137339 29.2759657 57.4815451 30.2150215 57.4815451 30.2150215 56.8300429 25.8309013 56.8300429 25.8309013 57.4815451"></polyline>
                <path d="M39.8055794,57.4729614 L39.9536481,57.4815451 C40.6806867,57.5291845 40.693133,57.6111588 40.8330472,57.7566524 C41.0167382,57.9291845 41.0845494,58.323176 41.0819742,59.0253219 L41.0819742,66.8034335 L34.6819742,56.8309013 L30.9021459,56.8309013 L30.9021459,57.4815451 L31.8686695,57.4815451 L32.1060086,57.7781116 L32.1060086,69.6497854 C32.1085837,70.3201717 32.0600858,70.6974249 31.8957082,70.8845494 C31.7412017,71.0776824 31.5536481,71.2351931 31.0480687,71.2351931 L30.9021459,71.2459227 L30.9021459,71.8643777 L34.0927039,71.8643777 L34.0927039,71.2429185 L33.9433476,71.2351931 C33.4180258,71.2351931 33.3317597,71.1733906 33.1321888,70.9824034 C32.9291845,70.8038627 32.8570815,70.3819742 32.8596567,69.6918455 L32.8596567,58.8716738 L41.2120172,71.9690987 L41.8356223,71.9690987 L41.8356223,59.0454936 C41.8330472,58.3798283 41.9085837,58.0184549 42.0978541,57.8300429 C42.2815451,57.6334764 42.3781116,57.5098712 42.844206,57.4815451 L42.9901288,57.4708155 L42.9901288,56.8309013 L39.8055794,56.8309013 L39.8055794,57.4729614" id="Fill-6" fill="#FFFFFE"></path>
                <path d="M25.0296137,56.8300429 L25.0296137,56.8309013 L21.6974249,56.8309013 L21.6974249,57.4703863 L21.844206,57.4815451 C22.3287554,57.5133047 22.4618026,57.5364807 22.6815451,57.6077253 C22.8978541,57.6914163 22.9429185,57.7347639 22.9575107,57.9536481 C22.9575107,58.0776824 22.9214592,58.2566524 22.8424893,58.4914163 L19.6420601,68.1167382 L17.4725322,61.460515 L18.3536481,58.8446352 C18.5523605,58.2454936 18.7017167,57.9334764 18.9463519,57.7622318 C19.1909871,57.5858369 19.6017167,57.5107296 20.3656652,57.4815451 L20.5171674,57.4755365 L20.5171674,56.8309013 L12.5437768,56.8309013 L12.5437768,57.4815451 L13.4450644,57.4815451 L15.7055794,64.1484979 L14.3763948,68.1193133 L10.8824034,57.4815451 L11.8197425,57.4815451 L11.8197425,56.8309013 L7.1806867,56.8309013 L7.1806867,57.4815451 L8.09957082,57.4815451 L13.2145923,72.3746781 L13.7180258,72.2613734 L16.072103,65.2484979 L18.5004292,72.3746781 L19.0042918,72.2613734 L23.4811159,58.844206 C23.6781116,58.2566524 23.823176,57.9416309 24.0648069,57.7690987 C24.2532189,57.6287554 24.5459227,57.5154506 25.1755365,57.4738197 L25.1755365,56.8300429 L25.0296137,56.8300429 Z M16.1609442,57.4815324 L16.9781116,57.4815451 C17.3124464,57.4806867 17.5463519,57.5236052 17.6686695,57.5957082 C17.7879828,57.6690987 17.8347639,57.744206 17.8399142,57.944206 C17.8399142,58.0939914 17.7969957,58.3055794 17.7064378,58.5755365 L17.1339056,60.3321888 L16.1609442,57.4815324 Z" id="Fill-7" fill="#FFFFFE"></path>
                <path d="M78.0660944,58.506867 C76.7519313,57.1982833 75.032618,56.5364807 73.4038627,56.5364807 C71.7656652,56.5364807 70.0416309,57.2042918 68.7253219,58.5137339 C67.4077253,59.8248927 66.5042918,61.7806867 66.5051502,64.3373391 C66.5042918,66.8944206 67.4077253,68.8502146 68.7223176,70.1600858 C70.0364807,71.4695279 71.7549356,72.1364807 73.383691,72.1373391 C75.0214592,72.1364807 76.7459227,71.4703863 78.0626609,70.1600858 C79.3806867,68.8502146 80.2841202,66.8944206 80.2841202,64.3373391 C80.2841202,61.7703863 79.3806867,59.8141631 78.0660944,58.506867 M76.3738197,69.9802575 C75.6459227,71.0407725 74.6403433,71.4197425 73.383691,71.4240343 C72.1373391,71.4197425 71.1313305,71.0446352 70.4021459,69.9888412 C69.6725322,68.9283262 69.2317597,67.1459227 69.2334764,64.3373391 C69.232618,61.5493562 69.6776824,59.7682403 70.4094421,58.7021459 C71.1420601,57.6386266 72.1497854,57.2549356 73.383691,57.251073 C74.639485,57.2549356 75.6450644,57.6386266 76.3729614,58.7021459 C77.1004292,59.7669528 77.5356223,61.5493562 77.5347639,64.3373391 C77.5356223,67.1351931 77.1004292,68.9180258 76.3738197,69.9802575" id="Fill-8" fill="#FFFFFE"></path>
                <path d="M48.7832618,56.8300429 L43.6060086,56.8300422 L43.6060086,57.4824034 L44.5364807,57.4824034 L44.5364807,71.2133047 L43.6060086,71.2133047 L43.6060086,71.8652361 L48.7472103,71.8652361 C50.9261803,71.8652361 52.6703863,71.0849785 53.8600858,69.7480687 C55.0502146,68.4120172 55.6824034,66.5304721 55.6824034,64.3373391 C55.6824034,62.155794 55.0553648,60.2781116 53.8725322,58.9433476 C52.6905579,57.6094421 50.9536481,56.8291845 48.7832618,56.8300429 M52.1901288,69.5467811 C51.4433476,70.6600858 50.2596567,71.2103004 48.3716738,71.2133047 L47.2927039,71.2133047 L47.2927039,57.4824034 L48.3716738,57.4824034 C50.2596567,57.4858369 51.444206,58.0253219 52.1901288,59.1309013 C52.9386266,60.2403433 53.2420601,61.9665236 53.2403433,64.3373391 C53.2420601,66.6978541 52.9386266,68.4287554 52.1901288,69.5467811" id="Fill-9" fill="#FFFFFE"></path>
                <path d="M62.0957082,62.6553648 C60.472103,62.2579399 59.1961373,62.0746781 58.7193133,61.7879828 C58.1600858,61.4665236 57.7433476,60.9540773 57.7386266,59.9042918 C57.7519313,58.327897 58.6553648,57.2330472 60.4184549,57.22103 C62.4729614,57.2304721 63.8712446,58.5978541 64.2197425,61.416309 L64.2356223,61.5549356 L64.7939914,61.5549356 L64.7939914,56.9064378 L64.2188841,56.9064378 L64.2188841,57.0639485 C64.2197425,57.3454936 64.1772532,57.5051502 64.1334764,57.5699571 C64.0892704,57.6300429 64.0665236,57.639485 63.9699571,57.6446352 C63.9566524,57.6446352 63.9424893,57.6446352 63.9274678,57.6429185 C63.9223176,57.6497854 63.7712446,57.583691 63.5888412,57.4712446 C63.0193133,57.1381974 61.9424893,56.4656652 60.4987124,56.4643777 C59.3008584,56.4635193 58.2742489,56.9025751 57.5532189,57.6939914 C56.8330472,58.4862661 56.423176,59.62103 56.423176,60.9982833 C56.4223176,62.2819742 56.72103,63.2253219 57.3545064,63.9038627 C57.9892704,64.5819742 58.9330472,64.97897 60.1879828,65.2347639 C61.748927,65.5480687 62.8626609,65.7854077 63.551073,66.4167382 C64.0965665,66.9330472 64.3566524,67.57897 64.3583691,68.3201717 C64.3506438,70.1351931 63.1008584,71.4158798 61.1785408,71.4240343 C58.9120172,71.4175966 57.2064378,69.7137339 56.9982833,66.4171674 L56.9892704,66.2690987 L56.4030043,66.2690987 L56.4030043,71.8643777 L56.9922747,71.8643777 L56.9982833,71.7137339 C57.0309013,71.1957082 57.1862661,71.1133047 57.3403433,71.1072961 C57.5699571,71.0982833 58.0669528,71.3523605 58.7150215,71.6218884 C59.3682403,71.888412 60.2004292,72.1587983 61.1978541,72.1587983 L61.2021459,72.1587983 C62.5484979,72.1587983 63.6793991,71.6626609 64.4665236,70.7871245 C65.2540773,69.9103004 65.6927039,68.6660944 65.6927039,67.1841202 C65.7085837,64.6944206 64.5399142,63.2600858 62.0957082,62.6553648" id="Fill-10" fill="#FFFFFE"></path>
                <path d="M92.5150215,70.5686695 L92.4094421,70.7103004 C92.2150215,70.976824 91.8738197,71.1995708 91.6381974,71.1927039 C91.1686695,71.1802575 90.9742489,70.9871245 90.7965665,70.4128755 C90.6347639,69.8416309 90.5776824,68.9351931 90.4991416,67.7077253 C90.3841202,65.8137339 89.376824,64.5587983 87.4519313,64.0283262 C89.6064378,63.5901288 91.0751073,62.3360515 91.0772532,60.4738197 C91.0798283,59.2987124 90.6012876,58.3630901 89.7077253,57.751073 C88.8150215,57.1364807 87.5274678,56.8309013 85.8927039,56.8309013 L79.4433476,56.8309013 L79.4433476,57.4815451 L81.5463519,57.4815451 L81.5463519,71.2137339 L80.6227468,71.2137339 L80.6227468,71.8643777 L85.0729614,71.8643777 L85.0729614,71.2137339 L84.1158798,71.2137339 L84.1158798,64.3682403 L84.5566524,64.3682403 C85.7454936,64.3669528 86.4484979,64.504721 86.8618026,64.8381974 C87.276824,65.1660944 87.4738197,65.7296137 87.5918455,66.6871245 C87.793133,68.3545064 87.7420601,69.7407725 88.204721,70.7051502 C88.7343348,71.8004292 89.7858369,72.011588 90.6716738,72.011588 L90.7008584,72.011588 C91.7613734,72.0128755 92.4712446,71.5690987 92.8570815,71.0927039 L92.9493562,70.97897 L92.5150215,70.5686695 Z M84.5424893,63.7175966 L84.1811159,63.717605 L84.1811159,57.4815451 L85.2802575,57.4815451 C86.4386266,57.4819742 87.1896996,57.7253219 87.6540773,58.2171674 C88.12103,58.7081545 88.3339056,59.4922747 88.3339056,60.6416309 C88.3330472,61.7261803 88.1051502,62.4763948 87.5424893,62.9669528 C86.9811159,63.4596567 86.0330472,63.7193133 84.5424893,63.7175966 Z" id="Fill-11" fill="#FFFFFE"></path>
                <path d="M14.7575107,81.4699571 C13.1321888,81.0712446 11.8536481,80.8892704 11.3759657,80.6017167 C10.8158798,80.2806867 10.4008584,79.7669528 10.3944206,78.716309 C10.4077253,77.1381974 11.3137339,76.0424893 13.0776824,76.0309013 C15.1347639,76.039485 16.5343348,77.4090129 16.8824034,80.2300429 L16.8982833,80.4635193 L17.4566524,80.4635193 L17.4566524,75.6553648 L16.8806867,75.6553648 L16.8806867,75.8729614 C16.8832618,76.1545064 16.839485,76.3141631 16.7961373,76.3793991 C16.7523605,76.4399142 16.7291845,76.4493562 16.632618,76.4549356 C16.6193133,76.4549356 16.604721,76.4540773 16.5896996,76.4532189 C16.5849785,76.460515 16.4330472,76.3935622 16.2502146,76.2811159 C15.6811159,75.9484979 14.6021459,75.2738197 13.1570815,75.2738197 C11.9600858,75.2729614 10.9309013,75.7111588 10.2107296,76.5034335 C9.4888412,77.2961373 9.07811159,78.4330472 9.07811159,79.811588 C9.07725322,81.0961373 9.37682403,82.0412017 10.0120172,82.7197425 C10.6467811,83.3982833 11.5914163,83.795279 12.8454936,84.0519313 C14.4094421,84.3656652 15.5244635,84.6025751 16.211588,85.2351931 C16.7600858,85.7527897 17.0197425,86.3987124 17.0214592,87.1399142 C17.0133047,88.9575107 15.7635193,90.2390558 13.8377682,90.2472103 C11.5695279,90.2407725 9.86223176,88.5360515 9.65407725,85.2356223 L9.64506438,85.0871245 L9.05879828,85.0871245 L9.05879828,90.688412 L9.64849785,90.688412 L9.65407725,90.5364807 C9.68755365,90.0188841 9.84291845,89.9364807 9.99613734,89.9304721 C10.2266094,89.9214592 10.7244635,90.1759657 11.3725322,90.4454936 C12.0261803,90.7120172 12.8587983,90.9832618 13.8579399,90.9832618 L13.8613734,90.9832618 C15.2077253,90.9832618 16.3407725,90.4858369 17.1287554,89.6094421 C17.9158798,88.7330472 18.3566524,87.4862661 18.3566524,86.0038627 C18.372103,83.5107296 17.2034335,82.0755365 14.7575107,81.4699571" id="Fill-12" fill="#FFFFFE"></path>
                <path d="M25.6742489,76.3055794 L26.0948498,76.3055794 C27.8150215,76.3120172 28.4304721,76.6652361 28.923176,77.2751073 C29.3321888,77.8184549 29.7690987,79.0188841 29.7665236,80.3055794 L29.7665236,80.4630901 L30.3811159,80.4630901 L30.3811159,75.6553648 L18.3570815,75.6553648 L18.3570815,80.4630901 L18.9708155,80.4630901 L18.9708155,80.3055794 C18.9682403,79.1051502 19.4081545,77.8141631 19.8171674,77.2712446 C20.2806867,76.6918455 21.0060086,76.3098712 22.7236052,76.3055794 L23.1038627,76.3055794 L23.1038627,90.0369099 L22.1935622,90.0369099 L22.1935622,90.688412 L26.6197425,90.688412 L26.6197425,90.0369099 L25.6742489,90.0369099 L25.6742489,76.3055794" id="Fill-13" fill="#FFFFFE"></path>
                <path d="M44.5060086,82.5412017 L44.1446352,82.5412102 L44.1446352,76.3055794 L45.244206,76.3055794 C46.4021459,76.3060086 47.1523605,76.5484979 47.6175966,77.0412017 C48.0845494,77.532618 48.2982833,78.3167382 48.2974249,79.4656652 C48.2965665,80.5493562 48.0686695,81.2995708 47.506867,81.7909871 C46.9433476,82.283691 45.9961373,82.5429185 44.5060086,82.5412017 Z M31.6896996,85.1871245 L33.6218884,79.1622318 L35.393133,85.1871245 L31.6896996,85.1871245 Z M52.4776824,89.3922747 L52.372103,89.5343348 C52.176824,89.8012876 51.8373391,90.023176 51.6017167,90.0167382 C51.1304721,90.0038627 50.9369099,89.8103004 50.7592275,89.2364807 C50.5982833,88.6656652 50.5403433,87.7592275 50.4609442,86.5317597 C50.3467811,84.6377682 49.3399142,83.3824034 47.4154506,82.8515021 C49.5690987,82.4145923 51.0373391,81.1600858 51.0399142,79.2978541 C51.0433476,78.1227468 50.5648069,77.1875536 49.6712446,76.5751073 C48.7785408,75.9609442 47.4909871,75.6549356 45.8562232,75.6549356 L39.4077253,75.6549356 L39.4077253,76.3055794 L41.5098712,76.3055794 L41.5098712,90.0377682 L39.5090129,90.0377682 L35.0613734,75.4866953 L34.0922747,75.4866953 L29.7081545,88.8017167 C29.5699571,89.2841202 29.4339056,89.593133 29.2463519,89.772103 C29.0592275,89.948927 28.8038627,90.0360515 28.3429185,90.0377682 L28.0351931,90.0377682 L28.0351931,90.688412 L31.4012876,90.688412 L31.4012876,90.0429185 L31.2497854,90.0377682 C30.751073,90.0214592 30.7703863,90.0081545 30.5566524,89.9480687 C30.3429185,89.8738197 30.3184549,89.8502146 30.3042918,89.6665236 C30.3042918,89.5828326 30.3244635,89.4648069 30.3686695,89.3167382 L31.4309013,85.9639485 L35.6261803,85.9639485 L36.8669528,90.0377682 L35.9180258,90.0377682 L35.9180258,90.688412 L45.0356223,90.688412 L45.0356223,90.0377682 L44.0793991,90.0377682 L44.0793991,83.1922747 L44.5201717,83.1922747 C45.7085837,83.1909871 46.4120172,83.3287554 46.8253219,83.6613734 C47.2403433,83.9896996 47.4373391,84.5532189 47.5545064,85.5111588 C47.7566524,87.1785408 47.7055794,88.5652361 48.1682403,89.5296137 C48.6978541,90.6240343 49.7493562,90.8351931 50.6351931,90.8351931 L50.6626609,90.8351931 C51.7257511,90.8369099 52.4330472,90.3927039 52.8197425,89.916309 L52.9111588,89.8030043 L52.4776824,89.3922747 Z" id="Fill-14" fill="#FFFFFE"></path>
            </g>
        </g>
    </g>
</svg>
