<svg width="128" height="20" xmlns="http://www.w3.org/2000/svg" xmlns:xlink="http://www.w3.org/1999/xlink"><defs><path id="a" d="M.029 19.971h127.335V.067H.03z"/></defs><g fill="none" fill-rule="evenodd"><mask id="b" fill="#fff"><use xlink:href="#a"/></mask><path d="M9.011 19.295v.429h3.44v-.429c-1.004 0-1.387-.845-1.074-2.164.461-1.98.84-3.737.874-3.921h3.016c.56 2.102.593 2.333 1.268 4.827.182.681.148 1.258-.395 1.258h-.462v.429h7.313v-.429h-.473c-.61 0-.989-.619-.989-2.227V7.256c2.588 4.968 3.918 7.417 6.685 12.694h.263c0-.969-.04-13.004-.04-13.56 0-1.547.588-2.267 1.594-2.267v-.417c-.281 0-1.146-.004-1.806-.004h-1.84l.016.417c.923 0 1.44.704 1.44 2.271v7.731c-.808-1.547-4.812-9.076-5.439-10.291-.048-.083-.065-.124-.164-.124-.05 0-.743-.004-1.485-.004-.693 0-1.383.004-1.464.004v.417c.477 0 .728.195.992.668.18.33.439.883.653 1.295V17.28c0 1.432-.376 1.903-.91 1.992-.018.002-.034.005-.053.005l-.02-.002c-.466-.053-.819-.37-.944-.825-1.664-5.978-2.562-8.46-4.39-14.975h-.52c-.216.929-3.272 13.342-3.47 14.232-.281 1.262-.874 1.588-1.616 1.588zM13.635 7.4l1.416 5.3h-2.603l1.187-5.3zM5.93 19.942h.473c.337-1.315 3.343-13.098 4.196-16.373.576-2.209 1.25-2.655 2.122-2.655V.448c-.337 0-1.292-.01-2.026-.01h-2.02v.49c.08 0 .614-.014.673-.014.635 0 1.045.707.688 2.096C9.228 6.218 7.27 13.97 7.27 13.97S5.084 5.109 4.389 2.28C4.131 1.262 4.191.914 4.767.914h.483V.448c-.338 0-1.58-.01-2.611-.01C1.607.437.338.447 0 .447v.466h.74c.476 0 .634.423.952 1.713.753 3.051 3.92 15.975 4.238 17.315zm97.317-11.024c-.417-.371-2.004-1.787-2.58-2.283-.954-.83-1.305-1.362-1.598-2.602C98.943 3.5 98.909.64 101.33.64c1.39 0 2.592 1.6 3.366 4.629l.385-.011c-.16-2.531-.152-2.593-.311-5.074l-.359-.01-.055.287c-.02.124-.098.739-.358.739-.12 0-.24-.021-.472-.202-.719-.562-1.633-.931-2.435-.931-1.944 0-4.183 1.657-4.053 5.353.05 1.39.697 2.524 1.641 3.585 1.118 1.256 2.5 2.407 3.452 3.325.972.944 1.312 1.76 1.485 2.939.213 1.455-.202 4.097-2.12 4.088-2.015-.01-3.415-2.02-4.235-5.725l-.386.045c0 .347.137 5.076.137 6.093l.398-.008c.259-1.188.457-1.462 1.155-.868.655.57 1.494 1.106 2.942 1.106 2.757 0 4.318-2.446 4.318-5.3 0-2.798-1.32-4.67-2.578-5.782zM38.29 4.383c-1.287-1.05-2.505-.915-2.505-.915-2.62 0-5.495 2.852-5.495 8.274 0 4 1.811 8.2 5.338 8.2 1.752 0 3.122-1.141 4.043-2.106l-.004-3.469-.336.016c-.653 3.046-1.259 5.035-3.557 5.035-1.664 0-2.897-2.089-2.897-7.676 0-5.194 1.008-7.785 2.92-7.785 2.545 0 2.953 2.42 3.498 4.539l.376-.01V3.645h-.425c-.106 1.681-.956.74-.956.74zm85.43-.732l.016.417c.922 0 1.438.705 1.438 2.272v7.73c-.806-1.545-4.81-9.074-5.438-10.29-.048-.083-.065-.124-.164-.124-.05 0-.744-.005-1.485-.005-.688 0-1.373.005-1.462.005-.285 0-1.02-.005-1.676-.005h-1.84l.016.417c.924 0 1.423.283 1.423 1.85l.002 8.756c0 2.828-.552 4.628-2.34 4.628-1.501 0-2.112-1.366-2.112-3.695V5.279c0-.947.132-1.195.626-1.195h.398v-.428c-.28 0-1.303-.005-2.16-.005-.873 0-2 .005-2.282.005v.428h.55c.479 0 .628.248.628 1.195v10.307c0 2.248 1.23 4.313 3.965 4.313 2.752 0 3.316-2.415 3.316-5.22v-8.76c0-1.544.483-1.845 1.484-1.847.477 0 .728.196.99.67.183.33.44.882.655 1.295V17.23c0 1.546-.54 2.013-1.036 2.013-.042 0-.374-.014-.42-.019v.442c.15 0 .991.008 1.633.008h1.88v-.43h-.474c-.609 0-.988-.617-.988-2.225V7.206c2.588 4.968 3.824 7.42 6.592 12.698l.356-.005c0-.968-.041-13.002-.041-13.559 0-1.546.59-2.268 1.594-2.268v-.416c-.28 0-1.145-.005-1.805-.005h-1.84zM78.027 19.294c-.592 0-1.117-.02-1.447-.04-.313-.022-.43-.574-.43-.945 0-1.175.006-5.374.006-6.363h.628c1.335 0 1.828 1.247 1.894 2.938l.33.014c0-.33-.005-1.605-.005-3.048 0-1.628.039-3.202.039-3.347l-.352-.013c0 1.258-.539 2.914-1.906 2.914h-.628c0-.741-.015-6.137-.015-7.106 0-.103.033-.145.166-.165.23-.022.478-.022.988-.022 1.763 0 2.442 1.207 3.446 3.496l.415-.024c-.18-1.05-.358-2.594-.556-3.812-.018-.061-.05-.102-.132-.102-.79.061-3.133.037-5.326.037-.756 0-1.754.004-2.369.004-.282 0-1.04-.003-1.647-.003H69.33v.39c.067 0 .491.014.541.014.527 0 .879.597.582 1.75l-2.312 9.187s-1.813-7.453-2.39-9.802c-.213-.846-.163-1.135.315-1.135h.447v-.416c-.28 0-1.307-.004-2.164-.004-.857 0-2.003.004-2.283.004v.003c-.31 0-1.003-.004-1.627-.004h-1.84l.016.416c.924 0 1.423.284 1.423 1.85h-.002l.002 8.757c0 2.827-.551 4.63-2.34 4.63-1.5 0-2.112-1.367-2.112-3.697V5.322c0-.948.131-1.195.627-1.195h.399v-.429c-.28 0-1.304-.004-2.162-.004-.874 0-2 .004-2.281.004v.429h.55c.478 0 .626.247.626 1.195V15.63c0 2.247 1.232 4.312 3.966 4.312 2.751 0 3.316-2.416 3.316-5.22V5.96c0-1.545.488-1.845 1.493-1.845V4.11h.6c.395 0 .528.35.79 1.423.627 2.535 3.291 13.291 3.554 14.405h.307c.281-1.093 2.818-10.921 3.526-13.642.477-1.834 1.15-2.185 1.874-2.186.105 0 .463.016.512.016.478 0 .626.247.626 1.195v12.781c0 .948-.148 1.196-.626 1.196h-.493v.428h7.946c.098 0 .135.043.152-.02.329-1.32.572-3.335.836-4.488l-.421-.012c-1.022 2.607-1.768 4.087-3.276 4.087zm13.923-.687l-1.531-3.454-1.622-3.49.313-.167c1.022-.618 1.971-1.59 1.971-3.713 0-2.74-1.663-4.085-3.46-4.085-.313 0-1.571-.004-2.741-.004-.923 0-2.082.004-2.328.004v.417h.538c.478 0 .626.247.626 1.195v12.781c0 .949-.148 1.175-.626 1.175h-.538v.45h4.31v-.45h-.28c-.476 0-.626-.226-.626-1.175v-5.916c0-.186.034-.227.182-.227.494 0 .742.351.988.947 1.368 3.237 2.184 5.172 2.448 5.79 0 0 .355.975 1.333 1.002.85.024 2.143.028 2.143.028l.012-.428c-.297 0-.898-.186-1.112-.68zm-5.259-7.174c-.161 0-.631.029-.686-.041 0-1.937.01-5.112.01-6.391 0-.64.165-.845.791-.845 1.203 0 1.895 1.278 1.895 3.566 0 2.618-.791 3.71-2.01 3.71zM46.146 3.468c-3.08 0-5.388 3.636-5.388 8.274 0 4.597 2.296 8.2 5.377 8.2 3.082 0 5.433-3.603 5.433-8.241 0-4.64-2.34-8.233-5.422-8.233zm0 15.95c-2.274 0-2.85-3.904-2.85-7.676 0-3.813.598-7.785 2.873-7.785 2.274 0 2.86 3.93 2.86 7.744 0 3.813-.61 7.717-2.883 7.717z" fill="#315E4B" mask="url(#b)"/></g></svg>