<svg width="167" height="20" xmlns="http://www.w3.org/2000/svg" xmlns:xlink="http://www.w3.org/1999/xlink"><defs><path id="a" d="M.025.412v19.146h44.138V.413z"/></defs><g fill="none" fill-rule="evenodd"><path d="M118.954 8.01c-2.004-.491-3.58-.716-4.17-1.07-.691-.396-1.202-1.03-1.21-2.325.016-1.947 1.134-3.298 3.309-3.313 2.536.011 4.263 1.7 4.692 5.18l.02.287h.688V.84h-.71v.269c.003.347-.05.544-.105.624-.053.075-.083.087-.201.093-.017 0-.034 0-.053-.002-.006.01-.193-.073-.419-.212-.702-.41-2.032-1.242-3.814-1.242-1.477-.001-2.746.54-3.634 1.516-.89.978-1.397 2.38-1.397 4.08 0 1.585.368 2.75 1.152 3.587.783.836 1.948 1.326 3.494 1.643 1.929.386 3.304.68 4.152 1.459.676.638.997 1.435.998 2.35-.01 2.24-1.551 3.821-3.926 3.831-2.797-.008-4.903-2.11-5.16-6.18l-.01-.183h-.723v6.907h.726l.008-.187c.04-.638.232-.74.421-.747.284-.012.899.302 1.698.635.806.328 1.833.663 3.065.663h.004c1.66 0 3.058-.613 4.03-1.694.97-1.081 1.514-2.619 1.514-4.447.019-3.075-1.423-4.845-4.439-5.591m13.463-6.371h.52c2.121.008 2.88.444 3.488 1.196.504.67 1.043 2.15 1.04 3.737v.194h.757V.84h-14.828v5.93h.756v-.195c-.003-1.48.54-3.072 1.045-3.741.571-.716 1.465-1.187 3.584-1.192h.469v16.935h-1.123v.803h5.459v-.803h-1.167V1.64m23.226 7.691h-.446v-7.69h1.356c1.427.001 2.353.3 2.927.908.576.605.84 1.573.838 2.99 0 1.336-.282 2.261-.974 2.867-.695.608-1.864.928-3.701.925zm-15.806 3.264l2.383-7.43 2.184 7.43h-4.567zm25.637 5.186l-.13.176c-.242.328-.66.602-.95.594-.582-.016-.82-.254-1.04-.962-.198-.704-.27-1.822-.367-3.336-.141-2.335-1.382-3.883-3.757-4.538 2.657-.54 4.468-2.087 4.47-4.383.005-1.45-.585-2.603-1.687-3.358-1.101-.758-2.69-1.135-4.706-1.135h-7.952v.802h2.593v16.936h-2.468L143.995.632H142.8l-5.407 16.42c-.17.596-.338.977-.57 1.198-.23.218-.546.325-1.115.327h-.379v.802h4.152v-.796l-.187-.006c-.615-.02-.592-.037-.855-.11-.264-.092-.294-.122-.311-.348 0-.103.025-.249.08-.431l1.31-4.135h5.173l1.53 5.024h-1.17v.802h11.245v-.802h-1.18v-8.442h.544c1.466-.002 2.333.168 2.843.578.512.405.755 1.1.9 2.282.248 2.056.186 3.766.756 4.955.654 1.35 1.95 1.61 3.043 1.61h.034c1.31.002 2.183-.545 2.66-1.133l.112-.14-.534-.506zM23 1.633h1.081v16.935H22.91v.803h5.498v-.803H27.25V1.632h1.158V.83H23v.804" fill="#292D5D"/><g transform="translate(0 .417)"><mask id="b" fill="#fff"><use xlink:href="#a"/></mask><path d="M40.235 1.206l.183.01c.897.059.912.16 1.084.339.227.213.31.699.308 1.565v9.592L33.917.413h-4.662v.803h1.192l.293.366v14.64c.003.828-.057 1.293-.26 1.524-.19.237-.421.432-1.045.432l-.18.013v.763h3.935v-.767l-.184-.01c-.648 0-.755-.075-1-.31-.251-.22-.34-.74-.337-1.592V2.93L41.97 19.083h.77V3.145c-.004-.822.09-1.267.323-1.5.226-.242.345-.394.92-.43l.18-.012v-.79h-3.928v.793M22.012.412v.001h-4.109v.79l.18.013c.599.039.763.067 1.034.155.267.104.322.157.34.427 0 .153-.044.374-.142.663l-3.947 11.871-2.675-8.21 1.086-3.225c.245-.739.43-1.124.731-1.335.302-.217.809-.31 1.75-.346l.188-.008V.413H6.614v.803h1.111l2.788 8.222-1.639 4.897-4.309-13.12h1.156V.414H0v.803h1.133L7.44 19.583l.622-.14 2.902-8.649 2.995 8.79.622-.14 5.52-16.548c.244-.724.423-1.113.72-1.326.233-.173.594-.312 1.37-.363V.412h-.18zm-10.937.804h1.008c.412-.001.701.052.852.14.147.091.205.184.21.43 0 .185-.052.446-.164.779l-.706 2.167-1.2-3.516z" fill="#292D5D" mask="url(#b)"/></g><path d="M87.421 2.897c-1.62-1.614-3.741-2.43-5.75-2.43-2.02 0-4.146.824-5.77 2.439-1.624 1.616-2.739 4.029-2.738 7.181 0 3.154 1.114 5.566 2.734 7.181 1.622 1.615 3.74 2.438 5.75 2.44 2.02-.002 4.146-.824 5.77-2.44 1.625-1.615 2.74-4.027 2.74-7.18 0-3.166-1.115-5.578-2.736-7.191m-2.087 14.15c-.897 1.308-2.138 1.776-3.688 1.78-1.537-.005-2.777-.467-3.676-1.77-.9-1.307-1.444-3.506-1.442-6.97 0-3.437.548-5.634 1.45-6.95.904-1.31 2.147-1.784 3.668-1.79 1.549.006 2.79.48 3.687 1.79.897 1.314 1.434 3.513 1.433 6.95 0 3.45-.536 5.65-1.432 6.96M51.307.83h-6.385v.803h1.148v16.935h-1.148v.803h6.34c2.688 0 4.84-.961 6.306-2.61 1.469-1.648 2.248-3.969 2.248-6.673 0-2.69-.774-5.006-2.232-6.653C56.126 1.79 53.984.828 51.307.83m4.202 15.684c-.921 1.372-2.38 2.051-4.71 2.055h-1.33V1.633h1.33c2.33.005 3.79.67 4.71 2.034.923 1.368 1.298 3.497 1.295 6.42.003 2.912-.372 5.046-1.295 6.425m12.216-8.499c-2.002-.49-3.575-.716-4.164-1.07-.689-.396-1.203-1.028-1.209-2.322.016-1.945 1.13-3.295 3.305-3.31 2.533.012 4.258 1.699 4.688 5.174l.02.171h.688V.923h-.709v.195c.001.347-.052.543-.106.624-.054.073-.082.085-.2.091l-.053-.001c-.007.008-.193-.073-.418-.212-.702-.41-2.03-1.24-3.811-1.242-1.477-.001-2.744.54-3.633 1.517-.888.977-1.393 2.376-1.393 4.075-.001 1.583.367 2.746 1.148 3.583.783.837 1.947 1.326 3.495 1.642 1.924.386 3.298.678 4.147 1.457.673.637.993 1.434.995 2.348-.009 2.238-1.55 3.817-3.92 3.828-2.796-.009-4.9-2.11-5.156-6.175l-.011-.183h-.723v6.9h.727l.007-.185c.04-.64.232-.74.422-.748.283-.01.896.303 1.695.634.805.33 1.832.663 3.062.663h.005c1.66 0 3.055-.612 4.026-1.692.972-1.082 1.513-2.615 1.513-4.443.019-3.071-1.422-4.84-4.437-5.586" fill="#292D5D"/><path d="M105.24 17.773l-.13.174c-.24.329-.66.604-.95.596-.58-.016-.82-.254-1.038-.963-.2-.704-.27-1.822-.367-3.335-.142-2.337-1.385-3.884-3.758-4.539 2.657-.54 4.468-2.086 4.47-4.383.004-1.45-.586-2.604-1.688-3.358C100.678 1.207 99.09.83 97.074.83H89.12v.803h2.594v16.935h-1.14v.802h5.489v-.802h-1.18v-8.442h.543c1.466-.002 2.333.168 2.843.579.512.405.754 1.1.9 2.28.249 2.057.186 3.767.756 4.956.654 1.35 1.95 1.611 3.043 1.611h.036c1.308.002 2.183-.546 2.658-1.133l.114-.14-.535-.506zm-9.832-8.45h-.445v-7.69h1.355c1.429 0 2.355.3 2.927.907.577.605.84 1.572.84 2.99-.002 1.337-.283 2.262-.977 2.868-.693.607-1.861.927-3.7.925z" fill="#292D5D"/></g></svg>