<svg width="154" height="20" xmlns="http://www.w3.org/2000/svg"><g fill="#5A83AE" fill-rule="evenodd"><path d="M11.93 17.818c-1.087.83-3.112 1.54-4.903 1.54-4.43 0-7.027-3.29-7.027-9.65C0 3.18 3.384 0 7.127 0c1.731 0 3.45.617 4.576 1.392l.194 5.106h-.503l-.583-1.437C9.764 2.49 8.637.738 6.945.738c-2.172 0-3.822 2.94-3.822 8.47 0 6.167 1.63 9.448 4.025 9.448 1.69 0 2.657-1.484 3.884-4.359l.584-1.383h.503l-.189 4.904M45.512 13.4c-.773.233-.897.828-.897 2.211v.212c0 1.298 0 1.49.696 1.852v.425c-.976.553-2.895.957-4.597.957-3.221 0-5.714-2.532-5.714-7.425 0-5.02 3.05-7.465 5.93-7.465 1.33 0 2.704.529 3.572 1.125l.098 3.831h-.388l-.45-1.065c-.82-1.935-1.64-3.126-2.972-3.126-1.702 0-2.94 2.127-2.94 6.317 0 4.745 1.254 7.04 3.095 7.04 1.331 0 1.657-.827 1.657-1.785v-.36c0-2.042-.17-2.47-1.038-2.725l-.511-.147v-.427c.31 0 1.998.043 2.555.043.557 0 1.997-.043 2.338-.043v.427l-.434.127m33.707-8.721c-1.053.339-1.41 1.063-2.135 2.807L74.9 12.718v1.638c0 3.255.11 3.531 1.162 3.83l.51.149v.425c-.293 0-2.384-.043-2.94-.043-.559 0-2.649.043-2.943.043v-.425l.512-.15c1.052-.298 1.16-.574 1.16-3.829v-1.36l-2.864-6.383c-.527-1.128-.945-1.66-1.688-1.914l-.308-.107v-.425c.293 0 2.074.042 2.63.042.542 0 2.927-.042 3.206-.042v.425l-.325.086c-.666.17-.837.51-.837.87 0 .32.093.597.342 1.214l2.012 4.936 1.72-4.51c.246-.66.355-1.064.355-1.553 0-.446-.28-.788-.79-.936l-.372-.107v-.425c.294 0 1.626.042 2.2.042.557 0 1.547-.042 1.842-.042v.425l-.264.086m16.191 13.966c-.726 0-3.282.055-3.664.055v-.545l.664-.19c1.228-.355 1.35-.765 1.35-4.908V9.628h-5.558v3.428c0 4.143.121 4.553 1.348 4.908l.665.19v.545c-.382 0-2.938-.055-3.662-.055-.726 0-2.819.055-3.22.055v-.545l.663-.19c1.007-.3 1.386-1.064 1.386-4.88v-7.47c0-3.816-.379-4.578-1.386-4.879l-.664-.19V0c.402 0 2.495.055 3.22.055.725 0 3.281-.055 3.663-.055v.545l-.665.19c-1.227.355-1.348.765-1.348 4.908v3.146h5.558V5.643c0-4.143-.122-4.553-1.35-4.908l-.664-.19V0c.382 0 2.938.055 3.664.055.724 0 2.804-.055 3.206-.055v.545l-.662.19c-1.007.301-1.383 1.063-1.383 4.88v7.47c0 3.815.376 4.579 1.383 4.879l.662.19v.545c-.402 0-2.482-.055-3.206-.055m13.305.094h-1.609c-.868 0-3.825-.021-4.382-.021-.54 0-2.415.042-2.725.042v-.424l.51-.15c.775-.234.9-.83.9-3.807V8.549c0-2.979-.125-3.574-.9-3.809l-.51-.149v-.424c.31 0 2.339.04 2.879.04.557 0 3.98-.02 4.259-.02h1.239l.479 3.595h-.34l-.542-.978c-.681-1.234-1.347-1.807-2.632-1.807h-.139c-.45 0-.867.062-1.255.147v5.617l.82-.042c1.781-.086 2.03-.574 2.137-1.873l.016-.191h.372c0 .467-.032 1.764-.032 2.53 0 .787.032 2.213.032 2.66h-.372l-.016-.19c-.107-1.298-.294-1.852-2.136-1.958l-.821-.043v3.702c0 2.211.233 2.616 1.58 2.616h.2c1.21 0 1.827-.468 2.71-2.042l.433-.766h.342l-.497 3.574M62.05 11.612c-.217 0-.388-.021-.496-.042V4.954c.217-.044.543-.086.898-.086 1.223 0 1.75 1.256 1.75 3.234 0 2.595-.976 3.51-2.153 3.51zm-12.686 1.149l1.625-6.212 1.61 6.212h-3.235zm19.42 5.551c-.635-.107-1.181-.394-1.966-1.93l-2.446-4.748c1.393-.681 2.415-2 2.415-3.787 0-2.489-1.672-3.659-4.087-3.659-.683 0-1.766.021-2.323.021-.557 0-2.461-.042-2.771-.042v.425l.51.15c.775.233.899.83.899 3.806v5.83c0 2.945-.123 3.559-.875 3.798-.34.106-.584.065-.705.029-.656-.273-.999-1-1.337-2.234l-2.54-9.207h.003l-.716-2.597h-2.486l.343 1.24-2.872 9.885c-.527 1.808-1.083 2.723-1.812 2.977l-.185.066v.424c.31 0 1.409-.042 1.967-.042s1.55.042 1.827.042v-.424l-.357-.085c-.728-.173-.882-.64-.882-1.172 0-.531.154-1.233.34-1.914l.416-1.63 3.652.006.594 2.263c.154.595.23 1.063.23 1.36 0 .595-.215.914-.958 1.087l-.388.085v.424c.279 0 2.338-.042 2.895-.042.412 0 1.546.024 2.266.035h.524c.736-.01 1.897-.035 2.325-.035.557 0 2.524.042 2.819.042v-.424l-.512-.15c-.944-.276-1.037-.595-1.037-3.829v-2.19c.093.02.2.042.31.042l2.35 4.68c.633 1.292 1.624 1.951 2.903 1.955.646-.002 1.23-.043 1.668-.126v-.405zm-1.655.532h-.059.059zM16.864 12.76l1.625-6.21 1.61 6.21h-3.235zm17.282 1.916l-.573 1.192c-.76 1.572-1.317 2.105-2.385 2.105h-.14c-1.347 0-1.579-.406-1.579-2.617V8.57c0-3.254.109-3.532 1.161-3.829l.511-.15v-.424c-.294 0-2.384.042-2.941.042-.557 0-2.37-.042-2.68-.042v.425l.512.15c.775.233.898.83.898 3.807v5.828c0 2.724-.104 3.454-.715 3.737-.647.243-1.111.144-1.281.09-.656-.273-.998-1-1.335-2.233L20.34 4.167h-2.49l.348 1.252-2.869 9.873c-.527 1.808-1.083 2.723-1.811 2.977l-.186.066v.424c.31 0 1.409-.042 1.967-.042s1.55.042 1.827.042v-.424l-.357-.085c-.728-.173-.882-.64-.882-1.172 0-.531.154-1.233.34-1.914l.416-1.63 3.652.006.594 2.263c.154.595.231 1.063.231 1.36 0 .595-.216.914-.96 1.087l-.387.085v.424c.279 0 2.338-.042 2.895-.042.518 0 2.79.041 2.79.041.582-.003 2.532-.041 3.066-.041.557 0 2.802.02 3.685.02h1.687l.62-4.061h-.371zm112.956 4.104c-1.47 0-2.043-.063-2.755-.063-.558 0-2.385.042-2.68.042v-.425l.511-.15c.775-.233.898-.829.898-3.807V8.549c0-2.98-.123-3.575-.898-3.809l-.511-.15v-.423c.295 0 1.517.042 2.075.042.605 0 2.169-.042 2.864-.042 3.886 0 6.44 2.721 6.44 7.338 0 4.68-2.507 7.275-5.944 7.275m-.759-13.848c-.262 0-.557.022-.727.042v10.487c0 1.937.372 2.596 1.626 2.596 1.796 0 2.956-2.086 2.956-6.381 0-4.404-1.192-6.744-3.855-6.744m-22.623 7.816l1.625-6.212 1.61 6.212h-3.235zm17.281 1.928l-.572 1.192c-.76 1.572-1.317 2.105-2.386 2.105h-.139c-1.348 0-1.58-.406-1.58-2.617V8.57c0-3.254.11-3.532 1.162-3.829l.51-.15v-.424c-.294 0-2.384.042-2.941.042-.557 0-2.37-.042-2.679-.042v.424l.511.15c.776.234.899.83.899 3.808v5.828c0 2.724-.105 3.454-.716 3.737-.646.243-1.11.144-1.281.09-.656-.273-.997-1-1.335-2.233l-3.257-11.804h-2.487l.346 1.246-2.87 9.88c-.356 1.22-.727 2.027-1.154 2.505a.452.452 0 0 1-.199.115v.822c1.294-.004 2.867.01 3.15.018v-.418l-.358-.085c-.727-.172-.882-.64-.882-1.172 0-.531.155-1.233.341-1.914l.416-1.63 3.651.006.595 2.263c.153.595.23 1.063.23 1.36 0 .596-.216.915-.959 1.087l-.387.085v.423c.279 0 2.338-.041 2.895-.041.518 0 2.79.041 2.79.041.581-.003 2.531-.041 3.066-.041.556 0 2.801.02 3.684.02h1.687l.62-4.061h-.37z"/><path d="M115.277 11.599c-.213 0-.382-.02-.49-.042v-6.61a4.73 4.73 0 0 1 .898-.087 1.355 1.355 0 0 1 1.174.615c.014.02.029.037.041.057.364.56.53 1.444.53 2.556 0 2.596-.976 3.51-2.153 3.51zm5.763 6.296c-.248-.225-.508-.562-.8-1.077-.07-.131-.143-.273-.223-.43l-1.995-3.855-.446-.865c1.393-.68 2.444-2.028 2.444-3.816 0-.78-.165-1.43-.465-1.956-.656-1.155-1.966-1.709-3.626-1.709-.682 0-1.766.02-2.323.02-.557 0-2.462-.04-2.773-.04v.424l.512.15c.772.234.898.83.898 3.808v5.828c0 2.978-.126 3.574-.898 3.808l-.512.15v.424c.311 0 2.123-.042 2.68-.042.08 0 .19 0 .32.002v.006c.769.008 2.25.04 2.503.04v-.424l-.005-.002v-.005l-.511-.15c-.294-.085-.506-.176-.657-.357-.332-.402-.376-1.249-.376-3.465V12.17c.092.021.2.042.307.042 0 0 2.36 4.718 2.398 4.762.49.954 1.183 1.556 2.048 1.78a47.1 47.1 0 0 1 1.5-.02v-.84z"/></g></svg>