<svg width="100" height="100" xmlns="http://www.w3.org/2000/svg"><g fill="none" fill-rule="evenodd"><path fill="#5A83AE" d="M0 99.974h99.942V.058H0z"/><path fill="#366091" d="M5.15 35.719l23.338-23.337 66.304 66.305V5.447H5.15v30.272"/><path d="M20.537 66.87c-1.153.882-3.301 1.634-5.201 1.634-4.7 0-7.456-3.49-7.456-10.238 0-6.925 3.59-10.299 7.562-10.299 1.836 0 3.658.654 4.854 1.477l.207 5.417h-.534l-.62-1.524c-1.11-2.73-2.306-4.587-4.1-4.587-2.305 0-4.056 3.12-4.056 8.987 0 6.543 1.73 10.024 4.27 10.024 1.794 0 2.82-1.575 4.122-4.625l.619-1.467h.534l-.201 5.202m35.018-4.423c-.82.247-.952.88-.952 2.347v.224c0 1.377 0 1.58.739 1.966v.45c-1.036.586-3.072 1.016-4.878 1.016-3.418 0-6.062-2.686-6.062-7.878 0-5.325 3.235-7.92 6.291-7.92 1.412 0 2.87.561 3.79 1.194l.104 4.065h-.412l-.476-1.13c-.87-2.054-1.741-3.318-3.154-3.318-1.806 0-3.12 2.257-3.12 6.703 0 5.034 1.33 7.47 3.284 7.47 1.412 0 1.758-.88 1.758-1.895v-.383c0-2.166-.18-2.619-1.1-2.89l-.543-.156v-.452c.329 0 2.119.045 2.71.045.592 0 2.12-.045 2.481-.045v.452l-.46.135m35.923-9.158c-1.117.36-1.494 1.128-2.265 2.979l-2.317 5.552v1.737c0 3.453.116 3.746 1.232 4.063l.542.158v.451c-.312 0-2.53-.046-3.121-.046-.591 0-2.81.046-3.122.046v-.45l.543-.159c1.117-.317 1.232-.61 1.232-4.063v-1.443l-3.038-6.772c-.56-1.197-1.003-1.76-1.792-2.031l-.327-.114v-.45c.31 0 2.2.045 2.79.045.576 0 3.106-.045 3.402-.045v.45l-.345.092c-.706.18-.888.542-.888.924 0 .34.099.633.363 1.287l2.135 5.237 1.824-4.786c.262-.699.377-1.128.377-1.647 0-.473-.297-.835-.837-.993l-.395-.114v-.45c.31 0 1.724.045 2.333.045.592 0 1.641-.045 1.954-.045v.45l-.28.092M21.123 91.719c-.77 0-3.481.058-3.887.058v-.579l.704-.201c1.303-.376 1.433-.81 1.433-5.207v-3.637h-5.896v3.637c0 4.396.128 4.831 1.43 5.207l.705.201v.579c-.405 0-3.117-.058-3.886-.058-.77 0-2.99.058-3.416.058v-.579l.704-.201c1.068-.318 1.47-1.128 1.47-5.177v-7.925c0-4.05-.402-4.857-1.47-5.176l-.704-.202v-.579c.426 0 2.647.059 3.416.059.77 0 3.48-.059 3.886-.059v.579l-.705.202c-1.302.376-1.43.81-1.43 5.206v3.339h5.896v-3.339c0-4.395-.13-4.83-1.433-5.206l-.704-.202v-.579c.406 0 3.117.059 3.887.059.769 0 2.975-.059 3.401-.059v.579l-.702.202c-1.068.319-1.466 1.127-1.466 5.176v7.925c0 4.05.398 4.859 1.466 5.177l.702.201v.579c-.426 0-2.632-.058-3.4-.058m13.803.029h-1.708c-.92 0-4.058-.022-4.65-.022-.573 0-2.562.044-2.89.044v-.45l.542-.158c.821-.25.954-.88.954-4.04v-6.183c0-3.161-.133-3.793-.954-4.042l-.542-.158v-.45c.328 0 2.481.044 3.054.044.591 0 4.222-.022 4.519-.022h1.315l.507 3.813h-.36l-.575-1.037c-.723-1.31-1.429-1.917-2.793-1.917H31.2c-.477 0-.92.066-1.332.156v5.959l.871-.045c1.89-.09 2.153-.609 2.267-1.987l.016-.203h.395c0 .496-.034 1.872-.034 2.686 0 .834.034 2.347.034 2.82h-.395l-.016-.202c-.114-1.376-.312-1.964-2.267-2.077l-.87-.044v3.927c0 2.346.247 2.776 1.675 2.776h.212c1.284 0 1.94-.497 2.877-2.167l.459-.812h.362l-.526 3.791m38.518-31.101c-.23 0-.411-.023-.525-.045v-7.02a5.05 5.05 0 0 1 .952-.09c1.297 0 1.856 1.332 1.856 3.43 0 2.754-1.035 3.725-2.283 3.725zm-13.458 1.218l1.724-6.59 1.708 6.59h-3.432zm20.603 5.89c-.674-.114-1.253-.418-2.086-2.048L75.91 60.67c1.478-.723 2.562-2.122 2.562-4.018 0-2.64-1.774-3.882-4.336-3.882-.724 0-1.873.023-2.464.023-.59 0-2.612-.045-2.94-.045v.45l.541.16c.822.247.953.88.953 4.038v6.185c0 3.125-.13 3.776-.927 4.03-.362.112-.62.069-.749.03-.696-.289-1.059-1.061-1.418-2.37l-2.695-9.768h.003l-.76-2.755h-2.638l.365 1.315-3.047 10.488c-.559 1.918-1.15 2.889-1.922 3.159l-.197.069v.45c.328 0 1.495-.045 2.087-.045.592 0 1.643.045 1.938.045v-.45l-.378-.09c-.773-.183-.937-.68-.937-1.244 0-.563.164-1.307.362-2.03l.441-1.73 3.874.007.63 2.4c.164.633.245 1.129.245 1.444 0 .632-.229.97-1.017 1.153l-.411.09v.45c.295 0 2.48-.045 3.071-.045.438 0 1.64.026 2.404.038h.556c.781-.011 2.013-.038 2.467-.038.59 0 2.678.045 2.99.045v-.45l-.542-.16c-1.003-.292-1.1-.63-1.1-4.061v-2.324c.097.023.212.045.327.045l2.494 4.965c.672 1.371 1.723 2.07 3.08 2.075.685-.002 1.306-.046 1.77-.135v-.43zm-1.756.565l-.013-.001h-.05.063zm-53.657-6.455l1.723-6.59 1.708 6.59h-3.431zm18.334 2.032l-.608 1.264c-.806 1.669-1.396 2.235-2.53 2.235h-.148c-1.43 0-1.675-.432-1.675-2.777v-7.2c0-3.452.114-3.747 1.231-4.062l.542-.159v-.45c-.312 0-2.53.045-3.12.045-.592 0-2.514-.045-2.843-.045v.45l.542.16c.823.247.954.88.954 4.039v6.184c0 2.889-.111 3.664-.76 3.964-.685.258-1.178.153-1.359.095-.695-.289-1.057-1.061-1.416-2.369l-3.455-12.523h-2.642l.368 1.328L23.55 64.55c-.559 1.918-1.15 2.889-1.922 3.159l-.197.069v.45c.328 0 1.494-.045 2.087-.045.591 0 1.643.045 1.938.045v-.45l-.379-.09c-.772-.183-.936-.68-.936-1.244 0-.563.164-1.307.362-2.03l.44-1.73 3.875.007.63 2.4c.164.633.245 1.129.245 1.444 0 .632-.23.97-1.017 1.153l-.412.09v.45c.296 0 2.48-.045 3.072-.045.55 0 2.96.045 2.96.045.617-.004 2.686-.045 3.253-.045.59 0 2.972.023 3.91.023h1.79l.657-4.31h-.394zm31.782 27.912c-1.56 0-2.167-.067-2.923-.067-.592 0-2.53.046-2.843.046v-.452l.543-.158c.822-.248.952-.88.952-4.04v-6.183c0-3.161-.13-3.793-.952-4.04l-.543-.16v-.45c.313 0 1.61.045 2.201.045.642 0 2.301-.045 3.04-.045 4.122 0 6.833 2.888 6.833 7.786 0 4.965-2.66 7.718-6.308 7.718m-.805-14.692c-.279 0-.591.024-.771.045v11.126c0 2.054.394 2.754 1.725 2.754 1.905 0 3.136-2.213 3.136-6.77 0-4.672-1.264-7.155-4.09-7.155m-24.147 8.269l1.724-6.59 1.708 6.59h-3.432zm18.334 2.046l-.607 1.264c-.807 1.668-1.397 2.234-2.53 2.234h-.148c-1.43 0-1.676-.43-1.676-2.776v-7.2c0-3.452.115-3.747 1.232-4.062l.541-.159v-.45c-.312 0-2.529.044-3.12.044-.591 0-2.514-.045-2.842-.045v.451l.542.159c.823.247.953.88.953 4.04v6.183c0 2.89-.111 3.664-.759 3.965-.686.258-1.179.153-1.36.095-.695-.29-1.057-1.061-1.416-2.369l-3.455-12.524h-2.638l.366 1.323-3.045 10.48c-.378 1.297-.772 2.152-1.225 2.66a.481.481 0 0 1-.21.121v.872c1.373-.004 3.042.01 3.341.02v-.444l-.378-.09c-.772-.183-.936-.68-.936-1.243 0-.564.164-1.308.361-2.03l.441-1.731 3.874.007.63 2.4c.164.633.246 1.129.246 1.444 0 .632-.23.97-1.018 1.153l-.411.09v.45c.295 0 2.48-.045 3.071-.045.55 0 2.96.045 2.96.045.618-.004 2.686-.045 3.254-.045.59 0 2.971.023 3.908.023h1.79l.658-4.31h-.394z" fill="#FFFFFE"/><path d="M41.641 84.167c-.225 0-.405-.02-.52-.043v-7.015c.23-.046.576-.091.954-.091.486 0 .868.187 1.156.532.032.038.06.08.09.12.014.021.03.04.043.06.386.595.563 1.532.563 2.712 0 2.754-1.036 3.725-2.286 3.725zm6.114 6.68c-.263-.238-.538-.596-.849-1.142l-.236-.456-2.116-4.09-.473-.918c1.477-.723 2.593-2.153 2.593-4.049 0-.827-.175-1.517-.493-2.075-.696-1.226-2.086-1.813-3.848-1.813-.723 0-1.873.022-2.464.022-.59 0-2.612-.044-2.942-.044v.45l.543.159c.82.249.952.881.952 4.041v6.183c0 3.16-.132 3.792-.952 4.04l-.543.158v.451c.33 0 2.252-.045 2.842-.045.085 0 .204 0 .341.002v.006c.816.01 2.387.043 2.655.043v-.45l-.005-.002v-.005l-.542-.158c-.312-.091-.536-.188-.698-.38-.352-.426-.398-1.324-.398-3.676v-2.325c.097.023.212.045.326.045 0 0 2.503 5.005 2.544 5.052.52 1.012 1.255 1.65 2.172 1.889.32-.014.918-.02 1.591-.022v-.89z" fill="#FFFFFE"/></g></svg>