<svg width="100" height="100" xmlns="http://www.w3.org/2000/svg"><g fill="none" fill-rule="evenodd"><path fill="#4196BD" d="M0 99.974h99.942V.058H0z"/><path fill="#1C6893" d="M95.012 5.026h-54.53l-35.4 35.4v54.53h54.45l35.48-35.48V5.026"/><path d="M39.85 89.11c-.696 1.372-1.506 1.775-3.611 1.792l-1.524.017 5.581-11.265.013-.027-.155-.243h-2.555c-3.401 0-3.497-.09-3.815-.392l-.015-.014h-.455l-.455 3.478h.374l.315-.666c.673-1.488 1.179-1.772 3.186-1.79l1.275-.016-5.561 11.264-.014.027.155.243h7.33l.68-3.08.014-.062h-.396l-.367.735m-12.673-2.838h-2.584l1.325-4.8 1.26 4.8zm2.91 3.218l-2.95-10.405-.011-.038h-.414l-.916.863-.01.01-2.707 9.198c-.403 1.282-.802 1.86-1.376 1.996l-.251.063v.358h.052c.123 0 .347-.007.608-.014.344-.01.736-.022 1.017-.022.272 0 .679.012 1.037.022.263.007.492.014.606.014h.052v-.36l-.363-.062c-.512-.07-.75-.364-.75-.92 0-.408.078-.933.245-1.646l.449-1.623h2.959l.608 2.293c.11.42.175.83.175 1.1 0 .448-.215.682-.717.779l-.449.078v.36h.052c.103 0 .442-.006.84-.012.551-.01 1.238-.023 1.527-.023.273 0 .827.012 1.316.022.36.007.673.014.786.014h.052v-.36l-.357-.078c-.504-.13-.806-.566-1.11-1.607zm48.128.003c-.744 1.133-1.308 1.479-2.412 1.479h-.124c-.918 0-1.167-.269-1.167-2.157v-3.302l.67.033c1.555.07 1.666.486 1.77 1.42l.04.435h.452v-.052c0-.17-.006-.472-.014-.823a67.55 67.55 0 0 1-.02-1.332c0-.373.011-.893.02-1.353.008-.343.014-.643.014-.803v-.051h-.45l-.042.329c-.137 1.16-.227 1.438-1.77 1.543l-.67.033v-4.918c.335-.051.676-.08.92-.08h.123c1.154 0 1.804.427 2.483 1.636l.298.448h.354l-.398-2.604-.007-.044h-1.158c-.093 0-.566.002-1.128.006-.826.005-1.846.011-2.14.011-.273 0-.959-.011-1.565-.02-.443-.008-.83-.015-.943-.015H71.3v.359l.34.08c.739.184.897.41.897 2.387v6.57c0 1.978-.158 2.204-.897 2.388l-.34.08v.359h.052c.113 0 .488-.007.917-.014.585-.01 1.248-.022 1.521-.022.22 0 .752.004 1.338.008.729.004 1.545.01 1.966.01h1.457l.423-2.63H78.6l-.385.606m-57.167-4.588l.473-.085v-.473h-.052c-.19 0-.59.01-1.053.021-.57.014-1.218.03-1.597.03-.408 0-1.27-.017-2.03-.031a91.752 91.752 0 0 0-1.175-.02h-.052v.473l.747.134c1.015.218 1.272.529 1.272 2.877v1.01c0 1.555-.626 2.219-2.093 2.219-2.485 0-3.91-3.164-3.91-8.68 0-4.939 1.416-7.77 3.885-7.77 1.64 0 2.598 1.32 3.613 3.453l.494.987h.518l-.435-4.07-.003-.025-.023-.014c-1.222-.728-2.482-1.066-3.963-1.066-3.475 0-7.168 3.113-7.168 8.884 0 5.573 2.631 9.036 6.866 9.036 1.798 0 3.897-.478 5.348-1.217l.028-.015v-.393l-.029-.013c-.766-.384-.854-.607-.854-2.175v-.302c0-1.89.173-2.556 1.193-2.775m48.595-5.92c-.493.323-.781.416-4.07.416-3.102 0-3.363-.093-3.785-.414l-.013-.01h-.437l-.304 3.35-.005.057h.39l.368-.825c.539-1.187 1.08-1.545 2.41-1.595l.334-.015v8.76c0 2.061-.135 2.153-.949 2.352l-.5.115v.359h.053c.104 0 .455-.007.863-.014.554-.01 1.244-.022 1.521-.022.294 0 1.002.013 1.572.023.391.007.72.013.814.013h.052v-.359l-.5-.115c-.826-.202-.932-.307-.932-2.352v-8.761l.495.016c1.565.035 1.916.468 2.123 1.672l.15.748h.37l.43-3.349.008-.058h-.445l-.013.008M48.404 89.494c-.743 1.133-1.307 1.479-2.412 1.479h-.123c-.919 0-1.167-.269-1.167-2.157v-3.302l.67.033c1.554.07 1.666.486 1.77 1.42l.04.435h.452v-.052c0-.17-.006-.472-.014-.823a67.55 67.55 0 0 1-.02-1.332c0-.373.01-.893.02-1.353.008-.343.014-.643.014-.803v-.051h-.45l-.042.329c-.137 1.16-.227 1.438-1.77 1.543l-.67.033v-4.918c.334-.051.675-.08.919-.08h.124c1.154 0 1.804.427 2.483 1.636l.297.448h.354l-.397-2.604-.007-.044h-1.158c-.093 0-.566.002-1.13.006-.825.005-1.843.011-2.138.011-.272 0-.958-.011-1.564-.02a99.58 99.58 0 0 0-.944-.015h-.052v.359l.34.08c.738.184.897.41.897 2.387v6.57c0 1.978-.159 2.204-.897 2.388l-.34.08v.359h.052c.114 0 .488-.007.917-.014.585-.01 1.248-.022 1.521-.022.22 0 .751.004 1.338.008.728.004 1.544.01 1.965.01h1.457l.423-2.63h-.371l-.387.606M59.19 78.986c-.493.323-.781.416-4.07.416-3.102 0-3.362-.093-3.784-.414l-.014-.01h-.436l-.31 3.407h.391l.367-.825c.539-1.187 1.08-1.545 2.41-1.595l.335-.015v8.76c0 2.061-.135 2.153-.95 2.352l-.499.115v.359h.052c.104 0 .455-.007.864-.014.554-.01 1.244-.022 1.522-.022.293 0 1.002.013 1.57.023.392.007.72.013.814.013h.052v-.359l-.5-.115c-.825-.202-.931-.307-.931-2.352v-8.761l.495.016c1.564.035 1.916.468 2.122 1.672l.15.748h.372l.429-3.349.007-.058h-.445l-.013.008m20.236-13.107h-2.584l1.326-4.8 1.258 4.8zm2.91 3.217l-2.951-10.404-.01-.038h-.414l-.916.862-.01.01-2.706 9.198c-.404 1.282-.803 1.861-1.377 1.996l-.25.063v.358h.051c.123 0 .347-.007.608-.015.345-.009.737-.02 1.018-.02.272 0 .677.011 1.035.021.264.007.494.014.607.014h.052v-.362l-.363-.06c-.512-.07-.75-.364-.75-.92 0-.41.078-.932.245-1.647l.45-1.622h2.958l.608 2.292c.11.422.175.833.175 1.1 0 .45-.214.683-.717.78l-.449.077v.362h.052c.103 0 .442-.006.839-.014.552-.009 1.239-.021 1.528-.021.273 0 .828.011 1.317.021.358.007.672.014.785.014h.052v-.36l-.356-.079c-.506-.13-.806-.565-1.112-1.606zM29.68 59.252c1.942 0 2.633 3.295 2.633 6.378 0 3.532-.685 5.176-2.155 5.176-1.955 0-2.651-3.294-2.651-6.377 0-3.532.69-5.177 2.173-5.177zm.247 12.083c1.348 0 2.495-.588 3.32-1.702.832-1.125 1.273-2.712 1.273-4.586 0-3.841-1.803-6.323-4.593-6.323-2.8 0-4.609 2.468-4.609 6.288 0 3.841 1.81 6.323 4.609 6.323zm22.543-.195h.052v-.358l-.499-.115c-.826-.202-.932-.307-.932-2.352v-8.76l.494.015c1.566.036 1.917.468 2.124 1.672l.15.748h.37l.43-3.349.008-.058h-.446l-.012.008c-.494.323-.782.416-4.071.416-3.101 0-3.362-.093-3.784-.413l-.014-.011h-.436l-.31 3.407h.391l.367-.825c.54-1.186 1.08-1.544 2.41-1.595l.335-.015v8.76c0 2.06-.135 2.153-.949 2.352l-.5.115v.359h.053c.103 0 .454-.006.863-.014.554-.009 1.245-.021 1.521-.021.294 0 1.002.012 1.572.022.39.007.72.013.813.013m39.31-2.966l-.405.68c-.737 1.303-1.293 1.722-2.286 1.722h-.053c-.89 0-1.167-.297-1.167-2.156v-6.677c0-1.99.131-2.165.948-2.352l.517-.115v-.359h-.052c-.11 0-.474.006-.897.013-.577.01-1.295.023-1.593.023-.273 0-.821-.012-1.306-.022-.355-.007-.665-.014-.778-.014h-.052v.358l.339.08c.739.19.897.416.897 2.388v6.571c0 1.972-.158 2.199-.896 2.387l-.34.08v.359h.052c.122 0 .533-.007.997-.015.607-.009 1.295-.02 1.564-.02.22 0 .661.003 1.153.007.617.005 1.311.01 1.744.01h1.474l.531-2.948h-.392M66.64 71.127c.585-.01 1.248-.021 1.52-.021.222 0 .752.003 1.34.007.728.005 1.543.01 1.964.01h1.457l.424-2.63h-.372l-.386.607c-.744 1.132-1.308 1.477-2.412 1.477h-.124c-.918 0-1.167-.268-1.167-2.156V65.12l.67.033c1.555.069 1.666.485 1.77 1.42l.04.435h.453v-.052c0-.17-.007-.473-.014-.823-.01-.452-.021-.963-.021-1.332 0-.373.01-.894.021-1.354.007-.342.014-.642.014-.801v-.052h-.452l-.04.328c-.137 1.16-.228 1.44-1.77 1.544l-.67.033v-4.917c.334-.051.675-.081.919-.081h.123c1.154 0 1.804.427 2.483 1.637l.298.447h.353l-.397-2.603-.007-.045H71.5l-1.13.006c-.825.005-1.844.012-2.139.012-.273 0-.959-.012-1.564-.022-.444-.007-.83-.014-.943-.014h-.053v.358l.34.08c.738.185.897.412.897 2.388v6.571c0 1.977-.159 2.203-.896 2.387l-.34.08v.359h.052c.112 0 .487-.007.915-.014M36.43 60.47l-.072 7.703c-.017 2-.24 2.344-1.055 2.565l-.18.045v.358h.051c.122 0 .34-.007.594-.015.335-.009.714-.02.995-.02.273 0 .692.011 1.06.021.27.007.506.014.619.014h.052v-.358l-.182-.046c-1.015-.22-1.196-.603-1.214-2.564l-.051-6.77 5.943 9.836.018.03.431-.065.072-9.319c.018-1.984.254-2.347 1.056-2.564l.18-.045v-.358h-.052c-.132 0-.345.007-.592.014-.313.01-.667.022-.945.022-.284 0-.72-.012-1.104-.022-.276-.007-.515-.014-.627-.014h-.052v.358l.185.045c.99.172 1.194.603 1.21 2.564l.052 5.476-4.954-8.435-.016-.028-.034.003a23.5 23.5 0 0 1-2.888.017l-.056-.003v.359l.212.064c.558.192.848.436 1.343 1.132M10.087 71.098c.414 0 1.061.017 1.581.031.373.01.695.02.842.02h.052v-.473l-.369-.085c-1.42-.313-1.602-.764-1.499-3.708l.22-8.908 4.322 13.238.012.036h.58l4.187-13.276.342 9.213c.1 2.931-.034 3.064-1.3 3.38l-.518.137v.445h.052c.161 0 .632-.009 1.177-.02.76-.013 1.622-.03 2.029-.03.407 0 1.218.016 1.935.03.514.011.958.02 1.118.02h.052v-.473l-.293-.059c-1.278-.27-1.498-.748-1.575-3.408l-.251-9.01c-.103-3.04.189-3.623 1.12-3.833l.721-.16v-.475l-.054.003a69.42 69.42 0 0 1-2.47.05 35.1 35.1 0 0 1-1.612-.05l-.041-.003-3.975 12.976-4.038-12.937-.013-.04-.042.004c-.502.05-1.527.05-2.14.05-.402 0-.888-.016-1.317-.03-.324-.011-.603-.02-.777-.02h-.053v.469l.718.213c.895.282 1.355.96 1.225 3.733l-.378 8.731c-.128 2.92-.51 3.452-1.757 3.764l-.11.037v.468h.052c.176 0 .49-.01.855-.02.472-.014 1.006-.03 1.39-.03m49.769-11.669c1.1 0 1.59.86 1.59 2.792 0 1.964-.606 2.88-1.908 2.88-.205 0-.31-.012-.433-.027l-.027-.003v-5.586c.135-.043.337-.056.778-.056zm-.778 8.886v-2.544l.13.007c.065.004.136.009.226.01l1.824 3.857c.567 1.186 1.15 1.567 2.396 1.567.418 0 .816-.032 1.123-.09l.045-.008-.024-.353-.04-.006c-.627-.102-.87-.376-1.534-1.72l-1.884-3.856c1.35-.596 2.154-1.764 2.154-3.135 0-1.917-1.326-3.108-3.461-3.108-.301 0-.688.005-1.06.01-.35.003-.688.008-.936.008-.273 0-.834-.012-1.328-.022-.362-.007-.679-.014-.792-.014h-.052v.358l.34.08c.738.19.896.416.896 2.388v6.571c0 1.96-.17 2.201-.896 2.387l-.34.08v.359h.052c.112 0 .43-.007.796-.014.511-.01 1.092-.021 1.377-.021.272 0 .901.011 1.456.021.407.007.762.014.875.014h.052v-.36l-.444-.096c-.787-.218-.951-.263-.951-2.37z" fill="#FFFFFE"/></g></svg>