<svg width="100" height="100" xmlns="http://www.w3.org/2000/svg"><g fill="none" fill-rule="evenodd"><path fill="#194F8E" d="M0 99.974h99.943V.058H0z"/><path fill="#292D5D" d="M40.394 5.208h54.399V89.79l-54.4-84.582M5.15 10.82l53.936 84.03H5.15V10.82"/><path fill="#FFFFFE" d="M25.83 57.482h.877v13.732h-.95v.651h4.458v-.651h-.939V57.482h.939v-.652h-4.384v.652m13.975-.009l.148.009c.727.047.74.13.879.275.184.172.252.566.249 1.268v7.778l-6.4-9.972h-3.78v.65h.967l.237.297V69.65c.003.67-.046 1.047-.21 1.235-.155.193-.342.35-.848.35l-.146.01v.62h3.19v-.622l-.149-.008c-.525 0-.611-.062-.81-.253-.204-.178-.276-.6-.273-1.29v-10.82l8.352 13.097h.624V59.045c-.003-.665.073-1.027.262-1.215.184-.197.28-.32.746-.348l.146-.011v-.64h-3.184v.642M25.03 56.83h-3.333v.64l.147.012c.485.031.618.054.838.126.216.083.26.127.276.346 0 .124-.037.303-.116.537l-3.2 9.626-2.17-6.656.882-2.616c.198-.6.348-.912.592-1.083.245-.176.656-.251 1.42-.28l.151-.006v-.645h-7.973v.65h.901l2.26 6.667-1.329 3.971-3.494-10.637h.938v-.651H7.18v.65h.92l5.115 14.894.503-.114 2.354-7.013 2.428 7.127.504-.114 4.477-13.417c.197-.587.342-.902.584-1.075.188-.14.48-.254 1.11-.295v-.644h-.145zm-8.87.652h.818c.334-.001.568.042.69.114.12.073.167.148.172.348 0 .15-.043.362-.134.632l-.572 1.756-.973-2.85zm61.906 1.025c-1.314-1.309-3.033-1.97-4.662-1.97-1.638 0-3.362.667-4.679 1.977-1.317 1.31-2.22 3.267-2.22 5.823 0 2.557.903 4.513 2.217 5.823 1.314 1.31 3.033 1.976 4.662 1.977 1.637 0 3.362-.667 4.679-1.977 1.318-1.31 2.221-3.266 2.221-5.823 0-2.567-.903-4.523-2.218-5.83M76.374 69.98c-.728 1.06-1.734 1.44-2.99 1.444-1.247-.004-2.253-.38-2.982-1.435-.73-1.06-1.17-2.843-1.169-5.652 0-2.788.445-4.569 1.176-5.635.733-1.063 1.74-1.447 2.975-1.45 1.255.003 2.261.387 2.989 1.45.727 1.065 1.163 2.847 1.162 5.635 0 2.798-.435 4.581-1.161 5.643M48.783 56.83h-5.177v.652h.93v13.731h-.93v.652h5.141c2.18 0 3.923-.78 5.113-2.117 1.19-1.336 1.822-3.218 1.822-5.41 0-2.182-.627-4.06-1.81-5.395-1.181-1.334-2.918-2.114-5.089-2.113m3.407 12.717c-.747 1.113-1.93 1.663-3.818 1.666h-1.08v-13.73h1.08c1.888.003 3.072.542 3.818 1.648.749 1.11 1.052 2.836 1.05 5.206.002 2.36-.301 4.092-1.05 5.21m9.906-6.892c-1.624-.397-2.9-.58-3.377-.867-.559-.321-.976-.834-.98-1.884.013-1.576.916-2.671 2.68-2.683 2.054.01 3.452 1.377 3.8 4.195l.017.139h.558v-4.649h-.575v.158c0 .281-.042.441-.086.506-.044.06-.066.07-.163.075-.013 0-.028 0-.043-.002-.005.007-.156-.06-.338-.172-.57-.333-1.647-1.005-3.09-1.007-1.198 0-2.225.439-2.946 1.23-.72.792-1.13 1.927-1.13 3.304 0 1.284.298 2.227.932 2.906.634.678 1.578 1.075 2.833 1.33 1.56.314 2.675.551 3.363 1.183.546.516.806 1.162.807 1.903-.007 1.815-1.257 3.096-3.18 3.104-2.266-.006-3.972-1.71-4.18-5.007l-.009-.148h-.586v5.595h.59l.005-.15c.033-.518.188-.6.342-.607.23-.009.727.245 1.375.515.653.266 1.485.537 2.483.537h.004c1.346 0 2.477-.496 3.265-1.372.787-.877 1.226-2.12 1.226-3.603.016-2.49-1.153-3.924-3.597-4.529"/><path d="M92.515 70.569l-.106.141c-.194.267-.535.49-.77.483-.47-.013-.665-.206-.842-.78-.162-.571-.22-1.478-.298-2.705-.115-1.894-1.122-3.15-3.047-3.68 2.154-.438 3.623-1.692 3.625-3.554.003-1.175-.476-2.11-1.37-2.723-.892-.615-2.18-.92-3.814-.92h-6.45v.65h2.103v13.733h-.923v.65h4.45v-.65h-.957v-6.846h.44c1.19-.001 1.892.137 2.306.47.415.328.612.892.73 1.85.201 1.667.15 3.053.613 4.017.53 1.095 1.58 1.307 2.467 1.307h.029c1.06 0 1.77-.443 2.156-.92l.092-.113-.434-.41zm-7.973-6.851h-.36v-6.236h1.098c1.159 0 1.91.243 2.374.735.467.491.68 1.275.68 2.425-.001 1.084-.229 1.834-.792 2.325-.56.493-1.509.752-3 .75zM14.758 81.47c-1.626-.399-2.904-.58-3.382-.868-.56-.321-.975-.835-.982-1.886.014-1.578.92-2.674 2.684-2.685 2.057.008 3.456 1.378 3.804 4.199l.016.234h.559v-4.809h-.576v.218c.002.282-.042.441-.085.506-.044.06-.067.07-.163.076-.014 0-.028 0-.043-.002-.005.008-.157-.06-.34-.172-.569-.333-1.648-1.007-3.093-1.007-1.197-.001-2.226.437-2.946 1.23-.722.792-1.133 1.929-1.133 3.308 0 1.284.299 2.23.934 2.908.635.678 1.58 1.075 2.833 1.332 1.564.314 2.68.55 3.367 1.183.548.518.808 1.164.81 1.905-.009 1.818-1.258 3.1-3.184 3.107-2.268-.006-3.976-1.71-4.184-5.011l-.009-.149H9.06v5.601h.59l.005-.152c.034-.517.189-.6.342-.606.23-.009.728.246 1.377.515.653.267 1.486.538 2.485.538h.003c1.347 0 2.48-.497 3.268-1.374.787-.876 1.228-2.123 1.228-3.605.015-2.493-1.154-3.928-3.6-4.534m10.916-5.164h.42c1.721.006 2.336.36 2.83.97.408.542.845 1.743.843 3.03v.157h.614v-4.808H18.357v4.808h.614v-.157c-.003-1.2.437-2.492.846-3.035.464-.58 1.189-.961 2.907-.965h.38v13.73h-.91v.652h4.426v-.651h-.946V76.306m18.832 6.235h-.361v-6.235h1.1c1.157 0 1.907.242 2.373.735.467.492.68 1.276.68 2.425-.001 1.083-.23 1.834-.791 2.325-.564.493-1.51.752-3.001.75zM31.69 85.187l1.932-6.025 1.771 6.025H31.69zm20.788 4.205l-.106.142c-.195.267-.535.49-.77.483-.472-.013-.665-.207-.843-.78-.16-.571-.219-1.478-.298-2.705-.114-1.894-1.121-3.15-3.046-3.68 2.154-.437 3.622-1.692 3.625-3.554.003-1.175-.475-2.11-1.369-2.723-.892-.614-2.18-.92-3.815-.92h-6.448v.65h2.102v13.733h-2.001l-4.448-14.551h-.969l-4.384 13.315c-.138.482-.274.791-.462.97-.187.177-.442.264-.903.266h-.308v.65h3.366v-.645l-.151-.005c-.499-.017-.48-.03-.693-.09-.214-.074-.239-.098-.253-.281 0-.084.02-.202.065-.35l1.062-3.353h4.195l1.241 4.074h-.949v.65h9.118v-.65h-.957v-6.846h.441c1.189-.001 1.892.137 2.305.47.415.328.612.891.73 1.85.202 1.667.15 3.053.613 4.018.53 1.094 1.581 1.305 2.467 1.305h.028c1.063.002 1.77-.442 2.157-.919l.091-.113-.433-.41z" fill="#FFFFFE"/></g></svg>