<svg width="173" height="20" xmlns="http://www.w3.org/2000/svg"><path d="M129.875 16.923c-.754 1.487-1.63 1.923-3.913 1.94l-1.65.02 6.047-12.209.014-.028-.168-.264h-2.768c-3.687 0-3.79-.098-4.135-.425l-.017-.015h-.492l-.494 3.77h.406l.341-.723c.73-1.612 1.278-1.92 3.454-1.939l1.38-.017-6.027 12.207-.014.028.168.264h7.945l.736-3.337.015-.068h-.43l-.398.796m-13.733-3.075h-2.8l1.436-5.201 1.364 5.201zm3.152 3.487l-3.196-11.276-.011-.04h-.449l-.993.934-.01.01-2.934 9.97c-.437 1.389-.869 2.016-1.491 2.162l-.273.069v.387h.056c.134 0 .377-.007.66-.015.373-.01.798-.023 1.102-.023.295 0 .735.012 1.124.023.285.008.534.015.656.015h.057v-.39l-.393-.068c-.555-.076-.813-.393-.813-.996 0-.442.085-1.01.265-1.784l.487-1.759h3.207l.659 2.485c.118.455.189.9.189 1.192 0 .486-.233.74-.777.844l-.486.085v.391h.056c.11 0 .479-.007.91-.014.597-.011 1.342-.024 1.655-.024.296 0 .897.012 1.426.023.39.008.73.015.852.015h.057v-.39l-.387-.085c-.547-.14-.874-.613-1.205-1.741zm52.159.004c-.806 1.228-1.417 1.601-2.614 1.601h-.134c-.995 0-1.265-.29-1.265-2.336v-3.578l.726.035c1.685.075 1.805.526 1.919 1.538l.042.472h.49v-.056c0-.184-.006-.512-.015-.891-.01-.49-.022-1.045-.022-1.445 0-.403.013-.968.023-1.466.008-.371.015-.696.015-.87v-.056h-.49l-.043.357c-.149 1.258-.247 1.559-1.92 1.672l-.725.036v-5.33a7.11 7.11 0 0 1 .997-.087h.133c1.251 0 1.955.464 2.691 1.774l.323.485h.383l-.43-2.821-.008-.049h-1.255l-1.223.007c-.895.006-2 .012-2.318.012-.296 0-1.04-.012-1.696-.022-.48-.008-.9-.016-1.023-.016h-.056v.389l.369.086c.8.2.972.445.972 2.587v7.122c0 2.142-.172 2.387-.972 2.587l-.369.087v.388h.056c.123 0 .529-.007.994-.015.634-.01 1.353-.023 1.649-.023.238 0 .814.004 1.45.007.79.006 1.673.012 2.13.012h1.578l.459-2.85h-.404l-.417.657M109.5 12.366l.512-.091v-.513h-.056c-.207 0-.64.01-1.14.023-.62.015-1.32.032-1.732.032-.442 0-1.376-.018-2.2-.034a98.867 98.867 0 0 0-1.273-.021h-.056v.513l.81.145c1.099.236 1.377.573 1.377 3.118v1.093c0 1.686-.678 2.405-2.268 2.405-2.693 0-4.237-3.428-4.237-9.406 0-5.352 1.534-8.422 4.21-8.422 1.778 0 2.816 1.432 3.915 3.743l.535 1.07h.563l-.472-4.41-.003-.028-.025-.014c-1.325-.79-2.69-1.157-4.294-1.157-3.767 0-7.77 3.375-7.77 9.628 0 6.04 2.852 9.793 7.442 9.793 1.948 0 4.223-.518 5.795-1.319l.031-.016v-.425l-.031-.015c-.83-.416-.926-.658-.926-2.357v-.328c0-2.048.187-2.77 1.293-3.007m52.663-6.415c-.534.35-.846.45-4.41.45-3.363 0-3.645-.1-4.102-.448l-.015-.011h-.473l-.33 3.63-.005.063h.423l.399-.895c.583-1.286 1.17-1.673 2.611-1.728l.363-.017v9.494c0 2.234-.147 2.333-1.03 2.548l-.54.126v.388h.056c.113 0 .494-.007.936-.014.6-.011 1.348-.024 1.648-.024.319 0 1.086.014 1.704.024.423.008.78.014.882.014h.056v-.388l-.541-.125c-.895-.219-1.01-.332-1.01-2.55V6.995l.535.018c1.696.038 2.077.508 2.3 1.811l.163.812h.402l.466-3.63.009-.063h-.483l-.014.01m-23.016 11.386c-.807 1.228-1.418 1.601-2.614 1.601h-.134c-.996 0-1.265-.29-1.265-2.336v-3.578l.726.035c1.685.075 1.806.526 1.918 1.538l.043.472h.49v-.056c0-.184-.006-.512-.015-.891-.01-.49-.022-1.045-.022-1.445 0-.403.012-.968.023-1.466.008-.371.015-.696.015-.87v-.056h-.489l-.045.357c-.148 1.258-.246 1.559-1.918 1.672l-.726.036v-5.33c.362-.055.732-.087.996-.087h.135c1.25 0 1.955.464 2.69 1.774l.323.485h.383l-.43-2.821-.008-.049h-1.255l-1.224.007c-.894.006-1.998.012-2.317.012-.295 0-1.04-.012-1.695-.022-.48-.008-.9-.016-1.024-.016h-.056v.389l.368.086c.8.2.973.445.973 2.587v7.122c0 2.142-.173 2.387-.972 2.587l-.369.087v.388h.056c.124 0 .53-.007.995-.015.633-.01 1.352-.023 1.648-.023.238 0 .814.004 1.45.007.79.006 1.673.012 2.13.012h1.579l.458-2.85h-.403l-.418.657m11.688-11.388c-.534.35-.846.45-4.41.45-3.362 0-3.644-.1-4.102-.448l-.015-.011h-.472l-.336 3.693h.424l.398-.895c.584-1.286 1.17-1.673 2.611-1.728l.363-.017v9.494c0 2.234-.146 2.333-1.029 2.548l-.54.126v.388h.056c.112 0 .492-.007.936-.014.6-.011 1.348-.024 1.648-.024.319 0 1.086.014 1.703.024.424.008.78.014.881.014h.057v-.388l-.541-.125c-.895-.219-1.01-.332-1.01-2.55V6.995l.536.018c1.696.038 2.077.508 2.3 1.811l.162.812h.404l.465-3.63.007-.063h-.482l-.014.01m-72.817 7.843h-2.8l1.436-5.203 1.364 5.203zm3.152 3.486L77.973 6.007l-.012-.041h-.448l-.992.934-.011.01-2.933 9.97c-.437 1.39-.87 2.016-1.492 2.163l-.272.068v.388h.057c.132 0 .376-.008.659-.016.373-.01.798-.023 1.102-.023.295 0 .735.013 1.122.024.287.007.535.015.658.015h.056v-.392l-.393-.066c-.554-.076-.813-.394-.813-.996 0-.444.085-1.011.266-1.785l.486-1.758h3.207l.66 2.484c.118.457.189.902.189 1.193 0 .487-.233.74-.777.843l-.487.085v.392h.056c.112 0 .48-.007.91-.015.598-.01 1.342-.024 1.656-.024.295 0 .897.013 1.426.024.39.007.729.015.851.015h.057v-.39l-.387-.086c-.547-.14-.873-.612-1.204-1.74zM24.107 6.614c2.104 0 2.853 3.571 2.853 6.913 0 3.827-.742 5.61-2.336 5.61-2.118 0-2.872-3.571-2.872-6.912 0-3.828.748-5.61 2.355-5.61zm.267 13.095c1.46 0 2.705-.637 3.598-1.844.902-1.22 1.38-2.939 1.38-4.97 0-4.163-1.954-6.852-4.978-6.852-3.034 0-4.994 2.674-4.994 6.813 0 4.164 1.96 6.853 4.994 6.853zm24.431-.21h.056v-.39l-.54-.123c-.896-.22-1.01-.334-1.01-2.55V6.943l.535.018c1.696.038 2.077.507 2.3 1.81l.163.811h.402l.466-3.628.009-.064h-.483l-.015.01c-.534.349-.846.45-4.41.45-3.361 0-3.644-.1-4.101-.448l-.016-.012h-.472l-.336 3.692h.424l.398-.894c.585-1.285 1.17-1.673 2.612-1.727l.362-.017v9.494c0 2.232-.146 2.332-1.029 2.548l-.54.125v.389h.056c.112 0 .493-.007.936-.015.6-.01 1.348-.024 1.648-.024.318 0 1.086.014 1.703.025.424.007.78.014.882.014m42.6-3.216l-.438.737c-.8 1.413-1.402 1.866-2.478 1.866h-.057c-.965 0-1.265-.321-1.265-2.335V9.315c0-2.156.142-2.346 1.028-2.548l.56-.125v-.389H88.7c-.12 0-.514.006-.973.014-.625.01-1.403.024-1.726.024-.295 0-.89-.012-1.415-.024-.385-.007-.72-.014-.844-.014h-.056v.388l.368.087c.8.205.972.45.972 2.587v7.122c0 2.136-.172 2.382-.971 2.586l-.369.087v.389h.056c.133 0 .579-.008 1.081-.016.658-.01 1.404-.023 1.695-.023.237 0 .717.004 1.25.008.668.006 1.42.012 1.89.012h1.597l.576-3.196h-.425m-27.246 3.2c.635-.011 1.353-.024 1.649-.024.24 0 .815.004 1.451.008.79.006 1.673.012 2.129.012h1.58l.458-2.851h-.403l-.418.658c-.807 1.226-1.417 1.6-2.614 1.6h-.134c-.995 0-1.265-.29-1.265-2.335v-3.58l.726.036c1.685.075 1.806.526 1.918 1.539l.043.472h.491v-.057c0-.184-.007-.512-.015-.891a71.215 71.215 0 0 1-.023-1.444c0-.404.012-.968.023-1.467.008-.37.015-.696.015-.869v-.056h-.49l-.044.356c-.148 1.257-.246 1.56-1.918 1.673l-.726.036V6.97c.363-.055.733-.087.996-.087h.134c1.251 0 1.955.463 2.691 1.774l.323.485h.383l-.431-2.822-.007-.048h-1.255l-1.223.007c-.895.005-2 .012-2.318.012-.296 0-1.04-.012-1.696-.024-.48-.007-.9-.014-1.022-.014h-.057v.388l.368.087c.8.2.972.445.972 2.587v7.122c0 2.142-.171 2.386-.971 2.586l-.37.087v.389h.058c.122 0 .527-.008.992-.015M31.42 7.935l-.076 8.348c-.019 2.167-.261 2.54-1.144 2.779l-.195.049v.388h.056c.132 0 .369-.008.643-.016.363-.01.775-.023 1.079-.023.296 0 .749.013 1.148.024.293.007.549.015.67.015h.057v-.388l-.197-.05c-1.1-.238-1.296-.653-1.315-2.778l-.056-7.338 6.44 10.66.02.032.468-.07.077-10.099c.02-2.15.276-2.543 1.145-2.779l.195-.049v-.387h-.056c-.143 0-.374.007-.641.015-.34.011-.724.023-1.025.023-.308 0-.78-.012-1.197-.024-.298-.007-.557-.014-.679-.014h-.056v.387l.2.05c1.073.185 1.294.653 1.312 2.778l.056 5.935L32.98 6.26l-.018-.03-.035.003a25.467 25.467 0 0 1-3.131.019l-.06-.004v.39l.23.068c.604.208.919.473 1.455 1.228M2.873 19.452c.449 0 1.15.02 1.714.034.404.011.753.02.912.02h.056v-.51l-.4-.093c-1.538-.34-1.735-.828-1.623-4.018L3.77 5.23l4.684 14.346.013.04h.629l4.537-14.388.37 9.984c.11 3.176-.037 3.32-1.408 3.663l-.562.148v.483h.057c.174 0 .684-.01 1.274-.022.824-.015 1.758-.033 2.2-.033.441 0 1.32.018 2.097.033.557.012 1.038.022 1.212.022h.056v-.513l-.318-.064c-1.384-.293-1.624-.81-1.706-3.694l-.273-9.763c-.112-3.295.205-3.927 1.214-4.155l.782-.173V.63l-.06.003c-.512.027-1.888.054-2.676.054-.392 0-1.379-.028-1.747-.054L14.1.63 9.793 14.693 5.417.673 5.403.628l-.046.005c-.544.054-1.655.054-2.32.054-.434 0-.961-.017-1.426-.032A29.783 29.783 0 0 0 .768.633H.712v.508l.777.231c.97.306 1.468 1.041 1.328 4.046l-.41 9.462c-.139 3.165-.552 3.74-1.903 4.08l-.12.04v.507H.44c.19 0 .532-.01.927-.023.512-.015 1.09-.032 1.506-.032M56.81 6.806c1.19 0 1.723.933 1.723 3.026 0 2.129-.657 3.121-2.069 3.121-.221 0-.336-.013-.469-.029l-.03-.003V6.867c.148-.046.366-.061.844-.061zm-.844 9.63V13.68c.047 0 .093.004.14.007.071.004.148.01.246.01l1.976 4.18c.615 1.286 1.246 1.698 2.597 1.698.453 0 .885-.034 1.217-.096l.049-.01-.026-.382-.044-.007c-.679-.11-.942-.407-1.662-1.864l-2.041-4.178c1.462-.646 2.334-1.911 2.334-3.398 0-2.077-1.438-3.368-3.752-3.368-.326 0-.744.005-1.149.01-.378.005-.745.01-1.014.01-.295 0-.903-.013-1.438-.025-.393-.007-.736-.014-.859-.014h-.056v.388l.368.087c.8.205.972.45.972 2.587v7.122c0 2.123-.184 2.385-.971 2.586l-.37.087v.389h.057c.121 0 .466-.008.862-.015.555-.011 1.184-.024 1.493-.024.295 0 .977.013 1.578.024.441.007.826.015.949.015h.056v-.39l-.482-.104c-.853-.236-1.03-.285-1.03-2.568z" fill="#1B6893" fill-rule="evenodd"/></svg>