<svg width="100" height="100" xmlns="http://www.w3.org/2000/svg"><g fill="none" fill-rule="evenodd"><path fill="#9ACDB4" d="M0 99.974h99.942V.058H0z"/><path fill="#73A28B" d="M94.778 92.542V5.222H64.602l-.017.003 30.193 87.413v-.096m-89.506.211L35.65 5.22H5.164v87.536l.108-.004"/><path d="M53.344 69.511l1.891-5.585 1.889 5.585h-3.78zm3.824-7.904h-1.933l-3.48 10.182c-.558 1.63-1.976 2.103-2.577 2.103v.602h4.896v-.602c-1.331 0-1.72-.43-1.72-1.159 0-.345.561-1.932.776-2.62h4.253l1.288 3.78h-1.932v.601h6.785v-.602h-1.933l-4.423-12.285zm23.95.6v-.6h-4.812v.6c1.33 0 1.718.732 1.718 1.333 0 .13 0 .258-.043.343l-2.191 6.96-2.92-8.636h1.846v-.6h-6.401v.6h1.719l.559 1.848-2.149 6.787-3.048-8.635h1.63v-.6h-6.4v.6h1.849l4.594 12.588h.86l3.136-9.837 3.435 9.837h.862l3.22-10.482c.515-1.374.989-2.106 2.536-2.106m-34.79 0c1.074 0 1.29.26 3.05 4.211h.516v-4.811H37.867v4.811h.514c1.762-3.951 1.977-4.21 3.052-4.21h1.157v11.684h-2.362v.602h7.304v-.602h-2.364V62.207h1.16M15.15 74.366c-2.147 0-4.683-1.16-4.683-7.347 0-6.186 2.536-7.345 4.683-7.345 2.148 0 4.681 1.159 4.681 7.345 0 6.187-2.533 7.347-4.681 7.347zm0-15.337c-3.952 0-7.732 2.663-7.732 7.99 0 5.328 3.78 7.99 7.732 7.99 3.953 0 7.731-2.662 7.731-7.99 0-5.327-3.778-7.99-7.731-7.99zm9.073 7.389h.516c1.76-3.951 1.976-4.21 3.05-4.21h1.16v11.684h-2.361v.602h7.3v-.602h-2.36V62.207h1.157c1.075 0 1.29.26 3.051 4.211h.516v-4.811H24.223v4.811m48.316 25.564h-3.223v-5.541h.602c.988 0 1.461-.129 2.578 3.006h.516V82.79h-.516c-1.117 3.135-1.59 3.007-2.578 3.007h-.602v-5.499h3.653c1.073 0 1.287.258 3.049 4.21h.516v-4.811H64.636v.601h1.975v11.684h-1.975v.6h12.24v-5.024h-.428c-2.32 4.166-2.32 4.424-3.91 4.424m10.353-22.471l1.89-5.585 1.89 5.585h-3.78zm3.823-7.904h-1.932L81.3 71.789c-.557 1.63-1.975 2.103-2.577 2.103v.602h4.898v-.602c-1.33 0-1.718-.43-1.718-1.159 0-.345.558-1.932.773-2.62h4.254l1.288 3.78h-1.934v.601h6.789v-.602h-1.936l-4.423-12.285zM52.649 84.166h.516c1.76-3.953 1.846-3.868 2.92-3.868h2.921L52.262 91.94v.643h10.87v-4.94H62.7c-2.32 4.17-2.19 4.34-4.038 4.34h-3.18L61.8 81.2c.428-.73.816-.902 1.332-.902v-.601H52.65v4.47m34.581-4.47v.601c.987 0 2.533.644 2.533 2.793v5.284l-7.131-8.678h-4.382v.601c1.119 0 1.676.43 2.535 1.589v7.304c0 2.147-1.546 2.791-2.535 2.791v.6h5.842v-.6c-.987 0-2.534-.644-2.534-2.791v-6.53l8.162 10.052h.815v-9.622c0-2.149 1.548-2.793 2.537-2.793v-.601H87.23m-43.257.601h2.018v11.684h-2.018v.6h6.83v-.6H48.74V80.298h2.062v-.601h-6.829v.601M15.148 92.455c-1.674 0-4.552-1.289-4.552-7.345 0-5.93 2.706-7.346 4.468-7.346 1.804 0 4.51.688 5.111 4.768h.644V77.12c-.944-.386-.558.86-1.76.86-.259 0-.56-.087-.945-.258-.99-.43-1.892-.602-3.007-.602-3.997 0-7.562 2.665-7.562 7.99 0 5.327 3.61 7.99 7.562 7.99 2.36 0 5.455-.602 5.84-5.884h-.686c-.386 4.895-3.567 5.24-5.113 5.24m7.346-12.158h2.064v11.684h-2.064v.6h6.875v-.6h-2.062V80.298h2.062v-.602h-6.875v.602m8.248 4.21h.516c1.762-3.952 1.976-4.21 3.05-4.21h1.161v11.684h-2.363v.6h7.303v-.6h-2.364V80.298h1.161c1.073 0 1.288.258 3.05 4.21h.515v-4.811l-12.029-.001v4.812" fill="#FFFFFE"/></g></svg>