<svg width="246" height="23" xmlns="http://www.w3.org/2000/svg"><path d="M64.813 14.869l2.668-7.88 2.665 7.88h-5.334zm5.395-11.154h-2.727L62.57 18.082c-.788 2.303-2.788 2.969-3.638 2.969v.849h6.91v-.85c-1.878 0-2.425-.605-2.425-1.636 0-.484.788-2.727 1.091-3.697h6.002l1.819 5.334H69.6v.849h9.579v-.85h-2.73l-6.24-17.334zm13.975 18.61h1.21l4.428-13.882 4.847 13.882h1.214l4.547-14.792c.727-1.94 1.394-2.97 3.576-2.97v-.848h-6.79v.848c1.879 0 2.424 1.03 2.424 1.88 0 .182 0 .363-.061.485l-3.09 9.819-4.123-12.184h2.607v-.848H85.94v.848h2.425l.788 2.606-3.032 9.578-4.302-12.184h2.303v-.848H75.09v.848h2.606l6.487 17.762zM48 4.563h1.637V21.05h-3.334v.85h10.306v-.85h-3.336V4.563h1.639c1.515 0 1.817.363 4.302 5.94h.729V3.714H42.97v6.789h.727c2.487-5.577 2.787-5.94 4.303-5.94M10.912.986c3.031 0 6.608 1.637 6.608 10.366 0 8.73-3.577 10.366-6.608 10.366-3.03 0-6.606-1.636-6.606-10.366S7.881.986 10.912.986m0 21.642c5.577 0 10.911-3.758 10.911-11.276 0-7.517-5.334-11.275-10.91-11.275C5.333.077 0 3.835 0 11.352c0 7.518 5.334 11.276 10.912 11.276M28.749 4.563h1.636V21.05h-3.333v.85h10.304v-.85h-3.335V4.563h1.637c1.516 0 1.82.363 4.305 5.94h.726V3.714H23.716v6.789h.729c2.485-5.577 2.787-5.94 4.304-5.94M216.9 21.08h-4.548v-7.82h.85c1.393 0 2.06-.182 3.636 4.244h.727V8.108h-.727c-1.577 4.425-2.243 4.243-3.636 4.243h-.85V4.592h5.153c1.516 0 1.82.363 4.303 5.941h.73V3.744h-16.794v.848h2.79V21.08h-2.79v.85h17.278v-7.094h-.607c-3.274 5.88-3.274 6.244-5.515 6.244m-110.392-6.211l2.668-7.88 2.667 7.88h-5.335zm11.64 6.182l-6.244-17.336h-2.728l-4.91 14.367c-.787 2.303-2.788 2.969-3.638 2.969v.849h6.91v-.85c-1.88 0-2.426-.605-2.426-1.636 0-.484.79-2.727 1.092-3.697h6.003l1.818 5.334h-2.727v.849h9.577v-.85h-2.727zm70.682-11.003h.728c2.485-5.578 2.607-5.457 4.123-5.457h4.121l-9.517 16.428v.91h15.338v-6.973h-.607c-3.274 5.882-3.09 6.124-5.699 6.124h-4.485l8.91-15.216c.607-1.03 1.151-1.273 1.881-1.273v-.848H188.83v6.305zm48.8-5.456c1.395 0 3.576.91 3.576 3.94v7.456L231.144 3.744h-6.183v.848c1.576 0 2.364.606 3.576 2.244V17.14c0 3.029-2.181 3.939-3.576 3.939v.849h8.245v-.85c-1.394 0-3.577-.91-3.577-3.938V7.926l11.518 14.186h1.152V8.532c0-3.03 2.18-3.94 3.576-3.94v-.848h-8.244v.848zm-61.042 0h2.847V21.08h-2.847v.849h9.638v-.85h-2.911V4.593h2.91v-.848h-9.637zm-40.764 17.155c-2.362 0-6.425-1.818-6.425-10.366 0-8.366 3.82-10.366 6.305-10.366 2.545 0 6.362.97 7.214 6.729h.91V.104c-1.336-.544-.789 1.215-2.488 1.215-.363 0-.787-.121-1.332-.365-1.394-.606-2.668-.85-4.245-.85-5.637 0-10.668 3.76-10.668 11.277 0 7.517 5.092 11.275 10.668 11.275 3.334 0 7.7-.85 8.245-8.305h-.969c-.547 6.912-5.033 7.396-7.215 7.396m10.41-17.155h2.911V21.08h-2.91v.849h9.698v-.85h-2.908V4.593h2.908v-.85h-9.699zm11.683 5.939h.727c2.485-5.577 2.789-5.939 4.304-5.939h1.637V21.08h-3.334v.85h10.306v-.85h-3.334V4.592h1.634c1.517 0 1.819.362 4.305 5.941h.729v-6.79h-16.974v6.788z" fill="#78A996" fill-rule="evenodd"/></svg>