<svg xmlns="http://www.w3.org/2000/svg" width="409.667" height="39.029"><path fill="#ECB135" d="M201.709 29.543c0 5.409-2.258 6.323-9.045 6.323h-3.372l-.005-11.488 1.454-.02c3.841 0 5.169.187 5.169 3.851v.716h1.379V17.49h-1.379v.601c0 3.7-1.575 4.086-5.164 4.086l-1.455-.022V11.117l3.642-.018c5.452 0 7.197.235 7.64 5.161l.033.36h1.415l-.567-7.708h-19.81v1.438h2.469v26.286h-2.469v1.437h21.443v-9.089h-1.379v.559zm70.028 0c0 5.409-2.258 6.323-9.044 6.323h-3.373l-.006-11.488 1.454-.02c3.842 0 5.17.187 5.17 3.851v.716h1.378V17.49h-1.378v.601c0 3.7-1.576 4.086-5.165 4.086l-1.453-.022V11.117l3.641-.018c5.453 0 7.199.235 7.641 5.161l.032.36h1.414l-.566-7.708h-19.809v1.438h2.469v26.286h-2.469v1.437h21.442v-9.089h-1.378v.559zm-92.598-3.31c-.259 7.821-2.911 10.205-11.35 10.205h-3.675V1.643h3.658V0h-13.46v1.643h3.244v34.796h-3.244v1.643h26.389v-12.23h-1.548l-.014.381z"/><path fill="#ECB135" d="M238.239 8.919h-11.092v1.438h2.664v26.285h-3.267l-8.738-28.048h-2.027l-8.637 25.743c-.518 1.757-.944 2.305-2.599 2.305h-.944v1.442h7.805v-1.047l-.056-.384-.382-.012c-1.012-.033-1.886-.061-2.024-.253-.076-.106-.028-.448.138-1.002l2.1-6.137 7.693.022 2.3 7.371h-3.034v1.442h10.862v-.003h9.165c8.333 0 13.717-5.731 13.717-14.6-.004-8.846-5.358-14.562-13.644-14.562zm-3.249 1.437h2.033c6.912 0 9.482 3.557 9.482 13.125 0 9.471-2.658 13.161-9.482 13.161h-2.033V10.356zm-16.77 16.728l-6.305-.019 3.215-10.234 3.09 10.253zm80.14 8.622c-.405.527-1 .896-1.448.896-1.635 0-1.827-1.651-2.142-6.427l-.014-.204c-.246-3.667-2.118-5.997-5.703-7.074 4.271-.954 6.841-3.475 6.841-6.865 0-4.587-3.647-7.113-10.27-7.113h-11.33v1.438H277v26.285h-2.706v1.439h10.941v-1.439h-3.018V23.977l.783-.016c4.562 0 5.441.607 5.877 4.058.115.947.188 1.845.258 2.685.168 2.039.314 3.799.957 5.094 1.139 2.298 3.387 2.564 4.979 2.564 2.445 0 3.744-1.129 4.3-1.801l.238-.288-.984-.91-.265.343zm-15.507-13.954l-.634-.016v-11.38h2.072c4.312 0 5.915 1.626 5.915 6.001 0 4.084-1.789 5.395-7.353 5.395zm41.827-.029c9.398 0 15.237-4.257 15.237-11.11C339.917 3.769 334.765 0 325.409 0h-14.507v1.643h3.603v34.796h-3.603v1.643h14.851v-1.643h-4.636V21.334c.716.162 1.998.389 3.563.389zm.164-2.09c-1.287 0-2.366-.201-3.726-.552V2.229l1.003-.021a83.242 83.242 0 0 1 1.383-.025c6.658 0 9.133 2.4 9.133 8.857 0 5.942-2.403 8.593-7.793 8.593zm27.753-11.279c-6.61 0-13.635 5.302-13.635 15.127 0 9.824 7.007 15.125 13.6 15.125 6.613 0 13.641-5.301 13.641-15.125 0-9.826-7.011-15.127-13.606-15.127zm-.035 1.558c3.757 0 8.07 1.542 8.07 13.569 0 12.023-4.313 13.565-8.07 13.565-3.757 0-8.069-1.542-8.069-13.565 0-6.317.917-13.569 8.069-13.569zm26.096 10.271c-1.072-.259-2.064-.468-2.949-.655-1.677-.354-3.002-.633-3.657-1.006-1.26-.697-1.873-1.856-1.873-3.544 0-3.125 1.981-5.066 5.169-5.066 4.126 0 6.743 2.837 7.369 7.989l.042.348h1.254V9.122h-1.299v.395c0 1.025-.241 1.026-.476 1.021-.109-.017-.464-.222-.778-.403-1.129-.652-3.23-1.865-5.955-1.865-4.831 0-8.077 3.543-8.077 8.816 0 4.793 2.159 7.18 7.454 8.24 3.006.595 5.178 1.025 6.549 2.247 1.033.958 1.557 2.168 1.557 3.596 0 3.46-2.529 5.876-6.15 5.876-4.644 0-7.751-3.656-8.11-9.542l-.022-.371h-1.314V38.08h1.323l.014-.38c.016-.402.112-1.077.587-1.077.357 0 .97.263 1.678.568 1.424.613 3.375 1.452 5.885 1.452 5.322 0 8.897-3.88 8.897-9.655.001-4.863-2.194-7.578-7.118-8.805zm6.785-11.264v9.451h1.377v-.395c0-2.271.836-4.728 1.637-5.782.845-1.049 2.221-1.148 5.642-1.148l.673.015v25.582h-3.175v1.439h11.486v-1.439h-3.095V11.021h.742c3.431 0 4.614.091 5.486 1.165.792 1.041 1.643 3.296 1.643 5.79v.395h1.378V8.919h-23.794z"/><path fill="#ECB135" d="M311.458 23.812l-1.079-.835-.23.375c-.648 1.055-1.567 1.589-2.73 1.589-.623 0-1.409-.319-2.242-.656-.99-.401-2.111-.855-3.208-.855-1.055 0-3.001.433-4.185 3.33l-.107.263.961.83.248-.375c.897-1.356 2.035-1.539 3.029-1.539.599 0 1.449.333 2.349.685 1.039.407 2.114.828 3.039.828 1.306 0 3.062-1.039 4.038-3.359l.117-.281zM68.299 38.623c3.291 0 7.743-1.111 10.271-3.594l.118-.116v-6.126h2.25l-.106-2.256H70.1v2.286l3.487-.027v3.006c0 3.496-1.766 5.269-5.25 5.269-6.313 0-7.639-7.708-7.639-14.175 0-8.117 2.724-12.962 7.287-12.962 1.77 0 3.793.71 5.039 1.771 1.834 1.523 3.023 3.904 3.347 6.704l.041.35h1.333V9.3h-1.337v.395c0 1.224-.565 1.224-.778 1.224-.301 0-.751-.274-1.32-.623-1.256-.767-3.155-1.927-6.324-1.927-6.37 0-12.818 5.209-12.818 15.166 0 8.742 5.522 15.088 13.131 15.088zm24.503-1.962H90.02V10.373h2.782V8.937H82.137v1.436h2.356v26.288h-2.356v1.435h10.665zm9.931.059l-.375-.019c-2.923-.148-2.923-.355-2.923-2.887l-.113-20.131L115.33 38.3h1.588l.063-25.003c0-2.423.097-2.74 2.629-2.924l.366-.027V8.937h-8.353v1.416l.374.021c2.772.149 2.772.356 2.772 2.887l.022 13.038-11.416-17.362h-9.034v1.437h2.343l.467.566-.072 22.797v.121c.001 2.469.001 2.671-2.372 2.844l-.366.027v1.368h8.392V36.72zm15.028-.059v1.435h7.807v-1.04l-.059-.384-.382-.013c-1.012-.034-1.885-.063-2.023-.256-.077-.107-.029-.449.137-1.003l2.101-6.138 7.693.021 2.298 7.377h-3.032v1.435h10.861V36.66h-2.456l-8.738-28.05h-2.027l-8.635 25.742c-.52 1.761-.946 2.309-2.601 2.309h-.944zm8.319-9.582l3.213-10.236 3.091 10.258-6.304-.022zM13.865 36.537H9.977V19.549h1.12c6.045 0 7.123 1.296 7.685 5.753.147 1.216.241 2.354.332 3.455.217 2.615.403 4.874 1.221 6.523 1.417 2.873 4.37 2.873 6.323 2.873l4.656.01c.613 0 1.19-.002 1.743-.008h20.994v-9.086h-1.379v.557c0 5.409-2.258 6.323-9.044 6.323h-3.372l-.004-11.487 1.453-.02c3.841 0 5.169.187 5.169 3.848v.718h1.379V17.574h-1.379v.598c0 3.698-1.575 4.084-5.165 4.084l-1.454-.019V11.199l3.642-.016c5.452 0 7.198.235 7.64 5.16l.032.36h1.416l-.566-7.708h-19.81v1.436h2.469V36.72h-1.357v-.01h-4.75c-2.172 0-2.414-2.375-2.796-8.23l-.042-.646c-.327-4.817-2.856-7.821-7.713-9.134 5.717-1.141 9.175-4.404 9.175-8.828 0-5.834-4.658-9.047-13.116-9.047H0v1.622h3.483v34.09H0v1.623h13.865v-1.623zm-1.101-34.09c5.636 0 7.732 2.125 7.732 7.841 0 4.715-1.606 7.637-9.6 7.637h-.919V2.447h2.787z"/></svg>