<svg width="250" height="20" xmlns="http://www.w3.org/2000/svg"><g fill="none" fill-rule="evenodd"><path d="M.535 12.884c.265 4.213 2.623 6.49 5.75 6.49 2.65 0 4.423-1.721 4.423-4.106 0-.98-.37-1.853-1.139-2.543-.979-.85-2.489-1.142-4.556-1.536C1.728 10.552.192 9.227.192 6.049.192 2.658 2.309.538 5.385.538c2.462 0 4.105 1.457 4.529 1.483.372.027.61-.132.61-.926h.345v5.457h-.345c-.45-3.604-2.411-5.457-5.244-5.457-2.439 0-3.765 1.51-3.765 3.576 0 1.378.61 2.119 1.405 2.542.715.399 2.385.61 4.53 1.114 3.179.767 4.61 2.437 4.61 5.511 0 3.656-2.278 6.066-5.748 6.066-2.57 0-4.294-1.324-5.114-1.324-.345 0-.637.266-.663.954h-.37v-6.65h.37m18.763 1.67L17.303 8.1l-2.179 6.454h4.174zm-7.623 4.658h.284c.966 0 1.25-.363 1.53-1.292l4.397-12.68h.746l4.497 13.972h1.21v.322h-5.181v-.322h1.633l-1.352-4.216h-4.475l-1.11 3.328c-.262.847.202.847 1.432.888v.322h-3.61v-.322zm13.395-4.74c.202 3.207 1.995 4.94 4.375 4.94 2.017 0 3.367-1.309 3.367-3.125 0-.746-.282-1.412-.868-1.936-.746-.645-1.895-.866-3.466-1.168-2.5-.484-3.67-1.493-3.67-3.912 0-2.58 1.613-4.194 3.952-4.194 1.875 0 3.124 1.108 3.448 1.129.282.019.463-.101.463-.708h.262v4.155h-.262c-.343-2.74-1.835-4.155-3.993-4.155-1.854 0-2.863 1.151-2.863 2.723 0 1.05.464 1.613 1.07 1.937.544.302 1.815.464 3.446.847 2.862.691 3.51 1.75 3.51 4.193 0 2.784-1.735 4.619-4.375 4.619-1.956 0-3.268-1.01-3.891-1.01-.264 0-.486.203-.505.726h-.284v-5.061h.284m14.821 4.74v.322h-5.08v-.322h1.37V5.722h-1.37v-.323h5.08v.323h-1.527v6.543s2.716-2.935 4.41-4.85c.323-.362.868-1.009.868-1.25 0-.443-.505-.443-1.775-.443v-.323h5.061v.323c-1.955 0-2.137.1-3.648 1.773a452.337 452.337 0 0 0-2.756 3.097l5.375 8.62h1.857v.322h-5.747v-.322h1.511l-4.396-7.26-.838.904v6.356h1.605" fill="#6A1A33"/><path d="M53.366 14.554L51.37 8.1l-2.177 6.454h4.172zm-7.622 4.658h.283c.968 0 1.25-.363 1.533-1.292l4.395-12.68h.746l4.495 13.972h1.211v.322h-5.182v-.322h1.632l-1.35-4.216h-4.475l-1.108 3.328c-.265.847.2.847 1.43.888v.322h-3.61v-.322zm22.517-9.499h-.303c0-1.27-.441-2.439-.886-3.004-.522-.625-1.227-.987-2.983-.987h-.586v13.49h1.592v.322h-5.504v-.322h1.633V5.722h-.543c-1.755 0-2.56.383-3.066.987-.445.565-.887 1.816-.887 3.004h-.302V5.399h11.835v4.314m8.06-4.215c-2.563 0-4.356 1.574-4.356 6.959 0 5.423 1.774 6.955 4.356 6.955 2.6 0 4.354-1.552 4.354-6.955 0-5.385-1.754-6.959-4.354-6.959m0 14.297c-3.207 0-6.796-2.5-6.796-7.338 0-4.84 3.588-7.34 6.814-7.34 3.207 0 6.797 2.48 6.797 7.34 0 4.838-3.59 7.338-6.815 7.338M91.635 5.498c-2.56 0-4.355 1.574-4.355 6.959 0 5.423 1.775 6.955 4.355 6.955 2.602 0 4.356-1.552 4.356-6.955 0-5.385-1.754-6.959-4.356-6.959m0 14.297c-3.206 0-6.796-2.5-6.796-7.338 0-4.841 3.59-7.34 6.816-7.34 3.206 0 6.874 2.48 6.874 7.34 0 4.838-3.668 7.338-6.894 7.338m11.067-.563v.302h-3.91v-.302c1.43-.101 1.572-.383 1.572-1.675V6.104l-.323-.382h-1.25v-.324h3.933l6.714 9.94V7.353c0-1.35-.201-1.55-1.755-1.631v-.324h3.892v.324c-1.432.1-1.694.362-1.694 1.652v12.259h-.382L100.808 6.69v10.907c0 1.331.24 1.553 1.894 1.635" fill="#6A1A33"/><g stroke="#6A1A33"><path d="M.535 12.884c.265 4.213 2.623 6.49 5.75 6.49 2.65 0 4.423-1.721 4.423-4.106 0-.98-.37-1.853-1.139-2.543-.979-.85-2.489-1.142-4.556-1.536C1.728 10.552.192 9.227.192 6.049.192 2.658 2.309.538 5.385.538c2.462 0 4.105 1.457 4.529 1.483.372.027.61-.132.61-.926h.345v5.457h-.345c-.45-3.604-2.411-5.457-5.244-5.457-2.439 0-3.765 1.51-3.765 3.576 0 1.378.61 2.119 1.405 2.542.715.399 2.385.61 4.53 1.114 3.179.767 4.61 2.437 4.61 5.511 0 3.656-2.278 6.066-5.748 6.066-2.57 0-4.294-1.324-5.114-1.324-.345 0-.637.266-.663.954h-.37v-6.65h.37z" stroke-width=".574"/><path d="M19.298 14.554L17.303 8.1l-2.179 6.454h4.174zm-7.623 4.658h.284c.966 0 1.25-.363 1.53-1.292l4.397-12.68h.746l4.497 13.972h1.21v.322h-5.181v-.322h1.633l-1.352-4.216h-4.475l-1.11 3.328c-.262.847.202.847 1.432.888v.322h-3.61v-.322zm13.395-4.74c.202 3.207 1.995 4.94 4.375 4.94 2.017 0 3.367-1.309 3.367-3.125 0-.746-.282-1.412-.868-1.936-.746-.645-1.895-.866-3.466-1.168-2.5-.484-3.67-1.493-3.67-3.912 0-2.58 1.613-4.194 3.952-4.194 1.875 0 3.124 1.108 3.448 1.129.282.019.463-.101.463-.708h.262v4.155h-.262c-.343-2.74-1.835-4.155-3.993-4.155-1.854 0-2.863 1.151-2.863 2.723 0 1.05.464 1.613 1.07 1.937.544.302 1.815.464 3.446.847 2.862.691 3.51 1.75 3.51 4.193 0 2.784-1.735 4.619-4.375 4.619-1.956 0-3.268-1.01-3.891-1.01-.264 0-.486.203-.505.726h-.284v-5.061h.284zm14.821 4.74v.322h-5.08v-.322h1.37V5.722h-1.37v-.323h5.08v.323h-1.527v6.543s2.716-2.935 4.41-4.85c.323-.362.868-1.009.868-1.25 0-.443-.505-.443-1.775-.443v-.323h5.061v.323c-1.955 0-2.137.1-3.648 1.773a452.337 452.337 0 0 0-2.756 3.097l5.375 8.62h1.857v.322h-5.747v-.322h1.511l-4.396-7.26-.838.904v6.356h1.605zm13.475-4.658L51.37 8.1l-2.177 6.454h4.172zm-7.622 4.658h.283c.968 0 1.25-.363 1.533-1.292l4.395-12.68h.746l4.495 13.972h1.211v.322h-5.182v-.322h1.632l-1.35-4.216h-4.475l-1.108 3.328c-.265.847.2.847 1.43.888v.322h-3.61v-.322zm22.517-9.5h-.303c0-1.269-.441-2.438-.886-3.003-.522-.625-1.227-.987-2.983-.987h-.586v13.49h1.592v.322h-5.504v-.322h1.633V5.722h-.543c-1.755 0-2.56.383-3.066.987-.445.565-.887 1.816-.887 3.004h-.302V5.399h11.835v4.314zm8.06-4.214c-2.563 0-4.356 1.574-4.356 6.959 0 5.423 1.774 6.955 4.356 6.955 2.6 0 4.354-1.552 4.354-6.955 0-5.385-1.754-6.959-4.354-6.959zm0 14.297c-3.207 0-6.796-2.5-6.796-7.338 0-4.84 3.588-7.34 6.814-7.34 3.207 0 6.797 2.48 6.797 7.34 0 4.838-3.59 7.338-6.815 7.338zM91.635 5.498c-2.56 0-4.355 1.574-4.355 6.959 0 5.423 1.775 6.955 4.355 6.955 2.602 0 4.356-1.552 4.356-6.955 0-5.385-1.754-6.959-4.356-6.959zm0 14.297c-3.206 0-6.796-2.5-6.796-7.338 0-4.841 3.59-7.34 6.816-7.34 3.206 0 6.874 2.48 6.874 7.34 0 4.838-3.668 7.338-6.894 7.338zm11.067-.563v.302h-3.91v-.302c1.43-.101 1.572-.383 1.572-1.675V6.104l-.323-.382h-1.25v-.324h3.933l6.714 9.94V7.353c0-1.35-.201-1.55-1.755-1.631v-.324h3.892v.324c-1.432.1-1.694.362-1.694 1.652v12.259h-.382L100.808 6.69v10.907c0 1.331.24 1.553 1.894 1.635z" stroke-width=".718"/></g><path d="M118.515 12.885c.266 4.213 2.624 6.49 5.75 6.49 2.65 0 4.424-1.722 4.424-4.107a3.31 3.31 0 0 0-1.14-2.543c-.978-.848-2.488-1.14-4.555-1.536-3.285-.636-4.821-1.96-4.821-5.14 0-3.391 2.117-5.511 5.192-5.511 2.463 0 4.106 1.457 4.53 1.484.372.025.609-.132.609-.927h.346v5.457h-.346c-.45-3.604-2.41-5.457-5.243-5.457-2.439 0-3.765 1.511-3.765 3.576 0 1.378.61 2.12 1.405 2.543.715.398 2.385.61 4.53 1.113 3.18.768 4.61 2.438 4.61 5.511 0 3.656-2.279 6.066-5.748 6.066-2.57 0-4.294-1.322-5.114-1.322-.346 0-.638.265-.664.953h-.37v-6.65h.37m24.07-3.171h-.303c0-1.27-.444-2.44-.885-3.005-.526-.624-1.233-.987-2.986-.987h-.585v13.49h1.593v.323h-5.506v-.323h1.633V5.722h-.544c-1.755 0-2.56.383-3.065.987-.443.565-.887 1.817-.887 3.005h-.303V5.399h11.838v4.315m6.272 4.84L146.862 8.1l-2.177 6.453h4.172zm-7.622 4.66h.284c.966 0 1.25-.365 1.531-1.293l4.396-12.682h.746l4.497 13.974h1.208v.32h-5.18v-.32h1.632L149 14.997h-4.477l-1.107 3.328c-.265.846.2.846 1.43.888v.32h-3.61v-.32z" fill="#6A1A33"/><path d="M156.993 12.014h.524c3.044 0 3.993-.99 3.993-3.106 0-2.237-.867-3.186-3.247-3.186h-1.27v6.292zm9.286 7.515l-2.702.012c-.887 0-1.644-.047-2.15-1.035-.441-.868-.402-2.198-.603-3.81-.243-1.856-.807-2.358-3.227-2.358h-.604v6.874h1.552v.323h-5.222v-.323h1.39V5.722h-1.39v-.323h5.624c3.267 0 5.083 1.171 5.083 3.348 0 1.915-1.795 3.145-4.416 3.388 2.48.362 3.69 1.554 3.831 3.568.161 2.36.174 3.392 1.263 3.392l.424.013.887.026-.726.395h.986zm11.171-.317h1.372V5.722h-1.371v-.323h5.08v.323h-1.43v6.271h5.402V5.722h-1.432v-.323h5.083v.323h-1.372v13.49h1.372v.323h-5.083v-.323h1.432v-6.715h-5.402v6.715h1.43v.323h-5.08v-.323M197.665 5.5c-2.562 0-4.355 1.573-4.355 6.958 0 5.423 1.774 6.955 4.355 6.955 2.6 0 4.354-1.552 4.354-6.955 0-5.385-1.754-6.959-4.354-6.959m0 14.298c-3.206 0-6.796-2.501-6.796-7.339 0-4.841 3.59-7.34 6.815-7.34 3.206 0 6.795 2.48 6.795 7.34 0 4.838-3.59 7.339-6.814 7.339m8.943-14.075h-1.27v-.323h9.799l.262 3.447h-.322c-.242-2.6-1.291-3.124-4.114-3.124h-2.095v6.451h.946c1.896 0 2.862-.402 2.862-2.398v-.101h.304v5.302h-.304v-.159c0-2.057-.946-2.319-2.862-2.319h-.946v6.715h1.954c3.47 0 4.84-.807 4.84-3.732v-.08h.303v4.133h-10.627v-.32h1.27V5.721m14.476 13.512v.3h-3.91v-.3c1.432-.101 1.572-.384 1.572-1.675V6.105l-.323-.383h-1.25v-.323h3.931l6.715 9.94V7.355c0-1.35-.2-1.552-1.754-1.633v-.323h3.893v.323c-1.433.101-1.694.362-1.694 1.652v12.26h-.384L219.19 6.69v10.908c0 1.331.242 1.553 1.894 1.635m15.259-.021c1.715 0 2.16-.142 2.763-1.149l3.287-5.485-3.77-6.856h-1.432v-.323h5.242v.323h-1.27l2.682 4.88 1.816-3.046c1.088-1.774.746-1.774-.93-1.834v-.323h3.953v.323c-1.432 0-1.734.504-2.38 1.492l-2.256 3.772 4.536 8.226h1.27v.323h-5.364v-.323h1.552l-3.428-6.23-2.843 4.758c-.886 1.493-.362 1.411.949 1.472v.323h-4.377v-.323m-.259.012v.324h-5.098v-.324h1.375V5.685h-1.375V5.36h5.098v.325h-1.437v13.539h1.437" fill="#6A1A33"/><path d="M169.263 10.605c.584.187 1.1.213 1.725.213 2.48 0 3.43-1.585 3.43-4.46 0-3.168-1.015-4.856-3.989-4.856h-1.166v9.103zm-3.944 8.55h1.508V1.502h-1.508V1.08h5.905c3.817 0 5.909 1.793 5.909 5.068 0 3.587-2.76 5.091-6.187 5.091-.797 0-1.445-.105-1.683-.185v8.101h1.941v.422h-5.885v-.422z" fill="#6A1A33"/><g stroke="#6A1A33"><path d="M118.515 12.885c.266 4.213 2.624 6.49 5.75 6.49 2.65 0 4.424-1.722 4.424-4.107a3.31 3.31 0 0 0-1.14-2.543c-.978-.848-2.488-1.14-4.555-1.536-3.285-.636-4.821-1.96-4.821-5.14 0-3.391 2.117-5.511 5.192-5.511 2.463 0 4.106 1.457 4.53 1.484.372.025.609-.132.609-.927h.346v5.457h-.346c-.45-3.604-2.41-5.457-5.243-5.457-2.439 0-3.765 1.511-3.765 3.576 0 1.378.61 2.12 1.405 2.543.715.398 2.385.61 4.53 1.113 3.18.768 4.61 2.438 4.61 5.511 0 3.656-2.279 6.066-5.748 6.066-2.57 0-4.294-1.322-5.114-1.322-.346 0-.638.265-.664.953h-.37v-6.65h.37z" stroke-width=".574"/><path d="M142.585 9.714h-.303c0-1.27-.444-2.44-.885-3.005-.526-.624-1.233-.987-2.986-.987h-.585v13.49h1.593v.323h-5.506v-.323h1.633V5.722h-.544c-1.755 0-2.56.383-3.065.987-.443.565-.887 1.817-.887 3.005h-.303V5.399h11.838v4.315zm6.272 4.84L146.862 8.1l-2.177 6.453h4.172zm-7.622 4.66h.284c.966 0 1.25-.365 1.531-1.293l4.396-12.682h.746l4.497 13.974h1.208v.32h-5.18v-.32h1.632L149 14.997h-4.477l-1.107 3.328c-.265.846.2.846 1.43.888v.32h-3.61v-.32zm15.758-7.2h.524c3.044 0 3.993-.99 3.993-3.106 0-2.237-.867-3.186-3.247-3.186h-1.27v6.292zm9.286 7.515l-2.702.012c-.887 0-1.644-.047-2.15-1.035-.441-.868-.402-2.198-.603-3.81-.243-1.856-.807-2.358-3.227-2.358h-.604v6.874h1.552v.323h-5.222v-.323h1.39V5.722h-1.39v-.323h5.624c3.267 0 5.083 1.171 5.083 3.348 0 1.915-1.795 3.145-4.416 3.388 2.48.362 3.69 1.554 3.831 3.568.161 2.36.174 3.392 1.263 3.392l.424.013.887.026-.726.395h.986zm11.172-.317h1.371V5.722h-1.371v-.323h5.08v.323h-1.43v6.271h5.402V5.722h-1.432v-.323h5.083v.323h-1.372v13.49h1.372v.323h-5.083v-.323h1.432v-6.715h-5.402v6.715h1.43v.323h-5.08v-.323zM197.665 5.5c-2.562 0-4.355 1.574-4.355 6.96 0 5.422 1.774 6.954 4.355 6.954 2.6 0 4.354-1.552 4.354-6.955 0-5.385-1.754-6.959-4.354-6.959zm0 14.298c-3.206 0-6.796-2.501-6.796-7.339 0-4.841 3.59-7.34 6.815-7.34 3.206 0 6.795 2.48 6.795 7.34 0 4.838-3.59 7.339-6.814 7.339zm8.943-14.075h-1.27V5.4h9.799l.262 3.447h-.322c-.242-2.6-1.291-3.124-4.114-3.124h-2.095v6.451h.946c1.896 0 2.862-.402 2.862-2.398v-.101h.304v5.302h-.304v-.159c0-2.057-.946-2.319-2.862-2.319h-.946v6.715h1.954c3.47 0 4.84-.807 4.84-3.732v-.08h.303v4.133h-10.627v-.32h1.27V5.721zm14.476 13.51v.3h-3.91v-.3c1.432-.101 1.572-.384 1.572-1.675V6.105l-.323-.383h-1.25v-.323h3.931l6.715 9.94V7.355c0-1.35-.2-1.552-1.754-1.633v-.323h3.893v.323c-1.433.101-1.694.362-1.694 1.652v12.26h-.384L219.19 6.69v10.908c0 1.331.242 1.553 1.894 1.635zm15.259-.02c1.715 0 2.16-.143 2.763-1.15l3.287-5.485-3.77-6.856h-1.432v-.323h5.242v.323h-1.27l2.682 4.88 1.816-3.046c1.088-1.774.746-1.774-.93-1.834v-.323h3.953v.323c-1.432 0-1.734.504-2.38 1.492l-2.256 3.772 4.536 8.226h1.27v.323h-5.364v-.323h1.552l-3.428-6.23-2.843 4.758c-.886 1.493-.362 1.411.949 1.472v.323h-4.377v-.323z" stroke-width=".718"/><path d="M236.084 19.224v.324h-5.098v-.324h1.375V5.685h-1.375V5.36h5.098v.325h-1.437v13.539h1.437zm-66.82-8.62c.583.188 1.099.214 1.724.214 2.48 0 3.43-1.585 3.43-4.46 0-3.168-1.015-4.856-3.989-4.856h-1.166v9.103zm-3.945 8.551h1.508V1.502h-1.508V1.08h5.905c3.817 0 5.909 1.793 5.909 5.068 0 3.587-2.76 5.091-6.187 5.091-.797 0-1.445-.105-1.683-.185v8.101h1.941v.422h-5.885v-.422z" stroke-width=".574"/></g></g></svg>