<svg width="100" height="100" xmlns="http://www.w3.org/2000/svg"><g fill="none" fill-rule="evenodd"><path fill="#EF9F57" d="M0 99.974h99.942V.058H0z"/><path fill="#CF612D" d="M5.15 46.297V5.422h89.643V67.83H58.619L43.447 46.297H5.15"/><path d="M60.784 70.582c-.263-.257-.32-.352-.406-.493l-.06-.098v-.003l-.009-.012v-7.307c.002-.063.055-1.526 1.436-1.526h.052v-.32h-3.682v.323l.045.006c.016.002 1.612.194 1.612 1.55v6.525l-.033-.046c-1.378-1.923-5.911-8.359-5.911-8.359l-3.204-.004v.335l.045.006c.016.003 1.623.262 1.61 1.801v7.055c0 .012-.005 1.103-.615 1.715-.273.273-.629.412-1.057.412h-.052v.356h3.81v-.36h-.05c-1.587-.028-1.597-1.622-1.596-1.69v-7.67l6.985 9.726.011.014c.06.073.151.17.26.17.137 0 .225-.15.229-.156l.005-.013c.203-.776.537-1.189.54-1.192.197-.236.207-.334.206-.342.04-.227-.166-.399-.171-.403m29.243-9.759v.324l.046.005c.016.002 1.612.194 1.612 1.55v6.525l-.034-.046c-1.378-1.923-5.911-8.358-5.911-8.358l-3.204-.005v.335l.045.006c.016.003 1.625.262 1.61 1.801v7.056c0 .01-.005 1.102-.615 1.714-.273.273-.628.412-1.055.412h-.053v.356h3.81v-.36h-.05c-1.588-.028-1.597-1.622-1.597-1.69v-7.67l6.985 9.726.011.013c.034.042.138.17.26.17.138 0 .226-.148.229-.155l.005-.013c.205-.776.538-1.189.54-1.192.198-.236.209-.334.208-.343.038-.226-.167-.398-.173-.402-.261-.257-.322-.356-.405-.493a2.757 2.757 0 0 0-.061-.098v-.002l-.009-.012v-7.308c.002-.063.054-1.527 1.436-1.527h.052v-.32h-3.682m-62.393 5.614c0-5.379-4.833-5.594-4.882-5.595h-5.673v.335l.055-.002.027-.001c.229 0 1.368.073 1.368 1.525v7.934c0 1.45-1.14 1.524-1.368 1.524h-.026l-.056-.003v.336h5.673c.049-.001 4.882-.216 4.882-5.595v-.458zm-7.272 4.272l.025-9.161c0-.001-.014-.114.06-.203.059-.071.158-.112.297-.12h1.265c.037.003 3.616.339 3.639 5.44-.023 5.103-3.602 5.439-3.635 5.441h-.534c-.958 0-1.116-1.389-1.117-1.397z" fill="#FFFFFE"/><path d="M39.638 71.848c-.515-.534-.485-1.556-.484-1.568v-7.586c0-.007-.027-.7.398-1.143.24-.252.58-.38 1.009-.38h.052v-.32h-3.157l-3.21 8.488-3.221-8.454-.013-.034-3.24-.004v.337l.048.004c.053.005 1.283.129 1.283 1.27v7.294c0 .012.073 1.306-.572 1.993-.266.282-.619.425-1.052.425h-.052v.357h3.902v-.358h-.287c-.425 0-.766-.134-1.012-.397-.511-.546-.457-1.48-.456-1.492v-7.816l3.809 9.9c.002.006.054.159.196.159 0 0 .016.002.04.002a.267.267 0 0 0 .254-.149c.001-.006.233-.649.854-1.165.093-.062.237-.247.116-.516 0 0-.055-.083-.12-.219l-.044-.088a4.47 4.47 0 0 1-.188-.433l2.981-7.742v8.066c0 .019-.041 1.89-1.62 1.89h-.286v.358h5.155v-.358h-.287c-.322 0-.59-.108-.796-.321" fill="#FFFFFE"/><path d="M45.733 60.564c-2.81 0-5.098 2.72-5.098 6.064s2.287 6.065 5.098 6.065c2.812 0 5.1-2.721 5.1-6.065 0-3.345-2.288-6.064-5.1-6.064m-.045 11.719c-.124 0-3.03-.064-3.07-5.656.04-5.593 2.946-5.657 3.082-5.657.123 0 3.03.064 3.068 5.656-.039 5.593-2.945 5.657-3.068 5.657l-.006.052v-.052h-.006m31.964-11.719c-2.812 0-5.1 2.72-5.1 6.064s2.288 6.065 5.1 6.065 5.1-2.721 5.1-6.065c0-3.345-2.288-6.064-5.1-6.064m-.046 11.719c-.124 0-3.03-.064-3.068-5.656.038-5.593 2.944-5.657 3.08-5.657.123 0 3.03.064 3.069 5.656-.04 5.593-2.945 5.657-3.07 5.657l-.005.052.001-.052h-.007M71.7 60.544c-.648.418-1.12.45-1.25.45h-6.597c-.13 0-.602-.032-1.25-.45l-.068-.044-.552 3.81.239.08.018-.044c.008-.015.69-1.525 1.09-2.052.006-.008.585-.866 1.712-.866h1.219v9.226c-.004.063-.09 1.528-1.5 1.528h-.051v.333h4.884v-.333h-.052c-.461 0-.826-.135-1.083-.4-.432-.445-.416-1.117-.416-1.125v-9.229h1.22c1.126 0 1.705.858 1.713.87.398.523 1.08 2.033 1.087 2.048l.02.044.237-.08-.552-3.81-.068.044M17.645 78.78c-2.812 0-5.1 2.72-5.1 6.064s2.288 6.065 5.1 6.065 5.1-2.721 5.1-6.065c0-3.344-2.288-6.064-5.1-6.064M17.6 90.5c-.124 0-3.03-.065-3.069-5.656.04-5.593 2.945-5.657 3.08-5.657.124 0 3.03.064 3.07 5.656-.04 5.592-2.946 5.657-3.07 5.657l-.006.052.002-.052H17.6m39.84-4.722l1.518-4.571 1.506 4.57h-3.025zm16.13 1.026l-.04.12c-1.027 3.164-2.96 3.41-3.526 3.41-.128 0-.204-.012-.213-.013-1.055 0-1.485-.412-1.487-.415-.177-.196-.225-.96-.228-1.236v-7.78c.001-.062.052-1.526 1.436-1.526h.052v-.32H64.8v.329h.052c.056.003 1.377.04 1.377 1.39v7.882c0 1.485-1.102 1.685-1.418 1.711-1.039-.044-1.511-1.601-1.516-1.617l-2.997-9.72c-.047-.167-.107-.252-.178-.252h-.017a.23.23 0 0 0-.151.067c-.04.024-.176.12-.433.495-.001.002-.219.279-.705.492l-.182.073c-.007.001-.162.057-.186.183a.158.158 0 0 0-.01.096c.019.106.122.226.307.355l-2.836 8.13c-.004.016-.461 1.702-1.602 1.702h-.052v.36h3.232v-.368l-.061.009s-.075.01-.185.01c-.214 0-.604-.041-.812-.322-.178-.243-.191-.616-.04-1.108l.864-2.596h3.4l.52 1.576c.003.012.33 1.194.357 1.452.002.004.126.382-.079.665-.152.214-.452.322-.889.322h-.053v.36H73.27l.492-3.534-.192-.382zm-35.295-1.868h-.838v-5.319l-.002-.008c0-.002-.004-.016.013-.038.038-.047.194-.156.826-.156.109.004 2.412.113 2.412 2.727v.07c0 2.618-2.314 2.721-2.411 2.724zm13.112-5.897v.324l.046.005c.067.008 1.612.196 1.612 1.551v6.523a2139.182 2139.182 0 0 1-5.944-8.403l-3.204-.004v.334l.044.007c.067.01 1.625.263 1.61 1.8v7.056c0 .011-.004 1.103-.614 1.714-.2.2-.443.326-.727.38a1.35 1.35 0 0 1-.77-.469l-3.363-4.7c1.134-.263 2.445-.993 2.445-2.958v-.064c0-1.25-.552-2.178-1.595-2.687-.815-.396-1.672-.416-1.835-.416h-4.833v.38l.071.003c.014 0 1.35.086 1.35 1.016V88.9c0 1.391-1.11 1.462-1.333 1.462h-.035l-.057-.004v.363h4.681v-.365l-.057.005s-.03.003-.08.003a1.53 1.53 0 0 1-.798-.22c-.374-.24-.564-.66-.564-1.244v-3.597h.396l3.858 5.398.015.022 5.933-.002v-.365h-.052c-1.587-.028-1.596-1.622-1.595-1.69v-7.67l6.927 9.663.012.015c.06.072.15.169.258.169.181 0 .226-.15.23-.156l.005-.013c.204-.775.537-1.188.54-1.192.198-.235.208-.334.208-.342.038-.227-.11-.337-.114-.34L54 88.735c-.263-.257-.263-.29-.35-.43-.018-.03-.037-.063-.06-.099v-.001l-.008-.012v-7.309c.002-.062.054-1.526 1.436-1.526h.051v-.32h-3.682zm-21.28.352h.103c1.434 0 1.57 1.514 1.576 1.574v5.926c0 3.038-2.683 3.123-2.796 3.125-2.514 0-2.668-3.172-2.669-3.201V80.41c.002-.042.086-1.019 1.245-1.019h.102v-.344l-4.502.01h-.052v.331l.05.003c.052.002 1.273.06 1.273 1.092v6.487c.002.039.247 3.914 3.811 3.913 0 0 .056.005.153.005.61 0 3.656-.187 3.793-3.87l.179-6.304c.001-.053.067-1.298 1.447-1.298h.052v-.384l-3.765.008v.351m-17.054-3.179h.06v-.353H6.755v.353h.06c.02 0 2.116.024 2.116 1.44v13.715c0 .018-.022 1.769-.819 1.814-.006 0-.483.022-.563-.268-.013-.055-.326-1.337-1.436-1.337-.016 0-.428-.014-.761.256-.27.22-.408.556-.408 1.006.001.013.089 1.295 1.61 1.295.003 0 .05.003.133.003.39 0 1.57-.072 2.58-.872 1.15-.913 1.712-2.439 1.67-4.535V77.652c0-1.415 2.03-1.44 2.116-1.44m3.297-7.925l-.014.037c-1.437 3.627-3.912 3.731-4.19 3.731h-1.849c-.05.003-.1.003-.148 0h-.042a1.145 1.145 0 0 1-.31-.06 1.287 1.287 0 0 1-.85-.743 1.2 1.2 0 0 1-.078-.312c-.036-.233-.039-.434-.04-.435v-5.65a3.63 3.63 0 0 1 .424-.023c.926 0 3.135.31 3.653 3.19l.007.043h.293v-6.741h-.301v.053c0 2.757-2.478 3.055-3.541 3.055-.26 0-.452-.017-.535-.026v-6.59c0-.245.12-.252.131-.253a8.62 8.62 0 0 1 1.055-.059c1.34 0 2.693.235 2.7.235 1.466.497 3.009 3.003 3.024 3.03l.024.04.285-.145-.02-.047c-.007-.02-.893-2.084-1.086-3.065-.154-.792-.778-.714-.778-.714-2.68.271-8.9.297-8.964.297h-.05v.301h.05c.512 0 .908.149 1.179.44.433.467.397 1.151.397 1.161v9.991c-.043 1.224-.098 1.705-.167 1.961a1.274 1.274 0 0 1-.25.518.838.838 0 0 1-.038.048l-.048.05a1.01 1.01 0 0 1-.093.082c-.424.348-1.11.545-1.118.548l-.038.01v.245h10.649l.947-4.165-.27-.038" fill="#FFFFFE"/></g></svg>