<svg width="100" height="100" xmlns="http://www.w3.org/2000/svg"><g fill="none" fill-rule="evenodd"><path fill="#5C8B75" d="M0 99.974h99.942V.058H0z"/><path fill="#2F5C49" d="M5.15 94.85V5.208h89.643v18.994H53.91L16.738 94.85H5.15"/><path d="M15.869 69.032v.386h3.101v-.386c-.906 0-1.25-.762-.97-1.95.417-1.785.758-3.368.789-3.535h2.717c.505 1.895.535 2.104 1.143 4.351.164.614.134 1.134-.355 1.134h-.417v.386h6.591v-.386h-.426c-.55 0-.891-.558-.891-2.007v-8.843c2.332 4.477 3.53 6.685 6.025 11.44h.236c0-.873-.036-11.72-.036-12.22 0-1.395.53-2.044 1.437-2.044v-.376c-.253 0-1.032-.003-1.627-.003h-1.659l.015.375c.832 0 1.297.634 1.297 2.047v6.968c-.727-1.394-4.336-8.18-4.901-9.275-.044-.075-.059-.112-.149-.112-.044 0-.67-.003-1.337-.003-.625 0-1.247.003-1.32.003v.376c.43 0 .656.175.894.602.162.298.395.796.588 1.167v10.09c0 1.29-.339 1.714-.82 1.795-.016 0-.03.004-.047.004l-.019-.002a.985.985 0 0 1-.85-.744c-1.5-5.388-2.31-7.625-3.957-13.496h-.47c-.193.837-2.947 12.025-3.127 12.827-.253 1.137-.787 1.43-1.455 1.43zm4.167-10.72l1.277 4.776h-2.347l1.07-4.776zM13.09 69.615h.427c.303-1.185 3.013-11.805 3.782-14.757.518-1.99 1.125-2.392 1.912-2.392v-.42c-.304 0-1.165-.01-1.826-.01h-1.82v.441c.071 0 .552-.011.606-.011.573 0 .942.637.62 1.889-.728 2.89-2.494 9.877-2.494 9.877s-1.97-7.986-2.595-10.536c-.233-.917-.179-1.23.34-1.23h.436v-.42c-.305 0-1.424-.01-2.354-.01-.93 0-2.074.01-2.378.01v.42h.666c.43 0 .572.38.859 1.543a5664.43 5664.43 0 0 1 3.82 15.606zm1.598 11.528c-.376-.334-1.806-1.61-2.325-2.057-.86-.749-1.176-1.228-1.44-2.346-.114-.482-.145-3.058 2.037-3.058 1.253 0 2.336 1.443 3.034 4.173l.347-.01c-.143-2.282-.138-2.338-.281-4.574l-.323-.008-.05.258c-.018.112-.088.666-.323.666-.107 0-.215-.02-.425-.183-.648-.505-1.472-.839-2.194-.839-1.752 0-3.77 1.494-3.653 4.825.044 1.252.628 2.275 1.479 3.232 1.008 1.132 2.253 2.169 3.111 2.996.876.851 1.183 1.587 1.338 2.65.192 1.31-.182 3.692-1.91 3.684-1.816-.009-3.078-1.821-3.817-5.16l-.348.04c0 .313.123 4.575.123 5.492l.359-.007c.234-1.071.412-1.318 1.041-.783.59.514 1.346.997 2.652.997 2.485 0 3.891-2.204 3.891-4.777 0-2.521-1.19-4.209-2.323-5.211zm27.569-25.55c-1.16-.947-2.258-.826-2.258-.826-2.361 0-4.953 2.571-4.953 7.457 0 3.605 1.632 7.391 4.811 7.391 1.579 0 2.815-1.028 3.644-1.898l-.004-3.126-.302.014c-.59 2.745-1.135 4.537-3.206 4.537-1.5 0-2.611-1.882-2.611-6.918 0-4.681.909-7.016 2.631-7.016 2.294 0 2.663 2.18 3.153 4.09l.34-.007v-4.365h-.384c-.095 1.516-.861.666-.861.666zM33.14 76.396l.015.375c.832 0 1.297.636 1.297 2.048v6.967c-.727-1.393-4.336-8.179-4.901-9.275-.044-.075-.06-.112-.148-.112-.045 0-.67-.003-1.34-.003-.619 0-1.236.003-1.317.003-.256 0-.92-.003-1.51-.003h-1.66l.016.375c.833 0 1.282.255 1.282 1.667l.002 7.892c0 2.55-.498 4.172-2.11 4.172-1.352 0-1.902-1.232-1.902-3.331v-9.308c0-.855.118-1.078.563-1.078h.36V76.4c-.252 0-1.175-.003-1.947-.003-.787 0-1.803.003-2.056.003v.386h.495c.43 0 .566.223.566 1.078v9.29c0 2.025 1.109 3.886 3.574 3.886 2.48 0 2.988-2.177 2.988-4.704v-7.897c0-1.39.435-1.662 1.338-1.663.43 0 .656.176.893.603.164.298.396.796.589 1.167v10.088c0 1.393-.488 1.815-.933 1.815-.04 0-.338-.013-.38-.017v.398c.136 0 .895.007 1.473.007h1.694v-.388h-.426c-.55 0-.891-.555-.891-2.005V79.6c2.332 4.478 3.446 6.688 5.94 11.445l.322-.005c0-.872-.038-11.719-.038-12.22 0-1.394.532-2.044 1.438-2.044V76.4c-.253 0-1.033-.003-1.627-.003H33.14zm44.932-7.366c-.534 0-1.008-.018-1.305-.037-.282-.018-.387-.516-.387-.85l.005-5.736h.566c1.203 0 1.648 1.124 1.707 2.649l.297.012c0-.297-.004-1.446-.004-2.747 0-1.467.035-2.886.035-3.016l-.316-.013c0 1.134-.487 2.627-1.719 2.627h-.566c0-.668-.013-5.532-.013-6.405 0-.093.03-.13.149-.148.208-.02.43-.02.891-.02 1.588 0 2.2 1.088 3.106 3.15l.374-.021c-.163-.947-.323-2.338-.501-3.435-.017-.056-.045-.093-.12-.093-.712.056-2.823.034-4.8.034l-2.135.003-1.484-.002h-1.619v.35c.06 0 .443.014.488.014.475 0 .791.538.524 1.578-.609 2.415-2.084 8.279-2.084 8.279s-1.634-6.717-2.153-8.834c-.193-.763-.148-1.023.283-1.023h.403v-.375c-.252 0-1.179-.004-1.95-.004-.772 0-1.806.004-2.058.004v.003c-.28-.001-.904-.004-1.466-.004h-1.66l.016.375c.832 0 1.282.256 1.282 1.668h-.001l.001 7.892c0 2.548-.497 4.172-2.11 4.172-1.352 0-1.903-1.232-1.903-3.331v-9.308c0-.855.119-1.078.566-1.078h.36v-.386c-.253 0-1.176-.004-1.95-.004-.787 0-1.802.004-2.055.004v.386h.495c.431 0 .565.223.565 1.078v9.29c0 2.025 1.11 3.886 3.574 3.886 2.48 0 2.989-2.178 2.989-4.704v-7.897c0-1.393.44-1.664 1.346-1.664v-.003h.54c.356 0 .476.316.713 1.282.564 2.285 2.966 11.98 3.203 12.983h.277c.253-.985 2.539-9.843 3.177-12.295.43-1.653 1.036-1.97 1.69-1.97.094 0 .417.014.46.014.432 0 .565.223.565 1.078v11.519c0 .854-.133 1.077-.564 1.077h-.444v.386h7.16c.09 0 .123.039.138-.018.296-1.19.516-3.005.754-4.045l-.38-.01c-.921 2.35-1.594 3.683-2.952 3.683zm12.548-.62l-1.38-3.11-1.462-3.146.283-.15c.92-.558 1.776-1.433 1.776-3.346 0-2.47-1.5-3.682-3.119-3.682-.282 0-1.415-.004-2.47-.004-.833 0-1.877.004-2.098.004v.375h.484c.431 0 .565.223.565 1.078v11.52c0 .854-.134 1.058-.565 1.058h-.484v.405h3.885v-.405h-.252c-.43 0-.565-.204-.565-1.059v-5.332c0-.168.03-.205.163-.205.446 0 .67.317.892.854 1.233 2.918 1.968 4.661 2.206 5.219 0 0 .319.878 1.2.902.768.022 1.933.026 1.933.026l.01-.387c-.267 0-.809-.166-1.002-.612zm-4.74-6.465c-.145 0-.57.026-.618-.037 0-1.746.009-4.608.009-5.76 0-.576.149-.761.713-.761 1.084 0 1.708 1.151 1.708 3.213 0 2.36-.713 3.345-1.812 3.345zm-36.542-7.179c-2.777 0-4.856 3.277-4.856 7.457 0 4.144 2.07 7.391 4.846 7.391 2.777 0 4.896-3.247 4.896-7.427 0-4.182-2.109-7.42-4.886-7.42zm0 14.375c-2.05 0-2.569-3.518-2.569-6.918 0-3.436.54-7.016 2.59-7.016 2.049 0 2.578 3.543 2.578 6.98 0 3.436-.55 6.954-2.599 6.954z" fill="#FFFFFE"/></g></svg>