<svg width="100" height="100" xmlns="http://www.w3.org/2000/svg"><g fill="none" fill-rule="evenodd"><path fill="#AB4259" d="M0 99.974h99.942V.057H0z"/><path fill="#6A1A33" d="M35.904 50.02L63.45 94.84h31.318V5.198H63.45L35.904 50.02"/><path d="M7.362 73.86c.172 2.735 1.703 4.213 3.732 4.213 1.72 0 2.872-1.118 2.872-2.666 0-.636-.24-1.203-.739-1.65-.636-.552-1.616-.741-2.958-.998-2.133-.413-3.13-1.273-3.13-3.337 0-2.201 1.375-3.577 3.37-3.577 1.6 0 2.667.946 2.941.963.242.017.396-.086.396-.602h.224v3.543h-.224c-.292-2.34-1.565-3.543-3.404-3.543-1.583 0-2.444.98-2.444 2.322 0 .894.396 1.375.912 1.65.465.26 1.548.396 2.94.724 2.065.498 2.994 1.581 2.994 3.577 0 2.373-1.48 3.939-3.732 3.939-1.669 0-2.787-.86-3.32-.86-.224 0-.413.172-.43.619H7.12V73.86h.24" fill="#FFFFFE"/><path d="M7.362 73.86c.172 2.735 1.703 4.213 3.732 4.213 1.72 0 2.872-1.118 2.872-2.666 0-.636-.24-1.203-.739-1.65-.636-.552-1.616-.741-2.958-.998-2.133-.413-3.13-1.273-3.13-3.337 0-2.201 1.375-3.577 3.37-3.577 1.6 0 2.667.946 2.941.963.242.017.396-.086.396-.602h.224v3.543h-.224c-.292-2.34-1.565-3.543-3.404-3.543-1.583 0-2.444.98-2.444 2.322 0 .894.396 1.375.912 1.65.465.26 1.548.396 2.94.724 2.065.498 2.994 1.581 2.994 3.577 0 2.373-1.48 3.939-3.732 3.939-1.669 0-2.787-.86-3.32-.86-.224 0-.413.172-.43.619H7.12V73.86h.24z" stroke="#FFFFFE" stroke-width=".498"/><path d="M19.543 74.944l-1.296-4.19-1.414 4.19h2.71zm-4.949 3.024h.184c.628 0 .812-.235.994-.839l2.854-8.232h.484l2.92 9.071h.785v.209h-3.363v-.209h1.06l-.878-2.737H16.73l-.72 2.16c-.171.55.13.55.93.577v.209h-2.345v-.209z" fill="#FFFFFE"/><path d="M19.543 74.944l-1.296-4.19-1.414 4.19h2.71zm-4.949 3.024h.184c.628 0 .812-.235.994-.839l2.854-8.232h.484l2.92 9.071h.785v.209h-3.363v-.209h1.06l-.878-2.737H16.73l-.72 2.16c-.171.55.13.55.93.577v.209h-2.345v-.209z" stroke="#FFFFFE" stroke-width=".622"/><path d="M23.29 74.891c.13 2.082 1.295 3.207 2.84 3.207 1.31 0 2.186-.85 2.186-2.028a1.63 1.63 0 0 0-.564-1.257c-.484-.419-1.23-.563-2.25-.758-1.623-.315-2.383-.97-2.383-2.54 0-1.676 1.048-2.723 2.566-2.723 1.218 0 2.029.72 2.239.732.183.013.3-.065.3-.459h.171v2.698h-.17c-.223-1.78-1.192-2.698-2.592-2.698-1.205 0-1.86.747-1.86 1.768 0 .682.302 1.047.694 1.257.354.196 1.178.301 2.239.55 1.857.449 2.278 1.136 2.278 2.722 0 1.807-1.126 2.999-2.84 2.999-1.27 0-2.122-.655-2.527-.655-.17 0-.315.13-.328.47h-.183v-3.285h.183" fill="#FFFFFE"/><path d="M23.29 74.891c.13 2.082 1.295 3.207 2.84 3.207 1.31 0 2.186-.85 2.186-2.028a1.63 1.63 0 0 0-.564-1.257c-.484-.419-1.23-.563-2.25-.758-1.623-.315-2.383-.97-2.383-2.54 0-1.676 1.048-2.723 2.566-2.723 1.218 0 2.029.72 2.239.732.183.013.3-.065.3-.459h.171v2.698h-.17c-.223-1.78-1.192-2.698-2.592-2.698-1.205 0-1.86.747-1.86 1.768 0 .682.302 1.047.694 1.257.354.196 1.178.301 2.239.55 1.857.449 2.278 1.136 2.278 2.722 0 1.807-1.126 2.999-2.84 2.999-1.27 0-2.122-.655-2.527-.655-.17 0-.315.13-.328.47h-.183v-3.285h.183z" stroke="#FFFFFE" stroke-width=".622"/><path d="M32.911 77.968v.209h-3.298v-.209h.89V69.21h-.89V69h3.298v.21h-.991v4.248s1.763-1.905 2.863-3.148c.21-.236.564-.655.564-.813 0-.287-.328-.287-1.153-.287V69h3.286v.21c-1.27 0-1.387.066-2.37 1.152-.719.798-1.788 2.01-1.788 2.01l3.49 5.596h1.205v.209h-3.731v-.209h.982l-2.855-4.713-.543.586v4.127h1.041" fill="#FFFFFE"/><path d="M32.911 77.968v.209h-3.298v-.209h.89V69.21h-.89V69h3.298v.21h-.991v4.248s1.763-1.905 2.863-3.148c.21-.236.564-.655.564-.813 0-.287-.328-.287-1.153-.287V69h3.286v.21c-1.27 0-1.387.066-2.37 1.152-.719.798-1.788 2.01-1.788 2.01l3.49 5.596h1.205v.209h-3.731v-.209h.982l-2.855-4.713-.543.586v4.127h1.041z" stroke="#FFFFFE" stroke-width=".622"/><path d="M41.66 74.944l-1.296-4.19-1.413 4.19h2.709zm-4.948 3.024h.183c.629 0 .812-.235.995-.839l2.854-8.232h.484l2.918 9.071h.786v.209h-3.364v-.209h1.06l-.876-2.737h-2.907l-.719 2.16c-.171.55.13.55.929.577v.209h-2.343v-.209z" fill="#FFFFFE"/><path d="M41.66 74.944l-1.296-4.19-1.413 4.19h2.709zm-4.948 3.024h.183c.629 0 .812-.235.995-.839l2.854-8.232h.484l2.918 9.071h.786v.209h-3.364v-.209h1.06l-.876-2.737h-2.907l-.719 2.16c-.171.55.13.55.929.577v.209h-2.343v-.209z" stroke="#FFFFFE" stroke-width=".622"/><path d="M51.33 71.801h-.197c0-.824-.287-1.583-.575-1.95-.34-.406-.798-.641-1.937-.641h-.38v8.758h1.033v.209h-3.573v-.209h1.06V69.21h-.353c-1.138 0-1.662.25-1.99.642-.289.366-.576 1.178-.576 1.95h-.196V69h7.684v2.801" fill="#FFFFFE"/><path d="M51.33 71.801h-.197c0-.824-.287-1.583-.575-1.95-.34-.406-.798-.641-1.937-.641h-.38v8.758h1.033v.209h-3.573v-.209h1.06V69.21h-.353c-1.138 0-1.662.25-1.99.642-.289.366-.576 1.178-.576 1.95h-.196V69h7.684v2.801z" stroke="#FFFFFE" stroke-width=".622"/><path d="M56.562 69.065c-1.664 0-2.828 1.022-2.828 4.517 0 3.521 1.152 4.516 2.828 4.516 1.688 0 2.827-1.007 2.827-4.516 0-3.495-1.14-4.517-2.827-4.517m0 9.282c-2.082 0-4.412-1.624-4.412-4.765 0-3.141 2.33-4.765 4.424-4.765 2.081 0 4.413 1.61 4.413 4.765 0 3.141-2.332 4.765-4.425 4.765" fill="#FFFFFE"/><path d="M56.562 69.065c-1.664 0-2.828 1.022-2.828 4.517 0 3.521 1.152 4.516 2.828 4.516 1.688 0 2.827-1.007 2.827-4.516 0-3.495-1.14-4.517-2.827-4.517zm0 9.282c-2.082 0-4.412-1.624-4.412-4.765 0-3.141 2.33-4.765 4.424-4.765 2.081 0 4.413 1.61 4.413 4.765 0 3.141-2.332 4.765-4.425 4.765z" stroke="#FFFFFE" stroke-width=".622"/><path d="M66.504 69.065c-1.662 0-2.828 1.022-2.828 4.517 0 3.521 1.153 4.516 2.828 4.516 1.69 0 2.828-1.007 2.828-4.516 0-3.495-1.139-4.517-2.828-4.517m0 9.282c-2.082 0-4.412-1.624-4.412-4.765 0-3.142 2.33-4.765 4.425-4.765 2.082 0 4.462 1.61 4.462 4.765 0 3.141-2.38 4.765-4.475 4.765" fill="#FFFFFE"/><path d="M66.504 69.065c-1.662 0-2.828 1.022-2.828 4.517 0 3.521 1.153 4.516 2.828 4.516 1.69 0 2.828-1.007 2.828-4.516 0-3.495-1.139-4.517-2.828-4.517zm0 9.282c-2.082 0-4.412-1.624-4.412-4.765 0-3.142 2.33-4.765 4.425-4.765 2.082 0 4.462 1.61 4.462 4.765 0 3.141-2.38 4.765-4.475 4.765z" stroke="#FFFFFE" stroke-width=".622"/><path d="M73.688 77.98v.197H71.15v-.196c.93-.066 1.021-.248 1.021-1.087v-7.436l-.21-.248h-.81V69h2.553l4.359 6.453V70.27c0-.877-.131-1.007-1.14-1.06V69h2.527v.21c-.93.066-1.1.235-1.1 1.073v7.958h-.248L72.46 69.84v7.08c0 .865.156 1.009 1.23 1.062" fill="#FFFFFE"/><path d="M73.688 77.98v.197H71.15v-.196c.93-.066 1.021-.248 1.021-1.087v-7.436l-.21-.248h-.81V69h2.553l4.359 6.453V70.27c0-.877-.131-1.007-1.14-1.06V69h2.527v.21c-.93.066-1.1.235-1.1 1.073v7.958h-.248L72.46 69.84v7.08c0 .865.156 1.009 1.23 1.062z" stroke="#FFFFFE" stroke-width=".622"/><path d="M7.362 88.2c.172 2.736 1.703 4.214 3.732 4.214 1.72 0 2.872-1.119 2.872-2.667a2.15 2.15 0 0 0-.739-1.65c-.636-.551-1.616-.74-2.958-.998-2.133-.412-3.13-1.272-3.13-3.337 0-2.201 1.375-3.577 3.37-3.577 1.6 0 2.667.946 2.941.963.242.016.396-.085.396-.601h.224v3.542h-.224c-.292-2.34-1.565-3.542-3.404-3.542-1.583 0-2.444.98-2.444 2.322 0 .893.396 1.375.912 1.65.465.258 1.548.396 2.94.723 2.065.498 2.994 1.582 2.994 3.577 0 2.373-1.48 3.939-3.732 3.939-1.669 0-2.787-.859-3.32-.859-.224 0-.413.172-.43.619H7.12V88.2h.24" fill="#FFFFFE"/><path d="M7.362 88.2c.172 2.736 1.703 4.214 3.732 4.214 1.72 0 2.872-1.119 2.872-2.667a2.15 2.15 0 0 0-.739-1.65c-.636-.551-1.616-.74-2.958-.998-2.133-.412-3.13-1.272-3.13-3.337 0-2.201 1.375-3.577 3.37-3.577 1.6 0 2.667.946 2.941.963.242.016.396-.085.396-.601h.224v3.542h-.224c-.292-2.34-1.565-3.542-3.404-3.542-1.583 0-2.444.98-2.444 2.322 0 .893.396 1.375.912 1.65.465.258 1.548.396 2.94.723 2.065.498 2.994 1.582 2.994 3.577 0 2.373-1.48 3.939-3.732 3.939-1.669 0-2.787-.859-3.32-.859-.224 0-.413.172-.43.619H7.12V88.2h.24z" stroke="#FFFFFE" stroke-width=".498"/><path d="M22.988 86.142h-.197c0-.824-.288-1.584-.576-1.95-.34-.406-.799-.642-1.938-.642h-.38v8.758h1.034v.21h-3.573v-.21h1.06V83.55h-.353c-1.14 0-1.662.25-1.99.641-.288.367-.576 1.18-.576 1.951h-.196V83.34h7.685v2.802" fill="#FFFFFE"/><path d="M22.988 86.142h-.197c0-.824-.288-1.584-.576-1.95-.34-.406-.799-.642-1.938-.642h-.38v8.758h1.034v.21h-3.573v-.21h1.06V83.55h-.353c-1.14 0-1.662.25-1.99.641-.288.367-.576 1.18-.576 1.951h-.196V83.34h7.685v2.802z" stroke="#FFFFFE" stroke-width=".622"/><path d="M27.06 89.284l-1.296-4.19-1.413 4.19h2.708zm-4.949 3.025h.184c.628 0 .812-.236.994-.839l2.854-8.234h.484l2.92 9.073h.785v.208h-3.364v-.208h1.06l-.877-2.737h-2.906l-.719 2.16c-.172.55.13.55.929.577v.208H22.11v-.208z" fill="#FFFFFE"/><path d="M27.06 89.284l-1.296-4.19-1.413 4.19h2.708zm-4.949 3.025h.184c.628 0 .812-.236.994-.839l2.854-8.234h.484l2.92 9.073h.785v.208h-3.364v-.208h1.06l-.877-2.737h-2.906l-.719 2.16c-.172.55.13.55.929.577v.208H22.11v-.208z" stroke="#FFFFFE" stroke-width=".622"/><path d="M32.34 87.635h.34c1.977 0 2.593-.642 2.593-2.016 0-1.453-.563-2.069-2.108-2.069h-.825v4.085zm6.03 4.878l-1.755.009c-.576 0-1.067-.031-1.394-.673-.288-.563-.263-1.426-.393-2.473-.158-1.205-.524-1.53-2.095-1.53h-.393v4.462h1.008v.21h-3.39v-.21h.903V83.55h-.903v-.21h3.652c2.12 0 3.299.76 3.299 2.174 0 1.243-1.165 2.042-2.867 2.2 1.61.234 2.396 1.008 2.488 2.316.104 1.532.112 2.202.819 2.202l.275.008.576.017-.471.256h.64z" fill="#FFFFFE"/><path d="M32.34 87.635h.34c1.977 0 2.593-.642 2.593-2.016 0-1.453-.563-2.069-2.108-2.069h-.825v4.085zm6.03 4.878l-1.755.009c-.576 0-1.067-.031-1.394-.673-.288-.563-.263-1.426-.393-2.473-.158-1.205-.524-1.53-2.095-1.53h-.393v4.462h1.008v.21h-3.39v-.21h.903V83.55h-.903v-.21h3.652c2.12 0 3.299.76 3.299 2.174 0 1.243-1.165 2.042-2.867 2.2 1.61.234 2.396 1.008 2.488 2.316.104 1.532.112 2.202.819 2.202l.275.008.576.017-.471.256h.64z" stroke="#FFFFFE" stroke-width=".622"/><path fill="#FFFFFE" d="M45.622 92.308h.89V83.55h-.89v-.21h3.299v.21h-.93v4.071H51.5v-4.07h-.93v-.21h3.3v.21h-.89v8.757h.89v.21h-3.3v-.21h.93v-4.36h-3.508v4.36h.93v.21h-3.3v-.21"/><path stroke="#FFFFFE" stroke-width=".622" d="M45.622 92.308h.89V83.55h-.89v-.21h3.299v.21h-.93v4.071H51.5v-4.07h-.93v-.21h3.3v.21h-.89v8.757h.89v.21h-3.3v-.21h.93v-4.36h-3.508v4.36h.93v.21h-3.3z"/><path d="M58.745 83.406c-1.663 0-2.827 1.021-2.827 4.517 0 3.52 1.152 4.516 2.827 4.516 1.688 0 2.828-1.008 2.828-4.516 0-3.496-1.14-4.517-2.828-4.517m0 9.282c-2.081 0-4.412-1.624-4.412-4.765 0-3.142 2.33-4.765 4.425-4.765 2.081 0 4.412 1.61 4.412 4.765 0 3.14-2.33 4.765-4.425 4.765" fill="#FFFFFE"/><path d="M58.745 83.406c-1.663 0-2.827 1.021-2.827 4.517 0 3.52 1.152 4.516 2.827 4.516 1.688 0 2.828-1.008 2.828-4.516 0-3.496-1.14-4.517-2.828-4.517zm0 9.282c-2.081 0-4.412-1.624-4.412-4.765 0-3.142 2.33-4.765 4.425-4.765 2.081 0 4.412 1.61 4.412 4.765 0 3.14-2.33 4.765-4.425 4.765z" stroke="#FFFFFE" stroke-width=".622"/><path d="M64.552 83.55h-.825v-.21h6.361l.17 2.239h-.21c-.156-1.688-.837-2.029-2.67-2.029h-1.36v4.189h.614c1.232 0 1.859-.262 1.859-1.558v-.065h.197v3.443h-.197v-.104c0-1.336-.615-1.506-1.859-1.506h-.614v4.36h1.269c2.252 0 3.143-.525 3.143-2.424v-.05h.196v2.682h-6.9v-.208h.826V83.55" fill="#FFFFFE"/><path d="M64.552 83.55h-.825v-.21h6.361l.17 2.239h-.21c-.156-1.688-.837-2.029-2.67-2.029h-1.36v4.189h.614c1.232 0 1.859-.262 1.859-1.558v-.065h.197v3.443h-.197v-.104c0-1.336-.615-1.506-1.859-1.506h-.614v4.36h1.269c2.252 0 3.143-.525 3.143-2.424v-.05h.196v2.682h-6.9v-.208h.826V83.55z" stroke="#FFFFFE" stroke-width=".622"/><path d="M73.95 92.321v.196h-2.54v-.196c.93-.065 1.021-.248 1.021-1.087V83.8l-.21-.249h-.81v-.21h2.552l4.358 6.454V84.61c0-.877-.13-1.007-1.139-1.06v-.21h2.528v.21c-.93.066-1.1.235-1.1 1.073v7.959h-.25l-5.641-8.403v7.081c0 .864.157 1.009 1.23 1.061" fill="#FFFFFE"/><path d="M73.95 92.321v.196h-2.54v-.196c.93-.065 1.021-.248 1.021-1.087V83.8l-.21-.249h-.81v-.21h2.552l4.358 6.454V84.61c0-.877-.13-1.007-1.139-1.06v-.21h2.528v.21c-.93.066-1.1.235-1.1 1.073v7.959h-.25l-5.641-8.403v7.081c0 .864.157 1.009 1.23 1.061z" stroke="#FFFFFE" stroke-width=".622"/><path d="M83.855 92.308c1.113 0 1.402-.092 1.794-.746l2.134-3.56-2.448-4.452h-.93v-.21h3.404v.21h-.825l1.74 3.168 1.18-1.977c.707-1.152.485-1.152-.603-1.19v-.21h2.566v.21c-.93 0-1.126.327-1.545.968l-1.465 2.448 2.945 5.341h.824v.21h-3.482v-.21h1.008l-2.226-4.045-1.846 3.09c-.574.968-.234.916.617.955v.21h-2.842v-.21" fill="#FFFFFE"/><path d="M83.855 92.308c1.113 0 1.402-.092 1.794-.746l2.134-3.56-2.448-4.452h-.93v-.21h3.404v.21h-.825l1.74 3.168 1.18-1.977c.707-1.152.485-1.152-.603-1.19v-.21h2.566v.21c-.93 0-1.126.327-1.545.968l-1.465 2.448 2.945 5.341h.824v.21h-3.482v-.21h1.008l-2.226-4.045-1.846 3.09c-.574.968-.234.916.617.955v.21h-2.842v-.21z" stroke="#FFFFFE" stroke-width=".622"/><path fill="#FFFFFE" d="M83.687 92.315v.211h-3.31v-.21h.893v-8.79h-.893v-.21h3.31v.21h-.933v8.79h.933"/><path stroke="#FFFFFE" stroke-width=".498" d="M83.687 92.315v.211h-3.31v-.21h.893v-8.79h-.893v-.21h3.31v.21h-.933v8.79z"/><path d="M40.307 86.72c.379.122.714.139 1.12.139 1.61 0 2.226-1.029 2.226-2.896 0-2.057-.659-3.152-2.59-3.152h-.756v5.91zm-2.56 5.551h.979v-11.46h-.98v-.275h3.834c2.478 0 3.836 1.165 3.836 3.29 0 2.33-1.792 3.306-4.017 3.306-.517 0-.938-.068-1.092-.12v5.26h1.26v.273h-3.82v-.274z" fill="#FFFFFE"/><path d="M40.307 86.72c.379.122.714.139 1.12.139 1.61 0 2.226-1.029 2.226-2.896 0-2.057-.659-3.152-2.59-3.152h-.756v5.91zm-2.56 5.551h.979v-11.46h-.98v-.275h3.834c2.478 0 3.836 1.165 3.836 3.29 0 2.33-1.792 3.306-4.017 3.306-.517 0-.938-.068-1.092-.12v5.26h1.26v.273h-3.82v-.274z" stroke="#FFFFFE" stroke-width=".498"/></g></svg>