<svg width="165" height="20" xmlns="http://www.w3.org/2000/svg"><g fill="#CF612D" fill-rule="evenodd"><path d="M57.564 14.35c-.274-.27-.334-.368-.423-.515l-.064-.104v-.001l-.008-.014V6.074c.002-.066.056-1.597 1.497-1.597h.055v-.335H54.78v.339l.048.006c.017.001 1.68.203 1.68 1.622v6.823l-.034-.048c-1.438-2.01-6.164-8.742-6.164-8.742l-3.341-.004v.35l.046.007c.017.002 1.693.273 1.68 1.883v7.38c0 .011-.006 1.153-.642 1.793-.285.286-.656.43-1.102.43h-.054v.373h3.973v-.376h-.053c-1.655-.03-1.665-1.697-1.664-1.768V6.187l7.284 10.173.013.014c.061.077.157.178.27.178.143 0 .234-.156.24-.162l.004-.014c.212-.812.56-1.243.563-1.247.206-.247.216-.35.216-.358.04-.237-.174-.417-.179-.421m29.63-10.208v.339l.048.005c.017.002 1.68.204 1.68 1.622v6.824l-.034-.048c-1.438-2.01-6.165-8.742-6.165-8.742l-3.341-.004v.35l.046.006c.017.003 1.695.273 1.68 1.884v7.38c0 .01-.005 1.153-.642 1.793-.284.285-.655.43-1.1.43h-.056v.373h3.974v-.376l-.053-.001c-1.655-.029-1.664-1.696-1.664-1.767V6.187l7.285 10.173.011.013c.036.044.143.179.27.179.145 0 .236-.156.24-.163l.005-.013c.213-.812.56-1.244.564-1.247.205-.247.217-.35.216-.36.04-.236-.174-.415-.18-.42-.273-.268-.336-.372-.423-.515a2.741 2.741 0 0 0-.063-.103v-.002l-.009-.012V6.073c.002-.065.055-1.596 1.496-1.596h.055v-.335h-3.84M23.448 10.46c0-5.415-5.053-5.631-5.104-5.632h-5.93v.337l.057-.002a.163.163 0 0 1 .028-.001c.239 0 1.43.074 1.43 1.535v7.985c0 1.46-1.191 1.535-1.43 1.535h-.027l-.058-.003v.338h5.93c.051-.002 5.104-.218 5.104-5.632v-.46zm-7.602 4.299l.025-9.221s-.013-.114.064-.204c.061-.072.165-.113.31-.121h1.323c.038.003 3.78.34 3.804 5.476-.024 5.136-3.766 5.474-3.8 5.476h-.558c-1.002 0-1.167-1.398-1.168-1.406z"/><path d="M35.428 15.87c-.534-.535-.503-1.561-.502-1.573V6.68c-.001-.006-.029-.7.413-1.147.248-.252.601-.38 1.046-.38h.054v-.322h-3.275l-3.33 8.52-3.343-8.486-.013-.034-3.361-.004v.338l.05.004c.054.005 1.33.13 1.33 1.275v7.321c0 .012.077 1.311-.594 2-.275.284-.642.428-1.09.428h-.054v.358h4.047v-.36h-.297c-.441 0-.794-.134-1.05-.398-.53-.548-.473-1.485-.473-1.497V6.45l3.952 9.937c.003.007.056.16.203.16 0 0 .017.002.042.002.118 0 .214-.052.263-.15.002-.005.242-.65.887-1.169.096-.062.246-.248.12-.518-.001 0-.057-.084-.125-.22l-.045-.087c-.073-.145-.09-.177-.196-.436L33.18 6.2v8.097c0 .018-.042 1.896-1.68 1.896h-.298v.36h5.35v-.36h-.298c-.334 0-.613-.108-.826-.322m6.296-11.733c-2.852 0-5.172 2.784-5.172 6.207 0 3.422 2.32 6.207 5.172 6.207s5.173-2.785 5.173-6.207c0-3.423-2.32-6.207-5.173-6.207m-.047 11.994c-.125 0-3.073-.065-3.113-5.788.04-5.724 2.988-5.79 3.125-5.79.125 0 3.074.066 3.113 5.79-.04 5.723-2.988 5.788-3.113 5.788l-.006.053.001-.053h-.007M74.138 4.138c-2.852 0-5.172 2.784-5.172 6.207 0 3.422 2.32 6.207 5.172 6.207s5.172-2.785 5.172-6.207c0-3.423-2.32-6.207-5.172-6.207m-.047 11.994c-.125 0-3.073-.065-3.112-5.788.039-5.724 2.987-5.79 3.124-5.79.125 0 3.073.066 3.113 5.79-.04 5.723-2.987 5.788-3.113 5.788l-.006.053.002-.053h-.008M68.345 4.184c-.649.432-1.122.466-1.251.466-.024 0-.037-.002-.043-.002h-6.52c-.001 0-.015.002-.039.002-.13 0-.603-.034-1.251-.466l-.068-.046-.552 3.936.239.083.018-.045c.007-.016.69-1.576 1.092-2.12.004-.009.584-.895 1.712-.895h1.22v9.532c-.004.065-.09 1.578-1.5 1.578h-.053v.345h4.889v-.345h-.053c-.462 0-.826-.138-1.084-.413-.432-.46-.416-1.154-.416-1.162V5.097h1.22c1.128 0 1.707.886 1.715.898.398.541 1.081 2.101 1.087 2.117l.02.045.239-.083-.553-3.936-.068.046m38.896-.046c-2.852 0-5.172 2.784-5.172 6.207 0 3.422 2.32 6.207 5.172 6.207 2.853 0 5.173-2.785 5.173-6.207 0-3.423-2.32-6.207-5.173-6.207m-.046 11.995c-.126 0-3.073-.066-3.113-5.788.04-5.725 2.987-5.791 3.124-5.791.126 0 3.074.066 3.113 5.79-.039 5.723-2.987 5.79-3.113 5.79l-.006.052.001-.053h-.006m40.9-4.715l1.557-4.746 1.544 4.746h-3.1zm16.537 1.067l-.04.125c-1.053 3.285-3.034 3.54-3.616 3.54-.131 0-.21-.012-.218-.012-1.082 0-1.523-.429-1.525-.431-.181-.205-.23-.997-.233-1.284v-8.08c0-.065.053-1.585 1.472-1.585h.053v-.332h-4.883v.34l.053.002c.058.001 1.412.04 1.412 1.442v8.187c0 1.542-1.13 1.75-1.453 1.777-1.066-.047-1.55-1.663-1.555-1.68L151.026 4.4c-.048-.174-.11-.262-.181-.262h-.019a.233.233 0 0 0-.155.07c-.042.024-.18.123-.444.513-.002.003-.225.29-.723.512l-.187.075c-.007.002-.166.059-.19.19a.168.168 0 0 0-.01.1c.019.11.124.234.314.368l-2.907 8.443c-.004.018-.473 1.77-1.643 1.77h-.053v.373h3.313v-.383l-.062.01s-.077.01-.19.01c-.22 0-.619-.043-.832-.334-.183-.252-.196-.64-.04-1.151l.884-2.696h3.487l.532 1.636c.004.013.339 1.24.367 1.509.001.004.128.397-.08.69-.158.222-.465.335-.913.335h-.054v.374h13.084l.504-3.67-.196-.397zm-36.365-2.141h-.86V4.753l-.003-.009c0-.002-.004-.016.014-.04.038-.048.198-.162.847-.162.112.003 2.478.118 2.478 2.865v.073c0 2.754-2.377 2.86-2.476 2.864zm13.469-6.199v.341l.046.005c.069.008 1.657.207 1.657 1.631v6.857c-1.427-2.034-6.106-8.834-6.106-8.834l-3.291-.003v.35l.045.007c.068.011 1.67.277 1.654 1.894v7.416c0 .011-.004 1.158-.631 1.801a1.39 1.39 0 0 1-.746.4 1.378 1.378 0 0 1-.792-.493l-3.454-4.94c1.164-.277 2.511-1.045 2.511-3.11V7.4c0-1.313-.566-2.29-1.638-2.824-.837-.417-1.717-.438-1.885-.438h-4.964v.4l.073.004c.014 0 1.387.09 1.387 1.067v8.9c0 1.463-1.14 1.537-1.37 1.537h-.036l-.058-.004v.382h4.808v-.384l-.058.006c-.001 0-.031.003-.082.003-.142 0-.504-.022-.82-.231-.385-.254-.58-.694-.58-1.309v-3.78h.408l3.961 5.674.016.023 6.094-.002v-.384h-.053c-1.63-.03-1.64-1.705-1.638-1.777V6.201l7.115 10.158.012.014c.062.077.155.179.266.179.185 0 .231-.157.236-.164l.005-.013c.21-.816.552-1.25.555-1.253.203-.248.213-.351.213-.36.039-.238-.113-.354-.118-.358l-.059-.066c-.27-.27-.27-.304-.359-.452a6.022 6.022 0 0 0-.062-.104l-.008-.014V6.086c.002-.065.056-1.604 1.475-1.604h.052v-.337h-3.781zm-21.46.369h.106c1.47 0 1.61 1.585 1.616 1.648v6.205c0 3.181-2.752 3.27-2.868 3.273-2.578 0-2.737-3.323-2.737-3.353V5.58c.002-.044.088-1.067 1.276-1.067h.106v-.36l-4.618.01h-.054v.347l.052.003c.053.002 1.305.063 1.305 1.144v6.791c.003.042.254 4.099 3.91 4.098 0 0 .057.005.156.005.625 0 3.75-.195 3.89-4.051l.184-6.602c.001-.055.069-1.36 1.484-1.36h.054v-.401l-3.862.009v.367M57.564 14.35c-.274-.27-.334-.368-.423-.515l-.064-.104v-.002l-.008-.013V6.074c.002-.066.056-1.597 1.497-1.597h.055v-.335H54.78v.338l.048.007c.017.002 1.68.203 1.68 1.622v6.824l-.034-.049c-1.438-2.01-6.164-8.742-6.164-8.742l-3.342-.004v.35l.047.007c.017.002 1.693.272 1.68 1.883v7.38c0 .01-.006 1.153-.642 1.792-.285.286-.656.432-1.102.432h-.054v.372h3.973v-.376h-.053c-1.655-.03-1.665-1.697-1.664-1.768V6.187l7.284 10.173.013.015c.061.076.157.177.27.177.143 0 .234-.156.24-.162l.004-.014c.212-.812.56-1.243.563-1.247.206-.247.216-.35.216-.358.04-.238-.174-.417-.179-.421m29.63-10.208v.34l.048.005c.017.002 1.68.203 1.68 1.622v6.824l-.034-.049c-1.438-2.01-6.165-8.742-6.165-8.742l-3.341-.004v.35l.046.007c.017.002 1.695.272 1.68 1.883v7.38c0 .01-.005 1.153-.642 1.793-.284.285-.655.43-1.1.43h-.056v.373h3.974v-.376h-.053c-1.655-.03-1.664-1.697-1.664-1.768V6.188l7.285 10.172.011.014c.036.043.143.178.27.178.145 0 .236-.155.24-.162l.005-.014c.213-.812.56-1.243.564-1.247.205-.247.217-.35.216-.359.04-.237-.174-.416-.18-.42-.273-.27-.336-.373-.423-.515a2.735 2.735 0 0 0-.063-.104v-.002l-.009-.012V6.074c.002-.066.055-1.597 1.496-1.597h.055v-.335h-3.84"/><path d="M23.448 10.46c0-5.415-5.053-5.631-5.104-5.632h-5.93v.337l.057-.002c.001 0 .011-.002.028-.002.239 0 1.43.075 1.43 1.536v7.985c0 1.46-1.191 1.535-1.43 1.535h-.027l-.058-.003v.338h5.93c.051-.002 5.104-.219 5.104-5.632v-.46zm-7.602 4.299l.025-9.221c0-.001-.013-.114.064-.204.061-.072.165-.113.31-.12h1.323c.038.002 3.78.34 3.804 5.476-.024 5.134-3.766 5.473-3.8 5.475h-.558c-1.002 0-1.167-1.398-1.168-1.406z"/><path d="M35.427 15.87c-.533-.535-.503-1.561-.502-1.574V6.681c0-.006-.028-.7.413-1.147.249-.253.602-.38 1.047-.38h.054v-.322h-3.275l-3.33 8.52-3.343-8.486-.013-.034-3.361-.004v.338l.05.004c.054.005 1.33.13 1.33 1.275v7.321c0 .012.077 1.31-.594 2-.275.284-.642.428-1.09.428h-.054v.358h4.047v-.36h-.297c-.441 0-.794-.134-1.05-.398-.53-.548-.474-1.484-.473-1.498V6.451l3.952 9.937c.002.007.056.16.203.16 0 0 .017.002.042.002.118 0 .213-.052.263-.15.002-.005.242-.65.887-1.169.095-.062.246-.248.119-.518 0 0-.056-.083-.124-.22l-.045-.087c-.073-.145-.09-.177-.196-.436L33.18 6.2v8.096c0 .019-.042 1.897-1.68 1.897h-.298v.359h5.35v-.36h-.298c-.335 0-.613-.109-.827-.323m6.297-11.731c-2.852 0-5.172 2.784-5.172 6.207 0 3.422 2.32 6.207 5.172 6.207s5.173-2.785 5.173-6.207c0-3.423-2.32-6.207-5.173-6.207m-.047 11.994c-.125 0-3.073-.065-3.113-5.788.04-5.725 2.988-5.79 3.125-5.79.125 0 3.073.065 3.113 5.789-.04 5.724-2.988 5.789-3.113 5.789l-.006.053.001-.053h-.007M74.138 4.138c-2.852 0-5.172 2.784-5.172 6.207 0 3.422 2.32 6.207 5.172 6.207s5.172-2.785 5.172-6.207c0-3.423-2.32-6.207-5.172-6.207m-.047 11.994c-.125 0-3.073-.065-3.112-5.788.039-5.725 2.987-5.79 3.124-5.79.125 0 3.073.065 3.113 5.789-.04 5.724-2.987 5.789-3.113 5.789l-.006.053.002-.053h-.008M68.345 4.184c-.649.432-1.122.466-1.251.466-.024 0-.037-.002-.043-.002h-6.52c-.001 0-.015.002-.039.002-.13 0-.603-.034-1.251-.466l-.068-.046-.552 3.936.239.083.018-.045c.007-.015.69-1.576 1.092-2.12.004-.008.584-.895 1.712-.895h1.22v9.532c-.004.065-.09 1.578-1.5 1.578h-.053v.345h4.889v-.345h-.053c-.462 0-.826-.138-1.084-.413-.432-.46-.416-1.154-.416-1.162V5.097h1.22c1.128 0 1.707.887 1.715.899.398.54 1.081 2.101 1.087 2.116l.02.045.239-.083-.553-3.936-.068.046m38.896-.046c-2.852 0-5.172 2.784-5.172 6.207 0 3.422 2.32 6.207 5.172 6.207 2.853 0 5.173-2.785 5.173-6.207 0-3.423-2.32-6.207-5.173-6.207m-.046 11.995c-.126 0-3.073-.066-3.113-5.788.04-5.726 2.987-5.791 3.124-5.791.126 0 3.074.065 3.113 5.79-.039 5.723-2.987 5.79-3.113 5.79l-.006.052.001-.053h-.006m-4.497-14.394h.06v-.36h-6.44v.36h.06c.02 0 2.144.024 2.144 1.467v13.972c0 .018-.023 1.803-.83 1.849-.005 0-.49.022-.57-.274-.013-.055-.331-1.361-1.455-1.361-.017 0-.435-.015-.771.26-.274.224-.413.567-.413 1.025 0 .013.09 1.32 1.63 1.32h.002c.002 0 .05.003.133.003.395 0 1.59-.073 2.615-.889 1.165-.93 1.734-2.484 1.69-4.62V3.206c0-1.442 2.057-1.467 2.145-1.467m45.372 9.589l1.546-4.687 1.532 4.687h-3.077zm16.413 1.054l-.04.123c-1.045 3.245-3.011 3.497-3.588 3.497-.13 0-.208-.012-.216-.012-1.074 0-1.512-.424-1.514-.426-.18-.202-.228-.984-.232-1.268v-7.98c.001-.064.053-1.565 1.461-1.565h.052v-.329h-4.845v.337l.052.002c.057.001 1.402.04 1.402 1.424v8.085c0 1.523-1.121 1.728-1.443 1.755-1.057-.046-1.538-1.643-1.543-1.659l-3.05-9.969c-.047-.172-.108-.26-.18-.26-.002 0-.005 0-.009.002l-.009-.001a.233.233 0 0 0-.154.069c-.042.024-.179.123-.44.507-.002.003-.223.286-.718.505l-.186.074c-.006.002-.165.059-.188.189a.166.166 0 0 0-.01.098c.018.11.123.232.312.364l-2.886 8.339c-.004.017-.47 1.746-1.63 1.746h-.053v.37h3.288v-.378l-.061.009s-.077.01-.189.01c-.218 0-.614-.042-.825-.33-.182-.249-.196-.63-.04-1.137l.877-2.661h3.46l.529 1.615c.003.013.336 1.225.363 1.49.002.004.128.392-.08.682-.155.22-.46.33-.905.33h-.053v.37h12.985l.5-3.625-.194-.392zm-152.877-.325l-.015.038c-1.462 3.72-3.98 3.827-4.263 3.827H5.446c-.05.003-.1.003-.15 0h-.042a1.148 1.148 0 0 1-.317-.06 1.31 1.31 0 0 1-.864-.764 1.225 1.225 0 0 1-.08-.32 3.807 3.807 0 0 1-.04-.446V8.537c.071-.009.225-.024.431-.024.943 0 3.19.319 3.717 3.273l.008.043h.298V4.915H8.1v.054c0 2.828-2.52 3.134-3.603 3.134-.264 0-.46-.017-.544-.027v-6.76c0-.25.122-.258.133-.259.315-.04.676-.06 1.074-.06 1.362 0 2.74.24 2.746.24 1.492.51 3.062 3.082 3.078 3.108l.025.041.29-.148-.02-.048c-.009-.02-.91-2.138-1.105-3.144C10.016.233 9.38.313 9.38.313 6.655.592.325.62.261.62H.209v.308h.052c.52 0 .923.153 1.199.452.44.479.404 1.18.403 1.19v10.249c-.043 1.254-.099 1.748-.169 2.011a1.31 1.31 0 0 1-.077.24 1.362 1.362 0 0 1-.177.292c-.013.016-.025.033-.04.048-.014.017-.032.034-.047.051-.031.03-.063.06-.095.085-.432.357-1.13.559-1.138.562l-.038.01v.25h10.834l.964-4.27-.274-.04m116.66-1.714h-.86V4.76l.001-.007-.004-.009c0-.001-.003-.017.014-.04.039-.048.2-.163.848-.163.112.004 2.478.119 2.478 2.866v.073c0 2.754-2.377 2.861-2.477 2.864zm13.47-6.199v.341l.046.005c.069.009 1.657.207 1.657 1.631v6.857a2203.905 2203.905 0 0 1-6.106-8.834l-3.291-.003v.35l.045.008c.068.01 1.67.276 1.654 1.893v7.415c0 .012-.004 1.16-.631 1.802-.205.21-.456.342-.746.4a1.385 1.385 0 0 1-.793-.493l-3.454-4.94c1.165-.277 2.512-1.045 2.512-3.11V7.4c0-1.313-.566-2.29-1.639-2.824-.835-.417-1.716-.438-1.884-.438h-4.964v.401l.073.002c.014 0 1.387.09 1.387 1.068v8.9c0 1.463-1.14 1.537-1.37 1.537h-.036l-.058-.004v.382h4.809v-.384l-.06.005a1.543 1.543 0 0 1-.902-.227c-.384-.254-.58-.694-.58-1.309v-3.78h.408l3.962 5.674.016.023 6.094-.002v-.384h-.053c-1.63-.03-1.64-1.705-1.638-1.776V6.2l7.115 10.158.012.014c.062.077.155.179.266.179.185 0 .231-.157.236-.164l.005-.013c.21-.816.552-1.25.555-1.253.203-.248.213-.352.213-.36.039-.239-.113-.354-.118-.358l-.059-.066c-.27-.27-.27-.304-.359-.452a4.893 4.893 0 0 0-.062-.103v-.002l-.008-.013V6.086c.002-.065.056-1.604 1.475-1.604h.052v-.337h-3.781zm-21.46.369h.106c1.47 0 1.61 1.585 1.616 1.648v6.205c0 3.181-2.752 3.27-2.868 3.273-2.578 0-2.737-3.323-2.737-3.353V5.58c.002-.044.088-1.067 1.276-1.067h.106v-.36l-4.618.01h-.054v.347l.052.003c.053.002 1.305.063 1.305 1.144v6.791c.003.042.254 4.099 3.91 4.098 0 0 .057.005.156.005.625 0 3.75-.195 3.89-4.051l.184-6.602c.001-.055.069-1.36 1.484-1.36h.054v-.401l-3.862.009v.367"/></g></svg>