<?xml version="1.0" encoding="UTF-8" standalone="no"?>
<svg width="100px" height="100px" viewBox="0 0 100 100" version="1.1" xmlns="http://www.w3.org/2000/svg" xmlns:xlink="http://www.w3.org/1999/xlink">
    <!-- Generator: Sketch 50.2 (55047) - http://www.bohemiancoding.com/sketch -->
    <title>CH_Masthead_RGB</title>
    <desc>Created with Sketch.</desc>
    <defs></defs>
    <g id="Styles" stroke="none" stroke-width="1" fill="none" fill-rule="evenodd">
        <g id="Market-Branding" transform="translate(-61.000000, -644.000000)">
            <g id="CH_Masthead_RGB" transform="translate(61.000000, 644.000000)">
                <polygon id="Fill-1" fill="#5A83AE" points="0 99.9742489 99.9420601 99.9742489 99.9420601 0.0583690987 0 0.0583690987"></polygon>
                <polyline id="Fill-3" fill="#366091" points="5.14978541 35.7188841 28.4875536 12.3815451 94.7922747 78.6866953 94.7922747 5.44678112 5.14978541 5.44678112 5.14978541 35.7188841"></polyline>
                <path d="M20.5369099,66.8708155 C19.3841202,67.7519313 17.2356223,68.5042918 15.3356223,68.5042918 C10.6364807,68.5042918 7.88025751,65.0137339 7.88025751,58.2660944 C7.88025751,51.3407725 11.4703863,47.9669528 15.4416309,47.9669528 C17.2781116,47.9669528 19.1004292,48.6214592 20.2961373,49.4437768 L20.5025751,54.8609442 L19.9690987,54.8609442 L19.3493562,53.3369099 C18.239485,50.6077253 17.0433476,48.7502146 15.248927,48.7502146 C12.9437768,48.7502146 11.193133,51.8690987 11.193133,57.7373391 C11.193133,64.2798283 12.9227468,67.760515 15.4639485,67.760515 C17.2566524,67.760515 18.2828326,66.1862661 19.5845494,63.1360515 L20.2038627,61.6686695 L20.7377682,61.6686695 L20.5369099,66.8708155" id="Fill-4" fill="#FFFFFE"></path>
                <path d="M55.5549356,62.4480687 C54.7343348,62.695279 54.6034335,63.3274678 54.6034335,64.7948498 L54.6034335,65.0193133 C54.6034335,66.3961373 54.6034335,66.5995708 55.3416309,66.9845494 L55.3416309,67.4351931 C54.3064378,68.0214592 52.2699571,68.4506438 50.4635193,68.4506438 C47.0463519,68.4506438 44.4021459,65.7648069 44.4021459,60.5733906 C44.4021459,55.2476395 47.6373391,52.6527897 50.693133,52.6527897 C52.1051502,52.6527897 53.5626609,53.2141631 54.4832618,53.8467811 L54.5866953,57.911588 L54.1751073,57.911588 L53.6987124,56.7815451 C52.8283262,54.7283262 51.9579399,53.4643777 50.5454936,53.4643777 C48.7390558,53.4643777 47.4244635,55.7214592 47.4244635,60.1665236 C47.4244635,65.2008584 48.755794,67.6360515 50.7094421,67.6360515 C52.1214592,67.6360515 52.4669528,66.7579399 52.4669528,65.7420601 L52.4669528,65.3587983 C52.4669528,63.193133 52.2862661,62.7403433 51.3660944,62.4686695 L50.8240343,62.3128755 L50.8240343,61.860515 C51.1527897,61.860515 52.9429185,61.9055794 53.5339056,61.9055794 C54.1257511,61.9055794 55.6536481,61.860515 56.0150215,61.860515 L56.0150215,62.3128755 L55.5549356,62.4480687" id="Fill-5" fill="#FFFFFE"></path>
                <path d="M91.4781116,53.2896996 C90.3613734,53.6497854 89.983691,54.4180258 89.2133047,56.2686695 L86.8957082,61.8206009 L86.8957082,63.5579399 C86.8957082,67.0111588 87.011588,67.3042918 88.127897,67.62103 L88.6699571,67.7793991 L88.6699571,68.2300429 C88.3579399,68.2300429 86.1399142,68.1841202 85.548927,68.1841202 C84.9575107,68.1841202 82.7399142,68.2300429 82.4270386,68.2300429 L82.4270386,67.7793991 L82.9703863,67.62103 C84.0866953,67.3042918 84.2021459,67.0111588 84.2021459,63.5579399 L84.2021459,62.1145923 L81.1635193,55.3429185 C80.6042918,54.1463519 80.160515,53.5824034 79.372103,53.3120172 L79.0450644,53.1982833 L79.0450644,52.7476395 C79.355794,52.7476395 81.2454936,52.7927039 81.8356223,52.7927039 C82.4111588,52.7927039 84.9407725,52.7476395 85.2369099,52.7476395 L85.2369099,53.1982833 L84.8918455,53.2896996 C84.1858369,53.4695279 84.0042918,53.8317597 84.0042918,54.2137339 C84.0042918,54.5532189 84.1025751,54.8467811 84.367382,55.5008584 L86.5017167,60.7377682 L88.3257511,55.9519313 C88.5875536,55.2532189 88.7030043,54.8240343 88.7030043,54.3051502 C88.7030043,53.8317597 88.4064378,53.4695279 87.8656652,53.3120172 L87.4708155,53.1982833 L87.4708155,52.7476395 C87.7815451,52.7476395 89.1948498,52.7927039 89.8038627,52.7927039 C90.3957082,52.7927039 91.4454936,52.7476395 91.7583691,52.7476395 L91.7583691,53.1982833 L91.4781116,53.2896996" id="Fill-6" fill="#FFFFFE"></path>
                <path d="M21.123176,91.7188841 C20.3532189,91.7188841 17.6416309,91.776824 17.2364807,91.776824 L17.2364807,91.1982833 L17.9403433,90.9969957 C19.2429185,90.62103 19.3725322,90.1862661 19.3725322,85.7896996 L19.3725322,82.1532189 L13.476824,82.1532189 L13.476824,85.7896996 C13.476824,90.1862661 13.604721,90.62103 14.906867,90.9969957 L15.6120172,91.1982833 L15.6120172,91.776824 C15.206867,91.776824 12.495279,91.7188841 11.7261803,91.7188841 C10.9566524,91.7188841 8.7360515,91.776824 8.30987124,91.776824 L8.30987124,91.1982833 L9.01416309,90.9969957 C10.0824034,90.67897 10.4845494,89.8690987 10.4845494,85.8201717 L10.4845494,77.895279 C10.4845494,73.8459227 10.0824034,73.0377682 9.01416309,72.7188841 L8.30987124,72.5167382 L8.30987124,71.9381974 C8.7360515,71.9381974 10.9566524,71.9965665 11.7261803,71.9965665 C12.495279,71.9965665 15.206867,71.9381974 15.6120172,71.9381974 L15.6120172,72.5167382 L14.906867,72.7188841 C13.604721,73.095279 13.476824,73.5296137 13.476824,77.9253219 L13.476824,81.2635193 L19.3725322,81.2635193 L19.3725322,77.9253219 C19.3725322,73.5296137 19.2429185,73.095279 17.9403433,72.7188841 L17.2364807,72.5167382 L17.2364807,71.9381974 C17.6416309,71.9381974 20.3532189,71.9965665 21.123176,71.9965665 C21.8918455,71.9965665 24.0982833,71.9381974 24.5244635,71.9381974 L24.5244635,72.5167382 L23.8218884,72.7188841 C22.7540773,73.0377682 22.355794,73.8459227 22.355794,77.895279 L22.355794,85.8201717 C22.355794,89.8690987 22.7540773,90.67897 23.8218884,90.9969957 L24.5244635,91.1982833 L24.5244635,91.776824 C24.0982833,91.776824 21.8918455,91.7188841 21.123176,91.7188841" id="Fill-7" fill="#FFFFFE"></path>
                <path d="M34.9266094,91.7484979 L33.2193133,91.7484979 C32.2987124,91.7484979 29.160515,91.7257511 28.5695279,91.7257511 C27.9961373,91.7257511 26.0072961,91.7703863 25.67897,91.7703863 L25.67897,91.3201717 L26.2206009,91.1618026 C27.0424893,90.9128755 27.1746781,90.2811159 27.1746781,87.1218884 L27.1746781,80.9386266 C27.1746781,77.7776824 27.0424893,77.1463519 26.2206009,76.8974249 L25.67897,76.739485 L25.67897,76.2888412 C26.0072961,76.2888412 28.1600858,76.332618 28.7330472,76.332618 C29.3244635,76.332618 32.9553648,76.3107296 33.2515021,76.3107296 L34.5665236,76.3107296 L35.0742489,80.1244635 L34.7141631,80.1244635 L34.1390558,79.0871245 C33.4158798,77.7776824 32.7103004,77.1695279 31.3463519,77.1695279 L31.1991416,77.1695279 C30.7223176,77.1695279 30.27897,77.2356223 29.867382,77.3261803 L29.867382,83.2849785 L30.7381974,83.2399142 C32.6274678,83.1497854 32.8909871,82.6313305 33.0051502,81.2532189 L33.0214592,81.0502146 L33.4158798,81.0502146 C33.4158798,81.5463519 33.3824034,82.9223176 33.3824034,83.7356223 C33.3824034,84.5703863 33.4158798,86.0832618 33.4158798,86.5566524 L33.0214592,86.5566524 L33.0051502,86.3540773 C32.8909871,84.9776824 32.6927039,84.3901288 30.7381974,84.2772532 L29.867382,84.232618 L29.867382,88.1596567 C29.867382,90.5060086 30.1145923,90.9356223 31.5429185,90.9356223 L31.7553648,90.9356223 C33.0390558,90.9356223 33.6948498,90.4386266 34.6317597,88.7690987 L35.0905579,87.9566524 L35.4527897,87.9566524 L34.9266094,91.7484979" id="Fill-8" fill="#FFFFFE"></path>
                <path d="M73.4459227,60.6467811 C73.2154506,60.6467811 73.0347639,60.6244635 72.9206009,60.6017167 L72.9206009,53.5824034 C73.1497854,53.5364807 73.4957082,53.4918455 73.8729614,53.4918455 C75.1703863,53.4918455 75.7287554,54.8240343 75.7287554,56.9223176 C75.7287554,59.6763948 74.6944206,60.6467811 73.4459227,60.6467811 Z M59.9875536,61.8652361 L61.711588,55.2755365 L63.4197425,61.8652361 L59.9875536,61.8652361 Z M80.5914163,67.7549356 C79.9171674,67.6412017 79.3377682,67.3373391 78.5051502,65.706867 L75.9103004,60.6699571 C77.3875536,59.9472103 78.472103,58.5480687 78.472103,56.6519313 C78.472103,54.0111588 76.6978541,52.7699571 74.1356223,52.7699571 C73.4120172,52.7699571 72.2630901,52.7927039 71.672103,52.7927039 C71.0811159,52.7927039 69.0600858,52.7476395 68.7313305,52.7476395 L68.7313305,53.1982833 L69.2729614,53.3570815 C70.0948498,53.6051502 70.2261803,54.2377682 70.2261803,57.3961373 L70.2261803,63.5806867 C70.2261803,66.7055794 70.0965665,67.3570815 69.2987124,67.6107296 C68.9373391,67.723176 68.6781116,67.6798283 68.5502146,67.6412017 C67.8540773,67.3523605 67.4909871,66.5798283 67.1321888,65.2712446 L64.4369099,55.5030043 L64.4399142,55.5030043 L63.6798283,52.7476395 L61.0424893,52.7476395 L61.406867,54.0630901 L58.3596567,64.551073 C57.8012876,66.4686695 57.2107296,67.4399142 56.4377682,67.7098712 L56.2412017,67.77897 L56.2412017,68.2291845 C56.5690987,68.2291845 57.7356223,68.1841202 58.327897,68.1841202 C58.9197425,68.1841202 59.9712446,68.2291845 60.2660944,68.2291845 L60.2660944,67.77897 L59.8875536,67.6892704 C59.1154506,67.5055794 58.951073,67.0098712 58.951073,66.4454936 C58.951073,65.8819742 59.1154506,65.1381974 59.3128755,64.4154506 L59.7540773,62.6849785 L63.627897,62.6922747 L64.2587983,65.0927039 C64.4218884,65.7248927 64.5030043,66.2206009 64.5030043,66.5360515 C64.5030043,67.1678112 64.2742489,67.5055794 63.4858369,67.6892704 L63.0746781,67.77897 L63.0746781,68.2291845 C63.3703863,68.2291845 65.5549356,68.1841202 66.1463519,68.1841202 C66.583691,68.1841202 67.7862661,68.2098712 68.5502146,68.2223176 L69.1060086,68.2227468 C69.8871245,68.2107296 71.1193133,68.1841202 71.5725322,68.1841202 C72.1635193,68.1841202 74.251073,68.2291845 74.5630901,68.2291845 L74.5630901,67.7793991 L74.0206009,67.6197425 C73.0184549,67.3270386 72.9206009,66.9892704 72.9206009,63.5579399 L72.9206009,61.2339056 C73.0184549,61.2566524 73.1334764,61.27897 73.2480687,61.27897 L75.7420601,66.244206 C76.4137339,67.6154506 77.4652361,68.3145923 78.8218884,68.3188841 C79.5072961,68.3167382 80.127897,68.2725322 80.5914163,68.1841202 L80.5914163,67.7549356 Z M78.8347639,68.3197425 C78.8300429,68.3197425 78.8261803,68.3188841 78.8218884,68.3188841 C78.804721,68.3188841 78.7888412,68.3197425 78.772103,68.3197425 L78.8347639,68.3197425 Z" id="Fill-9" fill="#FFFFFE"></path>
                <path d="M25.1776824,61.8652361 L26.9012876,55.2755365 L28.6094421,61.8652361 L25.1776824,61.8652361 Z M43.511588,63.8969957 L42.9042918,65.1613734 C42.0982833,66.8300429 41.5077253,67.3957082 40.3733906,67.3957082 L40.2261803,67.3957082 C38.7961373,67.3957082 38.5506438,66.9643777 38.5506438,64.6193133 L38.5506438,57.4193133 C38.5506438,53.9669528 38.6652361,53.672103 39.7824034,53.3570815 L40.3244635,53.1982833 L40.3244635,52.7476395 C40.0120172,52.7476395 37.7948498,52.7927039 37.2038627,52.7927039 C36.6124464,52.7927039 34.6896996,52.7476395 34.3613734,52.7476395 L34.3613734,53.1982833 L34.9034335,53.3570815 C35.7261803,53.6051502 35.8566524,54.2377682 35.8566524,57.3969957 L35.8566524,63.5806867 C35.8566524,66.4699571 35.7459227,67.2446352 35.0978541,67.5450644 C34.411588,67.8030043 33.9188841,67.6978541 33.7381974,67.6403433 C33.0429185,67.351073 32.6806867,66.5785408 32.3218884,65.2712446 L28.8665236,52.7476395 L26.2253219,52.7476395 L26.5927039,54.0755365 L23.5497854,64.551073 C22.9909871,66.4686695 22.4004292,67.4399142 21.627897,67.7098712 L21.4313305,67.77897 L21.4313305,68.2291845 C21.7587983,68.2291845 22.9253219,68.1841202 23.5175966,68.1841202 C24.1094421,68.1841202 25.1613734,68.2291845 25.4562232,68.2291845 L25.4562232,67.77897 L25.0772532,67.6892704 C24.3051502,67.5055794 24.1412017,67.0098712 24.1412017,66.4454936 C24.1412017,65.8819742 24.3051502,65.1381974 24.5025751,64.4154506 L24.9437768,62.6849785 L28.8180258,62.6922747 L29.4484979,65.0927039 C29.611588,65.7248927 29.693133,66.2206009 29.693133,66.5360515 C29.693133,67.1678112 29.4639485,67.5055794 28.6759657,67.6892704 L28.2643777,67.77897 L28.2643777,68.2291845 C28.5600858,68.2291845 30.7446352,68.1841202 31.3360515,68.1841202 C31.8854077,68.1841202 34.2957082,68.2287554 34.2957082,68.2287554 C34.9133047,68.2253219 36.9819742,68.1841202 37.5493562,68.1841202 C38.139485,68.1841202 40.5214592,68.206867 41.4583691,68.206867 L43.2484979,68.206867 L43.9055794,63.8969957 L43.511588,63.8969957 Z" id="Fill-10" fill="#FFFFFE"></path>
                <path d="M75.2939914,91.8090129 C73.7343348,91.8090129 73.1270386,91.7424893 72.3712446,91.7424893 C71.77897,91.7424893 69.8412017,91.7875536 69.527897,91.7875536 L69.527897,91.3364807 L70.0708155,91.1781116 C70.893133,90.9296137 71.023176,90.2978541 71.023176,87.1377682 L71.023176,80.9545064 C71.023176,77.7939914 70.893133,77.1618026 70.0708155,76.9141631 L69.527897,76.7553648 L69.527897,76.3051502 C69.8412017,76.3051502 71.1377682,76.3502146 71.7291845,76.3502146 C72.3712446,76.3502146 74.0300429,76.3051502 74.7686695,76.3051502 C78.8905579,76.3051502 81.6017167,79.193133 81.6017167,84.0914163 C81.6017167,89.0562232 78.9412017,91.8090129 75.2939914,91.8090129 M74.4892704,77.1171674 C74.2103004,77.1171674 73.8978541,77.1407725 73.7175966,77.1618026 L73.7175966,88.288412 C73.7175966,90.3424893 74.1124464,91.0424893 75.4429185,91.0424893 C77.3484979,91.0424893 78.57897,88.8291845 78.57897,84.272103 C78.57897,79.6 77.3150215,77.1171674 74.4892704,77.1171674" id="Fill-11" fill="#FFFFFE"></path>
                <path d="M50.3420601,85.3862661 L52.0656652,78.7961373 L53.7738197,85.3862661 L50.3420601,85.3862661 Z M68.6759657,87.4321888 L68.0686695,88.6961373 C67.2622318,90.3643777 66.6716738,90.9300429 65.5381974,90.9300429 L65.3905579,90.9300429 C63.960515,90.9300429 63.7150215,90.4995708 63.7150215,88.1540773 L63.7150215,80.9545064 C63.7150215,77.5017167 63.8296137,77.206867 64.9467811,76.8918455 L65.488412,76.7330472 L65.488412,76.2824034 C65.1759657,76.2824034 62.9592275,76.3274678 62.3678112,76.3274678 C61.776824,76.3274678 59.8536481,76.2824034 59.5257511,76.2824034 L59.5257511,76.7330472 L60.0678112,76.8918455 C60.8905579,77.139485 61.02103,77.7725322 61.02103,80.9317597 L61.02103,87.1154506 C61.02103,90.004721 60.9098712,90.7793991 60.2622318,91.0802575 C59.5759657,91.3377682 59.0832618,91.2330472 58.9025751,91.1751073 C58.2072961,90.8858369 57.8446352,90.1137339 57.4862661,88.8060086 L54.0309013,76.2824034 L51.3927039,76.2824034 L51.7587983,77.6051502 L48.7137339,88.0858369 C48.3364807,89.3819742 47.9424893,90.2369099 47.4892704,90.744206 C47.42103,90.8077253 47.3381974,90.8553648 47.27897,90.8660944 L47.27897,91.7381974 C48.6515021,91.7343348 50.32103,91.7484979 50.6201717,91.7579399 L50.6201717,91.3141631 L50.2416309,91.2244635 C49.4695279,91.0407725 49.3055794,90.5446352 49.3055794,89.9806867 C49.3055794,89.4171674 49.4695279,88.6729614 49.6669528,87.9502146 L50.1081545,86.2197425 L53.9824034,86.2266094 L54.6128755,88.6274678 C54.7755365,89.2596567 54.8575107,89.755794 54.8575107,90.0708155 C54.8575107,90.7030043 54.6283262,91.0407725 53.8403433,91.2244635 L53.4287554,91.3141631 L53.4287554,91.7635193 C53.7244635,91.7635193 55.9090129,91.7188841 56.5004292,91.7188841 C57.0497854,91.7188841 59.4600858,91.7635193 59.4600858,91.7635193 C60.0776824,91.7600858 62.1459227,91.7188841 62.7137339,91.7188841 C63.3038627,91.7188841 65.6854077,91.7416309 66.6223176,91.7416309 L68.4124464,91.7416309 L69.0699571,87.4321888 L68.6759657,87.4321888 Z" id="Fill-12" fill="#FFFFFE"></path>
                <path d="M41.6412017,84.167382 C41.416309,84.167382 41.2364807,84.1463519 41.1218884,84.1236052 L41.1218884,77.1090129 C41.3515021,77.0630901 41.6974249,77.0180258 42.0746781,77.0180258 C42.5609442,77.0180258 42.9433476,77.2051502 43.2313305,77.5502146 C43.2626609,77.5875536 43.2914163,77.6296137 43.3206009,77.6708155 C43.3347639,77.6909871 43.3502146,77.7094421 43.3643777,77.7304721 C43.7497854,78.3248927 43.9266094,79.2622318 43.9266094,80.4424893 C43.9266094,83.1961373 42.8909871,84.167382 41.6412017,84.167382 Z M47.7553648,90.8476395 C47.4922747,90.6090129 47.2167382,90.2506438 46.9064378,89.704721 C46.8330472,89.5656652 46.7549356,89.4154506 46.6703863,89.248927 L44.5540773,85.1587983 L44.0806867,84.2407725 C45.5583691,83.5180258 46.6738197,82.088412 46.6738197,80.1922747 C46.6738197,79.3648069 46.4991416,78.6746781 46.1811159,78.1171674 C45.4845494,76.8914163 44.095279,76.3042918 42.3330472,76.3042918 C41.6098712,76.3042918 40.4596567,76.3261803 39.8686695,76.3261803 C39.2781116,76.3261803 37.2566524,76.2824034 36.9270386,76.2824034 L36.9270386,76.7321888 L37.4695279,76.8909871 C38.2896996,77.1399142 38.4223176,77.772103 38.4223176,80.9321888 L38.4223176,87.1145923 C38.4223176,90.2746781 38.2896996,90.906867 37.4695279,91.1549356 L36.9270386,91.3133047 L36.9270386,91.7643777 C37.2566524,91.7643777 39.1793991,91.7188841 39.7690987,91.7188841 C39.8540773,91.7188841 39.9729614,91.7197425 40.1103004,91.7214592 L40.1103004,91.7274678 C40.9257511,91.7364807 42.4969957,91.7695279 42.7648069,91.7695279 L42.7648069,91.3201717 L42.7596567,91.3184549 L42.7596567,91.3133047 L42.2175966,91.1549356 C41.9055794,91.0635193 41.6815451,90.967382 41.5201717,90.7755365 C41.1682403,90.348927 41.1218884,89.4506438 41.1218884,87.0987124 L41.1218884,84.7742489 C41.2193133,84.7965665 41.3339056,84.8188841 41.4476395,84.8188841 C41.4476395,84.8188841 43.9506438,89.8240343 43.9918455,89.8712446 C44.511588,90.8832618 45.2472103,91.5218884 46.1643777,91.7596567 C46.4832618,91.7463519 47.0815451,91.7403433 47.7553648,91.7381974 L47.7553648,90.8476395 Z" id="Fill-13" fill="#FFFFFE"></path>
            </g>
        </g>
    </g>
</svg>
