<?xml version="1.0" encoding="UTF-8" standalone="no"?>
<svg width="100px" height="100px" viewBox="0 0 100 100" version="1.1" xmlns="http://www.w3.org/2000/svg" xmlns:xlink="http://www.w3.org/1999/xlink">
    <!-- Generator: Sketch 50.2 (55047) - http://www.bohemiancoding.com/sketch -->
    <title>reimagined/branding/pillbox/oc</title>
    <desc>Created with Sketch.</desc>
    <defs></defs>
    <g id="Styles" stroke="none" stroke-width="1" fill="none" fill-rule="evenodd">
        <g id="Market-Branding" transform="translate(-61.000000, -356.000000)">
            <g id="broadsheets/branding/ottawa-citizen/pillbox" transform="translate(61.000000, 356.000000)">
                <g id="OC_Masthead_RGB">
                    <polygon id="Fill-1" fill="#9ACDB4" points="0 99.9742489 99.9420601 99.9742489 99.9420601 0.0579399142 0 0.0579399142"></polygon>
                    <polyline id="Fill-3" fill="#73A28B" points="94.7781116 92.5420601 94.7781116 5.22145923 64.6021459 5.22145923 64.5845494 5.2248927 94.7776824 92.6381974 94.7781116 92.5420601"></polyline>
                    <path d="M5.27167382,92.7527897 L35.6506438,5.22145923 C35.651073,5.22145923 5.16437768,5.22145923 5.16437768,5.22145923 L5.16437768,92.7566524 L5.27167382,92.7527897" id="Fill-4" fill="#73A28B"></path>
                    <path d="M53.344206,69.5111588 L55.2351931,63.9261803 L57.1240343,69.5111588 L53.344206,69.5111588 Z M57.1678112,61.606867 L55.2351931,61.606867 L51.755794,71.7888412 C51.1974249,73.4188841 49.7793991,73.8922747 49.1781116,73.8922747 L49.1781116,74.4939914 L54.0738197,74.4939914 L54.0738197,73.8922747 C52.7429185,73.8922747 52.3549356,73.4626609 52.3549356,72.7330472 C52.3549356,72.3875536 52.9150215,70.8008584 53.1296137,70.1128755 L57.3828326,70.1128755 L58.6708155,73.8922747 L56.7386266,73.8922747 L56.7386266,74.4939914 L63.5240343,74.4939914 L63.5240343,73.8922747 L61.5914163,73.8922747 L57.1678112,61.606867 L57.1678112,61.606867 Z" id="Fill-5" fill="#FFFFFE"></path>
                    <path d="M81.1175966,62.2072961 L81.1175966,61.606867 L76.3060086,61.606867 L76.3060086,62.2072961 C77.6369099,62.2072961 78.0236052,62.9390558 78.0236052,63.5403433 C78.0236052,63.6699571 78.0236052,63.7982833 77.9811159,63.8832618 L75.7896996,70.8420601 L72.8690987,62.2072961 L74.716309,62.2072961 L74.716309,61.606867 L68.3150215,61.606867 L68.3150215,62.2072961 L70.0339056,62.2072961 L70.5927039,64.0553648 L68.444206,70.8420601 L65.3957082,62.2072961 L67.0266094,62.2072961 L67.0266094,61.606867 L60.6266094,61.606867 L60.6266094,62.2072961 L62.4746781,62.2072961 L67.0690987,74.795279 L67.9283262,74.795279 L71.0648069,64.9583691 L74.5004292,74.795279 L75.3618026,74.795279 L78.5824034,64.3128755 C79.0974249,62.9390558 79.5708155,62.2072961 81.1175966,62.2072961" id="Fill-6" fill="#FFFFFE"></path>
                    <path d="M46.3283262,62.2072961 C47.4017167,62.2072961 47.6175966,62.4669528 49.3781116,66.4184549 L49.8939914,66.4184549 L49.8939914,61.606867 L37.8665236,61.606867 L37.8665236,66.4184549 L38.3811159,66.4184549 C40.1429185,62.4669528 40.3575107,62.2072961 41.432618,62.2072961 L42.5901288,62.2072961 L42.5901288,73.8922747 L40.2283262,73.8922747 L40.2283262,74.4939914 L47.5321888,74.4939914 L47.5321888,73.8922747 L45.1678112,73.8922747 L45.1678112,62.2072961 L46.3283262,62.2072961" id="Fill-7" fill="#FFFFFE"></path>
                    <path d="M15.1497854,74.3656652 C13.0025751,74.3656652 10.467382,73.2055794 10.467382,67.0188841 C10.467382,60.8330472 13.0025751,59.6742489 15.1497854,59.6742489 C17.2982833,59.6742489 19.8313305,60.8330472 19.8313305,67.0188841 C19.8313305,73.2055794 17.2982833,74.3656652 15.1497854,74.3656652 Z M15.1497854,59.0287554 C11.1982833,59.0287554 7.41759657,61.6918455 7.41759657,67.0188841 C7.41759657,72.3467811 11.1982833,75.0085837 15.1497854,75.0085837 C19.1025751,75.0085837 22.8811159,72.3467811 22.8811159,67.0188841 C22.8811159,61.6918455 19.1025751,59.0287554 15.1497854,59.0287554 L15.1497854,59.0287554 Z" id="Fill-8" fill="#FFFFFE"></path>
                    <path d="M24.223176,66.4184549 L24.7390558,66.4184549 C26.4995708,62.4669528 26.7154506,62.2072961 27.7888412,62.2072961 L28.9493562,62.2072961 L28.9493562,73.8922747 L26.5875536,73.8922747 L26.5875536,74.4939914 L33.8888412,74.4939914 L33.8888412,73.8922747 L31.5274678,73.8922747 L31.5274678,62.2072961 L32.6849785,62.2072961 C33.7596567,62.2072961 33.9746781,62.4669528 35.7360515,66.4184549 L36.2523605,66.4184549 L36.2523605,61.606867 L24.223176,61.606867 L24.223176,66.4184549" id="Fill-9" fill="#FFFFFE"></path>
                    <path d="M72.5386266,91.9824034 L69.316309,91.9824034 L69.316309,86.4407725 L69.9180258,86.4407725 C70.9060086,86.4407725 71.3793991,86.3120172 72.4961373,89.4467811 L73.0120172,89.4467811 L73.0120172,82.7896996 L72.4961373,82.7896996 C71.3793991,85.9248927 70.9060086,85.7965665 69.9180258,85.7965665 L69.316309,85.7965665 L69.316309,80.2982833 L72.9690987,80.2982833 C74.0416309,80.2982833 74.2562232,80.555794 76.0180258,84.5077253 L76.5343348,84.5077253 L76.5343348,79.6969957 L64.6356223,79.6969957 L64.6356223,80.2982833 L66.6107296,80.2982833 L66.6107296,91.9824034 L64.6356223,91.9824034 L64.6356223,92.5824034 L76.876824,92.5824034 L76.876824,87.5575107 L76.4476395,87.5575107 C74.1283262,91.7236052 74.1283262,91.9824034 72.5386266,91.9824034" id="Fill-10" fill="#FFFFFE"></path>
                    <path d="M82.8914163,69.5111588 L84.7815451,63.9261803 L86.6708155,69.5111588 L82.8914163,69.5111588 Z M86.7137339,61.606867 L84.7815451,61.606867 L81.3004292,71.7888412 C80.7429185,73.4188841 79.3253219,73.8922747 78.7227468,73.8922747 L78.7227468,74.4939914 L83.62103,74.4939914 L83.62103,73.8922747 C82.2901288,73.8922747 81.9030043,73.4626609 81.9030043,72.7330472 C81.9030043,72.3875536 82.4609442,70.8008584 82.6755365,70.1128755 L86.9296137,70.1128755 L88.2180258,73.8922747 L86.2841202,73.8922747 L86.2841202,74.4939914 L93.0725322,74.4939914 L93.0725322,73.8922747 L91.1373391,73.8922747 L86.7137339,61.606867 L86.7137339,61.606867 Z" id="Fill-11" fill="#FFFFFE"></path>
                    <path d="M52.648927,84.1660944 L53.1652361,84.1660944 C54.9257511,80.2128755 55.0107296,80.2982833 56.0858369,80.2982833 L59.0064378,80.2982833 L52.2622318,91.939485 L52.2622318,92.5824034 L63.1313305,92.5824034 L63.1313305,87.6424893 L62.7004292,87.6424893 C60.3802575,91.811588 60.5107296,91.9824034 58.6622318,91.9824034 L55.4828326,91.9824034 L61.7991416,81.2 C62.2270386,80.4703863 62.6150215,80.2982833 63.1313305,80.2982833 L63.1313305,79.6969957 L52.648927,79.6969957 L52.648927,84.1660944" id="Fill-12" fill="#FFFFFE"></path>
                    <path d="M87.2313305,79.6969957 L87.2313305,80.2982833 C88.2180258,80.2982833 89.7635193,80.9424893 89.7635193,83.0909871 L89.7635193,88.3746781 L82.6330472,79.6969957 L78.2506438,79.6969957 L78.2506438,80.2982833 C79.3695279,80.2982833 79.9266094,80.727897 80.7858369,81.8866953 L80.7858369,89.1909871 C80.7858369,91.3381974 79.2399142,91.9824034 78.2506438,91.9824034 L78.2506438,92.5824034 L84.093133,92.5824034 L84.093133,91.9824034 C83.1060086,91.9824034 81.5592275,91.3381974 81.5592275,89.1909871 L81.5592275,82.6613734 L89.72103,92.7133047 L90.5360515,92.7133047 L90.5360515,83.0909871 C90.5360515,80.9424893 92.0841202,80.2982833 93.0725322,80.2982833 L93.0725322,79.6969957 L87.2313305,79.6969957" id="Fill-13" fill="#FFFFFE"></path>
                    <polyline id="Fill-14" fill="#FFFFFE" points="43.9733906 80.2982833 45.9914163 80.2982833 45.9914163 91.9824034 43.9733906 91.9824034 43.9733906 92.5824034 50.8021459 92.5824034 50.8021459 91.9824034 48.7399142 91.9824034 48.7399142 80.2982833 50.8021459 80.2982833 50.8021459 79.6969957 43.9733906 79.6969957 43.9733906 80.2982833"></polyline>
                    <path d="M15.1484979,92.4545064 C13.4738197,92.4545064 10.5957082,91.1660944 10.5957082,85.1098712 C10.5957082,79.1806867 13.3017167,77.7635193 15.0635193,77.7635193 C16.8678112,77.7635193 19.5733906,78.4523605 20.1751073,82.5321888 L20.8193133,82.5321888 L20.8193133,77.1193133 C19.8751073,76.7334764 20.260515,77.9793991 19.0587983,77.9793991 C18.8,77.9793991 18.4987124,77.8922747 18.1141631,77.7206009 C17.1248927,77.2909871 16.2223176,77.1193133 15.1072961,77.1193133 C11.1103004,77.1193133 7.54549356,79.783691 7.54549356,85.1098712 C7.54549356,90.4364807 11.1545064,93.0982833 15.1072961,93.0982833 C17.4678112,93.0982833 20.5618026,92.4974249 20.9472103,87.2145923 L20.260515,87.2145923 C19.8751073,92.1103004 16.6944206,92.4545064 15.1484979,92.4545064" id="Fill-15" fill="#FFFFFE"></path>
                    <polyline id="Fill-16" fill="#FFFFFE" points="22.4944206 80.2982833 24.5575107 80.2982833 24.5575107 91.9824034 22.4944206 91.9824034 22.4944206 92.5824034 29.3690987 92.5824034 29.3690987 91.9824034 27.306867 91.9824034 27.306867 80.2982833 29.3690987 80.2982833 29.3690987 79.6957082 22.4944206 79.6957082 22.4944206 80.2982833"></polyline>
                    <path d="M30.7424893,84.5077253 L31.2575107,84.5077253 C33.0201717,80.555794 33.2339056,80.2982833 34.3072961,80.2982833 L35.4690987,80.2982833 L35.4690987,91.9824034 L33.1060086,91.9824034 L33.1060086,92.5824034 L40.4085837,92.5824034 L40.4085837,91.9824034 L38.0454936,91.9824034 L38.0454936,80.2982833 L39.2060086,80.2982833 C40.2793991,80.2982833 40.4939914,80.555794 42.255794,84.5077253 L42.7708155,84.5077253 L42.7708155,79.6969957 L30.7424893,79.6957082 L30.7424893,84.5077253" id="Fill-17" fill="#FFFFFE"></path>
                </g>
            </g>
        </g>
    </g>
</svg>
