<svg width="196" height="34" xmlns="http://www.w3.org/2000/svg" xmlns:xlink="http://www.w3.org/1999/xlink"><defs><path id="a" d="M.968.244h14.469v9.687H.967z"/><path id="c" d="M0 0h30.537v34H0z"/></defs><g fill="none" fill-rule="evenodd"><path d="M50.776 10.56l-3.29 1.81c-.618-.647-1.23-1.095-1.835-1.346-.604-.251-1.312-.377-2.123-.377-1.479 0-2.676.44-3.589 1.323-.913.882-1.369 2.012-1.369 3.39 0 1.34.44 2.434 1.32 3.282.88.848 2.033 1.272 3.464 1.272 1.77 0 3.146-.603 4.131-1.81l3.117 2.135c-1.688 2.197-4.073 3.295-7.152 3.295-2.772 0-4.94-.821-6.509-2.461-1.569-1.641-2.353-3.563-2.353-5.763a8.1 8.1 0 0 1 1.144-4.214c.762-1.283 1.826-2.293 3.192-3.026 1.366-.734 2.894-1.101 4.583-1.101 1.564 0 2.97.312 4.213.935a7.995 7.995 0 0 1 3.056 2.656m10.001.058c-1.222 0-2.236.432-3.045 1.295-.809.865-1.212 1.973-1.212 3.324 0 1.36.411 2.481 1.234 3.36.823.877 1.835 1.317 3.038 1.317 1.241 0 2.27-.433 3.088-1.297.818-.863 1.226-1.995 1.226-3.395 0-1.37-.408-2.48-1.226-3.33-.818-.85-1.852-1.274-3.103-1.274zm4.155-3.244h3.953v15.754h-3.953v-1.665c-.77.734-1.545 1.262-2.32 1.586a6.505 6.505 0 0 1-2.524.484c-2.035 0-3.794-.789-5.279-2.367-1.485-1.578-2.227-3.54-2.227-5.886 0-2.433.718-4.426 2.155-5.98 1.436-1.554 3.182-2.33 5.235-2.33.945 0 1.832.177 2.661.535.83.356 1.595.892 2.3 1.607V7.374zm7.95 0h3.953v1.615c.897-.756 1.709-1.281 2.437-1.577a5.873 5.873 0 0 1 2.233-.443c1.563 0 2.888.546 3.977 1.636.916.927 1.373 2.297 1.373 4.113v10.41h-3.91v-6.899c0-1.879-.084-3.128-.252-3.746-.168-.617-.462-1.087-.881-1.409-.42-.324-.937-.485-1.553-.485-.8 0-1.485.267-2.06.803-.571.535-.968 1.275-1.19 2.219-.115.492-.174 1.558-.174 3.197v6.32h-3.953V7.374zm24.685 3.244c-1.222 0-2.237.432-3.045 1.295-.809.865-1.213 1.973-1.213 3.324 0 1.36.412 2.481 1.235 3.36.822.877 1.835 1.317 3.037 1.317 1.242 0 2.271-.433 3.09-1.297.816-.863 1.225-1.995 1.225-3.395 0-1.37-.409-2.48-1.226-3.33-.818-.85-1.853-1.274-3.103-1.274zm4.155-3.243h3.952v15.753h-3.952v-1.665c-.77.734-1.545 1.262-2.32 1.586a6.5 6.5 0 0 1-2.524.484c-2.035 0-3.795-.789-5.28-2.367-1.484-1.578-2.226-3.54-2.226-5.886 0-2.433.717-4.426 2.154-5.98 1.437-1.554 3.182-2.33 5.236-2.33.945 0 1.831.177 2.66.535.831.356 1.596.892 2.3 1.607V7.375zm14.839 3.243c-1.222 0-2.236.432-3.045 1.296-.809.864-1.212 1.972-1.212 3.323 0 1.36.412 2.481 1.234 3.36.823.877 1.836 1.317 3.038 1.317 1.242 0 2.27-.433 3.088-1.297.817-.863 1.227-1.995 1.227-3.395 0-1.37-.41-2.48-1.228-3.33-.816-.85-1.85-1.274-3.102-1.274zm4.155-9.325h3.954v21.835h-3.954v-1.665c-.77.734-1.544 1.262-2.32 1.586a6.5 6.5 0 0 1-2.523.484c-2.035 0-3.794-.789-5.28-2.367-1.484-1.578-2.227-3.54-2.227-5.886 0-2.433.718-4.426 2.154-5.98 1.438-1.554 3.184-2.33 5.237-2.33a6.63 6.63 0 0 1 2.66.535c.83.356 1.596.892 2.3 1.607V1.293zm14.84 9.325c-1.221 0-2.236.432-3.045 1.296-.808.864-1.211 1.972-1.211 3.323 0 1.36.41 2.481 1.233 3.36.822.877 1.835 1.317 3.038 1.317 1.24 0 2.27-.433 3.089-1.297.817-.863 1.226-1.995 1.226-3.395 0-1.37-.41-2.48-1.226-3.33-.82-.85-1.853-1.274-3.104-1.274zm4.156-3.243h3.952v15.753h-3.952v-1.665c-.772.734-1.546 1.262-2.322 1.586a6.496 6.496 0 0 1-2.523.484c-2.034 0-3.794-.789-5.28-2.367-1.484-1.578-2.226-3.54-2.226-5.886 0-2.433.718-4.426 2.154-5.98 1.437-1.554 3.183-2.33 5.236-2.33.946 0 1.832.177 2.66.535.83.356 1.597.892 2.3 1.607V7.375zm27.758 8.023l-1.973 1.085c-.371-.39-.736-.658-1.1-.809-.362-.15-.785-.224-1.273-.224-.886 0-1.603.264-2.151.793-.547.527-.82 1.206-.82 2.032 0 .803.263 1.459.79 1.968.527.509 1.22.762 2.077.762 1.06 0 1.887-.363 2.477-1.085l1.869 1.28c-1.013 1.316-2.442 1.974-4.29 1.974-1.66 0-2.96-.491-3.9-1.474-.94-.985-1.411-2.136-1.411-3.456a4.866 4.866 0 0 1 2.6-4.34c.819-.44 1.735-.66 2.748-.66.937 0 1.779.188 2.526.56a4.806 4.806 0 0 1 1.83 1.594m6.611.078c-.737 0-1.35.256-1.839.768-.49.51-.735 1.168-.735 1.965 0 .822.241 1.489.726 1.997.484.509 1.097.764 1.84.764.74 0 1.36-.258 1.851-.772.492-.516.74-1.178.74-1.99 0-.808-.243-1.466-.727-1.973-.484-.506-1.103-.76-1.856-.76m-.04-2.23c.893 0 1.73.222 2.514.669a4.837 4.837 0 0 1 1.836 1.813c.44.764.66 1.589.66 2.474a4.96 4.96 0 0 1-.665 2.5 4.805 4.805 0 0 1-1.81 1.819 5.004 5.004 0 0 1-2.525.655c-1.356 0-2.51-.481-3.469-1.445-.957-.964-1.436-2.134-1.436-3.512 0-1.474.541-2.705 1.623-3.688.95-.858 2.04-1.285 3.272-1.285" fill="#000"/><g transform="translate(180 13)"><mask id="b" fill="#fff"><use xlink:href="#a"/></mask><path d="M.968.487h2.369v1.085a4.052 4.052 0 0 1 1.35-.998 3.944 3.944 0 0 1 1.62-.33c.592 0 1.125.144 1.598.433.476.29.858.713 1.148 1.268A3.84 3.84 0 0 1 10.439.677a3.78 3.78 0 0 1 1.794-.433c.67 0 1.262.156 1.77.47.51.311.877.72 1.1 1.222.223.504.335 1.322.335 2.457v5.538H13.05V5.14c0-1.07-.134-1.795-.4-2.173-.266-.379-.665-.569-1.197-.569-.406 0-.768.115-1.09.347-.321.231-.56.551-.716.96-.156.407-.235 1.062-.235 1.965v4.262H7.027V5.357c0-.846-.063-1.457-.187-1.836-.126-.38-.312-.66-.561-.846-.25-.186-.552-.278-.907-.278-.392 0-.752.116-1.074.352-.321.233-.561.562-.722.984-.16.423-.24 1.088-.24 1.997v4.201H.969V.487z" fill="#000" mask="url(#b)"/></g><path d="M17.771 17.321a3.166 3.166 0 1 1 .065-3.95l1.643-1.289a5.254 5.254 0 1 0-.085 6.553l-1.622-1.314z" fill="#050707"/><path d="M15.317.45C10.657.45 6.5 2.6 3.78 5.962a14.768 14.768 0 0 0-3.297 9.323c0 3.593 1.277 6.887 3.401 9.453l2.508-2.036a11.558 11.558 0 0 1-2.679-7.417c0-2.76.964-5.295 2.574-7.287a11.582 11.582 0 0 1 9.031-4.318c3.685 0 6.968 1.717 9.094 4.395l2.507-2.035a14.809 14.809 0 0 0-11.6-5.59" fill="#FFCC05"/><path d="M6.996 15.285c0-1.976.69-3.79 1.84-5.218l-2.55-2.069a11.556 11.556 0 0 0-2.574 7.287 11.56 11.56 0 0 0 2.68 7.417l2.55-2.069a8.287 8.287 0 0 1-1.946-5.348" fill="#F16622"/><path d="M15.317 23.606a8.301 8.301 0 0 1-6.375-2.974l-2.55 2.07a11.581 11.581 0 0 0 8.925 4.188c3.625 0 6.86-1.662 8.99-4.264l-2.55-2.07a8.3 8.3 0 0 1-6.44 3.05" fill="#EE3C24"/><path d="M15.317 3.68a11.584 11.584 0 0 0-9.03 4.318l2.55 2.07a8.303 8.303 0 0 1 6.48-3.104 8.306 8.306 0 0 1 6.544 3.18l2.55-2.068a11.583 11.583 0 0 0-9.094-4.395" fill="#CB1C68"/><path d="M23.639 15.285c0 2-.706 3.836-1.882 5.271l2.55 2.07c1.635-2 2.616-4.556 2.616-7.34 0-2.726-.94-5.23-2.512-7.21l-2.55 2.068a8.292 8.292 0 0 1 1.778 5.141" fill="#EC248F"/><path d="M15.317 20.525a5.227 5.227 0 0 1-3.982-1.835l-2.393 1.942a8.301 8.301 0 0 0 6.375 2.974 8.3 8.3 0 0 0 6.44-3.05l-2.393-1.942a5.23 5.23 0 0 1-4.047 1.911" fill="#0098CC"/><path d="M20.558 15.285a5.213 5.213 0 0 1-1.193 3.33l2.392 1.941a8.288 8.288 0 0 0 1.882-5.27 8.292 8.292 0 0 0-1.777-5.142l-2.394 1.944a5.205 5.205 0 0 1 1.09 3.197" fill="#0D9948"/><path d="M15.287 10.139c1.69 0 3.223.709 4.182 1.95l2.392-1.944a8.305 8.305 0 0 0-6.544-3.181 8.303 8.303 0 0 0-6.48 3.104l2.484 1.997c.961-1.197 2.312-1.926 3.966-1.926" fill="#50B748"/><path d="M8.942 20.633l2.393-1.942a5.216 5.216 0 0 1-1.258-3.406c0-1.24.524-2.323 1.244-3.22l-2.485-1.997a8.282 8.282 0 0 0-1.84 5.217c0 2.036.731 3.902 1.946 5.348" fill="#33C5F3"/><path d="M30.152 15.285c0 3.557-1.252 6.82-3.339 9.376a14.89 14.89 0 0 1-5.566 4.225h.012l-10.724 4.541v-4.096a14.867 14.867 0 0 1-6.652-4.593l2.508-2.036a11.578 11.578 0 0 0 8.926 4.188c3.625 0 6.86-1.662 8.99-4.264a11.56 11.56 0 0 0 2.616-7.34c0-2.726-.94-5.23-2.512-7.21l2.507-2.036a14.769 14.769 0 0 1 3.234 9.245" fill="#000"/><mask id="d" fill="#fff"><use xlink:href="#c"/></mask><path d="M15.268.43c-4.5 0-8.706 2.01-11.54 5.514A14.866 14.866 0 0 0 .43 15.269a14.85 14.85 0 0 0 10.056 14.049l.145.05v3.984l10.182-4.312.386-.168a14.947 14.947 0 0 0 5.568-4.226 14.867 14.867 0 0 0 3.34-9.377 14.68 14.68 0 0 0-3.235-9.248A14.773 14.773 0 0 0 15.268.43zM10.2 34v-4.326A15.273 15.273 0 0 1 3.393 5.673 15.216 15.216 0 0 1 15.268 0c4.67 0 9.022 2.098 11.94 5.752a15.113 15.113 0 0 1 3.329 9.517c0 3.509-1.221 6.935-3.437 9.649a15.393 15.393 0 0 1-4.8 3.905l.144-.005L10.2 34z" fill="#050505" mask="url(#d)"/><path d="M150.99 21.985a1.884 1.884 0 1 1 0-3.768 1.884 1.884 0 0 1 0 3.768m0-4.919a3.035 3.035 0 1 0 0 6.07 3.035 3.035 0 0 0 0-6.07" fill="#000"/></g></svg>