<svg width="41" height="45" xmlns="http://www.w3.org/2000/svg" xmlns:xlink="http://www.w3.org/1999/xlink"><defs><path id="a" d="M0 0h40.3v45H0z"/></defs><g fill="none" fill-rule="evenodd"><mask id="b" fill="#fff"><use xlink:href="#a"/></mask><path d="M25.551 25.532l-2.128-1.726a4.856 4.856 0 0 1-3.257 1.247 4.883 4.883 0 0 1-4.877-4.876 4.882 4.882 0 0 1 4.877-4.876c1.273 0 2.465.483 3.366 1.347l2.181-1.714.45.585a7.517 7.517 0 0 1 1.577 4.63 7.601 7.601 0 0 1-1.727 4.822l-.462.56zm-5.4-24.068A18.618 18.618 0 0 0 5.614 8.407 18.723 18.723 0 0 0 1.463 20.15a18.695 18.695 0 0 0 12.663 17.693l.496.169v4.78l12.563-5.32.433-.19a18.822 18.822 0 0 0 7.014-5.322 18.725 18.725 0 0 0 4.204-11.81c0-4.28-1.408-8.306-4.073-11.646a18.608 18.608 0 0 0-14.613-7.04zm7.623 37.272L13.158 45v-5.948A20.149 20.149 0 0 1 4.62 32.99 20.182 20.182 0 0 1 0 20.15c0-4.597 1.59-9.095 4.477-12.663A20.077 20.077 0 0 1 20.15 0c6.163 0 11.906 2.767 15.756 7.592A19.934 19.934 0 0 1 40.3 20.15c0 4.63-1.61 9.153-4.535 12.735a20.334 20.334 0 0 1-4.76 4.24l-3.23 1.61z" fill="#FFF" mask="url(#b)"/><path d="M23.363 22.815a4.144 4.144 0 1 1 .085-5.17l2.148-1.688a6.877 6.877 0 1 0-.111 8.579l-2.122-1.721z" fill="#050707"/><path d="M20.15.731c-6.101 0-11.543 2.814-15.104 7.215A19.34 19.34 0 0 0 .732 20.15c0 4.703 1.67 9.014 4.452 12.374l3.283-2.665a15.129 15.129 0 0 1-3.508-9.709c0-3.613 1.263-6.93 3.37-9.539a15.16 15.16 0 0 1 11.82-5.65c4.824 0 9.122 2.247 11.904 5.751l3.282-2.664C31.777 3.59 26.297.731 20.15.731" fill="#FFCC05"/><path d="M9.258 20.15c0-2.586.902-4.962 2.408-6.83l-3.337-2.71a15.128 15.128 0 0 0-3.37 9.54c0 3.692 1.318 7.076 3.508 9.708l3.338-2.71a10.85 10.85 0 0 1-2.547-6.998" fill="#F16622"/><path d="M20.15 31.043a10.867 10.867 0 0 1-8.345-3.895l-3.338 2.71A15.155 15.155 0 0 0 20.15 35.34c4.745 0 8.98-2.175 11.766-5.583l-3.337-2.709a10.871 10.871 0 0 1-8.43 3.995" fill="#EE3C24"/><path d="M20.15 4.959A15.16 15.16 0 0 0 8.329 10.61l3.337 2.71a10.871 10.871 0 0 1 8.484-4.062c3.476 0 6.57 1.628 8.566 4.163l3.337-2.709A15.16 15.16 0 0 0 20.15 4.959" fill="#CB1C68"/><path d="M31.043 20.15c0 2.618-.924 5.02-2.463 6.899l3.337 2.709a15.129 15.129 0 0 0 3.423-9.608c0-3.566-1.23-6.846-3.288-9.438l-3.337 2.709a10.848 10.848 0 0 1 2.328 6.729" fill="#EC248F"/><path d="M20.15 27.009a6.844 6.844 0 0 1-5.213-2.402l-3.132 2.542a10.867 10.867 0 0 0 8.345 3.894c3.397 0 6.43-1.556 8.429-3.994l-3.132-2.542a6.841 6.841 0 0 1-5.297 2.502" fill="#0098CC"/><path d="M27.009 20.15a6.828 6.828 0 0 1-1.562 4.357l3.132 2.542a10.85 10.85 0 0 0 2.464-6.9c0-2.54-.87-4.875-2.327-6.728l-3.133 2.543a6.827 6.827 0 0 1 1.426 4.186" fill="#0D9948"/><path d="M20.11 13.413c2.212 0 4.219.928 5.474 2.554l3.132-2.546a10.875 10.875 0 0 0-8.566-4.163 10.871 10.871 0 0 0-8.484 4.062l3.254 2.614c1.257-1.567 3.025-2.521 5.19-2.521" fill="#50B748"/><path d="M11.805 27.149l3.132-2.542a6.833 6.833 0 0 1-1.646-4.457c0-1.623.687-3.042 1.629-4.216l-3.254-2.614a10.845 10.845 0 0 0-2.408 6.83c0 2.665.958 5.106 2.547 6.999" fill="#33C5F3"/><path d="M35.335 8.048l-3.282 2.664a15.127 15.127 0 0 1 3.288 9.438c0 3.645-1.284 6.99-3.425 9.608A15.158 15.158 0 0 1 20.15 35.34a15.158 15.158 0 0 1-11.683-5.482l-3.283 2.665a19.447 19.447 0 0 0 8.707 6.01v5.362l14.037-5.944h-.017a19.492 19.492 0 0 0 7.287-5.53 19.343 19.343 0 0 0 4.37-12.272c0-4.577-1.584-8.783-4.233-12.102" fill="#000"/></g></svg>