<?xml version="1.0" encoding="UTF-8" standalone="no"?>
<svg width="196px" height="34px" viewBox="0 0 196 34" version="1.1" xmlns="http://www.w3.org/2000/svg" xmlns:xlink="http://www.w3.org/1999/xlink">
    <!-- Generator: Sketch 49.3 (51167) - http://www.bohemiancoding.com/sketch -->
    <title>Page 1</title>
    <desc>Created with Sketch.</desc>
    <defs>
        <polygon id="path-1" points="0.9678 0.2443 15.437 0.2443 15.437 9.9313 0.9678 9.9313"></polygon>
        <polygon id="path-3" points="0 0 30.5366 0 30.5366 33.9997 0 33.9997"></polygon>
    </defs>
    <g id="Navigation" stroke="none" stroke-width="1" fill="none" fill-rule="evenodd">
        <g id="canada-nav-amp" transform="translate(-90.000000, -9.000000)">
            <g id="Page-1" transform="translate(90.000000, 9.000000)">
                <path d="M50.7764,10.5596 L47.4854,12.3706 C46.8684,11.7226 46.2554,11.2746 45.6514,11.0236 C45.0474,10.7726 44.3394,10.6466 43.5284,10.6466 C42.0494,10.6466 40.8524,11.0876 39.9394,11.9696 C39.0264,12.8516 38.5704,13.9816 38.5704,15.3596 C38.5704,16.7006 39.0094,17.7936 39.8894,18.6416 C40.7694,19.4896 41.9234,19.9136 43.3544,19.9136 C45.1234,19.9136 46.5004,19.3106 47.4854,18.1036 L50.6024,20.2386 C48.9144,22.4356 46.5294,23.5336 43.4504,23.5336 C40.6784,23.5336 38.5094,22.7126 36.9414,21.0726 C35.3724,19.4316 34.5884,17.5096 34.5884,15.3096 C34.5884,13.7846 34.9694,12.3796 35.7324,11.0956 C36.4944,9.8126 37.5584,8.8026 38.9244,8.0696 C40.2904,7.3356 41.8184,6.9686 43.5074,6.9686 C45.0714,6.9686 46.4764,7.2806 47.7204,7.9036 C48.9664,8.5256 49.9844,9.4116 50.7764,10.5596" id="Fill-1" fill="#000000"></path>
                <path d="M60.7773,10.6182 C59.5553,10.6182 58.5413,11.0502 57.7323,11.9132 C56.9233,12.7782 56.5203,13.8862 56.5203,15.2372 C56.5203,16.5972 56.9313,17.7182 57.7543,18.5962 C58.5773,19.4742 59.5893,19.9142 60.7923,19.9142 C62.0333,19.9142 63.0623,19.4812 63.8803,18.6172 C64.6983,17.7542 65.1063,16.6222 65.1063,15.2222 C65.1063,13.8512 64.6983,12.7422 63.8803,11.8912 C63.0623,11.0422 62.0283,10.6182 60.7773,10.6182 Z M64.9323,7.3742 L68.8853,7.3742 L68.8853,23.1282 L64.9323,23.1282 L64.9323,21.4632 C64.1613,22.1972 63.3873,22.7252 62.6123,23.0492 C61.8353,23.3722 60.9953,23.5332 60.0883,23.5332 C58.0533,23.5332 56.2943,22.7442 54.8093,21.1662 C53.3243,19.5882 52.5823,17.6262 52.5823,15.2802 C52.5823,12.8472 53.3003,10.8542 54.7373,9.3002 C56.1733,7.7462 57.9193,6.9692 59.9723,6.9692 C60.9173,6.9692 61.8043,7.1472 62.6333,7.5052 C63.4623,7.8612 64.2283,8.3972 64.9323,9.1122 L64.9323,7.3742 Z" id="Fill-3" fill="#000000"></path>
                <path d="M72.8818,7.374 L76.8348,7.374 L76.8348,8.989 C77.7318,8.233 78.5438,7.708 79.2718,7.412 C79.9988,7.116 80.7438,6.969 81.5048,6.969 C83.0678,6.969 84.3928,7.515 85.4818,8.605 C86.3978,9.532 86.8548,10.902 86.8548,12.718 L86.8548,23.128 L82.9448,23.128 L82.9448,16.229 C82.9448,14.35 82.8608,13.101 82.6928,12.483 C82.5248,11.866 82.2308,11.396 81.8118,11.074 C81.3918,10.75 80.8748,10.589 80.2588,10.589 C79.4588,10.589 78.7738,10.856 78.1998,11.392 C77.6278,11.927 77.2308,12.667 77.0088,13.611 C76.8938,14.103 76.8348,15.169 76.8348,16.808 L76.8348,23.128 L72.8818,23.128 L72.8818,7.374 Z" id="Fill-5" fill="#000000"></path>
                <path d="M97.5674,10.6182 C96.3454,10.6182 95.3304,11.0502 94.5224,11.9132 C93.7134,12.7782 93.3094,13.8862 93.3094,15.2372 C93.3094,16.5972 93.7214,17.7182 94.5444,18.5962 C95.3664,19.4742 96.3794,19.9142 97.5814,19.9142 C98.8234,19.9142 99.8524,19.4812 100.6704,18.6172 C101.4874,17.7542 101.8964,16.6222 101.8964,15.2222 C101.8964,13.8512 101.4874,12.7422 100.6704,11.8912 C99.8524,11.0422 98.8174,10.6182 97.5674,10.6182 Z M101.7224,7.3752 L105.6744,7.3752 L105.6744,23.1282 L101.7224,23.1282 L101.7224,21.4632 C100.9524,22.1972 100.1774,22.7252 99.4014,23.0492 C98.6254,23.3722 97.7844,23.5332 96.8784,23.5332 C94.8434,23.5332 93.0834,22.7442 91.5984,21.1662 C90.1144,19.5882 89.3724,17.6262 89.3724,15.2802 C89.3724,12.8472 90.0894,10.8542 91.5264,9.3002 C92.9634,7.7462 94.7084,6.9692 96.7624,6.9692 C97.7074,6.9692 98.5934,7.1472 99.4224,7.5052 C100.2534,7.8612 101.0184,8.3972 101.7224,9.1122 L101.7224,7.3752 Z" id="Fill-7" fill="#000000"></path>
                <path d="M116.5615,10.6182 C115.3395,10.6182 114.3255,11.0502 113.5165,11.9142 C112.7075,12.7782 112.3045,13.8862 112.3045,15.2372 C112.3045,16.5972 112.7155,17.7182 113.5385,18.5962 C114.3605,19.4742 115.3735,19.9142 116.5765,19.9142 C117.8175,19.9142 118.8465,19.4812 119.6635,18.6172 C120.4815,17.7542 120.8905,16.6222 120.8905,15.2222 C120.8905,13.8512 120.4815,12.7422 119.6635,11.8912 C118.8465,11.0422 117.8125,10.6182 116.5615,10.6182 Z M120.7165,1.2932 L124.6695,1.2932 L124.6695,23.1282 L120.7165,23.1282 L120.7165,21.4632 C119.9465,22.1972 119.1715,22.7252 118.3955,23.0492 C117.6195,23.3722 116.7785,23.5332 115.8725,23.5332 C113.8375,23.5332 112.0785,22.7442 110.5925,21.1662 C109.1085,19.5882 108.3665,17.6262 108.3665,15.2802 C108.3665,12.8472 109.0835,10.8542 110.5205,9.3002 C111.9575,7.7462 113.7035,6.9692 115.7565,6.9692 C116.7015,6.9692 117.5885,7.1472 118.4165,7.5052 C119.2475,7.8612 120.0125,8.3972 120.7165,9.1122 L120.7165,1.2932 Z" id="Fill-9" fill="#000000"></path>
                <path d="M135.5557,10.6182 C134.3347,10.6182 133.3197,11.0502 132.5107,11.9142 C131.7027,12.7782 131.2997,13.8862 131.2997,15.2372 C131.2997,16.5972 131.7097,17.7182 132.5327,18.5962 C133.3547,19.4742 134.3677,19.9142 135.5707,19.9142 C136.8117,19.9142 137.8407,19.4812 138.6597,18.6172 C139.4767,17.7542 139.8857,16.6222 139.8857,15.2222 C139.8857,13.8512 139.4767,12.7422 138.6597,11.8912 C137.8407,11.0422 136.8067,10.6182 135.5557,10.6182 Z M139.7117,7.3752 L143.6637,7.3752 L143.6637,23.1282 L139.7117,23.1282 L139.7117,21.4632 C138.9397,22.1972 138.1657,22.7252 137.3897,23.0492 C136.6147,23.3722 135.7727,23.5332 134.8667,23.5332 C132.8327,23.5332 131.0727,22.7442 129.5877,21.1662 C128.1027,19.5882 127.3607,17.6262 127.3607,15.2802 C127.3607,12.8472 128.0787,10.8542 129.5147,9.3002 C130.9517,7.7462 132.6977,6.9692 134.7507,6.9692 C135.6967,6.9692 136.5827,7.1472 137.4117,7.5052 C138.2407,7.8612 139.0077,8.3972 139.7117,9.1122 L139.7117,7.3752 Z" id="Fill-11" fill="#000000"></path>
                <path d="M167.4697,15.3975 L165.4967,16.4825 C165.1257,16.0935 164.7607,15.8255 164.3977,15.6745 C164.0347,15.5245 163.6117,15.4495 163.1237,15.4495 C162.2377,15.4495 161.5207,15.7135 160.9727,16.2425 C160.4257,16.7705 160.1527,17.4485 160.1527,18.2745 C160.1527,19.0785 160.4157,19.7335 160.9437,20.2425 C161.4697,20.7515 162.1627,21.0045 163.0197,21.0045 C164.0797,21.0045 164.9067,20.6425 165.4967,19.9195 L167.3657,21.1995 C166.3527,22.5155 164.9237,23.1745 163.0767,23.1745 C161.4167,23.1745 160.1157,22.6825 159.1757,21.6995 C158.2357,20.7145 157.7647,19.5635 157.7647,18.2445 C157.7647,17.3305 157.9937,16.4885 158.4507,15.7175 C158.9077,14.9485 159.5457,14.3435 160.3647,13.9045 C161.1837,13.4635 162.0997,13.2445 163.1127,13.2445 C164.0497,13.2445 164.8917,13.4315 165.6387,13.8035 C166.3847,14.1775 166.9947,14.7085 167.4697,15.3975" id="Fill-13" fill="#000000"></path>
                <path d="M174.0801,15.4756 C173.3431,15.4756 172.7301,15.7316 172.2411,16.2436 C171.7501,16.7546 171.5061,17.4116 171.5061,18.2086 C171.5061,19.0306 171.7471,19.6976 172.2321,20.2056 C172.7161,20.7146 173.3291,20.9696 174.0711,20.9696 C174.8121,20.9696 175.4311,20.7116 175.9231,20.1976 C176.4151,19.6816 176.6621,19.0196 176.6621,18.2086 C176.6621,17.3996 176.4201,16.7416 175.9361,16.2346 C175.4521,15.7286 174.8331,15.4756 174.0801,15.4756 M174.0401,13.2446 C174.9331,13.2446 175.7691,13.4666 176.5541,13.9136 C177.3371,14.3586 177.9491,14.9626 178.3901,15.7266 C178.8291,16.4906 179.0491,17.3156 179.0491,18.2006 C179.0491,19.0916 178.8281,19.9256 178.3851,20.7006 C177.9421,21.4756 177.3391,22.0816 176.5751,22.5196 C175.8111,22.9556 174.9701,23.1746 174.0501,23.1746 C172.6941,23.1746 171.5401,22.6936 170.5811,21.7296 C169.6241,20.7656 169.1451,19.5956 169.1451,18.2176 C169.1451,16.7436 169.6861,15.5126 170.7681,14.5296 C171.7181,13.6716 172.8081,13.2446 174.0401,13.2446" id="Fill-15" fill="#000000"></path>
                <g id="Group-19" transform="translate(180.000000, 13.000000)">
                    <mask id="mask-2" fill="white">
                        <use xlink:href="#path-1"></use>
                    </mask>
                    <g id="Clip-18"></g>
                    <path d="M0.9678,0.4873 L3.3368,0.4873 L3.3368,1.5723 C3.7418,1.1273 4.1928,0.7943 4.6878,0.5743 C5.1828,0.3543 5.7228,0.2443 6.3078,0.2443 C6.8988,0.2443 7.4318,0.3883 7.9048,0.6773 C8.3808,0.9673 8.7628,1.3903 9.0528,1.9453 C9.4298,1.3903 9.8908,0.9673 10.4388,0.6773 C10.9858,0.3883 11.5838,0.2443 12.2328,0.2443 C12.9038,0.2443 13.4948,0.4003 14.0038,0.7133 C14.5128,1.0253 14.8798,1.4333 15.1028,1.9363 C15.3258,2.4403 15.4378,3.2583 15.4378,4.3933 L15.4378,9.9313 L13.0508,9.9313 L13.0508,5.1393 C13.0508,4.0693 12.9168,3.3443 12.6518,2.9663 C12.3848,2.5873 11.9858,2.3973 11.4538,2.3973 C11.0478,2.3973 10.6858,2.5123 10.3638,2.7443 C10.0428,2.9753 9.8038,3.2953 9.6478,3.7033 C9.4918,4.1113 9.4128,4.7663 9.4128,5.6693 L9.4128,9.9313 L7.0268,9.9313 L7.0268,5.3573 C7.0268,4.5113 6.9638,3.9003 6.8398,3.5213 C6.7138,3.1413 6.5278,2.8603 6.2788,2.6753 C6.0298,2.4893 5.7268,2.3973 5.3718,2.3973 C4.9798,2.3973 4.6198,2.5133 4.2978,2.7493 C3.9768,2.9823 3.7368,3.3113 3.5758,3.7333 C3.4168,4.1563 3.3368,4.8213 3.3368,5.7303 L3.3368,9.9313 L0.9678,9.9313 L0.9678,0.4873 Z" id="Fill-17" fill="#000000" mask="url(#mask-2)"></path>
                </g>
                <path d="M17.7715,17.3213 C17.1915,18.0243 16.3125,18.4713 15.3305,18.4713 C13.5815,18.4713 12.1635,17.0543 12.1635,15.3053 C12.1635,13.5563 13.5815,12.1393 15.3305,12.1393 C16.3505,12.1393 17.2575,12.6223 17.8365,13.3713 L19.4785,12.0823 C18.5165,10.8463 17.0165,10.0513 15.3305,10.0513 C12.4285,10.0513 10.0765,12.4043 10.0765,15.3053 C10.0765,18.2073 12.4285,20.5593 15.3305,20.5593 C16.9675,20.5593 18.4295,19.8103 19.3935,18.6353 L17.7715,17.3213 Z" id="Fill-20" fill="#050707"></path>
                <path d="M15.3174,0.4502 C10.6574,0.4502 6.4994,2.6002 3.7794,5.9622 C1.7174,8.5102 0.4824,11.7532 0.4824,15.2852 C0.4824,18.8782 1.7594,22.1722 3.8834,24.7382 L6.3914,22.7022 C4.7184,20.6912 3.7124,18.1052 3.7124,15.2852 C3.7124,12.5242 4.6764,9.9902 6.2864,7.9982 C8.4144,5.3642 11.6694,3.6802 15.3174,3.6802 C19.0024,3.6802 22.2854,5.3972 24.4114,8.0752 L26.9184,6.0402 C24.2004,2.6342 20.0134,0.4502 15.3174,0.4502" id="Fill-22" fill="#FFCC05"></path>
                <path d="M6.9961,15.2852 C6.9961,13.3092 7.6851,11.4952 8.8361,10.0672 L6.2861,7.9982 C4.6771,9.9902 3.7121,12.5242 3.7121,15.2852 C3.7121,18.1052 4.7191,20.6912 6.3921,22.7022 L8.9421,20.6332 C7.7271,19.1862 6.9961,17.3212 6.9961,15.2852" id="Fill-24" fill="#F16622"></path>
                <path d="M15.3174,23.6064 C12.7574,23.6064 10.4684,22.4504 8.9424,20.6324 L6.3914,22.7024 C8.5204,25.2614 11.7284,26.8904 15.3174,26.8904 C18.9424,26.8904 22.1774,25.2284 24.3064,22.6264 L21.7564,20.5554 C20.2304,22.4184 17.9134,23.6064 15.3174,23.6064" id="Fill-26" fill="#EE3C24"></path>
                <path d="M15.3174,3.6807 C11.6694,3.6807 8.4144,5.3647 6.2864,7.9977 L8.8364,10.0677 C10.3614,8.1747 12.6984,6.9637 15.3174,6.9637 C17.9724,6.9637 20.3384,8.2077 21.8614,10.1447 L24.4114,8.0757 C22.2854,5.3977 19.0024,3.6807 15.3174,3.6807" id="Fill-28" fill="#CB1C68"></path>
                <path d="M23.6387,15.2852 C23.6387,17.2852 22.9327,19.1212 21.7567,20.5562 L24.3067,22.6262 C25.9417,20.6262 26.9227,18.0702 26.9227,15.2852 C26.9227,12.5602 25.9837,10.0562 24.4107,8.0752 L21.8617,10.1442 C22.9747,11.5602 23.6387,13.3462 23.6387,15.2852" id="Fill-30" fill="#EC248F"></path>
                <path d="M15.3174,20.5254 C13.7234,20.5254 12.2964,19.8134 11.3354,18.6904 L8.9424,20.6324 C10.4684,22.4504 12.7574,23.6064 15.3174,23.6064 C17.9134,23.6064 20.2304,22.4184 21.7564,20.5554 L19.3644,18.6144 C18.4034,19.7814 16.9474,20.5254 15.3174,20.5254" id="Fill-32" fill="#0098CC"></path>
                <path d="M20.5576,15.2852 C20.5576,16.5502 20.1106,17.7092 19.3646,18.6142 L21.7566,20.5562 C22.9326,19.1212 23.6386,17.2852 23.6386,15.2852 C23.6386,13.3462 22.9746,11.5602 21.8616,10.1442 L19.4676,12.0882 C20.1516,12.9722 20.5576,14.0812 20.5576,15.2852" id="Fill-34" fill="#0D9948"></path>
                <path d="M15.2871,10.1387 C16.9761,10.1387 18.5101,10.8477 19.4691,12.0887 L21.8611,10.1447 C20.3381,8.2077 17.9731,6.9637 15.3171,6.9637 C12.6981,6.9637 10.3611,8.1747 8.8361,10.0677 L11.3211,12.0647 C12.2821,10.8677 13.6331,10.1387 15.2871,10.1387" id="Fill-36" fill="#50B748"></path>
                <path d="M8.9424,20.6328 L11.3354,18.6908 C10.5504,17.7748 10.0774,16.5848 10.0774,15.2848 C10.0774,14.0458 10.6014,12.9618 11.3214,12.0648 L8.8364,10.0678 C7.6854,11.4948 6.9964,13.3098 6.9964,15.2848 C6.9964,17.3208 7.7274,19.1868 8.9424,20.6328" id="Fill-38" fill="#33C5F3"></path>
                <path d="M30.1523,15.2852 C30.1523,18.8422 28.9003,22.1052 26.8133,24.6612 C25.3303,26.4772 23.4243,27.9352 21.2473,28.8862 L21.2593,28.8862 L10.5353,33.4272 L10.5353,29.3312 C7.9103,28.4372 5.6153,26.8302 3.8833,24.7382 L6.3913,22.7022 C8.5203,25.2622 11.7283,26.8902 15.3173,26.8902 C18.9423,26.8902 22.1773,25.2282 24.3063,22.6262 C25.9413,20.6262 26.9233,18.0702 26.9233,15.2852 C26.9233,12.5602 25.9833,10.0562 24.4113,8.0752 L26.9183,6.0402 C28.9423,8.5762 30.1523,11.7892 30.1523,15.2852" id="Fill-40" fill="#000000"></path>
                <g id="Group-44">
                    <mask id="mask-4" fill="white">
                        <use xlink:href="#path-3"></use>
                    </mask>
                    <g id="Clip-43"></g>
                    <path d="M15.2676,0.4307 C10.7686,0.4307 6.5616,2.4407 3.7276,5.9437 C1.6006,8.5717 0.4296,11.8827 0.4296,15.2687 C0.4296,18.7147 1.6386,22.0727 3.8316,24.7227 C5.5886,26.8447 7.8886,28.4337 10.4856,29.3177 L10.6306,29.3677 L10.6306,33.3517 L20.8126,29.0397 L21.1986,28.8717 C23.3516,27.9317 25.2766,26.4697 26.7666,24.6457 C28.9196,22.0087 30.1066,18.6787 30.1066,15.2687 C30.1066,11.8697 28.9876,8.6727 26.8716,6.0207 C24.0366,2.4677 19.8066,0.4307 15.2676,0.4307 Z M10.2006,33.9997 L10.2006,29.6737 C7.5886,28.7547 5.2746,27.1407 3.5006,24.9967 C1.2436,22.2697 -0.0004,18.8147 -0.0004,15.2687 C-0.0004,11.7847 1.2046,8.3767 3.3926,5.6727 C6.3096,2.0687 10.6376,-0.0003 15.2676,-0.0003 C19.9386,-0.0003 24.2896,2.0977 27.2076,5.7517 C29.3846,8.4817 30.5366,11.7717 30.5366,15.2687 C30.5366,18.7777 29.3156,22.2037 27.0996,24.9177 C25.7856,26.5287 24.1396,27.8637 22.2996,28.8227 L22.4436,28.8177 L10.2006,33.9997 Z" id="Fill-42" fill="#050505" mask="url(#mask-4)"></path>
                </g>
                <path d="M150.9902,21.9854 C149.9502,21.9854 149.1062,21.1424 149.1062,20.1014 C149.1062,19.0604 149.9502,18.2174 150.9902,18.2174 C152.0312,18.2174 152.8742,19.0604 152.8742,20.1014 C152.8742,21.1424 152.0312,21.9854 150.9902,21.9854 M150.9902,17.0664 C149.3142,17.0664 147.9552,18.4244 147.9552,20.1014 C147.9552,21.7784 149.3142,23.1364 150.9902,23.1364 C152.6672,23.1364 154.0252,21.7784 154.0252,20.1014 C154.0252,18.4244 152.6672,17.0664 150.9902,17.0664" id="Fill-45" fill="#000000"></path>
            </g>
        </g>
    </g>
</svg>
