<?xml version="1.0" encoding="UTF-8" standalone="no"?>
<svg width="100px" height="100px" viewBox="0 0 100 100" version="1.1" xmlns="http://www.w3.org/2000/svg" xmlns:xlink="http://www.w3.org/1999/xlink">
    <!-- Generator: Sketch 50.2 (55047) - http://www.bohemiancoding.com/sketch -->
    <title>EJ_Masthead_RGB</title>
    <desc>Created with Sketch.</desc>
    <defs></defs>
    <g id="Styles" stroke="none" stroke-width="1" fill="none" fill-rule="evenodd">
        <g id="Market-Branding" transform="translate(-61.000000, -1077.000000)">
            <g id="EJ_Masthead_RGB" transform="translate(61.000000, 1077.000000)">
                <polygon id="Fill-1" fill="#EF9F57" points="0 99.9742489 99.9420601 99.9742489 99.9420601 0.0575107296 0 0.0575107296"></polygon>
                <polyline id="Fill-3" fill="#CF612D" points="5.15021459 46.2965665 5.15021459 5.4223176 94.7927039 5.4223176 94.7927039 67.8304721 58.6188841 67.8304721 43.4472103 46.2965665 5.15021459 46.2965665"></polyline>
                <path d="M60.783691,70.5815451 C60.5206009,70.3248927 60.4635193,70.2304721 60.3781116,70.0892704 C60.3592275,70.0592275 60.339485,70.0266094 60.3171674,69.9905579 L60.3180258,69.988412 L60.3090129,69.9759657 L60.3090129,62.6690987 C60.3111588,62.6060086 60.3635193,61.1429185 61.7446352,61.1429185 L61.7974249,61.1429185 L61.7974249,60.8223176 L58.1145923,60.8223176 L58.1145923,61.1463519 L58.1600858,61.1519313 C58.1763948,61.1536481 59.7716738,61.3463519 59.7716738,62.7025751 L59.7716738,69.2266094 L59.7386266,69.1806867 C58.360515,67.2583691 53.827897,60.8223176 53.827897,60.8223176 L50.6244635,60.8180258 L50.6244635,61.1527897 L50.6686695,61.1592275 C50.6849785,61.1618026 52.2922747,61.4206009 52.27897,62.9600858 L52.27897,70.0154506 C52.27897,70.0266094 52.2738197,71.1184549 51.6639485,71.7300429 C51.3914163,72.0034335 51.0351931,72.1420601 50.6072961,72.1420601 L50.5553648,72.1420601 L50.5553648,72.4978541 L54.3652361,72.4978541 L54.3652361,72.1386266 L54.3141631,72.1377682 C52.727897,72.1103004 52.7180258,70.516309 52.7188841,70.4480687 L52.7188841,62.7776824 L59.7038627,72.5038627 L59.7154506,72.5175966 C59.7742489,72.5905579 59.8660944,72.6871245 59.9742489,72.6871245 C60.111588,72.6871245 60.1995708,72.5381974 60.2038627,72.5321888 L60.2090129,72.5193133 C60.411588,71.7429185 60.7463519,71.3304721 60.7484979,71.3266094 C60.9459227,71.0909871 60.9562232,70.9927039 60.9553648,70.9845494 C60.9944206,70.7575107 60.7888412,70.5862661 60.783691,70.5815451" id="Fill-4" fill="#FFFFFE"></path>
                <path d="M90.0270386,60.8227468 L90.0270386,61.1467811 L90.0733906,61.1519313 C90.0892704,61.1536481 91.6845494,61.3463519 91.6845494,62.7025751 L91.6845494,69.2266094 L91.651073,69.1806867 C90.2725322,67.2583691 85.7399142,60.8227468 85.7399142,60.8227468 L82.5364807,60.8184549 L82.5364807,61.1527897 L82.5811159,61.1592275 C82.5969957,61.1618026 84.2060086,61.4206009 84.1914163,62.9600858 L84.1914163,70.0158798 C84.1914163,70.0261803 84.1862661,71.1184549 83.5759657,71.7304721 C83.3034335,72.0034335 82.9480687,72.1424893 82.5206009,72.1424893 L82.4678112,72.1424893 L82.4678112,72.4978541 L86.2781116,72.4978541 L86.2781116,72.1386266 L86.2274678,72.1377682 C84.6403433,72.1103004 84.6313305,70.516309 84.6313305,70.4480687 L84.6313305,62.7781116 L91.616309,72.5038627 L91.6274678,72.5167382 C91.6613734,72.5592275 91.7648069,72.6875536 91.8866953,72.6875536 C92.0253219,72.6875536 92.1128755,72.5386266 92.1158798,72.5317597 L92.1214592,72.5193133 C92.3257511,71.7429185 92.6587983,71.3304721 92.6613734,71.3270386 C92.8587983,71.0914163 92.8695279,70.9927039 92.8686695,70.983691 C92.9072961,70.7575107 92.7021459,70.5858369 92.6961373,70.5819742 C92.4347639,70.3248927 92.3742489,70.2257511 92.2905579,70.0892704 C92.2729614,70.0592275 92.2532189,70.0266094 92.2300429,69.9905579 L92.2300429,69.9888412 L92.2214592,69.976824 L92.2214592,62.6690987 C92.223176,62.6060086 92.2746781,61.1424893 93.6566524,61.1424893 L93.7094421,61.1424893 L93.7094421,60.8227468 L90.0270386,60.8227468" id="Fill-5" fill="#FFFFFE"></path>
                <path d="M27.6339056,66.4360515 C27.6339056,61.0570815 22.8008584,60.8424893 22.7515021,60.8407725 L17.07897,60.8407725 L17.0798283,61.1763948 L17.1343348,61.1738197 C17.1351931,61.1733906 17.1446352,61.1729614 17.160515,61.1729614 C17.3896996,61.1729614 18.5287554,61.2463519 18.5287554,62.6982833 L18.5287554,70.6317597 C18.5287554,72.0828326 17.3896996,72.1562232 17.160515,72.1562232 C17.1446352,72.1562232 17.1351931,72.155794 17.1351931,72.155794 L17.07897,72.1532189 L17.07897,72.4892704 L22.7523605,72.4892704 C22.8008584,72.4875536 27.6339056,72.2725322 27.6339056,66.8939914 L27.6339056,66.4360515 Z M20.3622318,70.7077253 L20.3866953,61.5467811 C20.3866953,61.5459227 20.3733906,61.4334764 20.4472103,61.3437768 C20.5060086,61.2725322 20.6051502,61.2321888 20.744206,61.2240343 L22.0090129,61.2240343 C22.0459227,61.2270386 25.6248927,61.5626609 25.6476395,66.6648069 C25.6248927,71.7669528 22.0459227,72.1025751 22.0133047,72.1051502 L21.4793991,72.1051502 C20.52103,72.1051502 20.3630901,70.716309 20.3622318,70.7077253 Z" id="Fill-6" fill="#FFFFFE"></path>
                <path d="M39.6377682,71.8476395 C39.123176,71.3141631 39.1532189,70.2918455 39.1540773,70.2798283 L39.1540773,62.6935622 C39.1532189,62.6866953 39.1266094,61.9948498 39.5519313,61.5506438 C39.7914163,61.2987124 40.1317597,61.1712446 40.5609442,61.1712446 L40.6128755,61.1712446 L40.6128755,60.851073 L37.455794,60.851073 L34.2467811,69.3386266 L31.0248927,60.8849785 L31.0120172,60.851073 L27.7725322,60.8467811 L27.7725322,61.183691 L27.8201717,61.1879828 C27.8729614,61.1927039 29.1025751,61.3167382 29.1025751,62.4583691 L29.1025751,69.7515021 C29.1034335,69.7639485 29.1763948,71.0579399 28.5309013,71.7446352 C28.2648069,72.0270386 27.9120172,72.1703863 27.47897,72.1703863 L27.4274678,72.1703863 L27.4274678,72.5270386 L31.3287554,72.5270386 L31.3287554,72.1690987 L31.0420601,72.1690987 C30.6167382,72.1690987 30.2763948,72.0351931 30.0300429,71.7716738 C29.5188841,71.2257511 29.5733906,70.2927039 29.5742489,70.2798283 L29.5733906,62.4643777 L33.3828326,72.3635193 C33.3854077,72.3699571 33.4373391,72.5227468 33.5785408,72.5227468 L33.5793991,72.5227468 C33.5793991,72.5227468 33.595279,72.5253219 33.6193133,72.5253219 C33.7330472,72.5253219 33.8248927,72.4733906 33.8725322,72.3759657 C33.8742489,72.3699571 34.1055794,71.7270386 34.7274678,71.2107296 C34.8197425,71.1493562 34.9643777,70.9639485 34.8429185,70.695279 C34.8420601,70.6944206 34.788412,70.611588 34.7227468,70.4763948 L34.6793991,70.388412 C34.6090129,70.2450644 34.5927039,70.2124464 34.4909871,69.9549356 L37.472103,62.2128755 L37.472103,70.2793991 C37.4712446,70.2978541 37.4309013,72.1690987 35.8523605,72.1690987 L35.5656652,72.1690987 L35.5656652,72.5270386 L40.72103,72.5270386 L40.72103,72.1690987 L40.4343348,72.1690987 C40.1120172,72.1690987 39.8433476,72.060515 39.6377682,71.8476395" id="Fill-7" fill="#FFFFFE"></path>
                <path d="M45.7334764,60.5635193 C42.9223176,60.5635193 40.6351931,63.2832618 40.6351931,66.627897 C40.6351931,69.9716738 42.9223176,72.6927039 45.7334764,72.6927039 C48.5454936,72.6927039 50.832618,69.9716738 50.832618,66.627897 C50.832618,63.2832618 48.5454936,60.5635193 45.7334764,60.5635193 M45.6875536,72.2828326 C45.5643777,72.2828326 42.6579399,72.2193133 42.6188841,66.6270386 C42.6579399,61.0339056 45.5643777,60.9703863 45.6995708,60.9703863 C45.8227468,60.9703863 48.7291845,61.0339056 48.7682403,66.6261803 C48.7291845,72.2193133 45.8227468,72.2828326 45.6995708,72.2828326 L45.6935622,72.3347639 L45.6944206,72.2828326 L45.6875536,72.2828326" id="Fill-8" fill="#FFFFFE"></path>
                <path d="M77.6523605,60.5635193 C74.8403433,60.5635193 72.5527897,63.2832618 72.5527897,66.627897 C72.5527897,69.9716738 74.8403433,72.6927039 77.6523605,72.6927039 C80.4635193,72.6927039 82.751073,69.9716738 82.751073,66.627897 C82.751073,63.2832618 80.4635193,60.5635193 77.6523605,60.5635193 M77.6060086,72.2828326 C77.4824034,72.2828326 74.5759657,72.2193133 74.5377682,66.6270386 C74.5759657,61.0339056 77.4824034,60.9703863 77.6175966,60.9703863 C77.7407725,60.9703863 80.6472103,61.0339056 80.6866953,66.6261803 C80.6472103,72.2193133 77.7416309,72.2828326 77.6175966,72.2828326 L77.611588,72.3347639 L77.6133047,72.2828326 L77.6060086,72.2828326" id="Fill-9" fill="#FFFFFE"></path>
                <path d="M71.7,60.544206 C71.0519313,60.9622318 70.5793991,60.9948498 70.4502146,60.9948498 C70.4257511,60.9948498 70.4128755,60.993133 70.406867,60.993133 L63.8927039,60.993133 C63.8909871,60.993133 63.8772532,60.9948498 63.8536481,60.9948498 C63.723176,60.9948498 63.2506438,60.9622318 62.6030043,60.544206 L62.5347639,60.5 L61.9828326,64.3098712 L62.2218884,64.3901288 L62.2403433,64.3463519 C62.2476395,64.3313305 62.9291845,62.8206009 63.3309013,62.2944206 C63.3360515,62.2858369 63.9145923,61.4283262 65.0416309,61.4283262 L66.260515,61.4283262 L66.260515,70.6540773 C66.2570815,70.7171674 66.1708155,72.1815451 64.7618026,72.1815451 L64.7098712,72.1815451 L64.7098712,72.5150215 L69.5944206,72.5150215 L69.5944206,72.1815451 L69.5424893,72.1815451 C69.0806867,72.1815451 68.7158798,72.0472103 68.4587983,71.7815451 C68.0266094,71.3373391 68.0433476,70.6652361 68.0433476,70.6566524 L68.0433476,61.4283262 L69.2622318,61.4283262 C70.3888412,61.4283262 70.9682403,62.2858369 70.9759657,62.2978541 C71.3738197,62.8206009 72.0562232,64.3313305 72.0626609,64.3463519 L72.0824034,64.3901288 L72.3201717,64.3098712 L71.7682403,60.5 L71.7,60.544206" id="Fill-10" fill="#FFFFFE"></path>
                <path d="M17.6450644,78.7802575 C14.8330472,78.7802575 12.5459227,81.5004292 12.5459227,84.844206 C12.5459227,88.1879828 14.8330472,90.9090129 17.6450644,90.9090129 C20.4570815,90.9090129 22.7446352,88.1879828 22.7446352,84.844206 C22.7446352,81.5004292 20.4570815,78.7802575 17.6450644,78.7802575 M17.5991416,90.4995708 C17.4751073,90.4995708 14.5695279,90.4351931 14.5304721,84.844206 C14.5695279,79.251073 17.4751073,79.1866953 17.6103004,79.1866953 C17.7343348,79.1866953 20.6407725,79.251073 20.6798283,84.8433476 C20.6407725,90.4351931 17.7343348,90.4995708 17.6103004,90.4995708 L17.6042918,90.5519313 L17.6060086,90.4995708 L17.5991416,90.4995708" id="Fill-11" fill="#FFFFFE"></path>
                <path d="M57.439485,85.7776824 L58.9583691,81.206867 L60.4639485,85.7776824 L57.439485,85.7776824 Z M73.5690987,86.8038627 L73.5304721,86.9248927 C72.5034335,90.0879828 70.5708155,90.3339056 70.0038627,90.3339056 C69.8755365,90.3339056 69.7995708,90.3218884 69.7914163,90.32103 C68.7360515,90.32103 68.3055794,89.9090129 68.3038627,89.9064378 C68.1270386,89.7098712 68.0793991,88.9463519 68.0763948,88.6703863 L68.0763948,80.8901288 C68.0772532,80.827897 68.127897,79.3643777 69.511588,79.3643777 L69.5635193,79.3643777 L69.5635193,79.044206 L64.8008584,79.044206 L64.8008584,79.3729614 L64.8527897,79.3738197 C64.9090129,79.3755365 66.2300429,79.4128755 66.2300429,80.7626609 L66.2300429,88.6450644 C66.2300429,90.1300429 65.1283262,90.3296137 64.8124464,90.3562232 C63.7729614,90.311588 63.3008584,88.7549356 63.2957082,88.7386266 L60.2987124,79.0197425 C60.2515021,78.8515021 60.1922747,78.767382 60.1214592,78.767382 C60.1193133,78.767382 60.1158798,78.767382 60.1128755,78.7678112 L60.1038627,78.767382 C60.0287554,78.767382 59.9716738,78.8145923 59.9515021,78.8343348 C59.9111588,78.8575107 59.7763948,78.9536481 59.5193133,79.3287554 C59.5175966,79.3313305 59.3,79.6077253 58.8137339,79.8214592 L58.6317597,79.8935622 C58.6248927,79.895279 58.4695279,79.9506438 58.4463519,80.076824 C58.4377682,80.0944206 58.4283262,80.1270386 58.4360515,80.1725322 C58.4549356,80.27897 58.5575107,80.3987124 58.7433476,80.527897 L55.9072961,88.6575107 C55.9030043,88.6742489 55.4459227,90.3600858 54.304721,90.3600858 L54.2527897,90.3600858 L54.2527897,90.7201717 L57.4845494,90.7201717 L57.4845494,90.3515021 L57.4240343,90.360515 C57.4240343,90.360515 57.348927,90.3716738 57.2390558,90.3716738 C57.0248927,90.3716738 56.6351931,90.3296137 56.4274678,90.048927 C56.248927,89.8064378 56.2356223,89.4334764 56.3875536,88.9407725 L57.2506438,86.3454936 L60.6515021,86.3454936 L61.1708155,87.9206009 C61.1742489,87.9330472 61.5004292,89.1145923 61.527897,89.3729614 C61.5296137,89.3772532 61.6540773,89.7553648 61.4493562,90.0381974 C61.2965665,90.2515021 60.9974249,90.3600858 60.5600858,90.3600858 L60.5072961,90.3600858 L60.5072961,90.7201717 L73.2686695,90.7201717 L73.760515,87.1862661 L73.5690987,86.8038627 Z" id="Fill-12" fill="#FFFFFE"></path>
                <path d="M38.2746781,84.9364807 L37.4373391,84.9364807 L37.4373391,79.6240343 L37.4377682,79.6167382 L37.4347639,79.6085837 C37.4347639,79.606867 37.4313305,79.5927039 37.4480687,79.5712446 C37.4858369,79.5244635 37.6416309,79.4154506 38.2738197,79.4154506 C38.3828326,79.4188841 40.6862661,79.527897 40.6862661,82.1416309 L40.6862661,82.2111588 C40.6862661,84.8304721 38.3716738,84.9330472 38.2746781,84.9364807 Z M51.3871245,79.0386266 L51.3871245,79.3626609 L51.432618,79.3678112 C51.4995708,79.3755365 53.0454936,79.5643777 53.0454936,80.9193133 L53.0454936,87.4424893 C51.6570815,85.5072961 47.1012876,79.0386266 47.1012876,79.0386266 L43.8969957,79.0351931 L43.8969957,79.3686695 L43.9407725,79.3755365 C44.0077253,79.3854077 45.5660944,79.6386266 45.5515021,81.176824 L45.5515021,88.2317597 C45.5515021,88.2433476 45.5472103,89.3347639 44.9369099,89.9459227 C44.7377682,90.1454936 44.4935622,90.2716738 44.2103004,90.3261803 C43.9845494,90.2772532 43.6858369,90.1575107 43.4390558,89.8570815 L40.076824,85.1579399 C41.2107296,84.8939914 42.5218884,84.1635193 42.5218884,82.1991416 L42.5218884,82.1351931 C42.5218884,80.8858369 41.9703863,79.9566524 40.9266094,79.4484979 C40.1124464,79.0519313 39.2553648,79.0317597 39.0918455,79.0317597 L34.2587983,79.0321888 L34.2587983,79.4128755 L34.3304721,79.4154506 C34.3437768,79.4158798 35.6806867,79.5012876 35.6806867,80.4313305 L35.6806867,88.8987124 C35.6806867,90.2901288 34.5699571,90.3609442 34.3472103,90.3609442 C34.3248927,90.3609442 34.311588,90.3600858 34.311588,90.3600858 L34.2553648,90.3566524 L34.2553648,90.7201717 L38.9364807,90.7201717 L38.9364807,90.3553648 L38.8793991,90.3600858 C38.8785408,90.360515 38.8497854,90.3630901 38.7991416,90.3630901 C38.6618026,90.3630901 38.3090129,90.3420601 38.0012876,90.1433476 C37.6270386,89.9021459 37.4373391,89.4828326 37.4373391,88.8987124 L37.4373391,85.3021459 L37.8334764,85.3021459 L41.6905579,90.7 L41.7055794,90.7223176 L47.6386266,90.7201717 L47.6386266,90.3553648 L47.5871245,90.3549356 C46.0004292,90.3266094 45.9914163,88.732618 45.9922747,88.6648069 L45.9922747,80.9944206 L52.9188841,90.6583691 L52.9313305,90.6725322 C52.9905579,90.7450644 53.0811159,90.8416309 53.1892704,90.8416309 C53.3703863,90.8416309 53.4150215,90.6927039 53.4188841,90.6862661 L53.4240343,90.6733906 C53.6283262,89.8978541 53.9613734,89.4845494 53.9648069,89.4811159 C54.1622318,89.2459227 54.1716738,89.1472103 54.1716738,89.1386266 C54.2098712,88.9120172 54.0622318,88.8021459 54.0575107,88.7982833 L54,88.7360515 C53.7373391,88.4785408 53.7373391,88.4467811 53.6506438,88.3051502 C53.6321888,88.2751073 53.6128755,88.2433476 53.5905579,88.2072961 L53.5905579,88.2060086 L53.5819742,88.1935622 L53.5819742,80.8849785 C53.583691,80.823176 53.6364807,79.3587983 55.0180258,79.3587983 L55.0690987,79.3587983 L55.0690987,79.0386266 L51.3871245,79.0386266 Z" id="Fill-13" fill="#FFFFFE"></path>
                <path d="M30.1072961,79.3909871 L30.2098712,79.3909871 C31.6437768,79.3909871 31.7806867,80.904721 31.7858369,80.9652361 L31.7858369,86.8905579 C31.7858369,89.9291845 29.1030043,90.0141631 28.9901288,90.016309 C26.4763948,90.016309 26.3218884,86.8437768 26.32103,86.8145923 L26.32103,80.4103004 C26.323176,80.3682403 26.406867,79.3909871 27.5656652,79.3909871 L27.6682403,79.3909871 L27.6682403,79.0472103 L23.1660944,79.0570815 L23.1141631,79.0570815 L23.1141631,79.388412 L23.1643777,79.3909871 C23.216309,79.3927039 24.4369099,79.451073 24.4369099,80.4832618 L24.4369099,86.9695279 C24.439485,87.0090129 24.6841202,90.8841202 28.2484979,90.8832618 C28.2484979,90.8832618 28.3038627,90.8875536 28.4008584,90.8875536 C29.0103004,90.8875536 32.0570815,90.7012876 32.1939914,87.0188841 L32.3725322,80.7137339 C32.3742489,80.6609442 32.4399142,79.4158798 33.8201717,79.4158798 L33.872103,79.4158798 L33.872103,79.0321888 L30.1072961,79.0403433 L30.1072961,79.3909871" id="Fill-14" fill="#FFFFFE"></path>
                <path d="M13.0527897,76.2120172 L13.1128755,76.2120172 L13.1128755,75.8592275 L6.75450644,75.8592275 L6.75450644,76.2120172 L6.81459227,76.2120172 C6.83476395,76.2120172 8.93133047,76.2356223 8.93133047,77.6523605 L8.93133047,91.3669528 C8.93133047,91.3845494 8.90858369,93.1356223 8.11244635,93.1811159 C8.10643777,93.1811159 7.62875536,93.2034335 7.54892704,92.9128755 C7.5360515,92.8583691 7.22274678,91.5763948 6.11330472,91.5763948 C6.09656652,91.5763948 5.68454936,91.5622318 5.35193133,91.8321888 C5.08154506,92.051073 4.94420601,92.3879828 4.94420601,92.8381974 C4.94506438,92.8506438 5.03261803,94.1330472 6.55407725,94.1330472 L6.55493562,94.1330472 C6.55708155,94.1330472 6.60429185,94.1364807 6.68712446,94.1364807 C7.07639485,94.1364807 8.25665236,94.0643777 9.26695279,93.2639485 C10.4175966,92.351073 10.9793991,90.8253219 10.9360515,88.7287554 L10.9360515,77.6523605 C10.9360515,76.2373391 12.9665236,76.2120172 13.0527897,76.2120172" id="Fill-15" fill="#FFFFFE"></path>
                <path d="M16.3506438,68.2866953 L16.3356223,68.3244635 C14.8987124,71.9506438 12.4236052,72.0553648 12.1459227,72.0553648 C12.1218884,72.0553648 12.1090129,72.0553648 12.1051502,72.0545064 L10.2974249,72.0553648 C10.2476395,72.0579399 10.1978541,72.0579399 10.1493562,72.0553648 L10.1072961,72.0553648 C10.0103004,72.0527897 9.90386266,72.0300429 9.79656652,71.9957082 C9.41587983,71.8841202 9.09828326,71.6244635 8.9472103,71.2515021 C8.90600858,71.1502146 8.88111588,71.0450644 8.86866953,70.9403433 C8.83304721,70.7072961 8.83004292,70.5064378 8.82918455,70.504721 L8.82918455,64.8549356 C8.89957082,64.8463519 9.05021459,64.8321888 9.25321888,64.8321888 C10.1793991,64.8321888 12.388412,65.1420601 12.9055794,68.0223176 L12.9128755,68.0652361 L13.2064378,68.0652361 L13.2064378,61.3240343 L12.904721,61.3240343 L12.904721,61.376824 C12.904721,64.1339056 10.4274678,64.4321888 9.3639485,64.4321888 C9.10472103,64.4321888 8.91201717,64.4154506 8.82918455,64.4064378 L8.82918455,57.8158798 C8.82918455,57.5712446 8.94892704,57.5635193 8.96008584,57.5626609 C9.26909871,57.5240343 9.62446352,57.5042918 10.0150215,57.5042918 C11.3540773,57.5042918 12.7077253,57.7386266 12.7145923,57.7386266 C14.1806867,58.2360515 15.7236052,60.7424893 15.7386266,60.7682403 L15.7630901,60.8085837 L16.0480687,60.6635193 L16.0287554,60.6171674 C16.0206009,60.5974249 15.1351931,58.532618 14.9424893,57.5519313 C14.7875536,56.7596567 14.1635193,56.8377682 14.1635193,56.8377682 C11.483691,57.1094421 5.26309013,57.1351931 5.20042918,57.1351931 L5.15021459,57.1351931 L5.15021459,57.4360515 L5.20042918,57.4360515 C5.71244635,57.4360515 6.10815451,57.5845494 6.37896996,57.8763948 C6.81158798,58.3433476 6.77639485,59.0270386 6.77553648,59.0373391 L6.77553648,69.0283262 C6.73347639,70.2515021 6.67811159,70.732618 6.60944206,70.9892704 C6.59098712,71.0669528 6.56738197,71.1450644 6.53304721,71.2227468 C6.49699571,71.3042918 6.4527897,71.3772532 6.40472103,71.4450644 C6.39055794,71.4669528 6.37553648,71.4879828 6.35965665,71.5077253 C6.3472103,71.5240343 6.33433476,71.5399142 6.32103004,71.5549356 C6.30600858,71.5716738 6.28927039,71.5875536 6.27339056,71.6042918 C6.24291845,71.6343348 6.21201717,71.6622318 6.18025751,71.6871245 C5.75622318,72.0351931 5.07038627,72.2321888 5.06180258,72.2347639 L5.02403433,72.2446352 L5.02403433,72.4896996 L15.6725322,72.4896996 L16.6197425,68.3248927 L16.3506438,68.2866953" id="Fill-16" fill="#FFFFFE"></path>
            </g>
        </g>
    </g>
</svg>
