<?xml version="1.0" encoding="UTF-8" standalone="no"?>
<svg width="128px" height="20px" viewBox="0 0 128 20" version="1.1" xmlns="http://www.w3.org/2000/svg" xmlns:xlink="http://www.w3.org/1999/xlink">
    <!-- Generator: Sketch 50.2 (55047) - http://www.bohemiancoding.com/sketch -->
    <title>broadsheets/branding/vancouver sun/horizontal wordmark/coloured</title>
    <desc>Created with Sketch.</desc>
    <defs>
        <polygon id="path-1" points="0.0285714286 19.9714286 127.364286 19.9714286 127.364286 0.0666666667 0.0285714286 0.0666666667"></polygon>
    </defs>
    <g id="broadsheets/branding/vancouver-sun/horizontal-wordmark/coloured" stroke="none" stroke-width="1" fill="none" fill-rule="evenodd">
        <g id="VS_Wordmark_Horizontal_RGB">
            <mask id="mask-2" fill="white">
                <use xlink:href="#path-1"></use>
            </mask>
            <g id="Clip-2"></g>
            <path d="M9.01142857,19.2952381 L9.01142857,19.7238095 L12.4519048,19.7238095 L12.4519048,19.2952381 C11.4466667,19.2952381 11.0642857,18.4495238 11.3766667,17.1309524 C11.8380952,15.1514286 12.217619,13.3942857 12.2514286,13.2095238 L15.2666667,13.2095238 C15.8261905,15.312381 15.8595238,15.5433333 16.5347619,18.0371429 C16.7166667,18.7180952 16.6828571,19.2952381 16.14,19.2952381 L15.6780952,19.2952381 L15.6780952,19.7238095 L22.9909524,19.7238095 L22.9909524,19.2952381 L22.517619,19.2952381 C21.9085714,19.2952381 21.5290476,18.6761905 21.5290476,17.0680952 L21.5290476,7.25619048 C24.1166667,12.2238095 25.4466667,14.6733333 28.2142857,19.9504762 L28.4766667,19.9504762 C28.4766667,18.9814286 28.4366667,6.94619048 28.4366667,6.39047619 C28.4366667,4.84333333 29.0252381,4.12285714 30.0309524,4.12285714 L30.0309524,3.70619048 C29.75,3.70619048 28.8847619,3.70238095 28.2252381,3.70238095 L26.3847619,3.70238095 L26.4014286,4.11904762 C27.3242857,4.11904762 27.8404762,4.82285714 27.8404762,6.39047619 L27.8404762,14.1209524 C27.0333333,12.5742857 23.0290476,5.0452381 22.402381,3.83 C22.3538095,3.74714286 22.3371429,3.70619048 22.237619,3.70619048 C22.1885714,3.70619048 21.4947619,3.70238095 20.7533333,3.70238095 C20.0604762,3.70238095 19.3704762,3.70619048 19.2885714,3.70619048 L19.2885714,4.12285714 C19.7657143,4.12285714 20.0166667,4.31809524 20.2809524,4.79142857 C20.4614286,5.12142857 20.72,5.67428571 20.9338095,6.08619048 L20.9338095,17.2804762 C20.9338095,18.7119048 20.557619,19.1833333 20.0242857,19.272381 C20.0061905,19.2738095 19.9895238,19.2771429 19.9714286,19.2771429 C19.9642857,19.2771429 19.9571429,19.2752381 19.9504762,19.2752381 C19.4852381,19.222381 19.132381,18.9052381 19.0071429,18.4495238 C17.3428571,12.4719048 16.4447619,9.98952381 14.6161905,3.4752381 L14.0966667,3.4752381 C13.8814286,4.40380952 10.8252381,16.8171429 10.6261905,17.7071429 C10.3457143,18.9685714 9.75285714,19.2952381 9.01142857,19.2952381 Z M13.6347619,7.40047619 L15.0514286,12.7004762 L12.4480952,12.7004762 L13.6347619,7.40047619 Z M5.93,19.9419048 L6.40285714,19.9419048 C6.73952381,18.6271429 9.74619048,6.84428571 10.5990476,3.56857143 C11.1747619,1.36047619 11.8480952,0.914285714 12.7214286,0.914285714 L12.7214286,0.448095238 C12.3838095,0.448095238 11.4285714,0.437142857 10.6947619,0.437142857 L8.6747619,0.437142857 L8.6747619,0.927142857 C8.7547619,0.927142857 9.28857143,0.914285714 9.34809524,0.914285714 C9.98333333,0.914285714 10.3933333,1.62095238 10.0361905,3.01047619 C9.22809524,6.21761905 7.26857143,13.9695238 7.26857143,13.9695238 C7.26857143,13.9695238 5.08380952,5.10857143 4.38904762,2.27952381 C4.13142857,1.26190476 4.19095238,0.914285714 4.76666667,0.914285714 L5.24952381,0.914285714 L5.24952381,0.448095238 C4.91190476,0.448095238 3.67,0.437142857 2.63857143,0.437142857 C1.60714286,0.437142857 0.337619048,0.448095238 0,0.448095238 L0,0.914285714 L0.73952381,0.914285714 C1.21571429,0.914285714 1.37380952,1.33666667 1.69190476,2.62666667 C2.4452381,5.67809524 5.61285714,18.6019048 5.93,19.9419048 Z M103.246667,8.91761905 C102.83,8.54666667 101.243333,7.13095238 100.667619,6.6352381 C99.7133333,5.8047619 99.362381,5.27285714 99.0690476,4.03333333 C98.9433333,3.49857143 98.9080952,0.63952381 101.33,0.63952381 C102.719524,0.63952381 103.921905,2.24047619 104.695714,5.26904762 L105.080952,5.25761905 C104.921905,2.72666667 104.928571,2.6652381 104.769524,0.183809524 L104.411429,0.174285714 L104.35619,0.460952381 C104.335238,0.585238095 104.257619,1.2 103.997619,1.2 C103.878571,1.2 103.758571,1.17904762 103.525714,0.997619048 C102.807143,0.436190476 101.892857,0.0666666667 101.090952,0.0666666667 C99.1471429,0.0666666667 96.907619,1.72380952 97.037619,5.42 C97.0871429,6.80952381 97.7347619,7.94428571 98.6790476,9.0052381 C99.7971429,10.2609524 101.179048,11.412381 102.131429,12.33 C103.103333,13.2738095 103.442857,14.09 103.615714,15.2690476 C103.828571,16.7238095 103.41381,19.3657143 101.496667,19.3566667 C99.4814286,19.347619 98.0814286,17.3366667 97.2609524,13.6319048 L96.8752381,13.6771429 C96.8752381,14.0242857 97.0119048,18.7533333 97.0119048,19.7704762 L97.41,19.7619048 C97.6690476,18.5738095 97.8671429,18.3004762 98.5647619,18.8938095 C99.2195238,19.4642857 100.058571,20 101.506667,20 C104.26381,20 105.824762,17.5542857 105.824762,14.6995238 C105.824762,11.9019048 104.504286,10.03 103.246667,8.91761905 Z M38.29,4.38333333 C37.0028571,3.33333333 35.7852381,3.46809524 35.7852381,3.46809524 C33.1657143,3.46809524 30.2895238,6.32047619 30.2895238,11.7419048 C30.2895238,15.7414286 32.1014286,19.9419048 35.6280952,19.9419048 C37.3795238,19.9419048 38.7504762,18.8009524 39.6714286,17.8357143 C39.6714286,17.0942857 39.6671429,14.7180952 39.6671429,14.3671429 L39.3314286,14.3833333 C38.677619,17.4285714 38.072381,19.417619 35.7742857,19.417619 C34.1095238,19.417619 32.8771429,17.3290476 32.8771429,11.7419048 C32.8771429,6.54761905 33.8852381,3.95714286 35.7966667,3.95714286 C38.342381,3.95714286 38.7504762,6.37666667 39.2947619,8.49571429 L39.6714286,8.48666667 L39.6714286,3.64380952 L39.2461905,3.64380952 C39.14,5.3252381 38.29,4.38333333 38.29,4.38333333 Z M123.719524,3.65142857 L123.73619,4.06809524 C124.658095,4.06809524 125.174286,4.77333333 125.174286,6.34047619 L125.174286,14.0704762 C124.367619,12.5247619 120.36381,4.99571429 119.73619,3.78 C119.687619,3.69666667 119.670952,3.65571429 119.572381,3.65571429 C119.522857,3.65571429 118.828095,3.65142857 118.086667,3.65142857 C117.399048,3.65142857 116.714286,3.65571429 116.624762,3.65571429 C116.34,3.65571429 115.604762,3.65142857 114.949048,3.65142857 L113.108095,3.65142857 L113.125238,4.06809524 C114.049048,4.06809524 114.547619,4.35142857 114.547619,5.91857143 C114.547619,6.18619048 114.550476,12.9219048 114.550476,14.6738095 C114.550476,17.502381 113.997619,19.302381 112.209524,19.302381 C110.708571,19.302381 110.098095,17.9361905 110.098095,15.6066667 L110.098095,5.27904762 C110.098095,4.33190476 110.229524,4.08380952 110.72381,4.08380952 L111.122381,4.08380952 L111.122381,3.65571429 C110.842857,3.65571429 109.819048,3.65142857 108.961905,3.65142857 C108.088571,3.65142857 106.961905,3.65571429 106.680476,3.65571429 L106.680476,4.08380952 L107.230476,4.08380952 C107.708571,4.08380952 107.857619,4.33190476 107.857619,5.27904762 L107.857619,15.5861905 C107.857619,17.8338095 109.088095,19.8990476 111.823333,19.8990476 C114.574762,19.8990476 115.139048,17.4838095 115.139048,14.6790476 C115.139048,12.5042857 115.138095,6.38571429 115.138095,5.91857143 C115.138095,4.3752381 115.622381,4.07428571 116.622857,4.07238095 C117.100476,4.07238095 117.351429,4.26761905 117.61381,4.74190476 C117.795714,5.07190476 118.053333,5.62428571 118.267619,6.03666667 L118.267619,17.23 C118.267619,18.7757143 117.727143,19.2433333 117.232381,19.2433333 C117.189524,19.2433333 116.857619,19.2285714 116.811905,19.2242857 L116.811905,19.6657143 C116.961429,19.6657143 117.803333,19.6738095 118.445238,19.6738095 L120.324762,19.6738095 L120.324762,19.2433333 L119.851429,19.2433333 C119.242381,19.2433333 118.862857,18.6266667 118.862857,17.0185714 L118.862857,7.20571429 C121.450952,12.1738095 122.687143,14.6266667 125.454762,19.9038095 L125.810952,19.8990476 C125.810952,18.9309524 125.769524,6.89666667 125.769524,6.34047619 C125.769524,4.79380952 126.359524,4.07238095 127.364286,4.07238095 L127.364286,3.65571429 C127.084286,3.65571429 126.218571,3.65142857 125.559048,3.65142857 L123.719524,3.65142857 Z M78.0271429,19.2938095 C77.4347619,19.2938095 76.9095238,19.2738095 76.58,19.2533333 C76.2666667,19.232381 76.1504762,18.6804762 76.1504762,18.3090476 C76.1504762,17.1342857 76.1561905,12.9352381 76.1561905,11.9457143 L76.7838095,11.9457143 C78.1185714,11.9457143 78.612381,13.1928571 78.677619,14.8842857 L79.007619,14.897619 C79.007619,14.5680952 79.0028571,13.2933333 79.0028571,11.8504762 C79.0028571,10.2219048 79.0419048,8.64761905 79.0419048,8.50333333 L78.6904762,8.48952381 C78.6904762,9.74761905 78.1509524,11.4042857 76.7838095,11.4042857 L76.1561905,11.4042857 C76.1561905,10.6628571 76.1409524,5.26666667 76.1409524,4.29761905 C76.1409524,4.1947619 76.1738095,4.15333333 76.3066667,4.13285714 C76.537619,4.11142857 76.7847619,4.11142857 77.2952381,4.11142857 C79.057619,4.11142857 79.7366667,5.31809524 80.7414286,7.60714286 L81.1561905,7.58285714 C80.9757143,6.53238095 80.7980952,4.98857143 80.6,3.77142857 C80.582381,3.71 80.5504762,3.66904762 80.467619,3.66904762 C79.6771429,3.73047619 77.3352381,3.70619048 75.142381,3.70619048 C74.3861905,3.70619048 73.3880952,3.71 72.7733333,3.71 C72.4914286,3.71 71.7338095,3.70714286 71.1261905,3.70714286 L69.3304762,3.70714286 L69.3304762,4.09666667 C69.3971429,4.09666667 69.8214286,4.11142857 69.8714286,4.11142857 C70.3980952,4.11142857 70.7495238,4.70761905 70.4528571,5.86190476 C69.777619,8.54142857 68.1409524,15.047619 68.1409524,15.047619 C68.1409524,15.047619 66.3280952,7.5947619 65.7514286,5.24571429 C65.537619,4.4 65.587619,4.11142857 66.0657143,4.11142857 L66.5133333,4.11142857 L66.5133333,3.6947619 C66.2333333,3.6947619 65.2057143,3.69095238 64.3490476,3.69095238 C63.492381,3.69095238 62.3457143,3.6947619 62.0657143,3.6947619 L62.0657143,3.69809524 C61.7552381,3.69714286 61.0628571,3.69380952 60.4390476,3.69380952 L58.5985714,3.69380952 L58.6152381,4.11047619 C59.5385714,4.11047619 60.0380952,4.39428571 60.0380952,5.96047619 L60.0361905,5.96047619 C60.0361905,6.22857143 60.0380952,12.9647619 60.0380952,14.7171429 C60.0380952,17.5442857 59.4866667,19.3461905 57.6971429,19.3461905 C56.1971429,19.3461905 55.5857143,17.9795238 55.5857143,15.65 L55.5857143,5.32238095 C55.5857143,4.37380952 55.7171429,4.12666667 56.2128571,4.12666667 L56.6119048,4.12666667 L56.6119048,3.69809524 C56.3319048,3.69809524 55.307619,3.69380952 54.4495238,3.69380952 C53.5761905,3.69380952 52.4495238,3.69809524 52.1685714,3.69809524 L52.1685714,4.12666667 L52.7180952,4.12666667 C53.1966667,4.12666667 53.3452381,4.37380952 53.3452381,5.32238095 L53.3452381,15.6295238 C53.3452381,17.8766667 54.5766667,19.9419048 57.3114286,19.9419048 C60.062381,19.9419048 60.6266667,17.5257143 60.6266667,14.7228571 L60.6266667,5.96047619 L60.627619,5.96047619 C60.627619,4.4147619 61.1152381,4.1147619 62.1204762,4.1147619 L62.1204762,4.11142857 L62.7195238,4.11142857 C63.1147619,4.11142857 63.247619,4.46142857 63.51,5.53380952 C64.1371429,8.06904762 66.8014286,18.8252381 67.0638095,19.9385714 L67.3714286,19.9385714 C67.652381,18.8457143 70.1885714,9.01761905 70.8966667,6.29666667 C71.3738095,4.46333333 72.0461905,4.11190476 72.7714286,4.11142857 C72.8757143,4.11142857 73.2338095,4.12666667 73.2833333,4.12666667 C73.7609524,4.12666667 73.9090476,4.37380952 73.9090476,5.32238095 L73.9090476,18.1033333 C73.9090476,19.0509524 73.7609524,19.2985714 73.2833333,19.2985714 L72.79,19.2985714 L72.79,19.7271429 L80.7357143,19.7271429 C80.8342857,19.7271429 80.8714286,19.7695238 80.8880952,19.7066667 C81.2166667,18.3871429 81.46,16.372381 81.7242857,15.2185714 L81.3028571,15.2071429 C80.2809524,17.8142857 79.5347619,19.2938095 78.0271429,19.2938095 Z M91.9495238,18.6066667 L90.4185714,15.1533333 L88.7966667,11.6628571 L89.11,11.4961905 C90.1319048,10.877619 91.0814286,9.90666667 91.0814286,7.78333333 C91.0814286,5.04238095 89.417619,3.69809524 87.6209524,3.69809524 C87.307619,3.69809524 86.05,3.69380952 84.88,3.69380952 C83.9566667,3.69380952 82.797619,3.69809524 82.5519048,3.69809524 L82.5519048,4.1147619 L83.0895238,4.1147619 C83.567619,4.1147619 83.7157143,4.36190476 83.7157143,5.31047619 L83.7157143,18.0914286 C83.7157143,19.04 83.567619,19.2661905 83.0895238,19.2661905 L82.5519048,19.2661905 L82.5519048,19.7152381 L86.8628571,19.7152381 L86.8628571,19.2661905 L86.5828571,19.2661905 C86.1057143,19.2661905 85.9561905,19.04 85.9561905,18.0914286 L85.9561905,12.1752381 C85.9561905,11.9890476 85.9895238,11.9480952 86.137619,11.9480952 C86.632381,11.9480952 86.8795238,12.2990476 87.1261905,12.8952381 C88.4942857,16.132381 89.31,18.0671429 89.5738095,18.6857143 C89.5738095,18.6857143 89.9285714,19.6604762 90.9066667,19.6871429 C91.757619,19.7114286 93.0504762,19.7152381 93.0504762,19.7152381 L93.0619048,19.2866667 C92.7652381,19.2866667 92.1642857,19.1014286 91.9495238,18.6066667 Z M86.6909524,11.4328571 C86.53,11.4328571 86.0595238,11.4619048 86.0052381,11.3919048 C86.0052381,9.4547619 86.0147619,6.27952381 86.0147619,5.00095238 C86.0147619,4.36190476 86.1804762,4.15619048 86.8061905,4.15619048 C88.0085714,4.15619048 88.7014286,5.43428571 88.7014286,7.72190476 C88.7014286,10.34 87.91,11.4328571 86.6909524,11.4328571 Z M46.1461905,3.46809524 C43.0652381,3.46809524 40.7580952,7.10380952 40.7580952,11.7419048 C40.7580952,16.3390476 43.0538095,19.9419048 46.1352381,19.9419048 C49.2166667,19.9419048 51.567619,16.3390476 51.567619,11.7009524 C51.567619,7.06190476 49.227619,3.46809524 46.1461905,3.46809524 Z M46.1461905,19.417619 C43.872381,19.417619 43.2957143,15.5142857 43.2957143,11.7419048 C43.2957143,7.92857143 43.8942857,3.95714286 46.1690476,3.95714286 C48.4428571,3.95714286 49.0295238,7.88761905 49.0295238,11.7009524 C49.0295238,15.5142857 48.4195238,19.417619 46.1461905,19.417619 Z" id="Fill-1" fill="#315E4B" mask="url(#mask-2)"></path>
        </g>
    </g>
</svg>
