<?xml version="1.0" encoding="UTF-8" standalone="no"?>
<svg width="246px" height="23px" viewBox="0 0 246 23" version="1.1" xmlns="http://www.w3.org/2000/svg" xmlns:xlink="http://www.w3.org/1999/xlink">
    <!-- Generator: Sketch 50.2 (55047) - http://www.bohemiancoding.com/sketch -->
    <title>broadsheets/branding/ottawa citizen/horizontal wordmark/coloured</title>
    <desc>Created with Sketch.</desc>
    <defs></defs>
    <g id="broadsheets/branding/ottawa-citizen/horizontal-wordmark/coloured" stroke="none" stroke-width="1" fill="none" fill-rule="evenodd">
        <g id="Page-1" fill="#78A996">
            <path d="M64.8125,14.8687 L67.4805,6.9887 L70.1455,14.8687 L64.8125,14.8687 Z M70.2085,3.7147 L67.4805,3.7147 L62.5695,18.0817 C61.7815,20.3847 59.7825,21.0507 58.9325,21.0507 L58.9325,21.8997 L65.8415,21.8997 L65.8415,21.0507 C63.9635,21.0507 63.4175,20.4447 63.4175,19.4137 C63.4175,18.9297 64.2055,16.6867 64.5085,15.7167 L70.5095,15.7167 L72.3285,21.0507 L69.6005,21.0507 L69.6005,21.8997 L79.1795,21.8997 L79.1795,21.0507 L76.4505,21.0507 L70.2085,3.7147 Z" id="Fill-1"></path>
            <path d="M84.1826,22.3247 L85.3936,22.3247 L89.8206,8.4427 L94.6676,22.3247 L95.8816,22.3247 L100.4286,7.5327 C101.1556,5.5937 101.8226,4.5627 104.0046,4.5627 L104.0046,3.7147 L97.2146,3.7147 L97.2146,4.5627 C99.0936,4.5627 99.6386,5.5937 99.6386,6.4427 C99.6386,6.6247 99.6386,6.8057 99.5776,6.9277 L96.4886,16.7467 L92.3646,4.5627 L94.9716,4.5627 L94.9716,3.7147 L85.9396,3.7147 L85.9396,4.5627 L88.3646,4.5627 L89.1526,7.1687 L86.1206,16.7467 L81.8186,4.5627 L84.1216,4.5627 L84.1216,3.7147 L75.0896,3.7147 L75.0896,4.5627 L77.6956,4.5627 L84.1826,22.3247 Z" id="Fill-3"></path>
            <path d="M48,4.563 L49.637,4.563 L49.637,21.05 L46.303,21.05 L46.303,21.9 L56.609,21.9 L56.609,21.05 L53.273,21.05 L53.273,4.563 L54.912,4.563 C56.427,4.563 56.729,4.926 59.214,10.503 L59.943,10.503 L59.943,3.714 L42.97,3.714 L42.97,10.503 L43.697,10.503 C46.184,4.926 46.484,4.563 48,4.563" id="Fill-5"></path>
            <path d="M10.9121,0.9859 C13.9431,0.9859 17.5201,2.6229 17.5201,11.3519 C17.5201,20.0819 13.9431,21.7179 10.9121,21.7179 C7.8811,21.7179 4.3061,20.0819 4.3061,11.3519 C4.3061,2.6229 7.8811,0.9859 10.9121,0.9859 M10.9121,22.6279 C16.4891,22.6279 21.8231,18.8699 21.8231,11.3519 C21.8231,3.8349 16.4891,0.0769 10.9121,0.0769 C5.3341,0.0769 0.0001,3.8349 0.0001,11.3519 C0.0001,18.8699 5.3341,22.6279 10.9121,22.6279" id="Fill-7"></path>
            <path d="M28.749,4.563 L30.385,4.563 L30.385,21.05 L27.052,21.05 L27.052,21.9 L37.356,21.9 L37.356,21.05 L34.021,21.05 L34.021,4.563 L35.658,4.563 C37.174,4.563 37.478,4.926 39.963,10.503 L40.689,10.503 L40.689,3.714 L23.716,3.714 L23.716,10.503 L24.445,10.503 C26.93,4.926 27.232,4.563 28.749,4.563" id="Fill-9"></path>
            <path d="M216.9004,21.0801 L212.3524,21.0801 L212.3524,13.2601 L213.2024,13.2601 C214.5954,13.2601 215.2614,13.0781 216.8384,17.5041 L217.5654,17.5041 L217.5654,8.1081 L216.8384,8.1081 C215.2614,12.5331 214.5954,12.3511 213.2024,12.3511 L212.3524,12.3511 L212.3524,4.5921 L217.5054,4.5921 C219.0214,4.5921 219.3244,4.9551 221.8084,10.5331 L222.5384,10.5331 L222.5384,3.7441 L205.7444,3.7441 L205.7444,4.5921 L208.5334,4.5921 L208.5334,21.0801 L205.7444,21.0801 L205.7444,21.9291 L223.0224,21.9291 L223.0224,14.8361 L222.4154,14.8361 C219.1414,20.7161 219.1414,21.0801 216.9004,21.0801" id="Fill-11"></path>
            <path d="M106.5078,14.8687 L109.1758,6.9887 L111.8428,14.8687 L106.5078,14.8687 Z M118.1478,21.0507 L111.9038,3.7147 L109.1758,3.7147 L104.2658,18.0817 C103.4788,20.3847 101.4778,21.0507 100.6278,21.0507 L100.6278,21.8997 L107.5388,21.8997 L107.5388,21.0507 C105.6588,21.0507 105.1118,20.4447 105.1118,19.4137 C105.1118,18.9297 105.9028,16.6867 106.2038,15.7167 L112.2068,15.7167 L114.0248,21.0507 L111.2978,21.0507 L111.2978,21.8997 L120.8748,21.8997 L120.8748,21.0507 L118.1478,21.0507 Z" id="Fill-13"></path>
            <path d="M188.8301,10.0484 L189.5581,10.0484 C192.0431,4.4704 192.1651,4.5914 193.6811,4.5914 L197.8021,4.5914 L188.2851,21.0194 L188.2851,21.9294 L203.6231,21.9294 L203.6231,14.9564 L203.0161,14.9564 C199.7421,20.8384 199.9251,21.0804 197.3171,21.0804 L192.8321,21.0804 L201.7421,5.8644 C202.3491,4.8344 202.8931,4.5914 203.6231,4.5914 L203.6231,3.7434 L188.8301,3.7434 L188.8301,10.0484 Z" id="Fill-15"></path>
            <path d="M237.6309,4.5918 C239.0249,4.5918 241.2059,5.5018 241.2059,8.5318 L241.2059,15.9878 L231.1439,3.7438 L224.9609,3.7438 L224.9609,4.5918 C226.5369,4.5918 227.3249,5.1978 228.5369,6.8358 L228.5369,17.1408 C228.5369,20.1698 226.3559,21.0798 224.9609,21.0798 L224.9609,21.9288 L233.2059,21.9288 L233.2059,21.0798 C231.8119,21.0798 229.6289,20.1698 229.6289,17.1408 L229.6289,7.9258 L241.1469,22.1118 L242.2989,22.1118 L242.2989,8.5318 C242.2989,5.5018 244.4799,4.5918 245.8749,4.5918 L245.8749,3.7438 L237.6309,3.7438 L237.6309,4.5918 Z" id="Fill-17"></path>
            <polygon id="Fill-19" points="176.5879 4.5918 179.4349 4.5918 179.4349 21.0798 176.5879 21.0798 176.5879 21.9288 186.2259 21.9288 186.2259 21.0798 183.3149 21.0798 183.3149 4.5918 186.2259 4.5918 186.2259 3.7438 176.5879 3.7438"></polygon>
            <path d="M135.8242,21.7466 C133.4622,21.7466 129.3992,19.9286 129.3992,11.3806 C129.3992,3.0146 133.2192,1.0146 135.7042,1.0146 C138.2492,1.0146 142.0662,1.9856 142.9182,7.7436 L143.8272,7.7436 L143.8272,0.1046 C142.4922,-0.4404 143.0392,1.3186 141.3402,1.3186 C140.9772,1.3186 140.5532,1.1976 140.0082,0.9536 C138.6142,0.3476 137.3402,0.1046 135.7632,0.1046 C130.1262,0.1046 125.0952,3.8646 125.0952,11.3806 C125.0952,18.8976 130.1872,22.6556 135.7632,22.6556 C139.0972,22.6556 143.4622,21.8066 144.0082,14.3506 L143.0392,14.3506 C142.4922,21.2626 138.0062,21.7466 135.8242,21.7466" id="Fill-21"></path>
            <polygon id="Fill-23" points="146.2344 4.5918 149.1454 4.5918 149.1454 21.0798 146.2344 21.0798 146.2344 21.9288 155.9334 21.9288 155.9334 21.0798 153.0254 21.0798 153.0254 4.5918 155.9334 4.5918 155.9334 3.7428 146.2344 3.7428"></polygon>
            <path d="M157.917,10.5313 L158.644,10.5313 C161.129,4.9543 161.433,4.5923 162.948,4.5923 L164.585,4.5923 L164.585,21.0803 L161.251,21.0803 L161.251,21.9293 L171.557,21.9293 L171.557,21.0803 L168.223,21.0803 L168.223,4.5923 L169.857,4.5923 C171.374,4.5923 171.676,4.9543 174.162,10.5333 L174.891,10.5333 L174.891,3.7433 L157.917,3.7423 L157.917,10.5313 Z" id="Fill-25"></path>
        </g>
    </g>
</svg>
