<?xml version="1.0" encoding="UTF-8" standalone="no"?>
<svg width="154px" height="20px" viewBox="0 0 154 20" version="1.1" xmlns="http://www.w3.org/2000/svg" xmlns:xlink="http://www.w3.org/1999/xlink">
    <!-- Generator: Sketch 50.2 (55047) - http://www.bohemiancoding.com/sketch -->
    <title>broadsheets/branding/calgary herald/horizontal wordmark/coloured</title>
    <desc>Created with Sketch.</desc>
    <defs></defs>
    <g id="broadsheets/branding/calgary-herald/horizontal-wordmark/coloured" stroke="none" stroke-width="1" fill="none" fill-rule="evenodd">
        <g id="CH_Wordmark_RGB-Copy" fill="#5A83AE">
            <path d="M11.9300162,17.8175566 C10.8434466,18.6480583 8.8183657,19.3576052 7.02710356,19.3576052 C2.59789644,19.3576052 0,16.0671521 0,9.70711974 C0,3.17961165 3.38389968,0 7.12702265,0 C8.85841424,0 10.5760518,0.616909385 11.7026699,1.39158576 L11.8972492,6.49797735 L11.3944175,6.49797735 L10.8106796,5.06108414 C9.76415858,2.48867314 8.63713592,0.737864078 6.94538835,0.737864078 C4.77265372,0.737864078 3.12297735,3.677589 3.12297735,9.20873786 C3.12297735,15.3754045 4.75323625,18.6561489 7.14846278,18.6561489 C8.83778317,18.6561489 9.80542071,17.1723301 11.0319579,14.2973301 L11.6156958,12.9142395 L12.1193366,12.9142395 L11.9300162,17.8175566" id="Fill-1"></path>
            <path d="M45.5121359,13.3992718 C44.7386731,13.6326861 44.6152913,14.2281553 44.6152913,15.611246 L44.6152913,15.8232201 C44.6152913,17.1209547 44.6152913,17.3122977 45.3110841,17.6751618 L45.3110841,18.0999191 C44.335356,18.6525081 42.4162621,19.0574434 40.7135922,19.0574434 C37.4927184,19.0574434 35,16.5254854 35,11.6322816 C35,6.61245955 38.0493528,4.16666667 40.9296117,4.16666667 C42.2609223,4.16666667 43.6343042,4.69579288 44.5020227,5.2920712 L44.5999191,9.12338188 L44.2115696,9.12338188 L43.762945,8.05825243 C42.9421521,6.12297735 42.1217638,4.9316343 40.7904531,4.9316343 C39.0881877,4.9316343 37.84911,7.05906149 37.84911,11.2487864 C37.84911,15.993932 39.1035599,18.2892395 40.9449838,18.2892395 C42.2762945,18.2892395 42.6015372,17.4615696 42.6015372,16.5040453 L42.6015372,16.1432039 C42.6015372,14.1015372 42.4316343,13.6747573 41.5639159,13.4186893 L41.0529935,13.2718447 L41.0529935,12.8454693 C41.3632686,12.8454693 43.0505663,12.887945 43.6076052,12.887945 C44.1654531,12.887945 45.605178,12.8454693 45.9461974,12.8454693 L45.9461974,13.2718447 L45.5121359,13.3992718" id="Fill-2"></path>
            <path d="M79.2188511,4.677589 C78.1662621,5.01699029 77.8098706,5.74110032 77.0841424,7.48543689 L74.8992718,12.7184466 L74.8992718,14.3559871 C74.8992718,17.6108414 75.0084951,17.8871359 76.0606796,18.1856796 L76.5716019,18.3349515 L76.5716019,18.7597087 C76.2779126,18.7597087 74.1872977,18.7168285 73.6302589,18.7168285 C73.072411,18.7168285 70.9822006,18.7597087 70.6877023,18.7597087 L70.6877023,18.3349515 L71.1998382,18.1856796 C72.2516181,17.8871359 72.3604369,17.6108414 72.3604369,14.3559871 L72.3604369,12.9955502 L69.4963592,6.61286408 C68.9692557,5.48543689 68.5513754,4.9538835 67.8082524,4.6986246 L67.5,4.59182848 L67.5,4.16666667 C67.7928803,4.16666667 69.5736246,4.20914239 70.1298544,4.20914239 C70.6723301,4.20914239 73.0566343,4.16666667 73.336165,4.16666667 L73.336165,4.59182848 L73.0105178,4.677589 C72.3450647,4.84708738 72.1743528,5.18891586 72.1743528,5.54854369 C72.1743528,5.86852751 72.2669903,6.14522654 72.5161812,6.76173139 L74.5283172,11.6978155 L76.2471683,7.18729773 C76.493932,6.52831715 76.6027508,6.12419094 76.6027508,5.63470874 C76.6027508,5.18891586 76.3236246,4.84708738 75.8135113,4.6986246 L75.441343,4.59182848 L75.441343,4.16666667 C75.7346278,4.16666667 77.0667476,4.20914239 77.6403722,4.20914239 C78.1982201,4.20914239 79.1877023,4.16666667 79.4826052,4.16666667 L79.4826052,4.59182848 L79.2188511,4.677589" id="Fill-3"></path>
            <path d="M95.4110032,18.6444175 C94.6852751,18.6444175 92.1294498,18.6986246 91.7471683,18.6986246 L91.7471683,18.1537217 L92.4105987,17.9635922 C93.638754,17.6092233 93.7609223,17.1994337 93.7609223,13.0558252 L93.7609223,9.62783172 L88.203479,9.62783172 L88.203479,13.0558252 C88.203479,17.1994337 88.3240291,17.6092233 89.5513754,17.9635922 L90.2164239,18.1537217 L90.2164239,18.6986246 C89.8341424,18.6986246 87.2783172,18.6444175 86.5538026,18.6444175 C85.828479,18.6444175 83.7350324,18.6986246 83.3333333,18.6986246 L83.3333333,18.1537217 L83.9971683,17.9635922 C85.0040453,17.663835 85.3830906,16.9004854 85.3830906,13.0841424 L85.3830906,5.6144822 C85.3830906,1.79773463 85.0040453,1.03600324 83.9971683,0.735436893 L83.3333333,0.544902913 L83.3333333,0 C83.7350324,0 85.828479,0.0546116505 86.5538026,0.0546116505 C87.2783172,0.0546116505 89.8341424,0 90.2164239,0 L90.2164239,0.544902913 L89.5513754,0.735436893 C88.3240291,1.09021036 88.203479,1.49959547 88.203479,5.64279935 L88.203479,8.78923948 L93.7609223,8.78923948 L93.7609223,5.64279935 C93.7609223,1.49959547 93.638754,1.09021036 92.4105987,0.735436893 L91.7471683,0.544902913 L91.7471683,0 C92.1294498,0 94.6852751,0.0546116505 95.4110032,0.0546116505 C96.1351133,0.0546116505 98.2152104,0 98.6169094,0 L98.6169094,0.544902913 L97.9546926,0.735436893 C96.9478155,1.03600324 96.572411,1.79773463 96.572411,5.6144822 L96.572411,13.0841424 C96.572411,16.9004854 96.9478155,17.663835 97.9546926,17.9635922 L98.6169094,18.1537217 L98.6169094,18.6986246 C98.2152104,18.6986246 96.1351133,18.6444175 95.4110032,18.6444175" id="Fill-4"></path>
            <path d="M108.716424,18.7382686 L107.107201,18.7382686 C106.239482,18.7382686 103.281553,18.7168285 102.724515,18.7168285 C102.184061,18.7168285 100.309871,18.7593042 100,18.7593042 L100,18.3345469 L100.510518,18.1852751 C101.285194,17.9510518 101.40979,17.355178 101.40979,14.3778317 L101.40979,8.54935275 C101.40979,5.56998382 101.285194,4.97491909 100.510518,4.74029126 L100,4.59142395 L100,4.16666667 C100.309871,4.16666667 102.338997,4.2079288 102.879045,4.2079288 C103.436084,4.2079288 106.858819,4.18729773 107.13754,4.18729773 L108.377023,4.18729773 L108.855987,7.78195793 L108.516586,7.78195793 L107.97411,6.80420712 C107.29288,5.56998382 106.627427,4.99676375 105.341828,4.99676375 L105.203479,4.99676375 C104.753641,4.99676375 104.335761,5.05906149 103.947816,5.14441748 L103.947816,10.7609223 L104.768608,10.7188511 C106.549353,10.6334951 106.797735,10.144822 106.90534,8.84587379 L106.921117,8.65453074 L107.29288,8.65453074 C107.29288,9.12216828 107.260922,10.4190939 107.260922,11.1856796 C107.260922,11.9724919 107.29288,13.3984628 107.29288,13.8446602 L106.921117,13.8446602 L106.90534,13.6541262 C106.797735,12.3567961 106.610841,11.802589 104.768608,11.6966019 L103.947816,11.6541262 L103.947816,15.3559871 C103.947816,17.5671521 104.18123,17.9720874 105.527104,17.9720874 L105.727751,17.9720874 C106.937298,17.9720874 107.555421,17.5036408 108.438511,15.9304207 L108.871359,15.1642395 L109.212783,15.1642395 L108.716424,18.7382686" id="Fill-5"></path>
            <path d="M62.0493528,11.612055 C61.8325243,11.612055 61.6622168,11.5910194 61.5542071,11.5699838 L61.5542071,4.9538835 C61.7706311,4.91019417 62.0966828,4.86812298 62.4522654,4.86812298 C63.6751618,4.86812298 64.2010518,6.12419094 64.2010518,8.10153722 C64.2010518,10.697411 63.2261327,11.612055 62.0493528,11.612055 Z M49.3644822,12.7605178 L50.9894822,6.54935275 L52.59911,12.7605178 L49.3644822,12.7605178 Z M68.7847896,18.3122977 C68.1492718,18.2046926 67.6027508,17.9182848 66.8183657,16.3814725 L64.3721683,11.6338997 C65.7649676,10.9526699 66.7868123,9.63389968 66.7868123,7.84668285 C66.7868123,5.35800971 65.1148867,4.1881068 62.6998382,4.1881068 C62.0173948,4.1881068 60.934466,4.20914239 60.3774272,4.20914239 C59.8203883,4.20914239 57.9158576,4.16666667 57.6059871,4.16666667 L57.6059871,4.59182848 L58.1165049,4.74110032 C58.8907767,4.97491909 59.0145631,5.57119741 59.0145631,8.54813916 L59.0145631,14.3774272 C59.0145631,17.3228155 58.8923948,17.9368932 58.1403722,18.1763754 C57.8001618,18.2819579 57.5558252,18.2411003 57.4348706,18.2046926 C56.7787217,17.9324434 56.4364887,17.204288 56.098301,15.9708738 L53.5578479,6.76375405 L53.5606796,6.76375405 L52.8446602,4.16666667 L50.3588188,4.16666667 L50.7022654,5.4065534 L47.8300971,15.2920712 C47.3033981,17.0999191 46.7471683,18.0149676 46.0182039,18.2694175 L45.8333333,18.3345469 L45.8333333,18.7588997 C46.1423948,18.7588997 47.2415049,18.7168285 47.7997573,18.7168285 C48.3576052,18.7168285 49.34911,18.7588997 49.6266181,18.7588997 L49.6266181,18.3345469 L49.269822,18.25 C48.5424757,18.0772654 48.3875405,17.6096278 48.3875405,17.0776699 C48.3875405,16.546521 48.5424757,15.8454693 48.7281553,15.1642395 L49.1440129,13.5331715 L52.795712,13.5400485 L53.3899676,15.802589 C53.5436893,16.3984628 53.6205502,16.8656958 53.6205502,17.1630259 C53.6205502,17.7584951 53.4045307,18.0772654 52.6618123,18.25 L52.2742718,18.3345469 L52.2742718,18.7588997 C52.5529935,18.7588997 54.612055,18.7168285 55.1690939,18.7168285 C55.5813107,18.7168285 56.7152104,18.7406958 57.4348706,18.7524272 L57.9587379,18.7528317 C58.6953883,18.7415049 59.8563916,18.7168285 60.2839806,18.7168285 C60.8410194,18.7168285 62.8082524,18.7588997 63.1027508,18.7588997 L63.1027508,18.3349515 L62.5914239,18.184466 C61.6468447,17.9089806 61.5542071,17.5902104 61.5542071,14.3559871 L61.5542071,12.1654531 C61.6468447,12.1868932 61.7548544,12.2079288 61.8632686,12.2079288 L64.2139968,16.887945 C64.8466828,18.1804207 65.8377832,18.8394013 67.1169094,18.8434466 C67.7625405,18.8414239 68.3478964,18.8001618 68.7847896,18.7168285 L68.7847896,18.3122977 Z M67.1286408,18.8442557 C67.1245955,18.8442557 67.1209547,18.8434466 67.1169094,18.8434466 C67.1007282,18.8434466 67.0857605,18.8442557 67.0695793,18.8442557 L67.1286408,18.8442557 Z" id="Fill-6"></path>
            <path d="M16.8644822,12.7605178 L18.4894822,6.54935275 L20.0995146,12.7605178 L16.8644822,12.7605178 Z M34.1456311,14.6755663 L33.5732201,15.8677184 C32.8131068,17.4401294 32.2564725,17.973301 31.1877023,17.973301 L31.0489482,17.973301 C29.7010518,17.973301 29.4692557,17.5667476 29.4692557,15.3563916 L29.4692557,8.57038835 C29.4692557,5.31593851 29.5776699,5.03843042 30.6302589,4.74110032 L31.1411812,4.59182848 L31.1411812,4.16666667 C30.8466828,4.16666667 28.7572816,4.20914239 28.1998382,4.20914239 C27.6427994,4.20914239 25.8300971,4.16666667 25.5206311,4.16666667 L25.5206311,4.59182848 L26.0315534,4.74110032 C26.8070388,4.97491909 26.9304207,5.57119741 26.9304207,8.54894822 L26.9304207,14.3774272 C26.9304207,17.1007282 26.8256472,17.8309061 26.2148058,18.1140777 C25.5683657,18.3572006 25.1035599,18.2580906 24.933657,18.2038835 C24.2783172,17.9312298 23.9364887,17.2030744 23.5987055,15.9708738 L20.3414239,4.16666667 L17.8519417,4.16666667 L18.1986246,5.41868932 L15.3300971,15.2920712 C14.8033981,17.0999191 14.2471683,18.0149676 13.5186084,18.2694175 L13.3333333,18.3345469 L13.3333333,18.7588997 C13.6423948,18.7588997 14.7415049,18.7168285 15.2997573,18.7168285 C15.8576052,18.7168285 16.8495146,18.7588997 17.1270227,18.7588997 L17.1270227,18.3345469 L16.7702265,18.25 C16.0424757,18.0772654 15.8875405,17.6096278 15.8875405,17.0776699 C15.8875405,16.546521 16.0424757,15.8454693 16.2285599,15.1642395 L16.6440129,13.5331715 L20.295712,13.5400485 L20.8899676,15.802589 C21.0436893,16.3984628 21.1209547,16.8656958 21.1209547,17.1630259 C21.1209547,17.7584951 20.9045307,18.0772654 20.1618123,18.25 L19.7742718,18.3345469 L19.7742718,18.7588997 C20.0529935,18.7588997 22.112055,18.7168285 22.6690939,18.7168285 C23.1868932,18.7168285 25.4587379,18.7584951 25.4587379,18.7584951 C26.0408576,18.7552589 27.9906958,18.7168285 28.5254854,18.7168285 C29.0821197,18.7168285 31.3268608,18.7378641 32.2099515,18.7378641 L33.8972492,18.7378641 L34.5169903,14.6755663 L34.1456311,14.6755663 Z" id="Fill-7"></path>
            <path d="M147.101537,18.7799353 C145.631472,18.7799353 145.059061,18.7168285 144.346683,18.7168285 C143.788835,18.7168285 141.962379,18.7593042 141.666667,18.7593042 L141.666667,18.3341424 L142.178398,18.1848706 C142.953479,17.9510518 143.076456,17.355178 143.076456,14.3766181 L143.076456,8.54894822 C143.076456,5.56957929 142.953479,4.97411003 142.178398,4.74029126 L141.666667,4.59061489 L141.666667,4.16666667 C141.962379,4.16666667 143.184061,4.20873786 143.741505,4.20873786 C144.346683,4.20873786 145.910599,4.16666667 146.606392,4.16666667 C150.491909,4.16666667 153.046926,6.88834951 153.046926,11.5052589 C153.046926,16.1848706 150.539239,18.7799353 147.101537,18.7799353 M146.343042,4.9316343 C146.080502,4.9316343 145.785599,4.9538835 145.615696,4.97411003 L145.615696,15.461165 C145.615696,17.3976537 145.987864,18.0570388 147.242314,18.0570388 C149.038026,18.0570388 150.197816,15.9708738 150.197816,11.6755663 C150.197816,7.27184466 149.006472,4.9316343 146.343042,4.9316343" id="Fill-8"></path>
            <path d="M123.720065,12.7475728 L125.34466,6.53640777 L126.954693,12.7475728 L123.720065,12.7475728 Z M141.001214,14.6759709 L140.428803,15.8677184 C139.668689,17.4397249 139.112055,17.973301 138.043285,17.973301 L137.904126,17.973301 C136.55623,17.973301 136.324838,17.5671521 136.324838,15.3563916 L136.324838,8.57038835 C136.324838,5.31593851 136.433252,5.03843042 137.485841,4.74110032 L137.996764,4.59142395 L137.996764,4.16666667 C137.701861,4.16666667 135.61246,4.20914239 135.055016,4.20914239 C134.497977,4.20914239 132.68568,4.16666667 132.376214,4.16666667 L132.376214,4.59142395 L132.887136,4.74110032 C133.662621,4.97451456 133.786003,5.57119741 133.786003,8.54894822 L133.786003,14.3774272 C133.786003,17.1007282 133.68123,17.8309061 133.070388,18.1144822 C132.423948,18.3572006 131.959142,18.2584951 131.788835,18.2038835 C131.133495,17.9312298 130.791667,17.203479 130.453883,15.9708738 L127.197006,4.16666667 L124.710356,4.16666667 L125.055825,5.41343042 L122.18568,15.2924757 C121.829693,16.513754 121.458738,17.3195793 121.031553,17.7977346 C120.967233,17.8580097 120.888754,17.9025081 120.833333,17.9126214 L120.833333,18.7346278 C122.126618,18.7313916 123.700243,18.7443366 123.982605,18.7532362 L123.982605,18.3349515 L123.625405,18.2504045 C122.898058,18.0776699 122.743123,17.6096278 122.743123,17.0780744 C122.743123,16.5469256 122.898058,15.8454693 123.084142,15.1642395 L123.499595,13.5335761 L127.151294,13.539644 L127.74555,15.802589 C127.899272,16.3984628 127.976133,16.8661003 127.976133,17.1634304 C127.976133,17.7588997 127.760113,18.0776699 127.017395,18.2504045 L126.629854,18.3349515 L126.629854,18.7584951 C126.908576,18.7584951 128.967638,18.7168285 129.524676,18.7168285 C130.04288,18.7168285 132.31432,18.7584951 132.31432,18.7584951 C132.89644,18.7552589 134.846278,18.7168285 135.381068,18.7168285 C135.937298,18.7168285 138.182443,18.7378641 139.065129,18.7378641 L140.752427,18.7378641 L141.372573,14.6759709 L141.001214,14.6759709 Z" id="Fill-9"></path>
            <path d="M115.276699,11.5987055 C115.06432,11.5987055 114.895227,11.579288 114.787217,11.5574434 L114.787217,4.94619741 C115.003641,4.90250809 115.329288,4.86043689 115.684871,4.86043689 C116.143204,4.86043689 116.504045,5.0368123 116.775485,5.36165049 C116.805016,5.39684466 116.831715,5.43648867 116.859223,5.47532362 C116.872573,5.4947411 116.88754,5.51173139 116.900485,5.5315534 C117.264159,6.09223301 117.430421,6.97572816 117.430421,8.0881877 C117.430421,10.683657 116.454288,11.5987055 115.276699,11.5987055 Z M121.039644,17.8952265 C120.791667,17.6703074 120.531553,17.3329288 120.239482,16.8179612 C120.170307,16.6868932 120.096683,16.5453074 120.016586,16.388754 L118.021845,12.5331715 L117.576052,11.6678803 C118.968851,10.987055 120.019822,9.63956311 120.019822,7.85194175 C120.019822,7.07200647 119.855178,6.42192557 119.555421,5.89644013 C118.899272,4.74110032 117.589401,4.18729773 115.928803,4.18729773 C115.246764,4.18729773 114.162621,4.2079288 113.605583,4.2079288 C113.049353,4.2079288 111.144013,4.16666667 110.833333,4.16666667 L110.833333,4.59061489 L111.34466,4.74029126 C112.117314,4.97491909 112.242718,5.57079288 112.242718,8.54935275 L112.242718,14.3766181 C112.242718,17.355178 112.117314,17.9510518 111.34466,18.1848706 L110.833333,18.3341424 L110.833333,18.7593042 C111.144013,18.7593042 112.956311,18.7168285 113.512136,18.7168285 C113.592233,18.7168285 113.703883,18.7176375 113.833738,18.7188511 L113.833738,18.7245146 C114.601942,18.7334142 116.083333,18.7641586 116.335761,18.7641586 L116.335761,18.3406149 L116.330502,18.3389968 L116.330502,18.3341424 L115.819984,18.1848706 C115.52589,18.0987055 115.31432,18.0084951 115.162621,17.8272654 C114.830906,17.4251618 114.787217,16.578479 114.787217,14.3616505 L114.787217,12.170712 C114.879045,12.1921521 114.98665,12.2127832 115.094256,12.2127832 C115.094256,12.2127832 117.453479,16.9308252 117.492314,16.9749191 C117.982201,17.9288026 118.675162,18.5311489 119.540049,18.7548544 C119.840615,18.7423139 120.404126,18.7366505 121.039644,18.7350324 L121.039644,17.8952265 Z" id="Fill-10"></path>
        </g>
    </g>
</svg>
