<?xml version="1.0" encoding="UTF-8" standalone="no"?>
<svg width="100px" height="100px" viewBox="0 0 100 100" version="1.1" xmlns="http://www.w3.org/2000/svg" xmlns:xlink="http://www.w3.org/1999/xlink">
    <!-- Generator: Sketch 50.2 (55047) - http://www.bohemiancoding.com/sketch -->
    <title>SP_Masthead_RGB</title>
    <desc>Created with Sketch.</desc>
    <defs></defs>
    <g id="Styles" stroke="none" stroke-width="1" fill="none" fill-rule="evenodd">
        <g id="Market-Branding" transform="translate(-61.000000, -932.000000)">
            <g id="SP_Masthead_RGB" transform="translate(61.000000, 932.000000)">
                <polygon id="Fill-1" fill="#AB4259" points="0 99.9742489 99.9424893 99.9742489 99.9424893 0.0570815451 0 0.0570815451"></polygon>
                <polyline id="Fill-3" fill="#6A1A33" points="35.9038627 50.0201717 63.4502146 94.8403433 94.7682403 94.8403433 94.7682403 5.19785408 63.4502146 5.19785408 35.9038627 50.0201717"></polyline>
                <path d="M7.36180258,73.8596567 C7.53390558,76.5948498 9.06480687,78.0729614 11.0944206,78.0729614 C12.8141631,78.0729614 13.9660944,76.9553648 13.9660944,75.4072961 C13.9660944,74.7708155 13.7257511,74.2042918 13.2270386,73.7566524 C12.5909871,73.2051502 11.6107296,73.0158798 10.2686695,72.7592275 C8.1360515,72.3459227 7.13862661,71.4858369 7.13862661,69.4223176 C7.13862661,67.22103 8.51373391,65.8446352 10.5098712,65.8446352 C12.1090129,65.8446352 13.1755365,66.7909871 13.4502146,66.8077253 C13.6922747,66.8253219 13.8463519,66.7223176 13.8463519,66.2064378 L14.0703863,66.2064378 L14.0703863,69.748927 L13.8463519,69.748927 C13.5540773,67.4094421 12.2811159,66.2064378 10.4420601,66.2064378 C8.85879828,66.2064378 7.99828326,67.1866953 7.99828326,68.527897 C7.99828326,69.4223176 8.39399142,69.9034335 8.91030043,70.1781116 C9.37467811,70.4373391 10.4583691,70.5738197 11.8506438,70.9017167 C13.9145923,71.3995708 14.8437768,72.4832618 14.8437768,74.4793991 C14.8437768,76.8523605 13.3648069,78.4175966 11.1120172,78.4175966 C9.44334764,78.4175966 8.3248927,77.5583691 7.79270386,77.5583691 C7.56781116,77.5583691 7.37854077,77.7300429 7.36180258,78.176824 L7.12103004,78.176824 L7.12103004,73.8596567 L7.36180258,73.8596567" id="Fill-4" fill="#FFFFFE"></path>
                <path d="M7.36180258,73.8596567 C7.53390558,76.5948498 9.06480687,78.0729614 11.0944206,78.0729614 C12.8141631,78.0729614 13.9660944,76.9553648 13.9660944,75.4072961 C13.9660944,74.7708155 13.7257511,74.2042918 13.2270386,73.7566524 C12.5909871,73.2051502 11.6107296,73.0158798 10.2686695,72.7592275 C8.1360515,72.3459227 7.13862661,71.4858369 7.13862661,69.4223176 C7.13862661,67.22103 8.51373391,65.8446352 10.5098712,65.8446352 C12.1090129,65.8446352 13.1755365,66.7909871 13.4502146,66.8077253 C13.6922747,66.8253219 13.8463519,66.7223176 13.8463519,66.2064378 L14.0703863,66.2064378 L14.0703863,69.748927 L13.8463519,69.748927 C13.5540773,67.4094421 12.2811159,66.2064378 10.4420601,66.2064378 C8.85879828,66.2064378 7.99828326,67.1866953 7.99828326,68.527897 C7.99828326,69.4223176 8.39399142,69.9034335 8.91030043,70.1781116 C9.37467811,70.4373391 10.4583691,70.5738197 11.8506438,70.9017167 C13.9145923,71.3995708 14.8437768,72.4832618 14.8437768,74.4793991 C14.8437768,76.8523605 13.3648069,78.4175966 11.1120172,78.4175966 C9.44334764,78.4175966 8.3248927,77.5583691 7.79270386,77.5583691 C7.56781116,77.5583691 7.37854077,77.7300429 7.36180258,78.176824 L7.12103004,78.176824 L7.12103004,73.8596567 L7.36180258,73.8596567 Z" id="Stroke-5" stroke="#FFFFFE" stroke-width="0.498"></path>
                <path d="M19.5429185,74.9437768 L18.2472103,70.7540773 L16.8334764,74.9437768 L19.5429185,74.9437768 Z M14.5939914,77.9682403 L14.7781116,77.9682403 C15.4060086,77.9682403 15.5896996,77.732618 15.772103,77.1291845 L18.6261803,68.8965665 L19.1103004,68.8965665 L22.0300429,77.9682403 L22.8150215,77.9682403 L22.8150215,78.176824 L19.4515021,78.176824 L19.4515021,77.9682403 L20.511588,77.9682403 L19.6343348,75.2313305 L16.7291845,75.2313305 L16.0090129,77.3914163 C15.8377682,77.9412017 16.139485,77.9412017 16.9381974,77.9682403 L16.9381974,78.176824 L14.5939914,78.176824 L14.5939914,77.9682403 Z" id="Fill-6" fill="#FFFFFE"></path>
                <path d="M19.5429185,74.9437768 L18.2472103,70.7540773 L16.8334764,74.9437768 L19.5429185,74.9437768 Z M14.5939914,77.9682403 L14.7781116,77.9682403 C15.4060086,77.9682403 15.5896996,77.732618 15.772103,77.1291845 L18.6261803,68.8965665 L19.1103004,68.8965665 L22.0300429,77.9682403 L22.8150215,77.9682403 L22.8150215,78.176824 L19.4515021,78.176824 L19.4515021,77.9682403 L20.511588,77.9682403 L19.6343348,75.2313305 L16.7291845,75.2313305 L16.0090129,77.3914163 C15.8377682,77.9412017 16.139485,77.9412017 16.9381974,77.9682403 L16.9381974,78.176824 L14.5939914,78.176824 L14.5939914,77.9682403 Z" id="Stroke-7" stroke="#FFFFFE" stroke-width="0.622"></path>
                <path d="M23.2892704,74.8909871 C23.4206009,76.9729614 24.5854077,78.0978541 26.1296137,78.0978541 C27.439485,78.0978541 28.3158798,77.2480687 28.3158798,76.0695279 C28.3158798,75.5849785 28.1330472,75.1523605 27.7523605,74.8128755 C27.2682403,74.3939914 26.5223176,74.2497854 25.5025751,74.0545064 C23.87897,73.7399142 23.1193133,73.0845494 23.1193133,71.5145923 C23.1193133,69.8386266 24.1669528,68.7918455 25.6849785,68.7918455 C26.9025751,68.7918455 27.7137339,69.5111588 27.9240343,69.5244635 C28.106867,69.5369099 28.2248927,69.4592275 28.2248927,69.0652361 L28.395279,69.0652361 L28.395279,71.7626609 L28.2248927,71.7626609 C28.0017167,69.9828326 27.0334764,69.0652361 25.632618,69.0652361 C24.4283262,69.0652361 23.7733906,69.8120172 23.7733906,70.8330472 C23.7733906,71.5145923 24.0746781,71.8798283 24.467382,72.0901288 C24.82103,72.2862661 25.6454936,72.3914163 26.7055794,72.6403433 C28.5630901,73.0888412 28.983691,73.7759657 28.983691,75.3618026 C28.983691,77.1690987 27.8575107,78.360515 26.1433476,78.360515 C24.8733906,78.360515 24.0223176,77.7055794 23.6167382,77.7055794 C23.4463519,77.7055794 23.3017167,77.8364807 23.2892704,78.1759657 L23.1055794,78.1759657 L23.1055794,74.8909871 L23.2892704,74.8909871" id="Fill-8" fill="#FFFFFE"></path>
                <path d="M23.2892704,74.8909871 C23.4206009,76.9729614 24.5854077,78.0978541 26.1296137,78.0978541 C27.439485,78.0978541 28.3158798,77.2480687 28.3158798,76.0695279 C28.3158798,75.5849785 28.1330472,75.1523605 27.7523605,74.8128755 C27.2682403,74.3939914 26.5223176,74.2497854 25.5025751,74.0545064 C23.87897,73.7399142 23.1193133,73.0845494 23.1193133,71.5145923 C23.1193133,69.8386266 24.1669528,68.7918455 25.6849785,68.7918455 C26.9025751,68.7918455 27.7137339,69.5111588 27.9240343,69.5244635 C28.106867,69.5369099 28.2248927,69.4592275 28.2248927,69.0652361 L28.395279,69.0652361 L28.395279,71.7626609 L28.2248927,71.7626609 C28.0017167,69.9828326 27.0334764,69.0652361 25.632618,69.0652361 C24.4283262,69.0652361 23.7733906,69.8120172 23.7733906,70.8330472 C23.7733906,71.5145923 24.0746781,71.8798283 24.467382,72.0901288 C24.82103,72.2862661 25.6454936,72.3914163 26.7055794,72.6403433 C28.5630901,73.0888412 28.983691,73.7759657 28.983691,75.3618026 C28.983691,77.1690987 27.8575107,78.360515 26.1433476,78.360515 C24.8733906,78.360515 24.0223176,77.7055794 23.6167382,77.7055794 C23.4463519,77.7055794 23.3017167,77.8364807 23.2892704,78.1759657 L23.1055794,78.1759657 L23.1055794,74.8909871 L23.2892704,74.8909871 Z" id="Stroke-9" stroke="#FFFFFE" stroke-width="0.622"></path>
                <path d="M32.9111588,77.9682403 L32.9111588,78.176824 L29.6128755,78.176824 L29.6128755,77.9682403 L30.5034335,77.9682403 L30.5034335,69.2098712 L29.6128755,69.2098712 L29.6128755,69.0004292 L32.9111588,69.0004292 L32.9111588,69.2098712 L31.9197425,69.2098712 L31.9197425,73.4575107 C31.9197425,73.4575107 33.6832618,71.5527897 34.7832618,70.3098712 C34.993133,70.0742489 35.3467811,69.6545064 35.3467811,69.4974249 C35.3467811,69.2098712 35.0188841,69.2098712 34.1935622,69.2098712 L34.1935622,69.0004292 L37.4802575,69.0004292 L37.4802575,69.2098712 C36.2107296,69.2098712 36.0927039,69.2755365 35.1107296,70.3618026 C34.3909871,71.1596567 33.3223176,72.372103 33.3223176,72.372103 L36.811588,77.9682403 L38.0171674,77.9682403 L38.0171674,78.176824 L34.2858369,78.176824 L34.2858369,77.9682403 L35.2678112,77.9682403 L32.4133047,73.2545064 L31.8699571,73.8412017 L31.8699571,77.9682403 L32.9111588,77.9682403" id="Fill-10" fill="#FFFFFE"></path>
                <path d="M32.9111588,77.9682403 L32.9111588,78.176824 L29.6128755,78.176824 L29.6128755,77.9682403 L30.5034335,77.9682403 L30.5034335,69.2098712 L29.6128755,69.2098712 L29.6128755,69.0004292 L32.9111588,69.0004292 L32.9111588,69.2098712 L31.9197425,69.2098712 L31.9197425,73.4575107 C31.9197425,73.4575107 33.6832618,71.5527897 34.7832618,70.3098712 C34.993133,70.0742489 35.3467811,69.6545064 35.3467811,69.4974249 C35.3467811,69.2098712 35.0188841,69.2098712 34.1935622,69.2098712 L34.1935622,69.0004292 L37.4802575,69.0004292 L37.4802575,69.2098712 C36.2107296,69.2098712 36.0927039,69.2755365 35.1107296,70.3618026 C34.3909871,71.1596567 33.3223176,72.372103 33.3223176,72.372103 L36.811588,77.9682403 L38.0171674,77.9682403 L38.0171674,78.176824 L34.2858369,78.176824 L34.2858369,77.9682403 L35.2678112,77.9682403 L32.4133047,73.2545064 L31.8699571,73.8412017 L31.8699571,77.9682403 L32.9111588,77.9682403 Z" id="Stroke-11" stroke="#FFFFFE" stroke-width="0.622"></path>
                <path d="M41.6596567,74.9437768 L40.3643777,70.7540773 L38.9506438,74.9437768 L41.6596567,74.9437768 Z M36.711588,77.9682403 L36.895279,77.9682403 C37.5236052,77.9682403 37.706867,77.732618 37.8896996,77.1291845 L40.7437768,68.8965665 L41.227897,68.8965665 L44.1459227,77.9682403 L44.9321888,77.9682403 L44.9321888,78.176824 L41.5682403,78.176824 L41.5682403,77.9682403 L42.627897,77.9682403 L41.7515021,75.2313305 L38.8454936,75.2313305 L38.1261803,77.3914163 C37.9545064,77.9412017 38.2562232,77.9412017 39.0549356,77.9682403 L39.0549356,78.176824 L36.711588,78.176824 L36.711588,77.9682403 Z" id="Fill-12" fill="#FFFFFE"></path>
                <path d="M41.6596567,74.9437768 L40.3643777,70.7540773 L38.9506438,74.9437768 L41.6596567,74.9437768 Z M36.711588,77.9682403 L36.895279,77.9682403 C37.5236052,77.9682403 37.706867,77.732618 37.8896996,77.1291845 L40.7437768,68.8965665 L41.227897,68.8965665 L44.1459227,77.9682403 L44.9321888,77.9682403 L44.9321888,78.176824 L41.5682403,78.176824 L41.5682403,77.9682403 L42.627897,77.9682403 L41.7515021,75.2313305 L38.8454936,75.2313305 L38.1261803,77.3914163 C37.9545064,77.9412017 38.2562232,77.9412017 39.0549356,77.9682403 L39.0549356,78.176824 L36.711588,78.176824 L36.711588,77.9682403 Z" id="Stroke-13" stroke="#FFFFFE" stroke-width="0.622"></path>
                <path d="M51.3300429,71.8012876 L51.1330472,71.8012876 C51.1330472,70.9772532 50.8463519,70.2175966 50.5579399,69.8515021 C50.2180258,69.4454936 49.7600858,69.2098712 48.6206009,69.2098712 L48.2403433,69.2098712 L48.2403433,77.9682403 L49.2742489,77.9682403 L49.2742489,78.176824 L45.7008584,78.176824 L45.7008584,77.9682403 L46.7613734,77.9682403 L46.7613734,69.2098712 L46.4081545,69.2098712 C45.2695279,69.2098712 44.7459227,69.4592275 44.4184549,69.8515021 C44.1291845,70.2175966 43.8416309,71.0300429 43.8416309,71.8012876 L43.6459227,71.8012876 L43.6459227,69.0004292 L51.3300429,69.0004292 L51.3300429,71.8012876" id="Fill-14" fill="#FFFFFE"></path>
                <path d="M51.3300429,71.8012876 L51.1330472,71.8012876 C51.1330472,70.9772532 50.8463519,70.2175966 50.5579399,69.8515021 C50.2180258,69.4454936 49.7600858,69.2098712 48.6206009,69.2098712 L48.2403433,69.2098712 L48.2403433,77.9682403 L49.2742489,77.9682403 L49.2742489,78.176824 L45.7008584,78.176824 L45.7008584,77.9682403 L46.7613734,77.9682403 L46.7613734,69.2098712 L46.4081545,69.2098712 C45.2695279,69.2098712 44.7459227,69.4592275 44.4184549,69.8515021 C44.1291845,70.2175966 43.8416309,71.0300429 43.8416309,71.8012876 L43.6459227,71.8012876 L43.6459227,69.0004292 L51.3300429,69.0004292 L51.3300429,71.8012876 Z" id="Stroke-15" stroke="#FFFFFE" stroke-width="0.622"></path>
                <path d="M56.5622318,69.0652361 C54.8982833,69.0652361 53.7339056,70.0866953 53.7339056,73.5824034 C53.7339056,77.1030043 54.8858369,78.0978541 56.5622318,78.0978541 C58.2497854,78.0978541 59.3888412,77.0905579 59.3888412,73.5824034 C59.3888412,70.0866953 58.2497854,69.0652361 56.5622318,69.0652361 M56.5622318,78.3472103 C54.4798283,78.3472103 52.1497854,76.723176 52.1497854,73.5824034 C52.1497854,70.4407725 54.4793991,68.8167382 56.5738197,68.8167382 C58.6553648,68.8167382 60.9866953,70.4270386 60.9866953,73.5824034 C60.9866953,76.723176 58.6553648,78.3472103 56.5622318,78.3472103" id="Fill-16" fill="#FFFFFE"></path>
                <path d="M56.5622318,69.0652361 C54.8982833,69.0652361 53.7339056,70.0866953 53.7339056,73.5824034 C53.7339056,77.1030043 54.8858369,78.0978541 56.5622318,78.0978541 C58.2497854,78.0978541 59.3888412,77.0905579 59.3888412,73.5824034 C59.3888412,70.0866953 58.2497854,69.0652361 56.5622318,69.0652361 Z M56.5622318,78.3472103 C54.4798283,78.3472103 52.1497854,76.723176 52.1497854,73.5824034 C52.1497854,70.4407725 54.4793991,68.8167382 56.5738197,68.8167382 C58.6553648,68.8167382 60.9866953,70.4270386 60.9866953,73.5824034 C60.9866953,76.723176 58.6553648,78.3472103 56.5622318,78.3472103 Z" id="Stroke-17" stroke="#FFFFFE" stroke-width="0.622"></path>
                <path d="M66.5038627,69.0652361 C64.8416309,69.0652361 63.6763948,70.0866953 63.6763948,73.5824034 C63.6763948,77.1030043 64.8291845,78.0978541 66.5038627,78.0978541 C68.193133,78.0978541 69.3321888,77.0905579 69.3321888,73.5824034 C69.3321888,70.0866953 68.193133,69.0652361 66.5038627,69.0652361 M66.5038627,78.3472103 C64.4223176,78.3472103 62.0922747,76.723176 62.0922747,73.5824034 C62.0922747,70.4399142 64.4223176,68.8167382 66.5171674,68.8167382 C68.5987124,68.8167382 70.9793991,70.4270386 70.9793991,73.5824034 C70.9793991,76.723176 68.5987124,78.3472103 66.5038627,78.3472103" id="Fill-18" fill="#FFFFFE"></path>
                <path d="M66.5038627,69.0652361 C64.8416309,69.0652361 63.6763948,70.0866953 63.6763948,73.5824034 C63.6763948,77.1030043 64.8291845,78.0978541 66.5038627,78.0978541 C68.193133,78.0978541 69.3321888,77.0905579 69.3321888,73.5824034 C69.3321888,70.0866953 68.193133,69.0652361 66.5038627,69.0652361 Z M66.5038627,78.3472103 C64.4223176,78.3472103 62.0922747,76.723176 62.0922747,73.5824034 C62.0922747,70.4399142 64.4223176,68.8167382 66.5171674,68.8167382 C68.5987124,68.8167382 70.9793991,70.4270386 70.9793991,73.5824034 C70.9793991,76.723176 68.5987124,78.3472103 66.5038627,78.3472103 Z" id="Stroke-19" stroke="#FFFFFE" stroke-width="0.622"></path>
                <path d="M73.688412,77.9806867 L73.688412,78.176824 L71.1493562,78.176824 L71.1493562,77.9806867 C72.07897,77.9154506 72.1703863,77.732618 72.1703863,76.8935622 L72.1703863,69.4583691 L71.9609442,69.2098712 L71.1493562,69.2098712 L71.1493562,68.9995708 L73.7030043,68.9995708 L78.0618026,75.4532189 L78.0618026,70.2695279 C78.0618026,69.3927039 77.9309013,69.2630901 76.9223176,69.2098712 L76.9223176,68.9995708 L79.448927,68.9995708 L79.448927,69.2098712 C78.5193133,69.2755365 78.3493562,69.4454936 78.3493562,70.2828326 L78.3493562,78.2412017 L78.1012876,78.2412017 L72.4587983,69.8386266 L72.4587983,76.9193133 C72.4587983,77.783691 72.6154506,77.927897 73.688412,77.9806867" id="Fill-20" fill="#FFFFFE"></path>
                <path d="M73.688412,77.9806867 L73.688412,78.176824 L71.1493562,78.176824 L71.1493562,77.9806867 C72.07897,77.9154506 72.1703863,77.732618 72.1703863,76.8935622 L72.1703863,69.4583691 L71.9609442,69.2098712 L71.1493562,69.2098712 L71.1493562,68.9995708 L73.7030043,68.9995708 L78.0618026,75.4532189 L78.0618026,70.2695279 C78.0618026,69.3927039 77.9309013,69.2630901 76.9223176,69.2098712 L76.9223176,68.9995708 L79.448927,68.9995708 L79.448927,69.2098712 C78.5193133,69.2755365 78.3493562,69.4454936 78.3493562,70.2828326 L78.3493562,78.2412017 L78.1012876,78.2412017 L72.4587983,69.8386266 L72.4587983,76.9193133 C72.4587983,77.783691 72.6154506,77.927897 73.688412,77.9806867 Z" id="Stroke-21" stroke="#FFFFFE" stroke-width="0.622"></path>
                <path d="M7.36180258,88.2008584 C7.53390558,90.9360515 9.06480687,92.4137339 11.0944206,92.4137339 C12.8141631,92.4137339 13.9660944,91.295279 13.9660944,89.7472103 C13.9660944,89.1120172 13.7257511,88.544206 13.2270386,88.0965665 C12.5909871,87.5459227 11.6107296,87.3566524 10.2686695,87.0991416 C8.1360515,86.6866953 7.13862661,85.8266094 7.13862661,83.7622318 C7.13862661,81.5609442 8.51373391,80.1845494 10.5098712,80.1845494 C12.1090129,80.1845494 13.1755365,81.1309013 13.4502146,81.1484979 C13.6922747,81.1643777 13.8463519,81.0630901 13.8463519,80.5467811 L14.0703863,80.5467811 L14.0703863,84.0888412 L13.8463519,84.0888412 C13.5540773,81.7493562 12.2811159,80.5467811 10.4420601,80.5467811 C8.85879828,80.5467811 7.99828326,81.5274678 7.99828326,82.8686695 C7.99828326,83.7622318 8.39399142,84.244206 8.91030043,84.5188841 C9.37467811,84.7772532 10.4583691,84.9145923 11.8506438,85.2416309 C13.9145923,85.7403433 14.8437768,86.8240343 14.8437768,88.8193133 C14.8437768,91.1922747 13.3648069,92.7575107 11.1120172,92.7575107 C9.44334764,92.7575107 8.3248927,91.8991416 7.79270386,91.8991416 C7.56781116,91.8991416 7.37854077,92.0708155 7.36180258,92.5175966 L7.12103004,92.5175966 L7.12103004,88.2008584 L7.36180258,88.2008584" id="Fill-22" fill="#FFFFFE"></path>
                <path d="M7.36180258,88.2008584 C7.53390558,90.9360515 9.06480687,92.4137339 11.0944206,92.4137339 C12.8141631,92.4137339 13.9660944,91.295279 13.9660944,89.7472103 C13.9660944,89.1120172 13.7257511,88.544206 13.2270386,88.0965665 C12.5909871,87.5459227 11.6107296,87.3566524 10.2686695,87.0991416 C8.1360515,86.6866953 7.13862661,85.8266094 7.13862661,83.7622318 C7.13862661,81.5609442 8.51373391,80.1845494 10.5098712,80.1845494 C12.1090129,80.1845494 13.1755365,81.1309013 13.4502146,81.1484979 C13.6922747,81.1643777 13.8463519,81.0630901 13.8463519,80.5467811 L14.0703863,80.5467811 L14.0703863,84.0888412 L13.8463519,84.0888412 C13.5540773,81.7493562 12.2811159,80.5467811 10.4420601,80.5467811 C8.85879828,80.5467811 7.99828326,81.5274678 7.99828326,82.8686695 C7.99828326,83.7622318 8.39399142,84.244206 8.91030043,84.5188841 C9.37467811,84.7772532 10.4583691,84.9145923 11.8506438,85.2416309 C13.9145923,85.7403433 14.8437768,86.8240343 14.8437768,88.8193133 C14.8437768,91.1922747 13.3648069,92.7575107 11.1120172,92.7575107 C9.44334764,92.7575107 8.3248927,91.8991416 7.79270386,91.8991416 C7.56781116,91.8991416 7.37854077,92.0708155 7.36180258,92.5175966 L7.12103004,92.5175966 L7.12103004,88.2008584 L7.36180258,88.2008584 Z" id="Stroke-23" stroke="#FFFFFE" stroke-width="0.498"></path>
                <path d="M22.9875536,86.1420601 L22.7905579,86.1420601 C22.7905579,85.3180258 22.5025751,84.5575107 22.2154506,84.1914163 C21.8742489,83.7862661 21.416309,83.5502146 20.2772532,83.5502146 L19.8974249,83.5502146 L19.8974249,92.3081545 L20.9313305,92.3081545 L20.9313305,92.5175966 L17.3583691,92.5175966 L17.3583691,92.3081545 L18.4175966,92.3081545 L18.4175966,83.5502146 L18.0648069,83.5502146 C16.9253219,83.5502146 16.4025751,83.7991416 16.0746781,84.1914163 C15.7866953,84.5575107 15.4987124,85.3708155 15.4987124,86.1420601 L15.3025751,86.1420601 L15.3025751,83.3403433 L22.9875536,83.3403433 L22.9875536,86.1420601" id="Fill-24" fill="#FFFFFE"></path>
                <path d="M22.9875536,86.1420601 L22.7905579,86.1420601 C22.7905579,85.3180258 22.5025751,84.5575107 22.2154506,84.1914163 C21.8742489,83.7862661 21.416309,83.5502146 20.2772532,83.5502146 L19.8974249,83.5502146 L19.8974249,92.3081545 L20.9313305,92.3081545 L20.9313305,92.5175966 L17.3583691,92.5175966 L17.3583691,92.3081545 L18.4175966,92.3081545 L18.4175966,83.5502146 L18.0648069,83.5502146 C16.9253219,83.5502146 16.4025751,83.7991416 16.0746781,84.1914163 C15.7866953,84.5575107 15.4987124,85.3708155 15.4987124,86.1420601 L15.3025751,86.1420601 L15.3025751,83.3403433 L22.9875536,83.3403433 L22.9875536,86.1420601 Z" id="Stroke-25" stroke="#FFFFFE" stroke-width="0.622"></path>
                <path d="M27.0592275,89.283691 L25.7639485,85.0948498 L24.3506438,89.283691 L27.0592275,89.283691 Z M22.1111588,92.3090129 L22.2948498,92.3090129 C22.9227468,92.3090129 23.106867,92.0725322 23.2892704,91.4699571 L26.1429185,83.2364807 L26.6274678,83.2364807 L29.5472103,92.3090129 L30.3317597,92.3090129 L30.3317597,92.5167382 L26.9682403,92.5167382 L26.9682403,92.3090129 L28.027897,92.3090129 L27.151073,89.572103 L24.2450644,89.572103 L23.5261803,91.7321888 C23.3540773,92.2811159 23.6562232,92.2811159 24.4549356,92.3090129 L24.4549356,92.5167382 L22.1111588,92.5167382 L22.1111588,92.3090129 Z" id="Fill-26" fill="#FFFFFE"></path>
                <path d="M27.0592275,89.283691 L25.7639485,85.0948498 L24.3506438,89.283691 L27.0592275,89.283691 Z M22.1111588,92.3090129 L22.2948498,92.3090129 C22.9227468,92.3090129 23.106867,92.0725322 23.2892704,91.4699571 L26.1429185,83.2364807 L26.6274678,83.2364807 L29.5472103,92.3090129 L30.3317597,92.3090129 L30.3317597,92.5167382 L26.9682403,92.5167382 L26.9682403,92.3090129 L28.027897,92.3090129 L27.151073,89.572103 L24.2450644,89.572103 L23.5261803,91.7321888 C23.3540773,92.2811159 23.6562232,92.2811159 24.4549356,92.3090129 L24.4549356,92.5167382 L22.1111588,92.5167382 L22.1111588,92.3090129 Z" id="Stroke-27" stroke="#FFFFFE" stroke-width="0.622"></path>
                <path d="M32.3403433,87.6347639 L32.6806867,87.6347639 C34.6570815,87.6347639 35.2725322,86.9927039 35.2725322,85.6188841 C35.2725322,84.1660944 34.7098712,83.5502146 33.1652361,83.5502146 L32.3403433,83.5502146 L32.3403433,87.6347639 Z M38.3690987,92.5133047 L36.6154506,92.5218884 C36.039485,92.5218884 35.5480687,92.4909871 35.2206009,91.8493562 C34.932618,91.2862661 34.9583691,90.4227468 34.827897,89.3759657 C34.6703863,88.1712446 34.3042918,87.8450644 32.7330472,87.8450644 L32.3403433,87.8450644 L32.3403433,92.3081545 L33.3484979,92.3081545 L33.3484979,92.5175966 L29.9583691,92.5175966 L29.9583691,92.3081545 L30.8609442,92.3081545 L30.8609442,83.5502146 L29.9583691,83.5502146 L29.9583691,83.3403433 L33.6098712,83.3403433 C35.7304721,83.3403433 36.9090129,84.1008584 36.9090129,85.5141631 C36.9090129,86.7570815 35.7437768,87.5562232 34.0424893,87.7137339 C35.6523605,87.9484979 36.4377682,88.7218884 36.5296137,90.0296137 C36.6343348,91.5622318 36.6424893,92.2317597 37.348927,92.2317597 L37.6244635,92.2403433 L38.2004292,92.2570815 L37.7287554,92.5133047 L38.3690987,92.5133047 Z" id="Fill-28" fill="#FFFFFE"></path>
                <path d="M32.3403433,87.6347639 L32.6806867,87.6347639 C34.6570815,87.6347639 35.2725322,86.9927039 35.2725322,85.6188841 C35.2725322,84.1660944 34.7098712,83.5502146 33.1652361,83.5502146 L32.3403433,83.5502146 L32.3403433,87.6347639 Z M38.3690987,92.5133047 L36.6154506,92.5218884 C36.039485,92.5218884 35.5480687,92.4909871 35.2206009,91.8493562 C34.932618,91.2862661 34.9583691,90.4227468 34.827897,89.3759657 C34.6703863,88.1712446 34.3042918,87.8450644 32.7330472,87.8450644 L32.3403433,87.8450644 L32.3403433,92.3081545 L33.3484979,92.3081545 L33.3484979,92.5175966 L29.9583691,92.5175966 L29.9583691,92.3081545 L30.8609442,92.3081545 L30.8609442,83.5502146 L29.9583691,83.5502146 L29.9583691,83.3403433 L33.6098712,83.3403433 C35.7304721,83.3403433 36.9090129,84.1008584 36.9090129,85.5141631 C36.9090129,86.7570815 35.7437768,87.5562232 34.0424893,87.7137339 C35.6523605,87.9484979 36.4377682,88.7218884 36.5296137,90.0296137 C36.6343348,91.5622318 36.6424893,92.2317597 37.348927,92.2317597 L37.6244635,92.2403433 L38.2004292,92.2570815 L37.7287554,92.5133047 L38.3690987,92.5133047 Z" id="Stroke-29" stroke="#FFFFFE" stroke-width="0.622"></path>
                <polyline id="Fill-30" fill="#FFFFFE" points="45.6218884 92.3081545 46.5124464 92.3081545 46.5124464 83.5502146 45.6218884 83.5502146 45.6218884 83.3403433 48.9206009 83.3403433 48.9206009 83.5502146 47.9914163 83.5502146 47.9914163 87.6214592 51.4991416 87.6214592 51.4991416 83.5502146 50.5695279 83.5502146 50.5695279 83.3403433 53.8690987 83.3403433 53.8690987 83.5502146 52.9785408 83.5502146 52.9785408 92.3081545 53.8690987 92.3081545 53.8690987 92.5175966 50.5695279 92.5175966 50.5695279 92.3081545 51.4991416 92.3081545 51.4991416 87.9484979 47.9914163 87.9484979 47.9914163 92.3081545 48.9206009 92.3081545 48.9206009 92.5175966 45.6218884 92.5175966 45.6218884 92.3081545"></polyline>
                <polygon id="Stroke-31" stroke="#FFFFFE" stroke-width="0.622" points="45.6218884 92.3081545 46.5124464 92.3081545 46.5124464 83.5502146 45.6218884 83.5502146 45.6218884 83.3403433 48.9206009 83.3403433 48.9206009 83.5502146 47.9914163 83.5502146 47.9914163 87.6214592 51.4991416 87.6214592 51.4991416 83.5502146 50.5695279 83.5502146 50.5695279 83.3403433 53.8690987 83.3403433 53.8690987 83.5502146 52.9785408 83.5502146 52.9785408 92.3081545 53.8690987 92.3081545 53.8690987 92.5175966 50.5695279 92.5175966 50.5695279 92.3081545 51.4991416 92.3081545 51.4991416 87.9484979 47.9914163 87.9484979 47.9914163 92.3081545 48.9206009 92.3081545 48.9206009 92.5175966 45.6218884 92.5175966"></polygon>
                <path d="M58.7450644,83.4060086 C57.0819742,83.4060086 55.9175966,84.4274678 55.9175966,87.923176 C55.9175966,91.4437768 57.0695279,92.4390558 58.7450644,92.4390558 C60.4334764,92.4390558 61.5725322,91.4313305 61.5725322,87.923176 C61.5725322,84.4274678 60.4334764,83.4060086 58.7450644,83.4060086 M58.7450644,92.6879828 C56.6635193,92.6879828 54.3334764,91.0639485 54.3334764,87.923176 C54.3334764,84.7806867 56.6635193,83.1579399 58.7575107,83.1579399 C60.8390558,83.1579399 63.1695279,84.7678112 63.1695279,87.923176 C63.1695279,91.0639485 60.8390558,92.6879828 58.7450644,92.6879828" id="Fill-32" fill="#FFFFFE"></path>
                <path d="M58.7450644,83.4060086 C57.0819742,83.4060086 55.9175966,84.4274678 55.9175966,87.923176 C55.9175966,91.4437768 57.0695279,92.4390558 58.7450644,92.4390558 C60.4334764,92.4390558 61.5725322,91.4313305 61.5725322,87.923176 C61.5725322,84.4274678 60.4334764,83.4060086 58.7450644,83.4060086 Z M58.7450644,92.6879828 C56.6635193,92.6879828 54.3334764,91.0639485 54.3334764,87.923176 C54.3334764,84.7806867 56.6635193,83.1579399 58.7575107,83.1579399 C60.8390558,83.1579399 63.1695279,84.7678112 63.1695279,87.923176 C63.1695279,91.0639485 60.8390558,92.6879828 58.7450644,92.6879828 Z" id="Stroke-33" stroke="#FFFFFE" stroke-width="0.622"></path>
                <path d="M64.5515021,83.5502146 L63.7266094,83.5502146 L63.7266094,83.3403433 L70.088412,83.3403433 L70.2583691,85.5785408 L70.048927,85.5785408 C69.8922747,83.8909871 69.2107296,83.5502146 67.3781116,83.5502146 L66.0175966,83.5502146 L66.0175966,87.7386266 L66.6321888,87.7386266 C67.8635193,87.7386266 68.4905579,87.4772532 68.4905579,86.1811159 L68.4905579,86.1158798 L68.6875536,86.1158798 L68.6875536,89.5587983 L68.4905579,89.5587983 L68.4905579,89.4545064 C68.4905579,88.1193133 67.8759657,87.9493562 66.6321888,87.9493562 L66.0175966,87.9493562 L66.0175966,92.3090129 L67.2866953,92.3090129 C69.5390558,92.3090129 70.4296137,91.7841202 70.4296137,89.8854077 L70.4296137,89.8343348 L70.6257511,89.8343348 L70.6257511,92.5167382 L63.7266094,92.5167382 L63.7266094,92.3090129 L64.5515021,92.3090129 L64.5515021,83.5502146" id="Fill-34" fill="#FFFFFE"></path>
                <path d="M64.5515021,83.5502146 L63.7266094,83.5502146 L63.7266094,83.3403433 L70.088412,83.3403433 L70.2583691,85.5785408 L70.048927,85.5785408 C69.8922747,83.8909871 69.2107296,83.5502146 67.3781116,83.5502146 L66.0175966,83.5502146 L66.0175966,87.7386266 L66.6321888,87.7386266 C67.8635193,87.7386266 68.4905579,87.4772532 68.4905579,86.1811159 L68.4905579,86.1158798 L68.6875536,86.1158798 L68.6875536,89.5587983 L68.4905579,89.5587983 L68.4905579,89.4545064 C68.4905579,88.1193133 67.8759657,87.9493562 66.6321888,87.9493562 L66.0175966,87.9493562 L66.0175966,92.3090129 L67.2866953,92.3090129 C69.5390558,92.3090129 70.4296137,91.7841202 70.4296137,89.8854077 L70.4296137,89.8343348 L70.6257511,89.8343348 L70.6257511,92.5167382 L63.7266094,92.5167382 L63.7266094,92.3090129 L64.5515021,92.3090129 L64.5515021,83.5502146 Z" id="Stroke-35" stroke="#FFFFFE" stroke-width="0.622"></path>
                <path d="M73.9493562,92.3214592 L73.9493562,92.5167382 L71.4103004,92.5167382 L71.4103004,92.3214592 C72.3399142,92.2562232 72.4313305,92.0725322 72.4313305,91.2343348 L72.4313305,83.7991416 L72.2214592,83.5502146 L71.4103004,83.5502146 L71.4103004,83.3403433 L73.9626609,83.3403433 L78.3214592,89.7939914 L78.3214592,84.6103004 C78.3214592,83.7334764 78.1909871,83.6030043 77.1824034,83.5502146 L77.1824034,83.3403433 L79.7098712,83.3403433 L79.7098712,83.5502146 C78.7793991,83.616309 78.6098712,83.7854077 78.6098712,84.623176 L78.6098712,92.5819742 L78.3609442,92.5819742 L72.7188841,84.1785408 L72.7188841,91.2600858 C72.7188841,92.1244635 72.8763948,92.2686695 73.9493562,92.3214592" id="Fill-36" fill="#FFFFFE"></path>
                <path d="M73.9493562,92.3214592 L73.9493562,92.5167382 L71.4103004,92.5167382 L71.4103004,92.3214592 C72.3399142,92.2562232 72.4313305,92.0725322 72.4313305,91.2343348 L72.4313305,83.7991416 L72.2214592,83.5502146 L71.4103004,83.5502146 L71.4103004,83.3403433 L73.9626609,83.3403433 L78.3214592,89.7939914 L78.3214592,84.6103004 C78.3214592,83.7334764 78.1909871,83.6030043 77.1824034,83.5502146 L77.1824034,83.3403433 L79.7098712,83.3403433 L79.7098712,83.5502146 C78.7793991,83.616309 78.6098712,83.7854077 78.6098712,84.623176 L78.6098712,92.5819742 L78.3609442,92.5819742 L72.7188841,84.1785408 L72.7188841,91.2600858 C72.7188841,92.1244635 72.8763948,92.2686695 73.9493562,92.3214592 Z" id="Stroke-37" stroke="#FFFFFE" stroke-width="0.622"></path>
                <path d="M83.8549356,92.3081545 C84.9682403,92.3081545 85.2570815,92.2158798 85.648927,91.5622318 L87.7828326,88.0012876 L85.3351931,83.5502146 L84.4055794,83.5502146 L84.4055794,83.3403433 L87.8090129,83.3403433 L87.8090129,83.5502146 L86.9841202,83.5502146 L88.7248927,86.7184549 L89.9038627,84.7412017 C90.6111588,83.5892704 90.3888412,83.5892704 89.3008584,83.5502146 L89.3008584,83.3403433 L91.8669528,83.3403433 L91.8669528,83.5502146 C90.9373391,83.5502146 90.7412017,83.8776824 90.3218884,84.5188841 L88.8566524,86.967382 L91.8021459,92.3081545 L92.6261803,92.3081545 L92.6261803,92.5175966 L89.144206,92.5175966 L89.144206,92.3081545 L90.1519313,92.3081545 L87.9261803,88.2626609 L86.0802575,91.3523605 C85.5055794,92.3214592 85.8459227,92.2686695 86.6965665,92.3081545 L86.6965665,92.5175966 L83.8549356,92.5175966 L83.8549356,92.3081545" id="Fill-38" fill="#FFFFFE"></path>
                <path d="M83.8549356,92.3081545 C84.9682403,92.3081545 85.2570815,92.2158798 85.648927,91.5622318 L87.7828326,88.0012876 L85.3351931,83.5502146 L84.4055794,83.5502146 L84.4055794,83.3403433 L87.8090129,83.3403433 L87.8090129,83.5502146 L86.9841202,83.5502146 L88.7248927,86.7184549 L89.9038627,84.7412017 C90.6111588,83.5892704 90.3888412,83.5892704 89.3008584,83.5502146 L89.3008584,83.3403433 L91.8669528,83.3403433 L91.8669528,83.5502146 C90.9373391,83.5502146 90.7412017,83.8776824 90.3218884,84.5188841 L88.8566524,86.967382 L91.8021459,92.3081545 L92.6261803,92.3081545 L92.6261803,92.5175966 L89.144206,92.5175966 L89.144206,92.3081545 L90.1519313,92.3081545 L87.9261803,88.2626609 L86.0802575,91.3523605 C85.5055794,92.3214592 85.8459227,92.2686695 86.6965665,92.3081545 L86.6965665,92.5175966 L83.8549356,92.5175966 L83.8549356,92.3081545 Z" id="Stroke-39" stroke="#FFFFFE" stroke-width="0.622"></path>
                <polyline id="Fill-40" fill="#FFFFFE" points="83.6871245 92.3154506 83.6871245 92.5261803 80.376824 92.5261803 80.376824 92.3154506 81.2703863 92.3154506 81.2703863 83.5266094 80.376824 83.5266094 80.376824 83.3154506 83.6871245 83.3154506 83.6871245 83.5266094 82.7540773 83.5266094 82.7540773 92.3154506 83.6871245 92.3154506"></polyline>
                <polygon id="Stroke-41" stroke="#FFFFFE" stroke-width="0.498" points="83.6871245 92.3154506 83.6871245 92.5261803 80.376824 92.5261803 80.376824 92.3154506 81.2703863 92.3154506 81.2703863 83.5266094 80.376824 83.5266094 80.376824 83.3154506 83.6871245 83.3154506 83.6871245 83.5266094 82.7540773 83.5266094 82.7540773 92.3154506"></polygon>
                <path d="M40.306867,86.7201717 C40.6858369,86.8416309 41.02103,86.8587983 41.4266094,86.8587983 C43.0360515,86.8587983 43.6527897,85.8300429 43.6527897,83.9630901 C43.6527897,81.9060086 42.9944206,80.8107296 41.0635193,80.8107296 L40.306867,80.8107296 L40.306867,86.7201717 Z M37.7467811,92.2712446 L38.7257511,92.2712446 L38.7257511,80.8107296 L37.7467811,80.8107296 L37.7467811,80.5364807 L41.5802575,80.5364807 C44.0575107,80.5364807 45.4158798,81.7008584 45.4158798,83.8266094 C45.4158798,86.1553648 43.6240343,87.1317597 41.3991416,87.1317597 C40.8819742,87.1317597 40.4609442,87.0639485 40.306867,87.0120172 L40.306867,92.2712446 L41.5669528,92.2712446 L41.5669528,92.5454936 L37.7467811,92.5454936 L37.7467811,92.2712446 Z" id="Fill-42" fill="#FFFFFE"></path>
                <path d="M40.306867,86.7201717 C40.6858369,86.8416309 41.02103,86.8587983 41.4266094,86.8587983 C43.0360515,86.8587983 43.6527897,85.8300429 43.6527897,83.9630901 C43.6527897,81.9060086 42.9944206,80.8107296 41.0635193,80.8107296 L40.306867,80.8107296 L40.306867,86.7201717 Z M37.7467811,92.2712446 L38.7257511,92.2712446 L38.7257511,80.8107296 L37.7467811,80.8107296 L37.7467811,80.5364807 L41.5802575,80.5364807 C44.0575107,80.5364807 45.4158798,81.7008584 45.4158798,83.8266094 C45.4158798,86.1553648 43.6240343,87.1317597 41.3991416,87.1317597 C40.8819742,87.1317597 40.4609442,87.0639485 40.306867,87.0120172 L40.306867,92.2712446 L41.5669528,92.2712446 L41.5669528,92.5454936 L37.7467811,92.5454936 L37.7467811,92.2712446 Z" id="Stroke-43" stroke="#FFFFFE" stroke-width="0.498"></path>
            </g>
        </g>
    </g>
</svg>
