<?xml version="1.0" encoding="UTF-8" standalone="no"?>
<svg width="41px" height="45px" viewBox="0 0 41 45" version="1.1" xmlns="http://www.w3.org/2000/svg" xmlns:xlink="http://www.w3.org/1999/xlink">
    <!-- Generator: Sketch 50.2 (55047) - http://www.bohemiancoding.com/sketch -->
    <title>Page 1</title>
    <desc>Created with Sketch.</desc>
    <defs>
        <polygon id="path-1" points="0.0003 0 40.3 0 40.3 44.9997 0.0003 44.9997"></polygon>
    </defs>
    <g id="Navigation" stroke="none" stroke-width="1" fill="none" fill-rule="evenodd">
        <g id="index-sample" transform="translate(-10.000000, -9227.000000)">
            <g id="Group-10" transform="translate(0.000000, 58.000000)">
                <g id="Page-1" transform="translate(10.000000, 9169.000000)">
                    <g id="Group-3">
                        <mask id="mask-2" fill="white">
                            <use xlink:href="#path-1"></use>
                        </mask>
                        <g id="Clip-2"></g>
                        <path d="M25.5513,25.5317 L23.4233,23.8057 C22.5343,24.6057 21.3813,25.0527 20.1663,25.0527 C17.4773,25.0527 15.2893,22.8647 15.2893,20.1767 C15.2893,17.4877 17.4773,15.3007 20.1663,15.3007 C21.4393,15.3007 22.6313,15.7837 23.5323,16.6477 L25.7133,14.9337 L26.1633,15.5187 C27.1953,16.8567 27.7403,18.4577 27.7403,20.1497 C27.7403,21.9057 27.1273,23.6177 26.0133,24.9707 L25.5513,25.5317 Z M20.1503,1.4637 C14.4833,1.4637 9.1853,3.9937 5.6153,8.4067 C2.9373,11.7157 1.4633,15.8867 1.4633,20.1497 C1.4633,24.4897 2.9853,28.7187 5.7473,32.0567 C7.9593,34.7297 10.8573,36.7297 14.1263,37.8427 L14.6223,38.0117 L14.6223,42.7917 L27.1853,37.4727 L27.6183,37.2817 C30.3303,36.0977 32.7553,34.2577 34.6323,31.9597 C37.3433,28.6387 38.8363,24.4447 38.8363,20.1497 C38.8363,15.8707 37.4283,11.8437 34.7633,8.5037 C31.1923,4.0297 25.8653,1.4637 20.1503,1.4637 Z M27.7743,38.7357 L13.1583,44.9997 L13.1583,39.0517 C9.8363,37.8237 6.8923,35.7357 4.6203,32.9897 C1.6413,29.3897 0.0003,24.8297 0.0003,20.1497 C0.0003,15.5527 1.5903,11.0547 4.4773,7.4867 C8.3263,2.7287 14.0393,-0.0003 20.1503,-0.0003 C26.3133,-0.0003 32.0563,2.7667 35.9063,7.5917 C38.7803,11.1927 40.3003,15.5357 40.3003,20.1497 C40.3003,24.7807 38.6893,29.3027 35.7653,32.8847 C34.4143,34.5387 32.7993,35.9737 31.0053,37.1247 L27.7743,38.7357 Z" id="Fill-1" fill="#FFFFFF" mask="url(#mask-2)"></path>
                    </g>
                    <path d="M23.3628,22.8149 C22.6028,23.7349 21.4528,24.3209 20.1658,24.3209 C17.8768,24.3209 16.0218,22.4649 16.0218,20.1759 C16.0218,17.8869 17.8768,16.0319 20.1658,16.0319 C21.5018,16.0319 22.6898,16.6639 23.4478,17.6449 L25.5958,15.9569 C24.3378,14.3399 22.3738,13.2989 20.1658,13.2989 C16.3678,13.2989 13.2888,16.3779 13.2888,20.1759 C13.2888,23.9749 16.3678,27.0529 20.1658,27.0529 C22.3098,27.0529 24.2238,26.0729 25.4848,24.5359 L23.3628,22.8149 Z" id="Fill-4" fill="#050707"></path>
                    <path d="M20.1499,0.7314 C14.0489,0.7314 8.6069,3.5454 5.0459,7.9464 C2.3489,11.2814 0.7319,15.5264 0.7319,20.1494 C0.7319,24.8524 2.4029,29.1634 5.1839,32.5234 L8.4669,29.8584 C6.2769,27.2264 4.9589,23.8414 4.9589,20.1494 C4.9589,16.5364 6.2219,13.2184 8.3289,10.6104 C11.1129,7.1644 15.3739,4.9594 20.1499,4.9594 C24.9729,4.9594 29.2709,7.2074 32.0529,10.7114 L35.3349,8.0474 C31.7769,3.5894 26.2969,0.7314 20.1499,0.7314" id="Fill-6" fill="#FFCC05"></path>
                    <path d="M9.2578,20.1499 C9.2578,17.5639 10.1598,15.1879 11.6658,13.3199 L8.3288,10.6099 C6.2218,13.2179 4.9588,16.5359 4.9588,20.1499 C4.9588,23.8419 6.2768,27.2259 8.4668,29.8579 L11.8048,27.1489 C10.2158,25.2559 9.2578,22.8149 9.2578,20.1499" id="Fill-8" fill="#F16622"></path>
                    <path d="M20.1499,31.0425 C16.7989,31.0425 13.8029,29.5285 11.8049,27.1485 L8.4669,29.8585 C11.2529,33.2085 15.4519,35.3405 20.1499,35.3405 C24.8949,35.3405 29.1299,33.1655 31.9159,29.7575 L28.5789,27.0485 C26.5809,29.4865 23.5469,31.0425 20.1499,31.0425" id="Fill-10" fill="#EE3C24"></path>
                    <path d="M20.1499,4.959 C15.3739,4.959 11.1129,7.164 8.3289,10.61 L11.6659,13.32 C13.6629,10.843 16.7209,9.258 20.1499,9.258 C23.6259,9.258 26.7209,10.886 28.7159,13.421 L32.0529,10.712 C29.2709,7.207 24.9729,4.959 20.1499,4.959" id="Fill-12" fill="#CB1C68"></path>
                    <path d="M31.0425,20.1499 C31.0425,22.7679 30.1185,25.1709 28.5795,27.0489 L31.9165,29.7579 C34.0565,27.1399 35.3405,23.7949 35.3405,20.1499 C35.3405,16.5839 34.1105,13.3039 32.0525,10.7119 L28.7155,13.4209 C30.1725,15.2739 31.0425,17.6099 31.0425,20.1499" id="Fill-14" fill="#EC248F"></path>
                    <path d="M20.1499,27.0088 C18.0639,27.0088 16.1949,26.0768 14.9369,24.6068 L11.8049,27.1488 C13.8029,29.5288 16.7989,31.0428 20.1499,31.0428 C23.5469,31.0428 26.5809,29.4868 28.5789,27.0488 L25.4469,24.5068 C24.1899,26.0348 22.2839,27.0088 20.1499,27.0088" id="Fill-16" fill="#0098CC"></path>
                    <path d="M27.0088,20.1499 C27.0088,21.8049 26.4228,23.3219 25.4468,24.5069 L28.5788,27.0489 C30.1178,25.1709 31.0428,22.7679 31.0428,20.1499 C31.0428,17.6099 30.1728,15.2739 28.7158,13.4209 L25.5828,15.9639 C26.4768,17.1219 27.0088,18.5739 27.0088,20.1499" id="Fill-18" fill="#0D9948"></path>
                    <path d="M20.1099,13.4126 C22.3219,13.4126 24.3289,14.3406 25.5839,15.9666 L28.7159,13.4206 C26.7209,10.8856 23.6259,9.2576 20.1499,9.2576 C16.7209,9.2576 13.6629,10.8426 11.6659,13.3196 L14.9199,15.9336 C16.1769,14.3666 17.9449,13.4126 20.1099,13.4126" id="Fill-20" fill="#50B748"></path>
                    <path d="M11.8047,27.1489 L14.9367,24.6069 C13.9107,23.4079 13.2907,21.8509 13.2907,20.1499 C13.2907,18.5269 13.9777,17.1079 14.9197,15.9339 L11.6657,13.3199 C10.1597,15.1879 9.2577,17.5639 9.2577,20.1499 C9.2577,22.8149 10.2157,25.2559 11.8047,27.1489" id="Fill-22" fill="#33C5F3"></path>
                    <path d="M35.335,8.0479 L32.053,10.7119 C34.111,13.3039 35.341,16.5839 35.341,20.1499 C35.341,23.7949 34.057,27.1399 31.916,29.7579 C29.13,33.1659 24.895,35.3409 20.15,35.3409 C15.452,35.3409 11.253,33.2079 8.467,29.8589 L5.184,32.5239 C7.45,35.2609 10.454,37.3659 13.891,38.5349 L13.891,43.8959 L27.928,37.9519 L27.911,37.9529 C30.762,36.7079 33.256,34.7999 35.198,32.4229 C37.929,29.0769 39.568,24.8049 39.568,20.1499 C39.568,15.5729 37.984,11.3669 35.335,8.0479" id="Fill-24" fill="#000000"></path>
                </g>
            </g>
        </g>
    </g>
</svg>
