<svg width="458" height="60" xmlns="http://www.w3.org/2000/svg"><g fill="none" fill-rule="evenodd"><path d="M299.102 42.419l-.684 16.443H264.7v-.83c.678 0 2.79-.678 5.96-2.264 1.454-.723 1.888-1.129 1.888-2.639V6.813c0-1.509-.434-1.914-1.887-2.639-3.171-1.586-5.583-2.264-6.266-2.264v-.83h22.188v.831c-.604 0-2.798.528-6.267 2.264-1.452.725-1.886 1.13-1.886 2.639v42.772c0 7.092.375 7.592 5.814 7.695l3.913.018c3.469.068 4.612-.43 5.209-1.828 2.485-5.885 4.598-10.865 4.823-13.051h.913v-.001zM223.05 1.912c-1.735.075-4.225 1.056-6.413 3.317-1.305 1.349-2.112 2.604-2.112 9.432V59.39h-1.662l-22.034-47.9v33.72c0 6.826.452 8.07 1.963 9.58 1.812 1.811 4.15 3.018 6.566 3.242v.83h-18.79v-.83c2.036-.146 3.923-1.131 6.413-3.318 1.406-1.238 2.113-2.604 2.113-9.428V11.793c0-3.168-.233-4.574-1.356-6.033-1.51-1.963-4.831-3.772-8.227-3.773v-.906h12.827l20.45 44.504v-30.85c0-6.827-.551-7.975-1.963-9.58-1.659-1.886-4.454-3.018-6.566-3.243v-.831h18.79v.831zm-83.519 56.951h-22.184v-.83c.68 0 3.09-.904 6.265-2.488 1.452-.727 1.887-.904 1.887-2.414V6.814c0-1.51-.435-1.914-1.887-2.641-3.174-1.585-5.586-2.262-6.265-2.262v-.83h22.184v.831c-.604 0-2.79.527-6.26 2.262-1.457.727-1.888 1.131-1.888 2.641V53.13c0 1.51.431 1.914 1.887 2.639 3.47 1.734 5.656 2.264 6.261 2.264v.83zm-26.593-42.544h-.826c-.152-2.565-2.716-9.125-4.38-12.22-.605-1.133-1.811-1.51-4.603-1.51h-3.772V53.13c0 1.51.431 1.914 1.888 2.639 3.469 1.734 5.658 2.264 6.263 2.264v.83H85.321v-.83c.681 0 3.095-.676 6.264-2.264 1.455-.725 1.887-1.129 1.887-2.639V2.59H89.7c-2.794 0-3.998.377-4.605 1.51-1.66 3.095-4.148 9.654-4.375 12.22h-.831V1.081h33.049v15.238zM37.376 5.229c-1.303 1.348-2.112 2.604-2.112 9.432V59.39h-1.66L11.57 11.49v33.72c0 6.822.45 8.064 1.962 9.58 1.811 1.811 4.15 3.018 6.565 3.242v.83H1.306v-.83c2.038-.148 3.924-1.131 6.414-3.318 1.408-1.238 2.113-2.604 2.113-9.432v-33.49c0-3.169-.234-4.574-1.358-6.034C6.967 3.796 3.646 1.986.25 1.985V1.08h12.83l20.448 44.505V14.734c0-6.829-.551-7.976-1.962-9.581C29.903 3.268 27.11 2.137 25 1.912v-.831h18.788v.831c-1.734.074-4.226 1.055-6.413 3.317zM245.75 38.646l-6.864-28.286-6.645 28.286h13.51zm16.377 20.217H241.45v-.83c.753 0 3.016-.6 6.486-2.551.763-.43 1.132-1.066 1.132-1.672 0-.602-.145-1.225-.3-1.889l-2.792-11.768H231.94l-1.885 8.6c-.328 1.504-.452 2.869-.452 3.623 0 1.281.788 2.506 2.034 3.471 2.039 1.574 3.476 2.186 4.605 2.186v.83h-17.127v-.83c1.356 0 3.755-1.293 5.882-3.318 1.513-1.434 2.262-3.34 2.871-5.807L239.862.403h2.188l12.605 51.746c.415 1.713.789 2.502 1.81 3.094 3.247 1.887 5.056 2.791 5.662 2.791v.829zm-91.683-29.116c0-13.729-1.588-28.592-9.66-28.592-8.074 0-9.506 14.41-9.506 28.891 0 14.032 1.585 28.743 9.507 28.743 7.847 0 9.659-14.184 9.659-29.042m6.713-.228c0 10.635-2.264 30.401-16.448 30.401-13.734 0-16.147-19.387-16.147-29.419 0-11.165 2.187-30.475 16.223-30.475 13.656-.001 16.372 19.16 16.372 29.493m-111.95 9.127L58.34 10.36 51.7 38.646h13.507zm16.675 20.217H60.908v-.83c.754 0 2.865-.6 6.487-2.551.772-.416 1.132-1.066 1.132-1.672 0-.602-.144-1.225-.3-1.889l-2.794-11.768H51.397l-1.885 8.6c-.329 1.504-.454 2.869-.454 3.623 0 1.281.792 2.506 2.04 3.471 2.037 1.574 3.47 2.186 4.602 2.186v.83H38.57v-.83c1.359 0 3.757-1.293 5.886-3.318 1.512-1.434 2.257-3.34 2.869-5.807L59.322.402h2.187l12.605 51.746c.413 1.713.787 2.502 1.81 3.094 3.246 1.887 5.356 2.791 5.96 2.791v.83h-.002zM420.82 46.171c0 9.656-5.813 13.805-13.129 13.805-4.527 0-7.246-2.867-8.905-5.053l-2.792 3.994h-.903l-.378-18.629h.981c.452 2.562 1.831 6.82 2.853 9.42 2.37 6.039 4.844 9.137 9.07 9.137 4.979 0 7.542-5.354 7.542-10.262 0-6.939-4.524-12.371-9.946-17.651-5.375-5.231-10.575-10.667-10.575-18.479 0-8.45 5.808-12.372 11.922-12.372 4.753 0 6.865 2.111 8.301 3.846l2.414-2.79h.753v16.596h-.833c-.224-2.038-1.715-6.341-2.642-8.825-2.032-5.432-3.845-7.694-7.847-7.694-4.3 0-6.639 3.62-6.639 9.202 0 5.96 4.63 10.788 9.634 15.766 5.61 5.579 11.12 12.068 11.12 19.989m-39.043-16.372c0-13.727-1.284-28.586-9.657-28.586-8.149 0-9.51 13.276-9.51 28.892 0 15.01 1.588 28.743 9.51 28.743 7.849-.001 9.657-13.358 9.657-29.049m6.717-.226c0 10.639-2.265 30.403-16.445 30.403-13.738 0-16.15-19.389-16.15-29.418C355.9 19.393 358.086.08 372.12.08c13.657 0 16.375 19.162 16.375 29.493m-42.687-11.991c0-10.411-3.173-14.938-11.922-14.938h-2.944v28.738h3.846c7.324 0 11.02-4.899 11.02-13.8m-9.582 15.312h-5.284v20.291c0 1.51.432 1.916 1.887 2.643 3.47 1.73 5.661 2.264 6.262 2.264v.826h-22.183v-.826c.682 0 3.088-.908 6.263-2.492 1.455-.727 1.888-.904 1.888-2.414V6.87c0-1.517-.433-1.913-1.888-2.642-3.169-1.584-5.581-2.263-6.263-2.263v-.828h19.019c9.05 0 16.143 4.979 16.143 15.464 0 10.787-7.923 16.293-15.844 16.293zm121.649-16.52h-.831c-.151-2.564-2.718-9.125-4.378-12.22-.605-1.131-1.81-1.509-4.602-1.509h-3.774v50.54c0 1.51.434 1.916 1.89 2.643 3.47 1.73 5.655 2.264 6.26 2.264v.828h-22.185v-.828c.679 0 3.092-.684 6.267-2.264 1.452-.727 1.883-1.133 1.883-2.643V2.646h-3.771c-2.791 0-3.997.378-4.605 1.509-1.661 3.095-4.149 9.655-4.373 12.22h-.832V1.137h33.05v15.237z" fill="#000"/><path d="M306.93 10.455c.326.522.358 1.206.358 1.206.132 1.511 1.273 2.06 1.273 2.06s-.639.052-.257.642c.381.59.545 1.191.545 1.191.342 1.22 1.086.853 1.086.853-.088.471-.665 1.039-1.355 1.876-.69.836-.412 1.71-.412 1.71-.445.146-.5.589-.5.589-.183 2.087 1.636-.32 1.89-.73.25-.411 1.033-.868 1.033-.868-.172.202-.488 1.349.415.902.906-.446 1.828.145 1.828.145s1.257.65 2.109.277c.852-.375 1.157-.146 1.157-.146-.302.082-1.123 1.169-1.767 2.505-.641 1.335.02 1.206.02 1.206s.085.271-.91.849c-.993.577-.755 1.742-.06 2.096.696.355 1.11.916 1.11.916-.421-.299-1.426-.309-2.046-.1-.622.207-1.768.062-2.767.159-.999.098-1.56.853-.918 1.479.641.629.953 1.105 1.02 1.589.067.486.412.591.412.591.859.447 1.213.973 1.213.973-1.021-.508-2.576-.055-3.745-.127-1.168-.07-1.153 1.537-1.153 1.537-.461-.75-1.243-1.344-1.772-1.84-.529-.494-1.857-.146-.985.826.874.975.832 1.635.832 1.635s-.301-.799-2.296-1.344c-1.992-.547-3.456-3.238-3.456-3.238-1.468.859-2.516 4.353-2.516 4.353-.578 2.02-2.485 4.729-2.757 5.014-.273.287-.986 1.197-1.225 1.965-.235.768-.778.967-.778.967-.74-.203-.267-.857-.267-.857 1.14-.643 4.034-4.578 4.668-7.242.637-2.664 2.51-4.633 2.51-4.633s-1.039.389-1.728-.229c-.688-.616-.976-.519-.976-.519s-1.274-.095-2.32-.695c-1.045-.603-2.08-.246-2.08-.246s.703-.787 1.293-.829c.591-.041.961-1.091.618-1.229-.344-.138-.883-.51-1.18-.828-.296-.319-1.267-.729-1.267-.729.427-.271.514-1.625-.6-2.68-1.114-1.056-1.372-2.176-1.372-2.176s.995.643 1.411.664c.415.021.828.241.828.241.436-.192.87-.016.87-.016.596.238 1.34-.131 1.34-.131.242-.117.477-.685.037-1.311-.44-.625-.435-1.566-.435-1.566-.021-1.008-1.034-2.147-1.034-2.147.794.642 1.435.388 1.435.388 1.298-.35.651-1.798.651-1.798.78-.086 1.529-1.396 1.68-2.233.15-.836.397-1.356.397-1.356a.696.696 0 0 0 .123.352c.567.775.606 1.026.606 1.026s.189.666.645.938c.456.272.882.881.882.881.572.886 1.03-.297 1.03-.297.187 1.949.755 2.863.755 2.863-.323.327-.304.654-.304.654-.028 1.559 1.21-.219 1.64-.722.431-.504.17-.882.17-.882.706-.479.52-2.397.52-2.397l.693.726c.368.373.926.019 1.045-.449.118-.469.401-.877.401-.877.31.707 1.73.196 1.73.196.64-.252.913-1.249.913-1.249l.047-.324z" fill="#000"/><path d="M296.772 11.965c.019.157.031.314.042.47a14.714 14.714 0 0 1-.021-.467c-.001-.004-.019-.004-.021-.003m.058.684l-.015-.215.015.215m1.855 4.86c.11.484.308.946.419 1.433.212.929.042 1.763-.027 2.694-.072.981.19 1.939.436 2.881.002.003-.023.006-.025 0-.285-.905-.677-1.92-.62-2.885.06-1.039.22-1.959-.06-2.989-.118-.43-.244-.847-.295-1.29-.05-.437-.079-.912-.282-1.312-.383-.756-.779-1.4-.91-2.254l.004.001c.093.486.25.95.49 1.387.21.379.463.734.614 1.143.14.379.168.797.256 1.191m-5.304 6.97c-.563-.789-.927-1.712-1.63-2.401-.603-.591-1.28-1.08-1.659-1.855 0-.001.004-.003.006-.002.456.881 1.308 1.385 1.978 2.082.632.656 1.092 1.449 1.692 2.133 1.151 1.311 2.76 2.354 3.574 3.931.036.072-.137.137-.182.086a41.207 41.207 0 0 0-1.938-2.006c-.646-.621-1.318-1.239-1.841-1.968m3.632 4.467c.012.009-.055.024-.072.013a6.681 6.681 0 0 1-.586-.509.13.13 0 0 1-.073.018c-.601-.045-1.048-.365-1.569-.633-.63-.323-1.731-.731-2.404-.351-.004.002-.013-.001-.013-.002.477-.312 1.165-.125 1.682-.03.783.143 1.5.496 2.215.834-.745-.772-1.344-1.683-2.062-2.486-.845-.943-1.93-1.755-2.298-3.019l.01-.001c.472 1.263 1.568 2 2.412 2.996.914 1.077 1.678 2.244 2.758 3.17" fill="#FFF"/><path d="M295.262 27.661c-.59-.362-1.2-.643-1.888-.766-.001-.001.006-.005.008-.005.726.029 1.38.284 1.96.719.027.018-.056.066-.08.052m9.113-4.226c.503-.204 1.053-.346 1.542-.592.669-.338 1.21-.847 1.813-1.289.003-.001.016-.005.013-.003-.812.671-1.48 1.335-2.46 1.721-1.229.482-2.58.763-3.744 1.489-.027.018-.122.041-.059-.004.907-.629 1.923-.927 2.895-1.322" fill="#FFF"/><path d="M301.844 23.815c-.073.079.108.114.16.081.82-.531 1.884-.696 2.804-.995.79-.253 1.596-.66 2.16-1.274 0-.001-.013-.003-.016-.001-.762.553-1.785.85-2.689 1.078-.891.226-1.764.419-2.419 1.111m6.776-2.257c.838-.417 1.955-.65 2.617-1.359l-.003.001c-.894.48-1.889.698-2.724 1.297-.077.056.067.08.11.061m2.17 3.109c.573-.151 1.137-.089 1.718-.044.046.002.14-.053.053-.067-.46-.085-.917-.156-1.375-.115.835-.49 1.66-1.024 2.417-1.621l-.007-.001c-.974.562-1.86 1.28-2.9 1.719-1.26.53.004.153.095.129m-3.231-7.578c.204-.365.507-1.051.995-1.106.004 0 .012.002.003.003-.561.088-.945 1.203-1.145 1.633-.253.548-.474 1.136-.804 1.645-.013.019-.094.016-.082-.006.392-.696.645-1.467 1.034-2.169m-2.004 4.212c-.054.031.002.037.035.021.39-.187.72-.434 1.032-.732.298-.287.699-1.001 1.104-1.125.005-.001.018-.009.006-.006-.193.042-.325.147-.456.301-.503.588-1.042 1.153-1.72 1.541m-7.998-7.912c.002-.023.008.003.007.011-.08.801.912 1.716 1.209 2.344.31.654.506 1.339.553 2.122.004.066-.052.172-.067.062-.19-1.377-.81-2.522-1.499-3.605-.18-.284-.274-.554-.204-.934m15.307 13.42c.018-.007.021.001.003.008-1.339.551-2.827.405-4.233.32-.845-.051-1.686-.17-2.531-.195-.836-.024-1.643.089-2.466.212-.107.017-.18-.104-.065-.162 1.266-.669 2.797-.447 4.162-.303.71.075 1.42.147 2.13.226 1.003.11 2.031.259 3-.106m-2.362.584c.003.001.009-.002.009-.003-.312-.108-.623-.095-.939-.046.323-.043.638-.043.93.049m-1.374.035a7.54 7.54 0 0 1 .444-.084 5.582 5.582 0 0 0-.642.123 5.31 5.31 0 0 1 .198-.039m-.197.038c-.309.071-.613.152-.897.197a9.333 9.333 0 0 1-2.046.079c-.89-.059-1.655.017-2.51.291-.681.219-1.35.481-2.063.584-.099.014-.129-.078-.04-.124a9.873 9.873 0 0 1 2.739-.967c.73-.146 1.404-.005 2.129.092.912.123 1.796.022 2.688-.152" fill="#FFF"/><path d="M297.187 21.786c-.062-.961.026-1.927-.145-2.881-.12-.681-.352-1.334-.562-1.991a24.12 24.12 0 0 0-.366-1.65c-.274-1.103-.11-2.257-.252-3.377h-.002c.106 1.074-.033 2.154-.006 3.23.02.781.546 2.869.922 4.4.026.398.026.799.024 1.199-.233-.645-.46-1.27-.461-1.277-.324-1.052-.732-2.103-.732-3.218-.001-1.174-.034-2.302-.197-3.468l-.002-.001c.049.585.11 1.169.136 1.756.024.617-.048 1.23-.054 1.848-.01.842.65 2.795 1.311 4.497-.002.227-.002.452.002.678a27.315 27.315 0 0 0-.202-.439c-.521-1.049-1.096-2.398-1.316-3.563-.25-1.32-.123-2.736-.173-4.076 0 0-.011.004-.011.006a47.185 47.185 0 0 1-.08 2.028c-.039.7-.119 1.418.018 2.111.154.784 1.04 2.735 1.772 4.2l.01.241c.008.11.021.218.035.323a9.286 9.286 0 0 0-.165-.35c-.46-.894-1.123-1.634-1.526-2.57-.36-.834-.634-1.734-.666-2.647-.03-.875.163-1.731.09-2.613 0-.003-.02-.002-.02.002.107.847-.268 1.634-.377 2.461-.112.859.191 1.77.478 2.565.343.954.878 1.745 1.432 2.585.288.435.508.895.704 1.369a6.732 6.732 0 0 0-.438-.393 25.825 25.825 0 0 1-2.089-3.682c-.458-.99-.507-2.162-1.099-3.087-.001-.002-.009 0-.009.001.484 1.013.47 2.134.826 3.184.296.862 1.11 2.156 1.736 3.093a34.25 34.25 0 0 0-.417-.301c-.599-.429-1.225-.803-1.624-1.441l-.007.003c.568 1.083 1.797 1.74 2.613 2.626.892.969 1.294 2.094 1.49 3.355-.507-1.057-1.048-2.116-1.733-3.059-.373-.514-.785-.954-1.312-1.311-.66-.449-1.417-.774-1.812-1.51l-.004.002c.228.554.631.967 1.091 1.337.615.494 1.172.944 1.689 1.541.907 1.047 1.512 2.296 2.188 3.493.031.215.061.431.096.646a.445.445 0 0 0 .005.036c-.65-1.436-1.98-3.329-2.771-4.147-.987-1.014-2.15-1.83-3.11-2.867 0-.002-.011-.001-.01-.001.89 1.128 1.95 2.162 2.942 3.201.437.458.932.855 1.368 1.314.349.366.92 1.435 1.342 2.318-.68-.991-1.697-1.807-2.468-2.665-1.382-1.539-2.98-2.859-4.349-4.404-.002-.001-.008.002-.008.002 1.265 1.458 2.785 2.67 4.001 4.173 1.103 1.362 2.34 2.553 3.14 4.114.068.328.205.56.45.544-.003.054 0 .107.003.163.015.157.21.209.323.122.09-.069.185-.135.277-.201.014.01.032.015.062.01.825-.153 1.663-.248 2.49-.389.77-.132 1.516-.394 2.295-.459.712-.059 1.422.034 2.135-.053.78-.096 1.497-.381 2.295-.387.004 0 .016-.01.015-.012-.761-.054-1.52.13-2.278.154-.775.024-1.543-.11-2.318-.066-.754.043-1.493.312-2.234.441-.688.119-1.34.216-1.978.448.596-.363 1.226-.659 1.868-.951.949-.43 1.8-.963 2.685-1.505l.104-.061c.014.013.062.02.079.016 1.124-.335 2.246-.185 3.396-.162 1.072.02 2.162.001 3.23-.123.005 0-.006-.002-.008-.002-1.308.14-2.66.133-3.971.046-.897-.061-1.81-.131-2.666.192a11.8 11.8 0 0 1 1.407-.667c.033.035.077.06.133.063 2.09.118 4.206.438 6.276-.052.032-.007.127-.097.05-.087-1.862.192-3.726-.064-5.585-.205.554-.255 1.125-.473 1.69-.707.804-.333 1.538-.786 2.292-1.217.688-.393 1.36-.803 2.013-1.254.813-.56 1.605-1.14 2.533-1.496.002-.001.009-.006.002-.004-1.554.547-2.842 1.682-4.313 2.408-.536.263-1.077.522-1.624.77.113-.068.23-.135.34-.203h-.007a16.86 16.86 0 0 1-.688.363c-.187.08-.37.161-.556.237-.617.255-1.243.479-1.851.754-.78.272-1.522.533-2.239.922.139-.101.276-.202.413-.305.131-.056.262-.109.392-.169.64-.281 1.264-.6 1.884-.921 1.175-.609 2.322-1.254 3.519-1.827 1.135-.544 2.273-1.1 3.323-1.799.005-.004-.01 0-.01.001-1.178.756-2.454 1.289-3.742 1.815-1.226.5-2.405 1.073-3.59 1.659-1.106.548-2.284.967-3.356 1.579-.323.184-.635.387-.94.601-.01 0-.016.003-.019.004l-.225.139c.055-.044.106-.091.161-.136.388-.281.77-.565 1.162-.833a19.05 19.05 0 0 1 3.46-1.901c1.225-.512 2.51-.936 3.68-1.566 1-.539 1.918-1.212 2.93-1.732l-.006-.001c-1.173.51-2.232 1.24-3.39 1.781-1.14.53-2.355.91-3.511 1.404a25.889 25.889 0 0 0-2.96 1.496 7.191 7.191 0 0 0-.195.099l.206-.126a28.591 28.591 0 0 1 2.384-1.297c.021-.01.015-.021-.005-.01-.472.215-.952.402-1.43.601.611-.343 1.225-.68 1.837-1.012 1.057-.571 2.19-.967 3.282-1.456 1.083-.484 2.11-1.081 3.186-1.578.003-.002-.01-.004-.012-.002-1.099.484-2.154 1.058-3.252 1.543-1.158.513-2.368.899-3.525 1.418-2.032.911-3.934 1.972-5.647 3.381.083-.21.169-.418.265-.622.043.03.119.039.165.013 1.697-1.019 3.484-1.854 5.12-2.98.947-.652 2-1.036 3.05-1.486.938-.402 1.83-.899 2.767-1.31.018-.008-.025-.01-.033-.006-1.001.424-1.969.925-2.975 1.34-.902.374-1.812.69-2.654 1.2-1.739 1.051-3.837 1.647-5.35 3.04.108-.232.224-.463.346-.697.354-.678.711-1.355 1.074-2.029.07-.059.144-.117.222-.172a6.75 6.75 0 0 1 .573-.357c.759-.381 1.66-.508 2.456-.778.73-.248 1.147-.773 1.686-1.29 0-.001-.008.001-.01.003-.408.333-.755.732-1.24.967-.352.172-.775.244-1.148.378-.364.131-.741.238-1.106.372.24-.127.479-.257.707-.4.652-.405 1.357-.881 1.88-1.483a8.048 8.048 0 0 0 1.078-1.27c.419-.615.766-1.252 1.282-1.796.32-.336.743-.51.947-.948a.048.048 0 0 0-.02.005c-.318.397-.887.564-1.263.917-.387.362-.69.809-.984 1.245-.321.477-.616.972-.956 1.434a5.963 5.963 0 0 1-.849.913 8.243 8.243 0 0 1-.756.446c.832-.82 1.404-1.851 2.023-2.847.759-1.22 1.233-2.587 1.73-3.93 0-.001-.016-.004-.019 0-.298.614-.686 1.177-.975 1.796a16.327 16.327 0 0 1-1.048 1.939c-.712 1.112-1.29 2.598-2.781 3.583-.317.156-.055.017-.351.166-.22.112-.45.233-.677.367.022-.042.048-.084.07-.126.458-.347.94-.657 1.37-1.042.69-.613 1.273-1.391 1.785-2.177.307-.441.59-.901.84-1.383a6.87 6.87 0 0 0 .699-2.256c.11-.803.14-1.657.54-2.381.004-.008-.046.001-.053.013-.406.626-.58 1.317-.718 2.042-.153.804-.373 1.543-.738 2.281-.539 1.076-1.12 2.104-1.844 3.043-.238.225-.49.438-.755.64.31-.44.593-.902.868-1.358.53-.874 1.061-1.772 1.524-2.684.36-.709.525-1.505.659-2.284.146-.864.02-1.845.553-2.6 0-.001-.008-.003-.01-.001-.426.54-.52 1.245-.595 1.91-.097.855-.26 1.708-.562 2.515-.328.876-.903 1.678-1.384 2.475-.493.817-1.232 1.884-1.77 2.671-.071.049.063-.186-.012-.137.055-.098.112-.195.169-.293.193-.236.38-.479.545-.743.38-.609.682-1.267 1.042-1.888a12.725 12.725 0 0 0 1.4-3.674c.256-1.209.357-2.558 1.067-3.607 0-.001-.016-.003-.02 0-.667 1.055-.936 2.24-1.27 3.43a16.771 16.771 0 0 1-1.626 3.846c-.05.086-.095.174-.142.261a21.251 21.251 0 0 0-2.303 3.344c.247-.729.512-1.45.962-2.077.609-.854 1.18-1.661 1.585-2.637.782-1.886 1.045-3.938 2.208-5.659 0-.001-.016-.002-.018.002-1.195 1.67-1.726 3.68-2.541 5.537-.436.994-1.128 1.819-1.59 2.795-.352.745-.586 1.567-.82 2.374a3.029 3.029 0 0 0-.268.3c.047-.144.084-.262.107-.342.066-.25.083-.502.072-.754.017.057.028.088.033.074.146-.362.278-.841.406-1.363.654-1.308 1.458-2.567 1.97-3.931.288-.763.472-1.551.837-2.284.354-.708.82-1.355 1.127-2.087 0-.001-.008 0-.01.002-.356.671-.782 1.297-1.17 1.949-.425.709-.653 1.49-.931 2.262-.448 1.248-1.152 2.386-1.704 3.59.27-1.172.527-2.467.855-3.241.265-.625.529-1.248.82-1.859.429-.892.86-1.875 1.672-2.474.01-.007-.005-.002-.009 0-1.07.73-1.696 2.164-2.242 3.293-.378.783-.652 1.606-.95 2.422-.059.158-.12.325-.18.496.136-.898.194-1.812.474-2.684.393-1.222 1.18-2.267 1.849-3.344h-.004c-.74 1.074-1.58 2.116-2.034 3.351-.379 1.028-.34 2.17-.49 3.259a12.63 12.63 0 0 0-.438 1.547 4.687 4.687 0 0 1-.028-.231c-.147-1.44-.148-2.999.192-4.415 0-.001-.019-.004-.02 0-.273 1.478-.458 2.901-.296 4.407.073.684.254 1.321.094 2.007-.05.216-.157.502-.288.815-.02.044-.044.087-.062.133-.003.008 0 .014-.003.021-.176.409-.378.852-.542 1.236.271-1.087.547-2.224.452-3.322-.066-.765-.196-1.504-.191-2.275a7.932 7.932 0 0 1 .322-2.104c.001-.001-.01.003-.012.006-.38 1.297-.407 2.589-.267 3.924a7.026 7.026 0 0 1-.121 2.263c-.151.717-.42 1.607-.475 2.35l-.02.077-.064.155c-.187.479-.326.97-.485 1.454.175-.84.203-1.959.37-2.79.138-.685.23-1.344.269-2.045.047-.842.168-1.673.252-2.512.04-.406.052-.81.019-1.216-.038-.491-.166-.94-.146-1.44 0-.001-.01-.001-.01.002-.153 1.555-.36 3.135-.328 4.697.019.93-.025 1.782-.196 2.701-.134.723-.173 1.415-.264 2.136-.026-.905-.087-1.808-.247-2.702-.115-.649-.346-1.269-.442-1.92l-.001-.008a5.308 5.308 0 0 0-.052-.562h-.002c.008.082.009.163.012.245a26.515 26.515 0 0 1-.16-1.657c-.089-1.317-.374-2.69-.768-3.951-.245-.784-.574-1.544-.748-2.351a11.556 11.556 0 0 1-.213-1.531c.029.451.055.904.125 1.355.11.693.378 1.356.607 2.017.472 1.365.888 2.978.794 4.435-.037.575-.042 1.164.087 1.729a8.4 8.4 0 0 0 .278.916l-.004.35c-.006.54.083 1.065.155 1.599.043.312.069.625.08.938a8.926 8.926 0 0 0-.448-1.125c-.082-.589-.178-1.176-.26-1.764-.115-.839-.142-1.682-.215-2.524-.139-1.6-.469-3.165-.892-4.71a22.213 22.213 0 0 1-.718-4.483s-.012.002-.012.005c.073 1.408.25 2.795.587 4.165.386 1.56.758 3.091.92 4.694.078.78.09 1.566.155 2.349.053.614.135 1.225.217 1.835-.036-.069-.069-.137-.107-.204a2.8 2.8 0 0 0-.109-.186c-.046-.309-.092-.616-.135-.925-.116-.839-.142-1.681-.216-2.523-.14-1.602-.476-3.162-.892-4.711-.425-1.578-.522-3.226-.621-4.849 0-.001-.012.001-.012.004.076 1.518.162 3.035.492 4.522.349 1.573.753 3.095.916 4.704.078.782.09 1.567.155 2.35.031.375.075.749.124 1.123-.085-.132-.17-.267-.26-.403a58.046 58.046 0 0 0-.338-.741 5.861 5.861 0 0 1-.093-.751l.01-.054zm6.104-1.06c-.247.532-.58.975-.908 1.447-.04.026-.08.052-.12.08a25.69 25.69 0 0 1 1.527-2.606c-.171.357-.332.718-.5 1.079zm-3.82 6.872l-.008.02c0-.021 0-.042-.002-.063.005.017.007.033.01.043zm-.308-2.258c-.086-.58-.28-1.135-.346-1.716-.013-.104-.017-.21-.023-.314.105.299.209.597.289.904.297 1.137.322 2.324.348 3.499-.031.091-.062.185-.096.274l-.03-.135-.001-.001a2.528 2.528 0 0 0-.033-.702c.05-.617-.03-1.282-.108-1.809zm-1.087 1.435c.005.056.013.109.02.165-.003.001-.003.004-.003.006-.004-.013-.01-.026-.014-.041l-.003-.13zm.639 1.372a8.254 8.254 0 0 0-.032-.275 8.344 8.344 0 0 0-.074-.492.684.684 0 0 0-.014-.036c.036.218.064.436.09.655.004.019.008.039.014.059.007.026.01.057.016.089zm.008.548c.008-.01.018-.019.024-.028-.03-.006-.021-.026-.018-.096.002-.029.002-.061.002-.092-.004.002-.01.001-.014.002.004.072.006.144.006.214z" fill="#FFF"/><path d="M307.115 31.068l-.436-.058.054.016a11.63 11.63 0 0 1 2.331.985c.087.049-.05.141-.108.129-.82-.156-1.56-.527-2.357-.754-.443-.125-.898-.177-1.347-.28-.465-.108-.902-.272-1.352-.434-.902-.325-1.812-.426-2.76-.498-.691-.052-1.402-.107-2.05-.374 0 0 .007-.006.01-.005.79.247 1.597.296 2.418.334.862.041 1.683.147 2.523.341.229.055.462.101.696.143l-.02-.006c-.893-.321-1.752-.684-2.689-.866-1.009-.195-2.023-.271-3.043-.129-.006.001-.025-.005-.02-.008a9.688 9.688 0 0 1 2.76-.177c.937.084 1.785.351 2.665.662.501.178 1.004.355 1.533.429.414.059.83.093 1.237.183.423.095.752.312 1.132.502.543.271 1.123.472 1.703.648.064.02.01.043-.03.033-.963-.24-1.863-.684-2.85-.816m-5.588-1.916c-.02-.035 0-.088.064-.095.686-.073 1.389-.148 2.09-.165a10.654 10.654 0 0 1 .685.006c.76-.028 1.572-.062 2.124-.055.415.006 1.298-.212 1.572.235 0 .001-.015.007-.018.003-.259-.337-.714-.159-1.062-.134-.363.026-.726.044-1.09.037-.27-.005-.54-.017-.81-.026.165.021.327.05.49.085.442.096.857.221 1.257.434.622.329 1.261.754 2 .633.004-.002.023.001.014.003-1.055.231-2.045-.501-3.053-.682-.932-.168-1.877-.162-2.821-.179.17.016.34.036.509.064.668.114 1.3.278 1.942.491 1.424.475 2.858.921 4.299 1.34.006.001-.017.007-.022.005-1.46-.372-2.942-.606-4.392-1.032-1.26-.369-2.557-.496-3.81-.907-.052-.018-.008-.046.032-.061" fill="#FFF"/><path d="M307.928 31.957c.006 0-.013.012-.018.012-1.366.084-2.722-.523-4.025-.856a17.072 17.072 0 0 0-2.44-.427c-.653-.067-1.335-.04-1.9-.42-.092-.062.095-.152.145-.147 1.536.176 3.128.286 4.603.795 1.203.414 2.319 1.093 3.635 1.043" fill="#FFF"/><path d="M299.29 30.242h.002c.509.582 1.227.845 1.985.897.604.041 1.177.006 1.762.202.114.037-.028.123-.082.127-1.21.073-2.883-.201-3.667-1.226" fill="#FFF"/><path d="M303.18 33.166c-.906-.363-2.463-.727-2.816-1.775a1.17 1.17 0 0 1-.414-.416c-.002-.003.012-.01.014-.007.467.518 1.16.407 1.773.563.562.143.92.535 1.316.934.087.086-.101.18-.173.148-.368-.158-.569-.467-.907-.654-.3-.168-.61-.188-.932-.287a2.964 2.964 0 0 1-.649-.264c.54 1.018 2.039 1.072 2.928 1.668.082.054-.093.109-.14.09" fill="#FFF"/><path d="M298.875 29.285c.778-.391.785-1.699 1.134-2.447 1.046-2.241 2.44-4.453 3.755-6.531" fill="#000"/><path d="M305.083 18.174h-.005c.222-.278-.062.237-.108.333a9.086 9.086 0 0 1-.404.746c-.3.493-.56 1.016-.876 1.497-.407.621-.86 1.202-1.116 1.904-.206.562-.374 1.138-.624 1.684-.498 1.09-1.425 1.902-2.008 2.944-.426.76-.557 1.762-1.297 2.275-.099.068-.515-.148-.44-.28.265-.475.582-.659.836-1.144.263-.496.519-.995.807-1.477.284-.476.659-.892 1.005-1.32.371-.461.658-.935.91-1.469.496-1.052 1.02-2.086 1.679-3.045.619-.901 1.28-1.776 1.717-2.784.001-.003.012-.001.012.002.008.038-.065.107-.088.134" fill="#000"/><path d="M311.773 23.601c.006-.002.042-.001.026.006-2.3.965-4.698 1.718-6.945 2.805-1.1.532-2.141 1.175-3.24 1.712-.598.289-1.197.575-1.776.896-.431.24-.833.545-1.297.715-.125.045-.262-.084-.16-.194.42-.456 1.018-.739 1.56-1.023a67.07 67.07 0 0 1 1.543-.767c1.099-.535 2.138-1.183 3.246-1.694 2.269-1.045 4.73-1.532 7.043-2.456m-15.458-3.169c-.001-.001.05.245.052.247.864 1.65 1.453 2.921 1.916 4.322.254.77.425 1.621.472 2.431.024.428.157 1.466-.296 1.715-.06.033-.204.329-.213.244-.034-.304.12-.923.137-1.231a7.217 7.217 0 0 0-.045-1.247 21.716 21.716 0 0 0-.379-2.099c-.3-1.355-.532-2.395-1.592-4.269l-.052-.113z" fill="#000"/><path d="M307.816 25.459c1.798-1.034 4.885-2.644 6.5-3.698l.005-.002c-1.35 1.257-4.447 2.734-5.946 3.677a.2.2 0 0 1-.057.024c1.073.143 2.236-.471 3.247-.423.27.013.276.096.551.245.017.008-.006.006-.01.004-.593-.265-1.542.267-2.098.335a4.49 4.49 0 0 1-1.762-.108c-.045-.012-.517-.011-.473-.014.008-.011.017-.027.043-.04" fill="#FFF"/></g></svg>